<?xml version="1.0" encoding="utf-8"?>
<!-- Generator: Adobe Illustrator 27.5.0, SVG Export Plug-In . SVG Version: 6.00 Build 0)  -->
<svg version="1.1" xmlns="http://www.w3.org/2000/svg" xmlns:xlink="http://www.w3.org/1999/xlink" x="0px" y="0px"
	 viewBox="0 0 500 500" style="enable-background:new 0 0 500 500;" xml:space="preserve">
<g id="Background_Simple">
	<g>
		<path style="opacity:0.7;fill:#FFFFFF;" d="M67.931,167.086c0,0-27.877,71.988,11.297,144.503
			c39.174,72.516,119.879,110.802,184.469,143.548c64.59,32.746,131.661,16.799,163.534-36.838
			c31.873-53.637-11.845-91.928-11.897-168.418c-0.051-76.49,11.447-96.742-29.963-161.364
			c-41.41-64.623-143.059-78.925-219.9-30.996C88.631,105.45,67.931,167.086,67.931,167.086z"/>
	</g>
	<g>
		<path style="fill:#92E3A9;" d="M228.253,51.32c124.035-11.047,124.245,58.934,180.132,124.129
			c55.887,65.195,67.847,94.754,46.779,169.908c-21.068,75.154-92.064,134.069-179.892,100.688s-138.14-1.325-193.537-30.967
			c-55.397-29.643-75.969-86.913-35.419-154.41S75.312,64.941,228.253,51.32z"/>
		<path style="opacity:0.7;fill:#FFFFFF;" d="M228.253,51.32c124.035-11.047,124.245,58.934,180.132,124.129
			c55.887,65.195,67.847,94.754,46.779,169.908c-21.068,75.154-92.064,134.069-179.892,100.688s-138.14-1.325-193.537-30.967
			c-55.397-29.643-75.969-86.913-35.419-154.41S75.312,64.941,228.253,51.32z"/>
	</g>
</g>
<g id="Doodles">
	<g>
		<g>
			<path style="fill:none;stroke:#263238;strokeLinecap:round;strokeLinejoin:round;stroke-miterlimit:10;" d="M262.809,86.273
				l-20.404,4.297c-2.751,0.579-5.451-1.181-6.03-3.932l-4.297-20.404c-0.579-2.751,1.181-5.451,3.932-6.03l20.404-4.297
				c2.751-0.579,5.451,1.181,6.03,3.932l4.297,20.404C267.321,82.994,265.56,85.694,262.809,86.273z"/>
			
				<line style="fill:none;stroke:#263238;strokeLinecap:round;strokeLinejoin:round;stroke-miterlimit:10;" x1="248.105" y1="67.047" x2="250.713" y2="79.43"/>
			
				<line style="fill:none;stroke:#263238;strokeLinecap:round;strokeLinejoin:round;stroke-miterlimit:10;" x1="255.601" y1="71.934" x2="243.218" y2="74.542"/>
		</g>
		<g>
			<path style="fill:none;stroke:#263238;strokeLinecap:round;strokeLinejoin:round;stroke-miterlimit:10;" d="M468.482,304.405
				l-20.404,4.297c-2.751,0.579-5.451-1.181-6.03-3.932l-4.297-20.404c-0.579-2.751,1.181-5.451,3.932-6.03l20.404-4.297
				c2.751-0.579,5.451,1.181,6.03,3.932l4.297,20.404C472.993,301.126,471.233,303.826,468.482,304.405z"/>
			
				<line style="fill:none;stroke:#263238;strokeLinecap:round;strokeLinejoin:round;stroke-miterlimit:10;" x1="458.538" y1="286.071" x2="451.626" y2="296.671"/>
			
				<line style="fill:none;stroke:#263238;strokeLinecap:round;strokeLinejoin:round;stroke-miterlimit:10;" x1="460.382" y1="294.827" x2="449.782" y2="287.915"/>
		</g>
		<g>
			<path style="fill:none;stroke:#263238;strokeLinecap:round;strokeLinejoin:round;stroke-miterlimit:10;" d="M185.474,436.736
				l-20.817-1.202c-2.807-0.162-4.951-2.569-4.788-5.375l1.202-20.817c0.162-2.807,2.569-4.951,5.375-4.788l20.817,1.202
				c2.807,0.162,4.951,2.569,4.788,5.375l-1.202,20.817C190.687,434.754,188.281,436.897,185.474,436.736z"/>
			
				<line style="fill:none;stroke:#263238;strokeLinecap:round;strokeLinejoin:round;stroke-miterlimit:10;" x1="182.276" y1="421.009" x2="169.643" y2="420.279"/>
		</g>
		<g>
			<path style="fill:none;stroke:#263238;strokeLinecap:round;strokeLinejoin:round;stroke-miterlimit:10;" d="M52.453,291.202
				l-19.794-6.557c-2.669-0.884-4.115-3.764-3.231-6.433l6.557-19.794c0.884-2.669,3.764-4.115,6.433-3.231l19.794,6.557
				c2.669,0.884,4.115,3.764,3.231,6.433l-6.557,19.794C58.002,290.639,55.122,292.086,52.453,291.202z"/>
			
				<line style="fill:none;stroke:#263238;strokeLinecap:round;strokeLinejoin:round;stroke-miterlimit:10;" x1="55.351" y1="269.218" x2="39.52" y2="277.17"/>
			<g>
				<path style="fill:none;stroke:#263238;strokeLinecap:round;strokeLinejoin:round;stroke-miterlimit:10;" d="M46.267,265.947
					c0.548,1.09,0.108,2.418-0.982,2.965c-1.09,0.548-2.418,0.108-2.965-0.982c-0.547-1.09-0.108-2.418,0.982-2.965
					C44.392,264.418,45.72,264.857,46.267,265.947z"/>
				<path style="fill:none;stroke:#263238;strokeLinecap:round;strokeLinejoin:round;stroke-miterlimit:10;" d="M52.551,278.458
					c0.548,1.09,0.108,2.418-0.982,2.965c-1.09,0.547-2.418,0.108-2.965-0.982c-0.548-1.09-0.108-2.418,0.982-2.965
					S52.004,277.368,52.551,278.458z"/>
			</g>
		</g>
	</g>
</g>
<g id="Coins">
	<g>
		<defs>
			<path id="XMLID_1_" d="M257.7,400.79c-5.78,8.37-17.26,10.46-25.63,4.68c-3.23-2.24-5.52-5.32-6.8-8.74
				c-2.01-5.45-1.43-11.76,2.12-16.9c2.48-3.58,6-6.01,9.87-7.16c5.18-1.56,10.98-0.82,15.77,2.49
				C261.4,380.94,263.49,392.42,257.7,400.79z"/>
		</defs>
		<use xlink:href="#XMLID_1_"  style="overflow:visible;fill:#92E3A9;"/>
		<clipPath id="XMLID_00000070802689008819900710000006027317093166853531_">
			<use xlink:href="#XMLID_1_"  style="overflow:visible;"/>
		</clipPath>
		<path style="opacity:0.3;clip-path:url(#XMLID_00000070802689008819900710000006027317093166853531_);fill-opacity:0.7;" d="
			M255.298,399.126c-4.869,7.042-14.524,8.803-21.566,3.935s-8.803-14.524-3.935-21.566c4.869-7.042,14.524-8.803,21.566-3.935
			C258.405,382.429,260.167,392.084,255.298,399.126z"/>
		
			<path style="clip-path:url(#XMLID_00000070802689008819900710000006027317093166853531_);fill:none;stroke:#263238;strokeLinecap:round;strokeLinejoin:round;stroke-miterlimit:10;" d="
			M255.298,399.126c-4.869,7.042-14.524,8.803-21.566,3.935s-8.803-14.524-3.935-21.566c4.869-7.042,14.524-8.803,21.566-3.935
			C258.405,382.429,260.167,392.084,255.298,399.126z"/>
		<g style="clip-path:url(#XMLID_00000070802689008819900710000006027317093166853531_);">
			<path style="fill:#92E3A9;stroke:#263238;strokeLinecap:round;strokeLinejoin:round;stroke-miterlimit:10;" d="
				M246.521,382.574l0.744-1.076l1.861,1.287l-0.744,1.076c1.385,1.446,1.355,3.259-0.004,5.223l-0.315,0.456l-2.151-1.487
				l0.415-0.6c0.715-1.035,0.573-1.713-0.151-2.213c-0.724-0.5-1.41-0.394-2.125,0.64c-0.715,1.034-0.801,2.044-0.115,4.322
				c0.832,2.777,0.687,4.357-0.457,6.012c-1.358,1.965-3.079,2.64-4.921,1.854l-0.73,1.055l-1.861-1.287l0.73-1.055
				c-1.405-1.46-1.36-3.293-0.002-5.258l0.687-0.993l2.151,1.487l-0.786,1.137c-0.715,1.035-0.518,1.721,0.206,2.221
				c0.724,0.5,1.436,0.443,2.151-0.591c0.715-1.034,0.816-2.064,0.115-4.322c-0.846-2.755-0.686-4.356,0.458-6.011
				C243.022,382.507,244.686,381.824,246.521,382.574z"/>
		</g>
		<path style="opacity:0.2;clip-path:url(#XMLID_00000070802689008819900710000006027317093166853531_);fill-opacity:0.7;" d="
			M237.41,375.38c0,9.08-4.87,17.02-12.14,21.35c-2.01-5.45-1.43-11.76,2.12-16.9c2.48-3.58,6-6.01,9.87-7.16
			C237.36,373.56,237.41,374.46,237.41,375.38z"/>
		
			<use xlink:href="#XMLID_1_"  style="overflow:visible;fill:none;stroke:#263238;strokeLinecap:round;strokeLinejoin:round;stroke-miterlimit:10;"/>
	</g>
	<g>
		
			<circle style="fill:#92E3A9;stroke:#263238;strokeLinecap:round;strokeLinejoin:round;stroke-miterlimit:10;" cx="216.24" cy="374.808" r="18.425"/>
		<circle style="opacity:0.3;fill-opacity:0.7;" cx="216.24" cy="374.808" r="15.501"/>
		
			<circle style="fill:none;stroke:#263238;strokeLinecap:round;strokeLinejoin:round;stroke-miterlimit:10;" cx="216.24" cy="374.808" r="15.501"/>
		<g>
			<path style="fill:#92E3A9;stroke:#263238;strokeLinecap:round;strokeLinejoin:round;stroke-miterlimit:10;" d="
				M215.108,366.185v-1.308h2.263v1.308c1.962,0.402,2.968,1.91,2.968,4.298v0.554h-2.615v-0.729c0-1.258-0.502-1.735-1.382-1.735
				s-1.384,0.477-1.384,1.735c0,1.257,0.504,2.137,2.363,3.62c2.264,1.81,3.043,3.193,3.043,5.205c0,2.389-1.031,3.922-2.993,4.324
				v1.283h-2.263v-1.283c-1.986-0.402-2.992-1.935-2.992-4.324v-1.207h2.615v1.383c0,1.258,0.553,1.71,1.433,1.71
				s1.433-0.452,1.433-1.71c0-1.257-0.502-2.162-2.363-3.62c-2.263-1.785-3.042-3.193-3.042-5.205
				C212.192,368.12,213.173,366.611,215.108,366.185z"/>
		</g>
	</g>
	<g>
		
			<ellipse transform="matrix(0.5395 -0.842 0.842 0.5395 -180.1927 431.2289)" style="fill:#92E3A9;stroke:#263238;strokeLinecap:round;strokeLinejoin:round;stroke-miterlimit:10;" cx="304.155" cy="380.356" rx="18.425" ry="18.425"/>
		<path style="opacity:0.3;fill-opacity:0.7;" d="M315.513,369.807c5.826,6.273,5.464,16.081-0.809,21.907
			c-6.273,5.826-16.081,5.464-21.907-0.809c-5.826-6.273-5.463-16.081,0.809-21.907
			C299.879,363.172,309.687,363.534,315.513,369.807z"/>
		<path style="fill:none;stroke:#263238;strokeLinecap:round;strokeLinejoin:round;stroke-miterlimit:10;" d="M315.513,369.807
			c5.826,6.273,5.464,16.081-0.809,21.907c-6.273,5.826-16.081,5.464-21.907-0.809c-5.826-6.273-5.463-16.081,0.809-21.907
			C299.879,363.172,309.687,363.534,315.513,369.807z"/>
		<g>
			<path style="fill:#92E3A9;stroke:#263238;strokeLinecap:round;strokeLinejoin:round;stroke-miterlimit:10;" d="
				M297.457,374.807l-0.89-0.958l1.658-1.54l0.89,0.959c1.711-1.041,3.474-0.62,5.1,1.13l0.377,0.406l-1.916,1.78l-0.496-0.534
				c-0.856-0.922-1.549-0.929-2.194-0.331c-0.645,0.599-0.689,1.291,0.167,2.213c0.855,0.921,1.823,1.223,4.195,1.044
				c2.891-0.214,4.403,0.269,5.772,1.743c1.625,1.75,1.913,3.576,0.749,5.205l0.873,0.94l-1.658,1.54l-0.873-0.94
				c-1.729,1.057-3.509,0.618-5.134-1.132l-0.822-0.885l1.916-1.78l0.941,1.013c0.856,0.922,1.569,0.877,2.213,0.278
				c0.645-0.599,0.742-1.306-0.114-2.228c-0.855-0.921-1.839-1.242-4.195-1.044c-2.873,0.232-4.402-0.27-5.771-1.744
				C296.637,378.21,296.329,376.437,297.457,374.807z"/>
		</g>
	</g>
</g>
<g id="Right_hand">
	<g>
		<path style="opacity:0.2;fill-opacity:0.7;" d="M296.566,300.254c0,0-0.076,38.236,0,40.469c0.076,2.233,2.969,15.66,2.969,15.66
			l-9.283,17.115l7.993,6.444l15.551-15.286c0,0,13.242,8.18,15.662,19.878c2.421,11.698,16.827,20.219,31.778,52.618
			c14.951,32.399,32.003-72.495,32.003-72.495l-46.127-58.076L296.566,300.254z"/>
		<g>
			<defs>
				<polygon id="XMLID_307_" points="437.59,94.81 423.46,232.69 414.77,317.51 293.33,305.07 269.7,302.65 254.57,301.1 
					267.98,170.2 277.39,78.4 				"/>
			</defs>
			<use xlink:href="#XMLID_307_"  style="overflow:visible;fill:#FFFFFF;"/>
			<clipPath id="XMLID_00000003071382523141608980000001646131607585850508_">
				<use xlink:href="#XMLID_307_"  style="overflow:visible;"/>
			</clipPath>
			<path style="clip-path:url(#XMLID_00000003071382523141608980000001646131607585850508_);fill:#263238;" d="M391.063,99.958
				l-69.153-7.086c-1.298-0.133-2.458,0.812-2.591,2.11c-0.133,1.298,0.811,2.458,2.109,2.591l69.153,7.086
				c1.298,0.133,2.458-0.812,2.591-2.11C393.306,101.251,392.361,100.091,391.063,99.958z"/>
			<path style="clip-path:url(#XMLID_00000003071382523141608980000001646131607585850508_);fill:#263238;" d="M372.785,107.846
				l-34.577-3.543c-0.649-0.066-1.229,0.406-1.296,1.055c-0.066,0.649,0.406,1.229,1.055,1.296l34.577,3.543
				c0.649,0.066,1.229-0.406,1.296-1.055C373.906,108.492,373.434,107.912,372.785,107.846z"/>
			<g style="clip-path:url(#XMLID_00000003071382523141608980000001646131607585850508_);">
				<path style="fill:#263238;" d="M410.828,209.608L298.59,198.107c-0.649-0.066-1.229,0.406-1.296,1.055
					c-0.066,0.649,0.406,1.229,1.055,1.296l112.237,11.501c0.649,0.066,1.229-0.406,1.296-1.055S411.477,209.675,410.828,209.608z"
					/>
				<path style="fill:#263238;" d="M409.961,218.059l-130.51-13.374c-0.649-0.066-1.229,0.406-1.296,1.055
					c-0.066,0.649,0.406,1.229,1.055,1.296l130.51,13.374c0.649,0.066,1.229-0.406,1.296-1.055
					C411.083,218.706,410.611,218.126,409.961,218.059z"/>
				<path style="fill:#263238;" d="M372.549,222.766l-93.964-9.629c-0.649-0.066-1.229,0.406-1.296,1.055
					c-0.066,0.649,0.406,1.229,1.055,1.296l93.964,9.629c0.649,0.066,1.229-0.406,1.296-1.055S373.198,222.832,372.549,222.766z"/>
			</g>
			
				<rect x="322.259" y="181.503" transform="matrix(0.1019 -0.9948 0.9948 0.1019 59.8897 561.6028)" style="clip-path:url(#XMLID_00000003071382523141608980000001646131607585850508_);fill:#BFBFBF;stroke:#263238;stroke-miterlimit:10;" width="37.464" height="132.257"/>
			<g style="clip-path:url(#XMLID_00000003071382523141608980000001646131607585850508_);">
				<g>
					<g>
						<defs>
							
								<ellipse id="XMLID_310_" transform="matrix(0.7683 -0.6401 0.6401 0.7683 -26.4331 240.2797)" cx="318.702" cy="156.654" rx="29.294" ry="29.294"/>
						</defs>
						<use xlink:href="#XMLID_310_"  style="overflow:visible;fill:#92E3A9;"/>
						<clipPath id="XMLID_00000144316436094029967690000014254536470916264374_">
							<use xlink:href="#XMLID_310_"  style="overflow:visible;"/>
						</clipPath>
						
							<ellipse transform="matrix(0.7683 -0.6401 0.6401 0.7683 -26.4331 240.2797)" style="opacity:0.5;clip-path:url(#XMLID_00000144316436094029967690000014254536470916264374_);fill:#FFFFFF;" cx="318.702" cy="156.654" rx="29.294" ry="29.294"/>
						<use xlink:href="#XMLID_310_"  style="overflow:visible;fill:none;stroke:#263238;stroke-miterlimit:10;"/>
					</g>
					<g>
						<path style="fill:#FFFFFF;" d="M319.543,156.557l24.36,12.256c1.376-2.85,2.29-5.983,2.631-9.313
							c0.771-7.521-1.519-14.647-5.853-20.152L319.543,156.557z"/>
						<path style="fill:#92E3A9;" d="M319.704,155.241l20.396-16.605c-3.006-3.572-6.901-6.398-11.392-8.115l-3.679,10.101
							L319.704,155.241z"/>
						<path style="fill:#757575;" d="M322.011,128.876l-2.474,24.142l8.307-22.808C325.987,129.569,324.037,129.116,322.011,128.876
							z"/>
						<path style="fill:#999999;" d="M318.273,156.34l2.824-27.558c-15.184-1.308-28.666,9.797-30.225,25.015
							c-0.508,4.956,0.317,9.738,2.174,14.002L318.273,156.34z"/>
						<path style="fill:#BFBFBF;" d="M315.851,184.48c11.718,1.201,22.479-5.018,27.634-14.849l-24.792-12.473l-25.273,11.479
							C297.477,177.173,305.762,183.446,315.851,184.48z"/>
					</g>
				</g>
				<g>
					<g>
						<path style="fill:#92E3A9;stroke:#263238;stroke-miterlimit:10;" d="M365.233,142.219l-3.341-0.342
							c-0.344-0.035-0.595-0.343-0.559-0.687l0.342-3.34c0.035-0.344,0.343-0.594,0.687-0.559l3.34,0.342
							c0.344,0.035,0.595,0.343,0.559,0.687l-0.342,3.34C365.884,142.004,365.577,142.255,365.233,142.219z"/>
						<g>
							<g>
								<path style="fill:#263238;" d="M412.128,144.081l-43.055-4.412c-0.291-0.03-0.503-0.29-0.473-0.581
									c0.03-0.291,0.29-0.503,0.581-0.473l43.055,4.412c0.291,0.03,0.503,0.29,0.473,0.581
									C412.679,143.9,412.419,144.111,412.128,144.081z"/>
							</g>
							<g>
								<path style="fill:#263238;" d="M407.677,145.943l-38.839-3.98c-0.291-0.03-0.503-0.29-0.473-0.581
									c0.03-0.291,0.29-0.503,0.581-0.473l38.839,3.98c0.291,0.03,0.503,0.29,0.473,0.581
									C408.228,145.761,407.968,145.972,407.677,145.943z"/>
							</g>
						</g>
					</g>
					<g>
						<path style="fill:#757575;stroke:#263238;strokeLinecap:round;strokeLinejoin:round;stroke-miterlimit:10;" d="
							M364.18,152.492l-3.341-0.342c-0.344-0.035-0.595-0.343-0.559-0.687l0.342-3.341c0.035-0.344,0.343-0.594,0.687-0.559
							l3.341,0.342c0.344,0.035,0.594,0.343,0.559,0.687l-0.342,3.34C364.832,152.277,364.524,152.527,364.18,152.492z"/>
						<g>
							<g>
								<path style="fill:#263238;" d="M411.076,154.354l-43.055-4.412c-0.291-0.03-0.503-0.29-0.473-0.581
									c0.03-0.291,0.29-0.503,0.581-0.473l43.055,4.412c0.291,0.03,0.503,0.29,0.473,0.581
									C411.627,154.172,411.367,154.384,411.076,154.354z"/>
							</g>
							<g>
								<path style="fill:#263238;" d="M406.624,156.215l-38.839-3.98c-0.291-0.03-0.503-0.29-0.473-0.581
									c0.03-0.291,0.29-0.503,0.581-0.473l38.839,3.98c0.291,0.03,0.503,0.29,0.473,0.581
									C407.176,156.034,406.916,156.245,406.624,156.215z"/>
							</g>
						</g>
					</g>
					<g>
						<path style="fill:#999999;stroke:#263238;strokeLinecap:round;strokeLinejoin:round;stroke-miterlimit:10;" d="
							M363.127,162.765l-3.341-0.342c-0.344-0.035-0.594-0.343-0.559-0.687l0.342-3.34c0.035-0.344,0.343-0.594,0.687-0.559
							l3.341,0.342c0.344,0.035,0.595,0.343,0.559,0.687l-0.342,3.34C363.779,162.55,363.471,162.8,363.127,162.765z"/>
						<g>
							<g>
								<path style="fill:#263238;" d="M410.023,164.627l-43.055-4.412c-0.291-0.03-0.503-0.29-0.473-0.581
									c0.03-0.291,0.29-0.503,0.581-0.473l43.055,4.412c0.291,0.03,0.503,0.29,0.473,0.581
									C410.574,164.445,410.314,164.657,410.023,164.627z"/>
							</g>
							<g>
								<path style="fill:#263238;" d="M405.572,166.488l-38.839-3.98c-0.291-0.03-0.503-0.29-0.473-0.581
									c0.03-0.291,0.29-0.503,0.581-0.473l38.839,3.98c0.291,0.03,0.503,0.29,0.473,0.581
									C406.123,166.306,405.863,166.518,405.572,166.488z"/>
							</g>
						</g>
					</g>
					<g>
						<path style="fill:#BFBFBF;stroke:#263238;stroke-miterlimit:10;" d="M362.074,173.038l-3.34-0.342
							c-0.344-0.035-0.595-0.343-0.559-0.687l0.342-3.341c0.035-0.344,0.343-0.594,0.687-0.559l3.341,0.342
							c0.344,0.035,0.595,0.343,0.559,0.687l-0.342,3.34C362.726,172.822,362.419,173.073,362.074,173.038z"/>
						<g>
							<g>
								<path style="fill:#263238;" d="M408.97,174.9l-43.055-4.412c-0.291-0.03-0.503-0.29-0.473-0.581
									c0.03-0.291,0.29-0.503,0.581-0.473l43.055,4.412c0.291,0.03,0.503,0.29,0.473,0.581
									C409.521,174.718,409.261,174.929,408.97,174.9z"/>
							</g>
							<g>
								<path style="fill:#263238;" d="M404.519,176.761l-38.839-3.98c-0.291-0.03-0.503-0.29-0.473-0.581
									c0.03-0.291,0.29-0.503,0.581-0.473l38.839,3.98c0.291,0.03,0.503,0.29,0.473,0.581
									C405.07,176.579,404.81,176.791,404.519,176.761z"/>
							</g>
						</g>
					</g>
					<g>
						<path style="fill:#FFFFFF;stroke:#263238;strokeLinecap:round;strokeLinejoin:round;stroke-miterlimit:10;" d="
							M361.022,183.31l-3.341-0.342c-0.344-0.035-0.595-0.343-0.559-0.687l0.342-3.34c0.035-0.344,0.343-0.594,0.687-0.559
							l3.34,0.342c0.344,0.035,0.595,0.343,0.559,0.687l-0.342,3.34C361.674,183.095,361.366,183.346,361.022,183.31z"/>
						<g>
							<g>
								<path style="fill:#263238;" d="M407.917,185.172l-43.055-4.412c-0.291-0.03-0.503-0.29-0.473-0.581
									c0.03-0.291,0.29-0.503,0.581-0.473l43.055,4.412c0.291,0.03,0.503,0.29,0.473,0.581
									C408.469,184.991,408.209,185.202,407.917,185.172z"/>
							</g>
							<g>
								<path style="fill:#263238;" d="M403.466,187.034l-38.839-3.98c-0.291-0.03-0.503-0.29-0.473-0.581
									c0.03-0.291,0.29-0.503,0.581-0.473l38.839,3.98c0.291,0.03,0.503,0.29,0.473,0.581
									C404.018,186.852,403.758,187.063,403.466,187.034z"/>
							</g>
						</g>
					</g>
				</g>
			</g>
			<g style="clip-path:url(#XMLID_00000003071382523141608980000001646131607585850508_);">
				<g>
					
						<rect x="389.482" y="246.454" transform="matrix(-0.9948 -0.102 0.102 -0.9948 753.548 545.5549)" style="fill:#757575;stroke:#263238;strokeLinecap:round;strokeLinejoin:round;stroke-miterlimit:10;" width="2.471" height="14.128"/>
					
						<rect x="389.318" y="251.795" transform="matrix(-0.9948 -0.1019 0.1019 -0.9948 753.069 548.7195)" style="fill:#92E3A9;stroke:#263238;stroke-miterlimit:10;" width="2.471" height="6.651"/>
				</g>
				<g>
					
						<rect x="395.379" y="243.474" transform="matrix(-0.9948 -0.1019 0.1019 -0.9948 765.6279 540.1971)" style="fill:#757575;stroke:#263238;strokeLinecap:round;strokeLinejoin:round;stroke-miterlimit:10;" width="2.471" height="14.128"/>
					
						<rect x="393.288" y="249.316" transform="matrix(0.102 -0.9948 0.9948 0.102 106.9259 619.5504)" style="fill:#92E3A9;stroke:#263238;stroke-miterlimit:10;" width="6.651" height="2.471"/>
				</g>
				<g>
					
						<rect x="400.637" y="246.737" transform="matrix(-0.9948 -0.1019 0.1019 -0.9948 775.7836 547.2422)" style="fill:#757575;stroke:#263238;strokeLinecap:round;strokeLinejoin:round;stroke-miterlimit:10;" width="2.471" height="14.128"/>
					
						<rect x="400.798" y="248.902" transform="matrix(-0.9948 -0.102 0.102 -0.9948 776.2552 544.1327)" style="fill:#92E3A9;stroke:#263238;stroke-miterlimit:10;" width="2.471" height="6.651"/>
				</g>
				<g>
					
						<rect x="384.232" y="243.11" transform="matrix(-0.9948 -0.102 0.102 -0.9948 743.4173 538.3491)" style="fill:#757575;stroke:#263238;strokeLinecap:round;strokeLinejoin:round;stroke-miterlimit:10;" width="2.471" height="14.128"/>
					
						<rect x="384.068" y="248.451" transform="matrix(-0.9948 -0.1019 0.1019 -0.9948 742.9382 541.5139)" style="fill:#92E3A9;stroke:#263238;stroke-miterlimit:10;" width="2.471" height="6.651"/>
				</g>
				<g>
					
						<rect x="378.272" y="246.701" transform="matrix(-0.9948 -0.1019 0.1019 -0.9948 731.1736 544.8904)" style="fill:#757575;stroke:#263238;strokeLinecap:round;strokeLinejoin:round;stroke-miterlimit:10;" width="2.471" height="14.128"/>
					
						<rect x="378.054" y="252.571" transform="matrix(-0.9948 -0.102 0.102 -0.9948 730.51 549.1326)" style="fill:#92E3A9;stroke:#263238;stroke-miterlimit:10;" width="2.471" height="6.651"/>
				</g>
				<g>
					
						<rect x="373.11" y="242.505" transform="matrix(-0.9948 -0.1019 0.1019 -0.9948 721.3049 535.9929)" style="fill:#757575;stroke:#263238;strokeLinecap:round;strokeLinejoin:round;stroke-miterlimit:10;" width="2.471" height="14.128"/>
					
						<rect x="372.783" y="249.434" transform="matrix(-0.9948 -0.102 0.102 -0.9948 720.3161 542.3372)" style="fill:#92E3A9;stroke:#263238;stroke-miterlimit:10;" width="2.471" height="6.651"/>
				</g>
				<g>
					
						<rect x="366.823" y="249.286" transform="matrix(-0.9948 -0.102 0.102 -0.9948 708.0593 548.8941)" style="fill:#757575;stroke:#263238;strokeLinecap:round;strokeLinejoin:round;stroke-miterlimit:10;" width="2.471" height="14.128"/>
					
						<rect x="366.496" y="256.215" transform="matrix(-0.9948 -0.102 0.102 -0.9948 707.0831 555.223)" style="fill:#92E3A9;stroke:#263238;stroke-miterlimit:10;" width="2.471" height="6.651"/>
				</g>
				<g>
					
						<rect x="362.196" y="239.868" transform="matrix(-0.9948 -0.1019 0.1019 -0.9948 699.8009 529.6218)" style="fill:#757575;stroke:#263238;strokeLinecap:round;strokeLinejoin:round;stroke-miterlimit:10;" width="2.471" height="14.128"/>
					
						<rect x="362.031" y="245.209" transform="matrix(-0.9948 -0.1019 0.1019 -0.9948 699.3113 532.7995)" style="fill:#92E3A9;stroke:#263238;stroke-miterlimit:10;" width="2.471" height="6.651"/>
				</g>
				<g>
					
						<rect x="356.746" y="238.481" transform="matrix(-0.9948 -0.102 0.102 -0.9948 689.0605 526.3112)" style="fill:#757575;stroke:#263238;strokeLinecap:round;strokeLinejoin:round;stroke-miterlimit:10;" width="2.471" height="14.128"/>
					
						<rect x="356.907" y="240.646" transform="matrix(-0.9948 -0.1019 0.1019 -0.9948 689.5538 523.1747)" style="fill:#92E3A9;stroke:#263238;stroke-miterlimit:10;" width="2.471" height="6.651"/>
				</g>
				<g>
					
						<rect x="350.308" y="246.735" transform="matrix(-0.9948 -0.1019 0.1019 -0.9948 675.388 542.1064)" style="fill:#757575;stroke:#263238;strokeLinecap:round;strokeLinejoin:round;stroke-miterlimit:10;" width="2.471" height="14.128"/>
					
						<rect x="350.523" y="248.37" transform="matrix(-0.9948 -0.1019 0.1019 -0.9948 676.0311 537.9342)" style="fill:#92E3A9;stroke:#263238;stroke-miterlimit:10;" width="2.471" height="6.651"/>
				</g>
				<g>
					
						<rect x="345.407" y="239.99" transform="matrix(-0.9948 -0.1019 0.1019 -0.9948 666.2988 528.1532)" style="fill:#757575;stroke:#263238;strokeLinecap:round;strokeLinejoin:round;stroke-miterlimit:10;" width="2.471" height="14.128"/>
					
						<rect x="345.297" y="244.802" transform="matrix(-0.9948 -0.1019 0.1019 -0.9948 665.9691 530.2832)" style="fill:#92E3A9;stroke:#263238;stroke-miterlimit:10;" width="2.471" height="6.651"/>
				</g>
				<g>
					
						<rect x="339.497" y="243.09" transform="matrix(-0.9948 -0.102 0.102 -0.9948 654.1813 533.7483)" style="fill:#757575;stroke:#263238;strokeLinecap:round;strokeLinejoin:round;stroke-miterlimit:10;" width="2.471" height="14.128"/>
					
						<rect x="339.333" y="248.431" transform="matrix(-0.9948 -0.1019 0.1019 -0.9948 653.7019 536.9149)" style="fill:#92E3A9;stroke:#263238;stroke-miterlimit:10;" width="2.471" height="6.651"/>
				</g>
				<g>
					
						<rect x="333.316" y="248.834" transform="matrix(-0.9948 -0.102 0.102 -0.9948 641.2676 544.5738)" style="fill:#757575;stroke:#263238;strokeLinecap:round;strokeLinejoin:round;stroke-miterlimit:10;" width="2.471" height="14.128"/>
					
						<rect x="332.935" y="256.292" transform="matrix(-0.9948 -0.1019 0.1019 -0.9948 640.1398 551.9421)" style="fill:#92E3A9;stroke:#263238;stroke-miterlimit:10;" width="2.471" height="6.651"/>
				</g>
				<g>
					
						<rect x="328.694" y="239.365" transform="matrix(-0.9948 -0.1019 0.1019 -0.9948 633.0245 525.202)" style="fill:#757575;stroke:#263238;strokeLinecap:round;strokeLinejoin:round;stroke-miterlimit:10;" width="2.471" height="14.128"/>
					
						<rect x="328.476" y="245.235" transform="matrix(-0.9948 -0.1019 0.1019 -0.9948 632.3705 529.4328)" style="fill:#92E3A9;stroke:#263238;stroke-miterlimit:10;" width="2.471" height="6.651"/>
				</g>
				<g>
					
						<rect x="323.793" y="232.621" transform="matrix(-0.9948 -0.102 0.102 -0.9948 623.9242 511.2626)" style="fill:#757575;stroke:#263238;strokeLinecap:round;strokeLinejoin:round;stroke-miterlimit:10;" width="2.471" height="14.128"/>
					
						<rect x="323.574" y="238.492" transform="matrix(-0.9948 -0.1019 0.1019 -0.9948 623.2809 515.4814)" style="fill:#92E3A9;stroke:#263238;stroke-miterlimit:10;" width="2.471" height="6.651"/>
				</g>
				<g>
					
						<rect x="317.497" y="239.493" transform="matrix(-0.9948 -0.1019 0.1019 -0.9948 610.6735 524.3179)" style="fill:#757575;stroke:#263238;strokeLinecap:round;strokeLinejoin:round;stroke-miterlimit:10;" width="2.471" height="14.128"/>
					
						<rect x="317.658" y="241.658" transform="matrix(-0.9948 -0.102 0.102 -0.9948 611.1458 521.2053)" style="fill:#92E3A9;stroke:#263238;stroke-miterlimit:10;" width="2.471" height="6.651"/>
				</g>
				<g>
					
						<rect x="311.148" y="246.871" transform="matrix(-0.9948 -0.1019 0.1019 -0.9948 597.2582 538.3874)" style="fill:#757575;stroke:#263238;strokeLinecap:round;strokeLinejoin:round;stroke-miterlimit:10;" width="2.471" height="14.128"/>
					
						<rect x="311.418" y="247.977" transform="matrix(-0.9948 -0.1019 0.1019 -0.9948 598.0648 533.1634)" style="fill:#92E3A9;stroke:#263238;stroke-miterlimit:10;" width="2.471" height="6.651"/>
				</g>
				<g>
					
						<rect x="306.428" y="238.359" transform="matrix(-0.9948 -0.1019 0.1019 -0.9948 588.7104 520.9272)" style="fill:#757575;stroke:#263238;strokeLinecap:round;strokeLinejoin:round;stroke-miterlimit:10;" width="2.471" height="14.128"/>
					
						<rect x="306.264" y="243.7" transform="matrix(-0.9948 -0.102 0.102 -0.9948 588.2085 524.1177)" style="fill:#92E3A9;stroke:#263238;stroke-miterlimit:10;" width="2.471" height="6.651"/>
				</g>
				<g>
					
						<rect x="301.134" y="235.454" transform="matrix(-0.9948 -0.102 0.102 -0.9948 578.4355 514.6019)" style="fill:#757575;stroke:#263238;strokeLinecap:round;strokeLinejoin:round;stroke-miterlimit:10;" width="2.471" height="14.128"/>
					
						<rect x="301.349" y="237.089" transform="matrix(-0.9948 -0.1019 0.1019 -0.9948 579.0894 510.4185)" style="fill:#92E3A9;stroke:#263238;stroke-miterlimit:10;" width="2.471" height="6.651"/>
				</g>
				<g>
					
						<rect x="295.151" y="239.27" transform="matrix(-0.9948 -0.102 0.102 -0.9948 566.1096 521.6065)" style="fill:#757575;stroke:#263238;strokeLinecap:round;strokeLinejoin:round;stroke-miterlimit:10;" width="2.471" height="14.128"/>
					
						<rect x="294.769" y="246.729" transform="matrix(-0.9948 -0.1019 0.1019 -0.9948 564.9825 528.9752)" style="fill:#92E3A9;stroke:#263238;stroke-miterlimit:10;" width="2.471" height="6.651"/>
				</g>
				<g>
					
						<rect x="290.066" y="234.319" transform="matrix(-0.9948 -0.1019 0.1019 -0.9948 556.4832 511.2003)" style="fill:#757575;stroke:#263238;strokeLinecap:round;strokeLinejoin:round;stroke-miterlimit:10;" width="2.471" height="14.128"/>
					
						<rect x="289.793" y="240.719" transform="matrix(-0.9948 -0.102 0.102 -0.9948 555.6572 516.4908)" style="fill:#92E3A9;stroke:#263238;stroke-miterlimit:10;" width="2.471" height="6.651"/>
				</g>
				<g>
					
						<rect x="284.337" y="235.648" transform="matrix(-0.9948 -0.1019 0.1019 -0.9948 544.9197 513.2681)" style="fill:#757575;stroke:#263238;strokeLinecap:round;strokeLinejoin:round;stroke-miterlimit:10;" width="2.471" height="14.128"/>
					
						<rect x="284.01" y="242.577" transform="matrix(-0.9948 -0.1019 0.1019 -0.9948 543.9436 519.5972)" style="fill:#92E3A9;stroke:#263238;stroke-miterlimit:10;" width="2.471" height="6.651"/>
				</g>
				<g>
					
						<rect x="278.988" y="233.276" transform="matrix(-0.9948 -0.1019 0.1019 -0.9948 534.4922 507.9898)" style="fill:#757575;stroke:#263238;strokeLinecap:round;strokeLinejoin:round;stroke-miterlimit:10;" width="2.471" height="14.128"/>
					
						<rect x="279.312" y="233.853" transform="matrix(-0.9948 -0.1019 0.1019 -0.9948 535.4609 501.7156)" style="fill:#92E3A9;stroke:#263238;stroke-miterlimit:10;" width="2.471" height="6.651"/>
				</g>
			</g>
			<g style="clip-path:url(#XMLID_00000003071382523141608980000001646131607585850508_);">
				<path style="fill:#263238;" d="M403.853,277.675l-112.237-11.501c-0.649-0.066-1.229,0.406-1.296,1.055
					c-0.066,0.649,0.406,1.229,1.055,1.296l112.237,11.501c0.649,0.066,1.229-0.406,1.296-1.055
					C404.974,278.322,404.502,277.742,403.853,277.675z"/>
				<path style="fill:#263238;" d="M402.986,286.126l-130.51-13.374c-0.649-0.066-1.229,0.406-1.296,1.055
					c-0.066,0.649,0.406,1.229,1.055,1.296l130.51,13.374c0.649,0.066,1.229-0.406,1.296-1.055
					C404.108,286.773,403.636,286.193,402.986,286.126z"/>
				<path style="fill:#263238;" d="M347.301,288.96l-75.691-7.756c-0.649-0.066-1.229,0.406-1.296,1.055
					c-0.066,0.649,0.406,1.229,1.055,1.296l75.691,7.756c0.649,0.066,1.229-0.406,1.296-1.055
					C348.423,289.607,347.95,289.027,347.301,288.96z"/>
			</g>
			<path style="opacity:0.2;clip-path:url(#XMLID_00000003071382523141608980000001646131607585850508_);fill-opacity:0.7;" d="
				M416.23,213.49c-3.87-0.31-5.21,5.86-5.21,5.86s-6.12-8.02-5.15-26.88c0,0-2.99-8.36-11-3.31c-8,5.05-16.31,22.85-14.33,42.24
				l-15.57-51.69c-5.38,1.14-16.31,8.37-13.43,43.28l-16.99-17.96c0,0-4.6-1.48-7.2,2.59c-2.6,4.08-1.36,33.22,0.79,44.12
				c2.16,10.91-3.33,32.8-3.33,32.8s-5.858-24.799-16.46-31.075L267.98,170.2l-13.41,130.9l15.13,1.55l24.297-11.827
				c-0.136,5.47-0.268,10.498-0.667,14.247l121.44,12.44l8.69-84.82C420.51,222.12,417.69,213.6,416.23,213.49z"/>
			
				<use xlink:href="#XMLID_307_"  style="overflow:visible;fill:none;stroke:#263238;strokeLinecap:round;strokeLinejoin:round;stroke-miterlimit:10;"/>
		</g>
		<g>
			<g>
				<g>
					<path style="fill:#FFFFFF;" d="M435.59,449.77l-71,12.08c0,0-12.36-65.65-19.73-75.99c-7.37-10.35-6.02-14.6-9.6-21.57
						c-2.16-4.21-12.99-12.06-21.49-19.81h-0.01c-0.74-0.67-1.46-1.34-2.15-2.01c-0.3-0.27-0.58-0.56-0.86-0.83
						c-1.13-1.12-2.18-2.21-3.11-3.28c-0.34-0.38-0.66-0.76-0.96-1.14c-1.77-2.19-3.02-4.24-3.44-6.09c-0.03-0.1-0.05-0.2-0.06-0.31
						c-0.03-0.13-0.05-0.25-0.06-0.37c-0.19-1.55-0.39-3.32-0.59-5.24c-0.04-0.38-0.08-0.78-0.13-1.18
						c-0.02-0.16-0.04-0.31-0.06-0.48c-0.17-1.6-0.36-3.3-0.58-5.05c-0.22-1.83-0.46-3.73-0.74-5.64c-0.09-0.66-0.18-1.32-0.29-1.99
						c0-0.01,0-0.02-0.01-0.02c-0.11-0.74-0.23-1.48-0.35-2.23c-0.11-0.64-0.22-1.28-0.33-1.92c-0.02-0.11-0.05-0.21-0.06-0.3
						c-0.14-0.75-0.28-1.48-0.42-2.22c-0.03-0.08-0.04-0.16-0.05-0.25c-0.14-0.65-0.27-1.29-0.42-1.94
						c-0.31-1.45-0.66-2.87-1.04-4.25c-0.75-2.75-1.63-5.32-2.65-7.6c-5.12-11.43,1.54-7.3-2.47-36.71c0,0,2.95-6.82,11.36-1.37
						c0.65,0.42,1.27,0.88,1.88,1.37h0.01c1.69,1.36,3.19,2.97,4.47,4.78c1.67,2.35,2.97,5.04,3.86,7.96
						c1.33,4.35,1.76,9.22,1.14,14.3c0,0,6.32,21.66,9.65,26.59c3.34,4.93,17.1-23.39,16.21-26.69c-0.18-0.66-0.43-2.27-0.71-4.48
						c-0.06-0.49-0.12-1.01-0.19-1.56c-0.06-0.55-0.13-1.12-0.19-1.71c-0.04-0.28-0.07-0.58-0.11-0.87
						c-0.01-0.12-0.02-0.24-0.04-0.35c-0.12-1.13-0.26-2.33-0.39-3.57c-0.03-0.35-0.07-0.68-0.11-1.02c-0.06-0.59-0.12-1.2-0.18-1.8
						c-0.02-0.09-0.02-0.19-0.03-0.3c-0.04-0.34-0.08-0.69-0.11-1.05c-0.08-0.7-0.15-1.41-0.22-2.12c-0.07-0.61-0.12-1.22-0.18-1.83
						c-0.12-1.15-0.23-2.3-0.34-3.41c-0.08-0.83-0.16-1.65-0.23-2.45c-0.02-0.18-0.04-0.36-0.05-0.53c-0.42-4.4-0.75-8.02-0.87-9.56
						c0,0-10.01-14.82-11.04-21.8c-1.03-6.99-0.94-14.33,3.25-17.32c9.92-7.06,7.02,4.32,11.46,9.03
						c4.44,4.73,11.25,12.43,15.11,14.84c3.56,2.26,6.74,11.04,7.19,12.32c-0.51-1.92-5.6-20.8-5.71-24.6
						c-0.13-4.01-3.19-25.16,2.01-32.75c5.19-7.58,12.11-1.7,12.75-0.2c0.64,1.5,0.83,21.99,2.66,27.7
						c1.84,5.7,9.49,29.47,9.49,29.47s0.32-23.12,2.05-33.47c1.72-10.34,6.22-18.44,10.62-18.9c4.4-0.46,8.47,4.39,8.47,4.39
						s-1.74,16.5-1.24,20.31c0.49,3.8-0.72,17.57,1.37,24.97c0,0-0.24-19.71,2.82-22.23c3.07-2.52,5.69-3.73,7.41-2.03
						c1.71,1.7,2.09,13.37,3.84,20.39c1.76,7.03,1.53,16.56,2.68,27.51c1.15,10.95,5.68,26.15,4.78,34.84
						c-0.9,8.67-3.67,30.24-5.9,42.89c-2.23,12.66-7.92,29.98-7.92,29.98s2.59,9.25,2.09,17.5
						C415.29,394.85,435.59,449.77,435.59,449.77z"/>
				</g>
				<g>
					<path style="opacity:0.4;fill:#92E3A9;" d="M375.244,210.977c1.36,4.224,5.905,18.342,8.168,25.392
						c0,0-9.925,7.295-9.679,14.074c0.256,6.77-1.817,20.463-6.274,20.07c-4.449-0.383-4.054-28.857-5.509-33.639
						c0.905,2.052,1.492,3.726,1.61,4.055c-0.33-1.226-5.633-20.819-5.745-24.7c-0.027-0.913-0.21-2.727-0.415-5.077l0.003-0.046
						c0,0,9.864-9.443,17.11-3.661l-0.001,0.009C374.728,208.893,374.967,210.104,375.244,210.977z"/>
					<path style="opacity:0.4;fill:#92E3A9;" d="M404.733,219.117c-4.621,4.382-11.593,12.125-12.474,19.598
						c0,0,2.576,20.852,1.475,29.95l-9.007-28.213c0,0,0.324-23.122,2.053-33.469c0.045-0.283,0.1-0.574,0.154-0.856
						c4.417-2.259,10.476-4.28,18.086-4.421c-0.347,4.46-0.631,9.237-0.394,11.073C404.779,214.022,404.767,216.322,404.733,219.117
						z"/>
					<path style="opacity:0.4;fill:#92E3A9;" d="M408.818,215.521l-0.01,0.009c-0.01,0.008-0.02,0.017-0.029,0.026
						c-0.106,0.076-0.377,0.29-0.774,0.624c0.249-0.463,0.506-0.898,0.789-1.304L408.818,215.521z"/>
					<path style="opacity:0.4;fill:#92E3A9;" d="M411.169,273.194c0,0-5.939-22.283-6.044-40.223
						c-0.044-6.637,0.723-12.691,2.87-16.783l0.01-0.009c0.249-0.463,0.506-0.898,0.789-1.304l0.025,0.646
						c1.27-1.045,2.451-1.856,3.539-2.341c-1.669,2.603-3.591,7.693-1.366,15.964C414.475,242.102,411.443,257.927,411.169,273.194z
						"/>
					<path style="opacity:0.4;fill:#92E3A9;" d="M329.237,315.648c0,0,1.596,21.234-15.47,28.836l-0.009,0
						c-0.741-0.671-1.454-1.341-2.15-2.009c-0.296-0.276-0.582-0.56-0.86-0.835c-1.128-1.118-2.183-2.214-3.111-3.283
						c-0.344-0.389-0.661-0.768-0.961-1.136c-1.771-2.188-3.015-4.243-3.436-6.091c-0.03-0.103-0.052-0.206-0.064-0.308
						c-0.029-0.131-0.049-0.251-0.06-0.372c-0.19-1.548-0.385-3.318-0.589-5.244c-0.041-0.38-0.081-0.778-0.13-1.177
						c-0.018-0.158-0.036-0.315-0.053-0.482c-0.178-1.603-0.368-3.298-0.583-5.051c-0.219-1.826-0.461-3.727-0.74-5.64
						c-0.098-0.659-0.195-1.328-0.292-1.987c0-0.009,0.001-0.018-0.008-0.019c-0.111-0.743-0.231-1.486-0.351-2.23
						c-0.108-0.642-0.225-1.284-0.333-1.925c-0.021-0.103-0.043-0.205-0.055-0.298c-0.138-0.745-0.277-1.48-0.425-2.216
						c-0.022-0.084-0.036-0.168-0.049-0.251c-0.135-0.652-0.27-1.296-0.415-1.939c-0.325-1.446-0.671-2.866-1.046-4.251
						c6.751-6.496,22.334-2.421,14.791-17.468c0,0,3.799-12.879-6.671-26.846l0.009,0.001c7.163,5.776,10.829,15.921,9.475,27.045
						c0,0,6.318,21.653,9.65,26.587c3.341,4.935,17.096-23.391,16.204-26.694c-0.171-0.655-0.422-2.271-0.701-4.478
						c-0.062-0.492-0.122-1.01-0.19-1.558c-0.068-0.547-0.134-1.121-0.198-1.714c-0.038-0.278-0.066-0.575-0.104-0.862
						c-0.011-0.12-0.022-0.241-0.043-0.352c-0.123-1.139-0.252-2.334-0.388-3.576c-0.034-0.343-0.069-0.676-0.112-1.019
						c-0.056-0.592-0.12-1.194-0.184-1.796c-0.013-0.093-0.016-0.194-0.028-0.296c-0.034-0.343-0.077-0.695-0.11-1.056
						c-0.077-0.704-0.144-1.408-0.22-2.121c-0.064-0.611-0.118-1.222-0.182-1.833c-0.114-1.148-0.227-2.296-0.334-3.407
						c-0.078-0.833-0.156-1.657-0.237-2.444c-0.016-0.185-0.033-0.361-0.05-0.537c0.278,1.315,5.349,25.449,8.243,31.074
						C349.636,290.178,337.027,320.653,329.237,315.648z"/>
					<path style="opacity:0.4;fill:#92E3A9;" d="M421.626,339.121c-2.231,12.663-7.913,29.981-7.913,29.981s2.589,9.25,2.082,17.501
						c-0.136,2.218,1.241,7.824,3.305,14.824c-0.596-1.536-6.971-18.058-6.866-23.821c0.123-6.047-1.597-7.717-4.969-15.147
						c-3.362-7.439-8.511-6.614-8.511-6.614s-1.984,18.539-6.638,6.356c-4.653-12.192-5.551-26.354,6.181-75.553
						c0,0,1.775,6.173,0.291,24.503c-1.493,18.339,2.896,23.881,2.896,23.881s9.479-15.613,15.591-36.356
						c0,0-1.515,21.393-2.867,31.137c-1.352,9.744,4.806-11.29,9.109-24.286c4.042-12.193,4.189-16.83,2.651-25.51
						c1.143,6.116,2,11.947,1.564,16.208C426.633,304.904,423.856,326.468,421.626,339.121z"/>
					<path style="opacity:0.4;fill:#92E3A9;" d="M341.399,380.356c3.461,5.503,11.934,12.772,16.979,32.884
						c5.045,20.113,1.875,42.124,1.875,42.124L341.399,380.356z"/>
				</g>
				<path style="opacity:0.2;fill-opacity:0.7;" d="M314.51,266.17c0,0-17.71,8.97-19.11,23.97c-5.12-11.43,1.54-7.3-2.47-36.71
					c0,0,2.95-6.82,11.36-1.37c0.65,0.42,1.27,0.88,1.88,1.37h0.01c1.69,1.36,3.19,2.97,4.47,4.78L314.51,266.17z"/>
				<g>
					<path style="fill:none;stroke:#263238;strokeLinecap:round;strokeLinejoin:round;stroke-miterlimit:10;" d="M364.587,461.853
						c0,0-12.353-65.652-19.727-75.994c-7.374-10.342-6.021-14.6-9.597-21.568c-3.577-6.968-30.929-23.935-32.142-33.838
						c-1.212-9.903-2.596-28.878-7.719-40.314c-5.123-11.437,1.54-7.302-2.48-36.713c0,0,2.966-6.813,11.368-1.365
						c8.402,5.448,12.83,16.346,11.361,28.415c0,0,6.316,21.648,9.654,26.585c3.337,4.937,17.088-23.392,16.199-26.697
						c-0.889-3.305-3.53-31.468-3.943-36.604c0,0-10.011-14.825-11.039-21.805c-1.028-6.979-0.941-14.331,3.246-17.312
						c9.922-7.064,7.016,4.316,11.458,9.035c4.443,4.719,11.251,12.417,15.107,14.838c3.856,2.421,7.243,12.467,7.243,12.467
						s-5.644-20.742-5.762-24.753c-0.118-4.011-3.189-25.161,2.009-32.744c5.197-7.584,12.117-1.703,12.753-0.206
						c0.636,1.497,0.835,21.985,2.669,27.695c1.834,5.709,9.476,29.476,9.476,29.476s0.326-23.117,2.053-33.466
						c1.727-10.349,6.228-18.445,10.624-18.903c4.396-0.458,8.467,4.389,8.467,4.389s-1.74,16.499-1.246,20.307
						c0.495,3.807-0.714,17.566,1.38,24.975c0,0-0.247-19.713,2.82-22.235c3.067-2.521,5.689-3.726,7.405-2.028
						c1.716,1.698,2.092,13.37,3.845,20.394c1.753,7.024,1.532,16.561,2.681,27.509c1.148,10.948,5.676,26.151,4.779,34.832
						c-0.897,8.682-3.676,30.243-5.908,42.901c-2.233,12.658-7.906,29.979-7.906,29.979s2.587,9.246,2.081,17.496
						c-0.506,8.25,19.786,63.167,19.786,63.167"/>
					<path style="fill:none;stroke:#263238;strokeLinecap:round;strokeLinejoin:round;stroke-miterlimit:10;" d="M384.723,240.451
						c2.068,4.859,7.18,25.376,9.007,28.218c1.828,2.842,3.899,3.697,3.899,3.697"/>
					<path style="fill:none;stroke:#263238;strokeLinecap:round;strokeLinejoin:round;stroke-miterlimit:10;" d="M406.002,237.752
						c0,0-0.44,4.204,1.832,17.608c2.272,13.404,3.378,19.114,4.65,22.104"/>
					<path style="fill:none;stroke:#263238;strokeLinecap:round;strokeLinejoin:round;stroke-miterlimit:10;" d="M363.577,240.983
						c2.775,8.169,4.342,21.188,5.922,25.107c1.58,3.919,2.986,4.733,2.986,4.733"/>
					<path style="fill:none;stroke:#263238;strokeLinecap:round;strokeLinejoin:round;stroke-miterlimit:10;" d="M368.07,260.585
						c0,0,2.909,2.163,3.836,4.846"/>
					<path style="fill:none;stroke:#263238;strokeLinecap:round;strokeLinejoin:round;stroke-miterlimit:10;" d="M325.305,307.061
						c0,0,1.52,10.832,8.307,9.974"/>
					<path style="fill:none;stroke:#263238;strokeLinecap:round;strokeLinejoin:round;stroke-miterlimit:10;" d="M341.504,280.364
						c0,0,1.758,12.874-1.125,18.34"/>
					<path style="fill:none;stroke:#263238;strokeLinecap:round;strokeLinejoin:round;stroke-miterlimit:10;" d="M395.736,280.477
						c0,0,4.561,2.791,1.511,10.976c-3.05,8.185-8.354,41.228-8.354,41.228"/>
					<path style="fill:none;stroke:#263238;strokeLinecap:round;strokeLinejoin:round;stroke-miterlimit:10;" d="M415.591,289.121
						c1.912,7.398,2.083,7.59-1.023,16.682c-3.106,9.092-8.112,31.354-8.112,31.354"/>
					<path style="fill:none;stroke:#263238;strokeLinecap:round;strokeLinejoin:round;stroke-miterlimit:10;" d="M413.718,369.105
						c0,0-2.982-6.021-0.518-10.966"/>
					<path style="fill:none;stroke:#263238;strokeLinecap:round;strokeLinejoin:round;stroke-miterlimit:10;" d="M344.86,385.859
						c0,0,7.541,10.594,10.818,22.444"/>
				</g>
			</g>
			<g>
				<polygon style="fill:#757575;stroke:#263238;strokeLinecap:round;strokeLinejoin:round;stroke-miterlimit:10;" points="
					400.341,200.229 402.376,198.215 403.302,197.953 403.241,198.951 401.365,201.338 				"/>
				<g>
					<defs>
						<path id="XMLID_303_" d="M401.986,201.346l-3.314,7.526l-89.201,118.933l-9.936-6.333l13.488-16.922l80.119-100.498
							l7.066-4.489C400.21,199.562,401.723,199.949,401.986,201.346z"/>
					</defs>
					<use xlink:href="#XMLID_303_"  style="overflow:visible;fill:#92E3A9;"/>
					<clipPath id="XMLID_00000025410233989391772930000005806075968723121578_">
						<use xlink:href="#XMLID_303_"  style="overflow:visible;"/>
					</clipPath>
					<path style="opacity:0.3;clip-path:url(#XMLID_00000025410233989391772930000005806075968723121578_);fill-opacity:0.7;" d="
						M401.986,201.346l-3.314,7.526l-89.201,118.933l-9.936-6.333l13.488-16.922c6.195-0.641,7.231,3.02,7.231,3.02l76.85-100.303
						c-0.755-2.696-3.962-3.215-3.962-3.215l7.066-4.489C400.21,199.562,401.723,199.949,401.986,201.346z"/>
					
						<use xlink:href="#XMLID_303_"  style="overflow:visible;fill:none;stroke:#263238;strokeLinecap:round;strokeLinejoin:round;stroke-miterlimit:10;"/>
				</g>
				<g>
					<defs>
						<path id="XMLID_304_" d="M338.565,292.59c0,0-9.954,19.762-19.535,33.74l-6.844,1.77c0,0-15.698,15.6-25.276,23.386
							c0,0-2.461-1.43-4.682-3.931c0,0,13.601-26.117,28.648-42.65c0,0,2.186,0.668,4.937,2.622
							c1.631,1.158,3.465,2.761,5.153,4.945l16.772-21.101L338.565,292.59z"/>
					</defs>
					<use xlink:href="#XMLID_304_"  style="overflow:visible;fill:#92E3A9;"/>
					<clipPath id="XMLID_00000055704158829244598850000015070932293806859430_">
						<use xlink:href="#XMLID_304_"  style="overflow:visible;"/>
					</clipPath>
					<path style="opacity:0.3;clip-path:url(#XMLID_00000055704158829244598850000015070932293806859430_);fill-opacity:0.7;" d="
						M338.565,292.59c0,0-9.954,19.762-19.535,33.74l-6.844,1.77c0,0-15.698,15.6-25.276,23.386l0.26-4.235
						c10.387-15.87,23.586-33.179,28.643-39.724c1.631,1.158,3.465,2.761,5.153,4.945l-9.321,12.439l5.341-0.961l20.752-32.58
						L338.565,292.59z"/>
					
						<use xlink:href="#XMLID_304_"  style="overflow:visible;fill:none;stroke:#263238;strokeLinecap:round;strokeLinejoin:round;stroke-miterlimit:10;"/>
				</g>
			</g>
			<g>
				<path style="fill:#FFFFFF;" d="M372.484,270.82l-27.864,27.018l-4.452,4.319c3.048-7.837,1.574-19.954,1.379-21.429
					c0-0.009,0.001-0.018,0.001-0.018c-0.013-0.084-0.02-0.13-0.02-0.13c-0.005-0.074-0.009-0.157-0.024-0.213
					c-0.171-0.655-0.422-2.271-0.701-4.478c-0.062-0.492-0.122-1.01-0.19-1.558c-0.068-0.547-0.134-1.121-0.198-1.714
					c-0.038-0.278-0.066-0.575-0.104-0.862c-0.011-0.12-0.022-0.241-0.043-0.352c-0.124-1.13-0.262-2.335-0.388-3.576
					c-0.034-0.343-0.069-0.676-0.112-1.019c-0.056-0.592-0.12-1.194-0.184-1.796c-0.013-0.093-0.016-0.194-0.028-0.296
					c-0.034-0.343-0.077-0.695-0.11-1.056c-0.077-0.704-0.144-1.408-0.22-2.121c-0.064-0.611-0.118-1.222-0.182-1.833
					c-0.114-1.148-0.227-2.296-0.334-3.407c-0.087-0.833-0.166-1.648-0.237-2.444c-0.016-0.185-0.033-0.361-0.05-0.537
					c-0.42-4.396-0.75-8.015-0.867-9.558c0,0-10.004-14.821-11.038-21.804c-1.025-6.982-0.943-14.33,3.252-17.311
					c9.92-7.066,7.014,4.313,11.454,9.03c4.44,4.726,11.255,12.423,15.11,14.84c3.854,2.426,7.24,12.471,7.24,12.471
					c2.775,8.167,4.341,21.182,5.922,25.107C371.08,270.008,372.484,270.82,372.484,270.82z"/>
				<path style="fill:none;stroke:#263238;strokeLinecap:round;strokeLinejoin:round;stroke-miterlimit:10;" d="M368.07,260.585
					c0,0,2.909,2.163,3.836,4.846"/>
				<path style="opacity:0.4;fill:#92E3A9;" d="M341.226,213.675c4.422,4.716,11.212,12.374,15.074,14.819
					c-0.545-0.273-7.648-3.736-11.62,0.115c-4.13,4.016-7.122,15.151-7.122,15.151s-10.004-14.821-11.038-21.804
					c-1.025-6.982-0.943-14.33,3.252-17.311C339.692,197.579,336.786,208.958,341.226,213.675z"/>
				<path style="opacity:0.4;fill:#92E3A9;" d="M344.62,297.839l-4.452,4.319c3.048-7.837,1.574-19.954,1.379-21.429
					c0-0.009,0.001-0.018,0.001-0.018c-0.001-0.138-0.021-0.25-0.043-0.343c-0.171-0.655-0.422-2.271-0.701-4.478
					c-0.062-0.492-0.122-1.01-0.19-1.558c-0.068-0.547-0.134-1.121-0.198-1.714c-0.038-0.278-0.066-0.575-0.104-0.862
					c-0.011-0.12-0.022-0.241-0.043-0.352c-0.123-1.139-0.252-2.334-0.388-3.576c-0.034-0.343-0.069-0.676-0.112-1.019
					c-0.056-0.592-0.12-1.194-0.184-1.796c-0.013-0.093-0.016-0.194-0.028-0.296c-0.034-0.343-0.077-0.695-0.11-1.056
					c-0.077-0.704-0.144-1.408-0.22-2.121c-0.064-0.611-0.118-1.222-0.182-1.833c-0.114-1.148-0.227-2.296-0.334-3.407
					c-0.078-0.833-0.156-1.657-0.237-2.444c-0.016-0.185-0.033-0.361-0.05-0.537c0.278,1.315,5.349,25.449,8.243,31.074
					C347.762,286.52,346.744,292.006,344.62,297.839z"/>
				<path style="fill:none;stroke:#263238;strokeLinecap:round;strokeLinejoin:round;stroke-miterlimit:10;" d="M372.485,270.823
					c0,0-1.406-0.814-2.986-4.733c-1.58-3.919-3.147-16.938-5.922-25.107c0,0-3.388-10.046-7.243-12.467
					c-3.856-2.421-10.664-10.119-15.107-14.838c-4.443-4.719-1.536-16.1-11.458-9.035c-4.187,2.981-4.274,10.332-3.246,17.312
					c1.028,6.98,11.039,21.805,11.039,21.805c0.413,5.136,3.053,33.299,3.943,36.604"/>
				<path style="fill:none;stroke:#263238;strokeLinecap:round;strokeLinejoin:round;stroke-miterlimit:10;" d="M341.504,280.364
					c0,0,1.758,12.874-1.125,18.34"/>
			</g>
		</g>
	</g>
</g>
<g id="Left_hand">
	<g>
		<path style="opacity:0.2;fill-opacity:0.7;" d="M170.472,296.115c0,0,6.33,29.391-7.385,50.775
			c-13.714,21.384-24.264,27.086-29.011,33.466c-4.747,6.38-23.32,42.052-23.32,42.052l-21.699-64.27l21.699-79.511L170.472,296.115
			z"/>
		<g>
			<defs>
				<polygon id="XMLID_309_" points="298.37,273.64 163.81,330.27 149.94,336.11 123.8,274 63.1,129.77 211.53,67.3 				"/>
			</defs>
			<use xlink:href="#XMLID_309_"  style="overflow:visible;fill:#FFFFFF;"/>
			<clipPath id="XMLID_00000160171823858687914170000010556402058124156596_">
				<use xlink:href="#XMLID_309_"  style="overflow:visible;"/>
			</clipPath>
			<path style="clip-path:url(#XMLID_00000160171823858687914170000010556402058124156596_);fill:#263238;" d="M173.18,94.145
				l-64.072,26.965c-1.203,0.506-1.767,1.892-1.261,3.094c0.506,1.203,1.892,1.767,3.094,1.261l64.073-26.965
				c1.203-0.506,1.767-1.892,1.261-3.094C175.768,94.204,174.383,93.639,173.18,94.145z"/>
			<path style="clip-path:url(#XMLID_00000160171823858687914170000010556402058124156596_);fill:#263238;" d="M160.929,109.836
				l-32.036,13.482c-0.601,0.253-0.884,0.946-0.63,1.547c0.253,0.601,0.946,0.884,1.547,0.631l32.036-13.482
				c0.601-0.253,0.884-0.946,0.631-1.547C162.223,109.866,161.53,109.583,160.929,109.836z"/>
			<g style="clip-path:url(#XMLID_00000160171823858687914170000010556402058124156596_);">
				<g>
					<path style="fill:#BFBFBF;stroke:#263238;stroke-miterlimit:10;" d="M213.637,191.966c0,0,1.352,10.615-2.601,12.278
						c-3.608,1.518-8.361-4.177-12.509-2.431c-4.151,1.747-0.876,16.793-4.878,18.477c-4.002,1.684-8.824-4.498-12.275-3.045
						c-3.451,1.452-1.365,9.193-4.923,10.691c-2.937,1.236-7.141-4.917-10.501-6.267c-0.713-0.287-1.385-0.359-2.001-0.1
						c-3.521,1.482-1.774,17.646-4.812,18.925c-1.012,0.426-1.885,0.496-2.696,0.441c-1.196-0.084-2.256-0.441-3.428-0.323
						c-0.409,0.042-0.835,0.139-1.281,0.327c-2.594,1.092-2.24,9.598-4.612,10.596c-2.372,0.998-4.712-0.239-7.244,0.827
						c-2.532,1.066-2.491,5.488-6.265,7.077l1.596,3.793l92.107-38.763"/>
					<polyline style="fill:none;stroke:#263238;strokeLinecap:round;strokeLinejoin:round;stroke-miterlimit:10;" points="
						116.56,218.921 135.208,263.233 231.646,222.647 					"/>
					<path style="fill:#757575;stroke:#263238;strokeLinecap:round;strokeLinejoin:round;stroke-miterlimit:10;" d="
						M221.048,209.575c0,0-0.454-0.559-1.136-1.222c-1.192-1.15-3.084-2.612-4.52-2.008c-1.405,0.591-1.531,2.927-1.503,5.423
						c0.034,3.035,0.298,6.304-1.228,6.947c-1.298,0.546-2.465-0.275-3.659-1.171c-1.367-1.023-2.773-2.139-4.456-1.431
						c-2.844,1.197-1.977,4.901-2.979,8.07c-0.509,1.621-1.51,3.102-3.741,4.041c-2.456,1.034-4.948,0.019-7.292-1.583
						c-3.963-2.703-7.521-7.077-9.825-6.107c-3.668,1.544,0.377,11.469-3.566,13.129c-2.204,0.927-6.762-6.022-11.191-11.994
						c-3.501-4.728-6.924-8.844-9.027-7.959c-4.755,2.001,3.081,25.73-0.376,27.185c-0.034,0.014-0.07,0.03-0.105,0.04
						c-1.438,0.568-2.499,0.208-3.428-0.323c-1.247-0.707-2.26-1.707-3.637-1.128c-2.546,1.072-1.053,10.375-3.86,11.556
						c-2.81,1.183-4.49-0.528-7.649,0.801c-2.673,1.125-4.256,7.597-4.256,7.597l1.596,3.793l92.107-38.763"/>
				</g>
				<path style="fill:#263238;" d="M201.555,241.211l-32.036,13.482c-0.601,0.253-0.884,0.946-0.631,1.547
					c0.253,0.601,0.946,0.884,1.547,0.631l32.036-13.482c0.601-0.253,0.884-0.946,0.631-1.547
					C202.849,241.24,202.156,240.958,201.555,241.211z"/>
				<g>
					<g>
						<path style="fill:#BFBFBF;stroke:#263238;stroke-miterlimit:10;" d="M228.72,192.366l-3.095,1.303
							c-0.319,0.134-0.686-0.016-0.82-0.334l-1.302-3.095c-0.134-0.319,0.015-0.686,0.334-0.82l3.095-1.303
							c0.319-0.134,0.686,0.016,0.82,0.334l1.303,3.095C229.188,191.865,229.039,192.232,228.72,192.366z"/>
						<g>
							<g>
								<path style="fill:#263238;" d="M243.669,182.898l-12.803,5.388c-0.27,0.114-0.58-0.013-0.694-0.283
									c-0.114-0.27,0.013-0.58,0.283-0.694l12.803-5.388c0.27-0.113,0.58,0.013,0.694,0.283S243.939,182.784,243.669,182.898z"/>
							</g>
							<g>
								<path style="fill:#263238;" d="M240.657,186.667l-8.897,3.744c-0.27,0.114-0.58-0.013-0.694-0.283
									c-0.114-0.27,0.013-0.58,0.283-0.694l8.897-3.744c0.27-0.114,0.58,0.013,0.694,0.283
									C241.053,186.243,240.926,186.553,240.657,186.667z"/>
							</g>
						</g>
					</g>
					<g>
						<path style="fill:#757575;stroke:#263238;strokeLinecap:round;strokeLinejoin:round;stroke-miterlimit:10;" d="
							M232.725,201.884l-3.095,1.303c-0.319,0.134-0.686-0.016-0.82-0.334l-1.303-3.095c-0.134-0.319,0.015-0.686,0.334-0.82
							l3.095-1.303c0.319-0.134,0.686,0.016,0.82,0.334l1.303,3.095C233.194,201.383,233.044,201.75,232.725,201.884z"/>
						<g>
							<g>
								<path style="fill:#263238;" d="M247.674,192.416l-12.803,5.388c-0.27,0.114-0.58-0.013-0.694-0.283s0.013-0.58,0.283-0.694
									l12.803-5.388c0.27-0.113,0.58,0.013,0.694,0.283C248.071,191.992,247.944,192.302,247.674,192.416z"/>
							</g>
							<g>
								<path style="fill:#263238;" d="M244.662,196.184l-8.896,3.744c-0.27,0.114-0.58-0.013-0.694-0.283
									c-0.114-0.27,0.013-0.58,0.283-0.694l8.896-3.744c0.27-0.114,0.58,0.013,0.694,0.283
									C245.059,195.761,244.932,196.071,244.662,196.184z"/>
							</g>
						</g>
					</g>
				</g>
			</g>
			<g style="clip-path:url(#XMLID_00000160171823858687914170000010556402058124156596_);">
				<path style="fill:#263238;" d="M264.51,231.656L160.52,275.42c-0.601,0.253-0.884,0.946-0.631,1.547
					c0.253,0.601,0.946,0.884,1.547,0.631l103.991-43.764c0.601-0.253,0.884-0.946,0.631-1.547
					C265.805,231.685,265.112,231.403,264.51,231.656z"/>
				<path style="fill:#263238;" d="M267.806,239.486l-120.921,50.89c-0.601,0.253-0.884,0.946-0.631,1.547
					c0.253,0.601,0.946,0.884,1.547,0.631l120.921-50.89c0.601-0.253,0.884-0.946,0.631-1.547
					C269.1,239.516,268.407,239.233,267.806,239.486z"/>
				<path style="fill:#263238;" d="M271.101,247.317l-120.921,50.89c-0.601,0.253-0.884,0.946-0.63,1.547
					c0.253,0.601,0.946,0.884,1.547,0.631l120.921-50.89c0.601-0.253,0.884-0.946,0.631-1.547
					C272.395,247.346,271.703,247.064,271.101,247.317z"/>
				<path style="fill:#263238;" d="M274.397,255.147l-120.922,50.89c-0.601,0.253-0.884,0.946-0.63,1.547
					c0.253,0.601,0.946,0.884,1.547,0.631l120.922-50.89c0.601-0.253,0.884-0.946,0.631-1.547
					C275.691,255.176,274.998,254.894,274.397,255.147z"/>
				<path style="fill:#263238;" d="M226.9,284.353l-70.13,29.514c-0.601,0.253-0.884,0.946-0.631,1.547
					c0.253,0.601,0.946,0.884,1.547,0.631l70.13-29.514c0.601-0.253,0.884-0.946,0.631-1.547
					C228.194,284.382,227.502,284.1,226.9,284.353z"/>
			</g>
			<g style="clip-path:url(#XMLID_00000160171823858687914170000010556402058124156596_);">
				<g>
					<g>
						<path style="fill:#BFBFBF;stroke:#263238;stroke-miterlimit:10;" d="M188.276,131.704c0,0,1.352,10.614-2.601,12.278
							c-3.608,1.518-8.361-4.177-12.509-2.431c-4.151,1.747-0.876,16.793-4.878,18.477c-4.002,1.684-8.824-4.498-12.275-3.045
							c-3.451,1.452-1.365,9.193-4.923,10.691c-2.937,1.236-7.141-4.917-10.501-6.267c-0.713-0.287-1.385-0.359-2-0.1
							c-3.522,1.482-1.774,17.646-4.812,18.925c-1.012,0.426-1.885,0.496-2.696,0.441c-1.196-0.084-2.256-0.441-3.428-0.323
							c-0.409,0.042-0.835,0.139-1.281,0.327c-2.594,1.092-2.24,9.598-4.612,10.596c-2.372,0.998-4.712-0.239-7.244,0.827
							c-2.532,1.066-2.491,5.488-6.265,7.077l1.596,3.794l92.107-38.763"/>
						<path style="fill:#92E3A9;stroke:#263238;stroke-miterlimit:10;" d="M194.229,145.85c0,0,0.844,5.145-1.193,6.002
							c-1.689,0.711-2.728-0.279-4.509-0.345c-0.71-0.028-1.539,0.093-2.576,0.529c-1.627,0.685-2.023,2.882-2.311,5.246
							c-0.355,2.906-0.545,6.063-2.672,6.959c-1.49,0.627-3.099,0.261-4.763-0.32c-2.644-0.922-5.428-2.38-8.112-1.25
							c-1.301,0.548-2.214,1.963-2.922,3.709c-1.669,4.131-2.195,10.113-4.002,10.874c-2.572,1.082-7.28-3.337-9.562-2.377
							c-2.282,0.96-1.348,4.926-3.2,5.705c-1.852,0.779-2.909-1.52-6.169-0.148c-3.263,1.373-1.673,6.188-6.269,8.122
							c-4.595,1.934-6.615-1.623-11.064,0.249c-4.446,1.871-3.64,5.242-6.773,6.561s-4.459-0.973-6.704-0.028
							c-2.175,0.915-2.773,4.494-2.809,4.717l1.228,2.917l92.107-38.763"/>
					</g>
					<polyline style="fill:none;stroke:#263238;strokeLinecap:round;strokeLinejoin:round;stroke-miterlimit:10;" points="
						91.199,158.66 109.847,202.971 206.285,162.385 					"/>
				</g>
				<path style="fill:#263238;" d="M175.904,180.261l-32.036,13.482c-0.601,0.253-0.884,0.946-0.631,1.547
					c0.253,0.601,0.946,0.884,1.547,0.631l32.036-13.482c0.601-0.253,0.884-0.946,0.631-1.547
					C177.198,180.29,176.505,180.008,175.904,180.261z"/>
				<g>
					<g>
						<path style="fill:#BFBFBF;stroke:#263238;stroke-miterlimit:10;" d="M201.74,128.258l-3.095,1.303
							c-0.319,0.134-0.686-0.016-0.82-0.334l-1.303-3.095c-0.134-0.319,0.015-0.686,0.334-0.82l3.095-1.303
							c0.319-0.134,0.686,0.016,0.82,0.334l1.303,3.095C202.208,127.757,202.059,128.124,201.74,128.258z"/>
						<g>
							<g>
								<path style="fill:#263238;" d="M216.689,118.79l-12.803,5.388c-0.27,0.114-0.58-0.013-0.694-0.283
									c-0.114-0.27,0.013-0.58,0.283-0.694l12.803-5.388c0.27-0.114,0.58,0.013,0.694,0.283
									C217.085,118.366,216.959,118.676,216.689,118.79z"/>
							</g>
							<g>
								<path style="fill:#263238;" d="M213.677,122.558l-8.897,3.744c-0.27,0.114-0.58-0.013-0.694-0.283
									c-0.114-0.27,0.013-0.58,0.283-0.694l8.897-3.744c0.27-0.114,0.58,0.013,0.694,0.283
									C214.073,122.134,213.947,122.445,213.677,122.558z"/>
							</g>
						</g>
					</g>
					<g>
						<path style="fill:#92E3A9;stroke:#263238;stroke-miterlimit:10;" d="M205.746,137.776l-3.095,1.303
							c-0.319,0.134-0.686-0.016-0.82-0.334l-1.303-3.095c-0.134-0.319,0.016-0.686,0.334-0.82l3.095-1.303
							c0.319-0.134,0.686,0.016,0.82,0.334l1.303,3.095C206.214,137.275,206.064,137.642,205.746,137.776z"/>
						<g>
							<g>
								<path style="fill:#263238;" d="M220.694,128.308l-12.803,5.388c-0.27,0.114-0.58-0.013-0.694-0.283
									c-0.114-0.27,0.013-0.58,0.283-0.694l12.803-5.388c0.27-0.114,0.58,0.013,0.694,0.283S220.964,128.194,220.694,128.308z"/>
							</g>
							<g>
								<path style="fill:#263238;" d="M217.682,132.076l-8.896,3.744c-0.27,0.114-0.58-0.013-0.694-0.283
									c-0.114-0.27,0.013-0.58,0.283-0.694l8.896-3.744c0.27-0.114,0.58,0.013,0.694,0.283
									C218.079,131.653,217.952,131.963,217.682,132.076z"/>
							</g>
						</g>
					</g>
				</g>
			</g>
			<path style="opacity:0.2;clip-path:url(#XMLID_00000160171823858687914170000010556402058124156596_);fill-opacity:0.7;" d="
				M163.81,330.27l-13.87,5.84L123.8,274c1.64-1.56,3.56-4.23,4.37-8.57c1.56-8.32,0.46-35.07,21.29-37.83
				c20.82-2.76,3.26,44.08,4.22,53.01C154.56,288.74,166.43,312.37,163.81,330.27z"/>
			
				<use xlink:href="#XMLID_309_"  style="overflow:visible;fill:none;stroke:#263238;strokeLinecap:round;strokeLinejoin:round;stroke-miterlimit:10;"/>
		</g>
		<g>
			<path style="fill:#FFFFFF;" d="M155.431,283.996c2.334-7.984,11.455-33.614,10.258-44.944c-0.107-1.016-0.329-1.935-0.639-2.759
				c-3.201-8.462-16.284-7.643-21.306-0.632c-5.517,7.712-10.024,21.586-10.409,30.031c-0.211,4.669-2.211,8.953-3.957,11.857
				c-0.008,0.019-0.008,0.028-0.017,0.037c-1.41,2.338-2.647,3.759-2.647,3.759l-29.847-70.819c0,0-4.82,3.896-7.81,8.717
				c-1.207,1.934-2.112,4.031-2.294,6.07c-0.611,6.975-8.512,35.634-11.797,47.729c-0.063,0.26-0.135,0.502-0.199,0.744
				c-3.158,11.622,5.18,54.782,2.796,67.319c-2.394,12.527-3.867,12.258-4.214,21.161c-0.254,6.5-9.554,26.264-19.972,46.552
				c-5.974,11.627-12.318,23.416-17.548,32.97l76.32-3.17c1.323-9.272,2.677-19.061,3.916-28.534c0.509-3.9,1.336-7.906,2.28-11.714
				c0,0,0,0,0-0.009c1.685-6.799,3.737-12.951,4.984-16.551c1.954-5.624,3.983-16.096,3.983-16.096
				c8.876-9.395,20.516-24.164,23.887-34.167c0.008-0.019,0.016-0.047,0.025-0.065c0.851-2.526,1.163-4.746,0.76-6.494
				c-0.335-1.439-0.523-3.306-0.604-5.463c0.009-0.009,0.009-0.009-0.001-0.018C150.996,308.677,153.474,290.649,155.431,283.996z"
				/>
			<path style="opacity:0.4;fill:#92E3A9;" d="M129.362,277.586c-2.367,4.75-5.218,9.363-7.038,14.688
				c-1.82,5.324-3.774,6.077-9.116,10.242c-5.342,4.165-9.24-2.696-9.24-2.696s7.067-7.344,4.719-11.429
				c-2.358-4.094-11.145-14.263-10.624-19.874c0.512-5.61-5.333-18.191-5.333-18.191s13.326-7.825,10.74-16.965
				c-1.412-5.006-8.39-10.333-14.411-14.118c2.989-4.821,7.81-8.717,7.81-8.717l29.847,70.819
				C126.715,281.346,127.952,279.925,129.362,277.586z"/>
			<path style="opacity:0.4;fill:#92E3A9;" d="M80.958,321.026c0.181,0.599,4.518,14.934,0.859,20.904
				c-3.745,6.103-7.421,13.885-5.632,21.992c1.427,6.477-10.571,29.882-22.808,44.896c10.418-20.288,19.718-40.052,19.972-46.552
				c0.347-8.903,1.82-8.634,4.214-21.161c2.384-12.536-5.953-55.697-2.796-67.319c0.063-0.242,0.136-0.484,0.199-0.744
				c2.33,13.168,7.758,39.398,9.248,47.829C86.113,331.613,81.16,321.45,80.958,321.026z"/>
			<path style="opacity:0.4;fill:#92E3A9;" d="M108.44,407.497c8.866-38.185,38.719-67.471,42.761-75.948
				c-3.372,10.003-15.012,24.772-23.887,34.167c0,0-2.029,10.471-3.983,16.096c-1.248,3.6-3.3,9.752-4.984,16.551
				c0,0.009,0,0.009,0,0.009C109.68,408.585,108.44,407.497,108.44,407.497z"/>
			<path style="opacity:0.4;fill:#92E3A9;" d="M155.431,283.996c-1.957,6.654-4.435,24.682-4.05,35.512
				c-1.569-6.801-4.594-15.436-5.094-27.466c-0.847-20.399,10.708-13.084,6.678-23.129c-4.029-10.036-15.518,2.832-9.857-18.444
				c4.135-15.532,15.898-15.386,21.941-14.176c0.31,0.824,0.532,1.743,0.639,2.759C166.886,250.382,157.765,276.012,155.431,283.996
				z"/>
			<g>
				<path style="fill:none;stroke:#263238;strokeLinecap:round;strokeLinejoin:round;stroke-miterlimit:10;" d="M47.436,420.726
					c9.573-17.486,18.877-35.475,25.585-54.879c0.803-2.791-0.267-6.423,0.537-9.215c9.065-25.196-1.217-51.426,0.469-77.235
					c1.416-10.17,4.667-20.417,7.919-30.663c1.53-7.417,2.105-15.714,4.553-23.17c2.524-5.62,5.01-12.158,10.369-15.037
					c10.2,23.375,20.367,46.853,29.847,70.819c4.282-2.476,4.971-8.02,5.698-12.646c2.296-11.126,4.629-21.334,8.837-30.701
					c4.283-7.532,15.181-10.742,21.871-4.585c1.912,1.759,2.943,4.474,3.058,7.227c-1.302,12.923-5.356,25.961-9.449,38.081
					c-1.607,5.582-3.251,10.247-3.94,15.79c0.076,1.835,0.114,2.753,0.191,4.588c-2.372,9.291-0.194,17.473-0.73,26.688
					c-2.067,16.632-15.374,28.215-24.973,40.564c-2.372,9.291-4.744,18.582-8.033,27.91c-4.017,13.955-5.28,27.796-6.651,41.249"/>
				<path style="fill:none;stroke:#263238;strokeLinecap:round;strokeLinejoin:round;stroke-miterlimit:10;" d="M126.717,281.346
					c0,0-3.144,6.027-4.395,10.928c-1.251,4.901-7.584,4.194-10.851,7.239"/>
				<path style="fill:none;stroke:#263238;strokeLinecap:round;strokeLinejoin:round;stroke-miterlimit:10;" d="M102.843,272.719
					c0,0,8.611,3.036,13.623,6.95c5.011,3.913,8.72,4.868,8.72,4.868"/>
				<path style="fill:none;stroke:#263238;strokeLinecap:round;strokeLinejoin:round;stroke-miterlimit:10;" d="M97.35,251.37
					c0,0,6.948,1.948,12.101-0.503c0,0,0.383-4.256,1.306-7.386"/>
				<path style="fill:none;stroke:#263238;strokeLinecap:round;strokeLinejoin:round;stroke-miterlimit:10;" d="M111.106,251.876
					c0,0,0.073,0.969,3.615,1.009"/>
				<path style="fill:none;stroke:#263238;strokeLinecap:round;strokeLinejoin:round;stroke-miterlimit:10;" d="M127.312,365.72
					c0,0-6.775,6.147-10.921,17.229"/>
				<path style="fill:none;stroke:#263238;strokeLinecap:round;strokeLinejoin:round;stroke-miterlimit:10;" d="M74.355,275.924
					c-0.311,5.988,6.722,27.276,8.859,37.854c2.136,10.578,2.932,18.061,2.932,18.061"/>
			</g>
		</g>
	</g>
</g>
</svg>
