<?xml version="1.0" encoding="utf-8"?>
<!-- Generator: Adobe Illustrator 27.5.0, SVG Export Plug-In . SVG Version: 6.00 Build 0)  -->
<svg version="1.1" xmlns="http://www.w3.org/2000/svg" xmlns:xlink="http://www.w3.org/1999/xlink" x="0px" y="0px"
	 viewBox="0 0 500 500" style="enable-background:new 0 0 500 500;" xml:space="preserve">
<g id="Floor">
	<ellipse id="Floor_1_" style="fill:#FAFAFA;" cx="249.048" cy="341.216" rx="240.643" ry="138.935"/>
</g>
<g id="Shadows">
	<ellipse id="Shadow_28_" style="fill:#E0E0E0;" cx="380.872" cy="402.789" rx="48.211" ry="27.835"/>
	<path id="Shadow_3_" style="fill:#E0E0E0;" d="M67.465,390.323L27.933,367.5c-2.229-1.287-2.229-3.373,0-4.66l229.939-132.756
		c2.229-1.287,5.842-1.287,8.071,0l39.533,22.823c2.229,1.287,2.229,3.373,0,4.66L75.536,390.323
		C73.307,391.61,69.693,391.61,67.465,390.323z"/>
</g>
<g id="Clouds">
	<path id="Cloud_1_" style="fill:#EBEBEB;" d="M94.025,52.741l-8.94,5.161c0.044-0.399,0.075-0.796,0.075-1.183v-2.59
		c0-4.609-3.236-6.477-7.227-4.173c-1.616,0.933-3.103,2.412-4.307,4.142c-0.654-5.795-5.201-7.954-10.723-4.766
		C56.932,52.78,52.091,61.165,52.091,68.06v3.874c0,1.786,0.33,3.29,0.915,4.489l-7.425,4.287c-2.214,1.278-4.009,4.387-4.009,6.943
		c0,2.557,1.795,3.593,4.009,2.314l48.444-27.969c2.214-1.278,4.009-4.387,4.009-6.944C98.034,52.499,96.239,51.462,94.025,52.741z"
		/>
	<path id="Cloud" style="fill:#EBEBEB;" d="M140.321,74.16l-6.747,3.895c0.033-0.301,0.057-0.6,0.057-0.893v-1.955
		c0-3.478-2.442-4.888-5.454-3.149c-1.22,0.704-2.342,1.82-3.251,3.126c-0.493-4.374-3.925-6.003-8.093-3.597
		c-4.507,2.602-8.16,8.929-8.16,14.133v2.924c0,1.348,0.249,2.483,0.691,3.388l-5.604,3.235c-1.671,0.965-3.025,3.311-3.025,5.24
		c0,1.929,1.354,2.711,3.025,1.747l36.561-21.109c1.671-0.965,3.025-3.311,3.025-5.24C143.346,73.978,141.992,73.196,140.321,74.16z
		"/>
</g>
<g id="Device">
	<g id="Monitor_2_">
		<g id="XMLID_7999_">
			<g id="XMLID_8004_">
				<path id="XMLID_8250_" style="fill:#263238;" d="M209.56,349.646l33.984-19.65c3.503-2.022,5.254-4.673,5.255-7.323
					c0-2.651,0.015-4.727,0.015-4.727l-35.26-19.882c-1.868-1.079-3.383-3.702-3.383-5.86v-41.899l-59.358,34.3l-0.002,41.899
					c0,2.157,1.514,4.781,3.383,5.859l29.995,17.283C191.195,353.692,202.554,353.691,209.56,349.646z"/>
			</g>
			<path id="XMLID_8003_" d="M165.063,333.923v4.707l-10.879-6.269c-1.855-1.074-3.379-3.691-3.379-5.859v-41.895l11.309-6.524
				c0.234,2.871,0.488,5.84,0.722,8.731l-7.93,4.59v32.735c0,2.168,1.504,4.785,3.379,5.859L165.063,333.923z"/>
			<path id="XMLID_8002_" style="fill:#37474F;" d="M154.905,324.146c0,2.157,1.515,4.781,3.383,5.859l25.896,14.916
				c7.006,4.045,18.367,4.046,25.374,0.003l34.001-19.648c7.007-4.043,7.008-10.601,0.002-14.646l-25.912-14.927
				c-1.868-1.079-3.383-3.702-3.383-5.859l0-32.739l-59.359,34.3V324.146z"/>
			<path id="XMLID_8001_" style="fill:#263238;" d="M224.538,299.687v-0.005l-6.89-3.978c-1.869-1.079-3.383-3.702-3.383-5.859
				l0-32.739l-59.36,34.3v32.74c0,2.157,1.515,4.781,3.383,5.859l6.771,3.909L224.538,299.687z"/>
			<path id="XMLID_8000_" style="fill:#455A64;" d="M248.807,317.949c0,0,0,2.07,0,4.727c0,2.656-1.758,5.293-5.254,7.324
				l-33.99,19.639c-3.359,1.953-7.715,2.93-12.109,3.008v-4.707c4.395-0.059,8.75-1.074,12.109-3.008l33.99-19.658
				C247.049,323.262,248.807,320.606,248.807,317.949z"/>
		</g>
		<path id="XMLID_7156_" style="fill:#455A64;" d="M59.597,364.839c2.191,1.265,5.86,1.197,8.196-0.151
			c29.183-16.848,200.38-115.687,229.558-132.533c2.335-1.348,4.228-4.627,4.228-7.324V38.524c0-2.697-1.776-5.908-3.967-7.173
			c-2.191-1.265-5.86-1.197-8.195,0.152L59.862,164.036c-2.335,1.348-4.229,4.628-4.229,7.324l-0.003,186.306
			C55.631,360.363,57.407,363.574,59.597,364.839z"/>
		<path id="XMLID_7143_" style="fill:#27DEBF;" d="M67.794,364.682L297.351,232.15c2.336-1.348,4.229-4.628,4.229-7.324V38.519
			c0-2.697-1.893-3.79-4.229-2.442L67.797,168.611c-2.335,1.348-4.229,4.627-4.229,7.324l-0.003,186.306
			C63.566,364.938,65.459,366.031,67.794,364.682z"/>
		<path id="XMLID_7140_" style="fill:#37474F;" d="M67.794,364.682L297.351,232.15c2.336-1.348,4.229-4.628,4.229-7.324V38.519
			c0-2.697-1.893-3.79-4.229-2.442L67.797,168.611c-2.335,1.348-4.229,4.627-4.229,7.324l-0.003,186.306
			C63.566,364.938,65.459,366.031,67.794,364.682z"/>
		<path id="XMLID_7139_" style="fill:#263238;" d="M67.172,369.509c-2.343,1.035-5.586,0.996-7.578-0.156
			c-2.188-1.27-3.965-4.473-3.965-7.188v-16.909l7.93,4.59v16.909C63.559,369.216,65.121,370.33,67.172,369.509z"/>
		<path id="XMLID_7138_" style="fill:#37474F;" d="M63.559,349.846l0.007,16.903c0,2.697,1.893,3.79,4.228,2.441l229.557-132.532
			c2.336-1.348,4.228-4.628,4.228-7.324v-16.939L63.559,349.846z"/>
		<path id="XMLID_7137_" style="opacity:0.2;" d="M63.566,349.811l0,16.938c0,2.697,1.893,3.79,4.228,2.441l229.557-132.532
			c2.336-1.348,4.228-4.628,4.228-7.324v-16.939L63.566,349.811z"/>
		<path id="XMLID_7133_" style="fill:#27DEBF;" d="M71.497,328.633l0.002-150.065c0-1.618,1.136-3.586,2.537-4.395L291.104,48.849
			c1.401-0.809,2.537-0.153,2.537,1.465l0.007,150.068c0,1.618-1.136,3.586-2.537,4.395L74.035,330.098
			C72.633,330.907,71.497,330.251,71.497,328.633z"/>
		<path id="XMLID_7132_" style="opacity:0.3;" d="M71.497,328.633l0.002-150.065c0-1.618,1.136-3.586,2.537-4.395L291.104,48.849
			c1.401-0.809,2.537-0.153,2.537,1.465l0.007,150.068c0,1.618-1.136,3.586-2.537,4.395L74.035,330.098
			C72.633,330.907,71.497,330.251,71.497,328.633z"/>
		<path id="XMLID_7130_" style="fill:#455A64;" d="M182.57,286.5c-2.191,1.265-3.968,4.342-3.968,6.872
			c0,2.53,1.777,3.556,3.968,2.29c2.192-1.265,3.968-4.342,3.968-6.872C186.538,286.26,184.761,285.235,182.57,286.5z"/>
		<path id="XMLID_7129_" style="fill:#263238;" d="M64.809,171.751c-0.762,1.328-1.23,2.832-1.25,4.18v173.916l-7.93-4.59V171.361
			c0-1.348,0.488-2.852,1.25-4.18L64.809,171.751z"/>
	</g>
</g>
<g id="Spreadsheets">
	<g id="Window_1_">
		<g id="Window_5_">
			<g id="XMLID_7126_">
				<path style="fill:#27DEBF;" d="M333.546,37.637c-0.552-0.331-1.307-0.321-2.157,0.17L102.602,169.94
					c-1.636,0.945-2.963,3.243-2.963,5.133v154.245c0,1.151,0.493,2.169,1.249,2.575c0.484,0.26,3.03,1.742,3.786,2.148
					c0.485,0.26,1.077,0.269,1.717-0.099l228.781-132.182c1.638-0.942,2.966-3.238,2.966-5.128V41.666
					c0-0.974-0.353-1.65-0.919-1.946C336.687,39.441,334.091,37.965,333.546,37.637z"/>
			</g>
			<g id="XMLID_7118_">
				<g id="XMLID_7120_">
					<path style="fill:#FAFAFA;" d="M105.412,333.727c-0.82,0-1.487-1.015-1.487-2.263V177.22c0-1.698,1.243-3.851,2.713-4.7
						L335.424,40.388c0.383-0.221,0.754-0.338,1.073-0.338c0.714,0,1.141,0.604,1.141,1.616V196.63c0,1.698-1.243,3.848-2.715,4.694
						L106.141,333.508C105.888,333.653,105.643,333.727,105.412,333.727z"/>
					<path style="fill:#E0E0E0;" d="M336.498,40.55L336.498,40.55c0.556,0,0.64,0.699,0.64,1.116v154.965
						c0,1.541-1.129,3.492-2.466,4.262L105.892,333.074c-0.176,0.102-0.338,0.153-0.48,0.153c-0.526,0-0.987-0.824-0.987-1.763
						V177.22c0-1.542,1.128-3.495,2.463-4.266L335.674,40.821C336.061,40.597,336.336,40.55,336.498,40.55 M336.497,39.55
						c-0.398,0-0.848,0.13-1.323,0.405L106.388,172.087c-1.637,0.945-2.963,3.243-2.963,5.133v154.244
						c0,1.494,0.83,2.763,1.987,2.763c0.306,0,0.636-0.089,0.979-0.286l228.781-132.182c1.638-0.942,2.966-3.238,2.966-5.128V41.666
						C338.137,40.325,337.47,39.55,336.497,39.55L336.497,39.55z"/>
				</g>
				<path id="XMLID_7119_" style="fill:#F0F0F0;" d="M100.883,331.891c0.321,0.17,2.625,1.485,3.635,2.06
					c-0.681-0.485-1.04-1.319-1.09-2.488V186.913l-3.793-2.219v144.625C99.634,330.465,100.128,331.49,100.883,331.891z"/>
			</g>
			<g id="XMLID_7112_">
				<path id="XMLID_7117_" style="fill:#27DEBF;" d="M338.135,41.643c-0.012-1.872-1.332-2.629-2.961-1.688L106.388,172.087
					c-1.637,0.945-2.963,3.243-2.963,5.133l0.003,9.693L338.135,51.369V41.643z"/>
				<g id="XMLID_7114_" style="opacity:0.4;">
					<path style="fill:#FFFFFF;" d="M335.173,39.953L106.391,172.087c-0.811,0.475-1.556,1.277-2.088,2.199l-3.765-2.181
						c0.531-0.913,1.258-1.706,2.06-2.162L331.389,37.81c0.848-0.494,1.603-0.503,2.153-0.177c0.531,0.326,2.992,1.724,3.616,2.06
						C336.636,39.441,335.937,39.515,335.173,39.953z"/>
				</g>
				<path id="XMLID_7113_" style="opacity:0.15;" d="M99.634,184.703v-9.634c0-0.96,0.354-2.022,0.904-2.964l3.775,2.172
					c-0.55,0.932-0.885,1.985-0.885,2.945v9.691L99.634,184.703z"/>
			</g>
			<g id="XMLID_7076_">
				<polygon id="XMLID_7111_" style="fill:#EBEBEB;" points="103.427,186.913 103.424,204.367 338.135,68.852 338.135,51.369 				
					"/>
				<g id="XMLID_7078_">
					<polygon id="XMLID_7110_" style="fill:#E0E0E0;" points="113.2,185.616 128.38,176.895 128.38,185.595 113.195,194.362 					
						"/>
					<g id="XMLID_7103_">
						<polygon id="XMLID_7109_" style="fill:#E0E0E0;" points="132.128,174.688 132.129,178.127 139.7,173.755 139.7,170.316 						
							"/>
						<polygon id="XMLID_7108_" style="fill:#E0E0E0;" points="132.128,179.998 132.129,183.437 139.7,179.065 139.7,175.627 						
							"/>
						<polygon id="XMLID_7107_" style="fill:#E0E0E0;" points="143.485,168.129 143.486,171.568 151.057,167.196 151.057,163.758 
													"/>
						<polygon id="XMLID_7106_" style="fill:#E0E0E0;" points="143.485,173.44 143.486,176.879 151.057,172.507 151.057,169.068 
													"/>
						<polygon id="XMLID_7105_" style="fill:#E0E0E0;" points="154.842,161.571 154.843,165.01 162.415,160.638 162.415,157.199 
													"/>
						<polygon id="XMLID_7104_" style="fill:#E0E0E0;" points="154.842,166.881 154.843,170.32 162.415,165.948 162.415,162.51 
													"/>
					</g>
					<g id="XMLID_7096_">
						<polygon id="XMLID_7102_" style="fill:#E0E0E0;" points="188.91,141.904 188.911,145.343 196.483,140.971 196.483,137.533 
													"/>
						<polygon id="XMLID_7101_" style="fill:#E0E0E0;" points="188.91,147.215 188.911,150.654 196.483,146.282 196.483,142.843 
													"/>
						<polygon id="XMLID_7100_" style="fill:#E0E0E0;" points="200.267,135.346 200.268,138.785 207.84,134.413 207.84,130.974 
													"/>
						<polygon id="XMLID_7099_" style="fill:#E0E0E0;" points="200.267,140.656 200.268,144.095 207.84,139.723 207.84,136.285 
													"/>
						<polygon id="XMLID_7098_" style="fill:#E0E0E0;" points="211.624,128.787 211.625,132.227 219.197,127.855 219.197,124.416 
													"/>
						<polygon id="XMLID_7097_" style="fill:#E0E0E0;" points="211.624,134.098 211.625,137.537 219.197,133.165 219.197,129.726 
													"/>
					</g>
					<polygon id="XMLID_7095_" style="fill:#E0E0E0;" points="166.196,155.017 185.126,144.089 185.126,152.831 166.2,163.758 					
						"/>
					<polygon id="XMLID_7094_" style="fill:#E0E0E0;" points="222.987,122.232 238.166,113.511 238.166,122.211 222.982,130.978 
											"/>
					<g id="XMLID_7087_">
						<polygon id="XMLID_7093_" style="fill:#E0E0E0;" points="241.914,111.304 241.916,114.743 249.487,110.371 249.487,106.932 
													"/>
						<polygon id="XMLID_7092_" style="fill:#E0E0E0;" points="241.914,116.614 241.916,120.053 249.487,115.681 249.487,112.243 
													"/>
						<polygon id="XMLID_7091_" style="fill:#E0E0E0;" points="253.271,104.745 253.273,108.185 260.844,103.813 260.844,100.374 
													"/>
						<polygon id="XMLID_7090_" style="fill:#E0E0E0;" points="253.271,110.056 253.273,113.495 260.844,109.123 260.844,105.684 
													"/>
						<polygon id="XMLID_7089_" style="fill:#E0E0E0;" points="264.628,98.187 264.63,101.626 272.201,97.254 272.201,93.815 						
							"/>
						<polygon id="XMLID_7088_" style="fill:#E0E0E0;" points="264.628,103.497 264.63,106.937 272.201,102.564 272.201,99.126 
													"/>
					</g>
					<g id="XMLID_7080_">
						<polygon id="XMLID_7086_" style="fill:#E0E0E0;" points="298.698,78.517 298.7,81.956 306.271,77.584 306.271,74.145 						
							"/>
						<polygon id="XMLID_7085_" style="fill:#E0E0E0;" points="298.698,83.827 298.7,87.266 306.271,82.894 306.271,79.456 						
							"/>
						<polygon id="XMLID_7084_" style="fill:#E0E0E0;" points="310.055,71.958 310.057,75.397 317.628,71.025 317.628,67.587 						
							"/>
						<polygon id="XMLID_7083_" style="fill:#E0E0E0;" points="310.055,77.269 310.057,80.708 317.628,76.336 317.628,72.897 						
							"/>
						<polygon id="XMLID_7082_" style="fill:#E0E0E0;" points="321.412,65.4 321.414,68.839 328.985,64.467 328.985,61.028 						
							"/>
						<polygon id="XMLID_7081_" style="fill:#E0E0E0;" points="321.412,70.71 321.414,74.149 328.985,69.777 328.985,66.339 						
							"/>
					</g>
					<polygon id="XMLID_7079_" style="fill:#E0E0E0;" points="275.986,91.633 294.915,80.705 294.915,89.447 275.99,100.374 					
						"/>
				</g>
				<polygon id="XMLID_7077_" style="fill:#E0E0E0;" points="103.427,186.913 99.634,184.694 99.634,202.184 103.424,204.367 				
					"/>
			</g>
			<g id="XMLID_7073_">
				<path id="XMLID_7075_" style="fill:#F5F5F5;" d="M277.566,79.463l0,0.643c0,1.029,0.722,1.447,1.614,0.932l45.986-26.55
					c0.892-0.515,1.614-1.766,1.615-2.796l0-0.644c0-1.029-0.722-1.447-1.614-0.932l-45.986,26.551
					C278.289,77.182,277.566,78.434,277.566,79.463z"/>
				<path id="XMLID_7074_" style="fill:#455A64;" d="M326.78,51.692l0-0.644c0-1.029-0.722-1.447-1.614-0.932l-5.957,3.44h0
					l-0.001,4.372l0,0l5.957-3.439C326.057,53.973,326.78,52.722,326.78,51.692z"/>
			</g>
		</g>
		<g id="Spreadsheets_2_">
			<polygon id="XMLID_7072_" style="fill:#F0F0F0;" points="107.211,206.544 334.355,75.424 334.355,84.145 126.133,204.368 
				126.129,318.022 107.211,328.945 			"/>
			<polygon id="XMLID_7071_" style="fill:#27DEBF;" points="126.133,204.368 145.046,193.448 145.046,202.169 126.133,213.107 			
				"/>
			<polygon id="XMLID_7070_" style="fill:#27DEBF;" points="126.133,274.299 145.046,263.38 145.046,272.101 126.133,283.038 			"/>
			<g id="XMLID_7067_">
				<polygon id="XMLID_7069_" style="fill:#27DEBF;" points="126.133,283.042 145.046,272.123 145.046,280.844 126.133,291.781 				
					"/>
				<polygon id="XMLID_7068_" style="opacity:0.8;fill:#FFFFFF;" points="126.133,283.042 145.046,272.123 145.046,280.844 
					126.133,291.781 				"/>
			</g>
			<g id="XMLID_7064_">
				<polygon id="XMLID_7066_" style="fill:#27DEBF;" points="239.692,208.729 258.605,197.81 258.605,206.531 239.692,217.468 				
					"/>
				<polygon id="XMLID_7065_" style="opacity:0.3;" points="239.692,208.729 258.605,197.81 258.605,206.531 239.692,217.468 				
					"/>
			</g>
			<g id="XMLID_7061_">
				<polygon id="XMLID_7063_" style="fill:#27DEBF;" points="239.692,217.473 258.605,206.553 258.605,215.274 239.692,226.212 				
					"/>
				<polygon id="XMLID_7062_" style="opacity:0.4;" points="239.692,217.473 258.605,206.553 258.605,215.274 239.692,226.212 				
					"/>
			</g>
			<g id="XMLID_7058_">
				<polygon id="XMLID_7060_" style="fill:#27DEBF;" points="239.692,226.216 258.605,215.297 258.605,224.018 239.692,234.955 				
					"/>
				<polygon id="XMLID_7059_" style="opacity:0.5;" points="239.692,226.216 258.605,215.297 258.605,224.018 239.692,234.955 				
					"/>
			</g>
			<g id="XMLID_7055_">
				<polygon id="XMLID_7057_" style="fill:#27DEBF;" points="239.692,234.959 258.605,224.04 258.605,232.761 239.692,243.698 				
					"/>
				<polygon id="XMLID_7056_" style="opacity:0.3;" points="239.692,234.959 258.605,224.04 258.605,232.761 239.692,243.698 				
					"/>
			</g>
			<polygon id="XMLID_7054_" style="fill:#27DEBF;" points="220.78,149.717 239.692,138.797 239.692,182.51 220.78,193.448 			"/>
			<polygon id="XMLID_7053_" style="fill:#27DEBF;" points="220.78,202.176 239.692,191.256 239.692,252.454 220.78,263.392 			"/>
			<g id="XMLID_7050_">
				<polygon id="XMLID_7052_" style="fill:#27DEBF;" points="145.046,245.887 163.958,234.968 163.958,243.688 145.046,254.626 				
					"/>
				<polygon id="XMLID_7051_" style="opacity:0.3;" points="145.046,245.887 163.958,234.968 163.958,243.688 145.046,254.626 				
					"/>
			</g>
			<g id="XMLID_7047_">
				<polygon id="XMLID_7049_" style="fill:#27DEBF;" points="182.924,180.316 201.836,169.396 201.836,178.117 182.924,189.055 				
					"/>
				<polygon id="XMLID_7048_" style="opacity:0.6;fill:#FFFFFF;" points="182.924,180.316 201.836,169.396 201.836,178.117 
					182.924,189.055 				"/>
			</g>
			<g id="XMLID_7044_">
				<polygon id="XMLID_7046_" style="fill:#27DEBF;" points="277.571,178.13 296.483,167.211 296.483,175.932 277.571,186.869 				
					"/>
				<polygon id="XMLID_7045_" style="opacity:0.8;fill:#FFFFFF;" points="277.571,178.13 296.483,167.211 296.483,175.932 
					277.571,186.869 				"/>
			</g>
			<polygon id="XMLID_7043_" style="fill:#27DEBF;" points="277.571,195.623 296.483,184.703 296.483,193.424 277.571,204.362 			
				"/>
			<path id="XMLID_2338_" style="fill:#E0E0E0;" d="M106.978,206.149l-0.233,0.135l-0.002,123.475l227.841-131.547l0.233-0.135
				l0.002-123.474L106.978,206.149z M333.885,188.824l-17.99,10.386v-7.669l17.99-10.386L333.885,188.824z M107.677,215.561
				l17.994-10.389v7.669l-17.994,10.389L107.677,215.561z M220.318,202.998v7.669l-17.998,10.391v-7.669L220.318,202.998z
				 M202.32,212.314v-7.669l17.998-10.391v7.669L202.32,212.314z M221.25,202.46l17.997-10.391v7.669l-17.997,10.39V202.46z
				 M221.25,201.384v-7.669l17.997-10.391v7.669L221.25,201.384z M221.25,192.639v-7.67l17.997-10.391v7.67L221.25,192.639z
				 M221.25,183.894v-7.669l17.997-10.391v7.669L221.25,183.894z M220.318,184.432l-17.998,10.391v-7.669l17.998-10.391V184.432z
				 M220.318,185.508v7.669l-17.998,10.391v-7.67L220.318,185.508z M201.388,204.106l-17.997,10.39v-7.67l17.997-10.39V204.106z
				 M201.388,205.182v7.669l-17.997,10.391v-7.67L201.388,205.182z M201.388,213.927v7.669l-17.997,10.39v-7.669L201.388,213.927z
				 M201.388,222.672v7.669l-17.997,10.391v-7.67L201.388,222.672z M202.32,222.134l17.998-10.391v7.669l-17.998,10.391V222.134z
				 M220.318,220.488v7.669l-17.998,10.391v-7.669L220.318,220.488z M221.25,219.95l17.997-10.391v7.669l-17.997,10.39V219.95z
				 M221.25,218.874v-7.669l17.997-10.39v7.669L221.25,218.874z M240.179,200.276l17.997-10.39v7.669l-17.997,10.391V200.276z
				 M240.179,199.201v-7.669l17.997-10.39v7.669L240.179,199.201z M240.179,190.456v-7.669l17.997-10.391v7.669L240.179,190.456z
				 M240.179,181.711v-7.669l17.997-10.39v7.669L240.179,181.711z M240.179,172.965v-7.669l17.997-10.39v7.669L240.179,172.965z
				 M240.179,164.221v-7.669l17.997-10.39v7.669L240.179,164.221z M239.247,164.758l-17.997,10.391v-7.669l17.997-10.39V164.758z
				 M220.318,175.687l-17.998,10.391v-7.669l17.998-10.391V175.687z M201.388,186.616l-17.997,10.391v-7.669l17.997-10.39V186.616z
				 M201.388,187.692v7.669l-17.997,10.39v-7.669L201.388,187.692z M182.46,206.29l-17.998,10.391v-7.669l17.998-10.391V206.29z
				 M182.46,207.365v7.67l-17.998,10.391v-7.67L182.46,207.365z M182.46,216.111v7.67l-17.998,10.391v-7.67L182.46,216.111z
				 M182.46,224.856v7.669l-17.998,10.391v-7.669L182.46,224.856z M182.46,233.6v7.67l-17.998,10.391v-7.67L182.46,233.6z
				 M182.46,242.346v7.669l-17.998,10.391v-7.669L182.46,242.346z M183.391,241.808l17.997-10.39v7.669l-17.997,10.391V241.808z
				 M201.388,240.162v7.669l-17.997,10.39v-7.669L201.388,240.162z M202.32,239.624l17.998-10.391v7.669l-17.998,10.391V239.624z
				 M221.25,228.695l17.997-10.39v7.669l-17.997,10.391V228.695z M240.179,217.766l17.997-10.39v7.669l-17.997,10.391V217.766z
				 M240.179,216.691v-7.669l17.997-10.39v7.669L240.179,216.691z M259.107,198.093l17.998-10.391v7.669l-17.998,10.391V198.093z
				 M259.107,197.017v-7.669l17.998-10.391v7.669L259.107,197.017z M259.107,188.272v-7.669l17.998-10.391v7.669L259.107,188.272z
				 M259.107,179.527v-7.669l17.998-10.391v7.669L259.107,179.527z M259.107,170.782v-7.669l17.998-10.391v7.669L259.107,170.782z
				 M259.107,162.037v-7.669l17.998-10.391v7.669L259.107,162.037z M259.107,153.292v-7.669l17.998-10.391v7.669L259.107,153.292z
				 M259.107,144.547v-7.669l17.998-10.391v7.669L259.107,144.547z M258.176,145.085l-17.997,10.391v-7.669l17.997-10.39V145.085z
				 M239.247,156.013l-17.997,10.39v-7.669l17.997-10.391V156.013z M220.318,166.942l-17.998,10.391v-7.669l17.998-10.391V166.942z
				 M201.388,177.871l-17.997,10.391v-7.669l17.997-10.391V177.871z M182.46,188.799l-17.998,10.391v-7.669l17.998-10.391V188.799z
				 M182.46,189.876v7.669l-17.998,10.391v-7.669L182.46,189.876z M163.53,208.474l-17.997,10.391v-7.669l17.997-10.39V208.474z
				 M163.53,209.55v7.669l-17.997,10.391v-7.669L163.53,209.55z M163.53,218.294v7.67l-17.997,10.39v-7.67L163.53,218.294z
				 M163.53,227.04v7.67L145.533,245.1v-7.67L163.53,227.04z M163.53,235.785v7.669l-17.997,10.391v-7.669L163.53,235.785z
				 M163.53,244.529v7.67l-17.997,10.391v-7.67L163.53,244.529z M163.53,253.275v7.669l-17.997,10.39v-7.669L163.53,253.275z
				 M163.53,262.019v7.67l-17.997,10.39v-7.67L163.53,262.019z M164.462,261.481l17.998-10.391v7.67l-17.998,10.391V261.481z
				 M182.46,259.836v7.669l-17.998,10.391v-7.67L182.46,259.836z M183.391,259.298l17.997-10.39v7.669l-17.997,10.391V259.298z
				 M202.32,248.369l17.998-10.391v7.669l-17.998,10.391V248.369z M221.25,237.44l17.997-10.391v7.669l-17.997,10.391V237.44z
				 M240.179,226.512l17.997-10.391v7.669l-17.997,10.391V226.512z M259.107,215.583l17.998-10.391v7.669l-17.998,10.391V215.583z
				 M259.107,214.507v-7.669l17.998-10.391v7.669L259.107,214.507z M278.037,195.909l17.997-10.39v7.669l-17.997,10.39V195.909z
				 M278.037,194.833v-7.669l17.997-10.39v7.669L278.037,194.833z M278.037,186.088v-7.669l17.997-10.39v7.669L278.037,186.088z
				 M278.037,177.343v-7.669l17.997-10.39v7.669L278.037,177.343z M278.037,168.598v-7.669l17.997-10.39v7.669L278.037,168.598z
				 M278.037,159.853v-7.669l17.997-10.39v7.669L278.037,159.853z M278.037,151.108v-7.669l17.997-10.39v7.669L278.037,151.108z
				 M278.037,142.363v-7.669l17.997-10.391v7.669L278.037,142.363z M278.037,133.618v-7.669l17.997-10.39v7.669L278.037,133.618z
				 M278.037,124.873v-7.669l17.997-10.39v7.669L278.037,124.873z M277.105,125.411l-17.998,10.391v-7.669l17.998-10.391V125.411z
				 M258.176,136.34l-17.997,10.39v-7.669l17.997-10.39V136.34z M239.247,147.268l-17.997,10.39v-7.669l17.997-10.391V147.268z
				 M220.318,158.197l-17.998,10.391v-7.669l17.998-10.391V158.197z M201.388,169.126l-17.997,10.39v-7.669l17.997-10.39V169.126z
				 M182.46,180.054l-17.998,10.391v-7.669l17.998-10.391V180.054z M163.53,190.983l-17.997,10.391v-7.669l17.997-10.391V190.983z
				 M163.53,192.06v7.669l-17.997,10.39v-7.669L163.53,192.06z M144.601,210.657l-17.998,10.391v-7.669l17.998-10.391V210.657z
				 M144.601,211.733v7.669l-17.998,10.391v-7.669L144.601,211.733z M144.601,220.478v7.669l-17.998,10.391v-7.669L144.601,220.478z
				 M144.601,229.223v7.67l-17.998,10.391v-7.67L144.601,229.223z M144.601,237.968v7.67l-17.998,10.391v-7.67L144.601,237.968z
				 M144.601,246.713v7.669l-17.998,10.391v-7.669L144.601,246.713z M144.601,255.458v7.67l-17.998,10.391v-7.67L144.601,255.458z
				 M144.601,264.203v7.669l-17.998,10.391v-7.669L144.601,264.203z M144.601,272.948v7.67l-17.998,10.391v-7.67L144.601,272.948z
				 M144.601,281.693v7.67l-17.998,10.391v-7.67L144.601,281.693z M145.533,281.155l17.997-10.39v7.67l-17.997,10.391V281.155z
				 M163.53,279.51v7.669l-17.997,10.391V289.9L163.53,279.51z M164.462,278.972l17.998-10.391v7.669l-17.998,10.391V278.972z
				 M183.391,268.043l17.997-10.391v7.669l-17.997,10.39V268.043z M202.32,257.114l17.998-10.391v7.669l-17.998,10.391V257.114z
				 M221.25,246.185l17.997-10.391v7.669l-17.997,10.39V246.185z M240.179,235.257l17.997-10.391v7.669l-17.997,10.391V235.257z
				 M259.107,224.328l17.998-10.391v7.669l-17.998,10.391V224.328z M278.037,213.399l17.997-10.39v7.669l-17.997,10.391V213.399z
				 M278.037,212.323v-7.669l17.997-10.39v7.669L278.037,212.323z M296.966,193.726l17.998-10.391v7.669l-17.998,10.391V193.726z
				 M296.966,192.65v-7.669l17.998-10.391v7.669L296.966,192.65z M296.966,183.905v-7.669l17.998-10.391v7.669L296.966,183.905z
				 M296.966,175.159v-7.669l17.998-10.391v7.669L296.966,175.159z M296.966,166.414v-7.669l17.998-10.391v7.669L296.966,166.414z
				 M296.966,157.669v-7.669l17.998-10.391v7.669L296.966,157.669z M296.966,148.924v-7.669l17.998-10.391v7.669L296.966,148.924z
				 M296.966,140.179v-7.669l17.998-10.391v7.669L296.966,140.179z M296.966,131.434v-7.669l17.998-10.391v7.669L296.966,131.434z
				 M296.966,122.689v-7.669l17.998-10.391v7.669L296.966,122.689z M296.966,113.944v-7.669l17.998-10.391v7.669L296.966,113.944z
				 M296.966,105.199v-7.665l17.998-10.391v7.665L296.966,105.199z M296.034,105.737l-17.997,10.391v-7.665l17.997-10.391V105.737z
				 M277.105,116.666l-17.998,10.391v-7.665l17.998-10.391V116.666z M258.176,127.595l-17.997,10.39v-7.665l17.997-10.391V127.595z
				 M239.247,138.523l-17.997,10.39v-7.664l17.997-10.391V138.523z M220.318,149.452l-17.998,10.391v-7.664l17.998-10.391V149.452z
				 M201.388,160.381l-17.997,10.39v-7.664l17.997-10.39V160.381z M182.46,171.309l-17.998,10.391v-7.664l17.998-10.391V171.309z
				 M163.53,182.238l-17.997,10.39v-7.664l17.997-10.391V182.238z M144.601,193.167l-17.998,10.391v-7.664l17.998-10.391V193.167z
				 M144.601,194.243v7.669l-17.998,10.391v-7.669L144.601,194.243z M107.677,224.306l17.994-10.389v7.669l-17.994,10.389
				L107.677,224.306z M107.677,233.051l17.994-10.389v7.669l-17.994,10.389V233.051z M107.677,241.796l17.994-10.389v7.669
				l-17.995,10.389L107.677,241.796z M107.677,250.541l17.995-10.389v7.67l-17.995,10.389L107.677,250.541z M107.676,259.286
				l17.995-10.389v7.67l-17.995,10.389L107.676,259.286z M107.676,268.032l17.995-10.389v7.669l-17.995,10.389L107.676,268.032z
				 M107.676,276.776l17.995-10.389v7.67l-17.995,10.39L107.676,276.776z M107.676,285.522l17.995-10.389v7.669l-17.995,10.39
				L107.676,285.522z M107.676,294.266l17.995-10.39v7.67l-17.995,10.39V294.266z M107.676,303.012l17.995-10.39v7.67l-17.996,10.39
				L107.676,303.012z M107.676,311.757l17.996-10.39v7.669l-17.996,10.39L107.676,311.757z M126.603,300.829l17.998-10.391v7.669
				l-17.998,10.391V300.829z M144.601,299.183v7.641l-17.998,10.391v-7.642L144.601,299.183z M145.533,298.645l17.997-10.39v7.641
				l-17.997,10.391V298.645z M164.462,287.716l17.998-10.391v7.641l-17.998,10.391V287.716z M183.391,276.788l17.997-10.39v7.641
				l-17.997,10.391V276.788z M202.32,265.859l17.998-10.391v7.641L202.32,273.5V265.859z M221.25,254.93l17.997-10.39v7.64
				L221.25,262.57V254.93z M240.179,244.001l17.997-10.39v7.64l-17.997,10.391V244.001z M259.107,233.073l17.998-10.391v7.64
				l-17.998,10.391V233.073z M278.037,222.144l17.997-10.39v7.639l-17.997,10.391V222.144z M296.966,211.216l17.998-10.391v7.639
				l-17.998,10.391V211.216z M296.966,210.139v-7.669l17.998-10.391v7.669L296.966,210.139z M333.885,180.079l-17.99,10.386v-7.669
				l17.99-10.386L333.885,180.079z M333.885,171.334l-17.99,10.387v-7.669l17.99-10.386V171.334z M333.885,162.589l-17.99,10.387
				v-7.669l17.99-10.387L333.885,162.589z M333.886,153.844l-17.99,10.387v-7.669l17.99-10.387L333.886,153.844z M333.886,145.098
				l-17.99,10.387v-7.669l17.99-10.387L333.886,145.098z M333.886,136.354l-17.99,10.387v-7.669l17.991-10.387L333.886,136.354z
				 M333.886,127.608l-17.991,10.387v-7.669l17.991-10.387L333.886,127.608z M333.886,118.863l-17.991,10.387v-7.669l17.991-10.387
				L333.886,118.863z M333.886,110.118l-17.991,10.387v-7.669l17.991-10.387V110.118z M333.886,101.373l-17.991,10.387v-7.669
				l17.991-10.387L333.886,101.373z M333.887,92.628l-17.991,10.387v-7.668l17.991-10.387L333.887,92.628z M333.887,83.883
				L315.896,94.27v-7.665l17.991-10.387L333.887,83.883z M125.671,196.432v7.664l-17.994,10.389l0-7.664L125.671,196.432z
				 M107.676,320.502l17.996-10.39v7.642l-17.996,10.39L107.676,320.502z M315.896,207.926v-7.639l17.99-10.386l0,7.639
				L315.896,207.926z"/>
			<g id="XMLID_2284_">
				<polygon id="XMLID_2337_" style="fill:#FAFAFA;stroke:#E0E0E0;stroke-miterlimit:10;" points="258.605,127.85 334.355,84.151 
					334.355,127.876 258.605,171.564 				"/>
				<g id="XMLID_2285_">
					
						<polyline id="XMLID_2336_" style="fill:none;stroke:#455A64;strokeWidth:0.75;strokeLinecap:round;strokeLinejoin:round;stroke-miterlimit:10;" points="
						262.435,160.654 272.672,132.699 283.991,139.467 295.372,127.874 306.722,135.356 318.072,107.409 329.422,113.23 					"/>
					<path id="XMLID_2335_" style="fill:#27DEBF;" d="M272.672,131.376c-0.63,0.364-1.141,1.251-1.141,1.983
						c0,0.731,0.511,1.027,1.141,0.661c0.63-0.366,1.141-1.254,1.141-1.983C273.813,131.308,273.302,131.012,272.672,131.376z"/>
					<path id="XMLID_2329_" style="fill:#27DEBF;" d="M284.022,138.144c-0.63,0.364-1.141,1.251-1.141,1.983
						c0,0.731,0.511,1.027,1.141,0.661c0.63-0.366,1.141-1.253,1.141-1.983C285.163,138.076,284.652,137.78,284.022,138.144z"/>
					<path id="XMLID_2328_" style="fill:#27DEBF;" d="M295.372,126.555c-0.63,0.364-1.141,1.251-1.141,1.983
						c0,0.731,0.511,1.027,1.141,0.661c0.63-0.366,1.141-1.253,1.141-1.983C296.513,126.487,296.002,126.191,295.372,126.555z"/>
					<path id="XMLID_2327_" style="fill:#27DEBF;" d="M306.722,134.029c-0.63,0.364-1.141,1.251-1.141,1.983
						c0,0.731,0.511,1.027,1.141,0.661c0.63-0.366,1.141-1.253,1.141-1.983C307.863,133.962,307.352,133.665,306.722,134.029z"/>
					<path id="XMLID_2326_" style="fill:#27DEBF;" d="M318.072,106.086c-0.63,0.364-1.141,1.251-1.141,1.983
						c0,0.731,0.511,1.027,1.141,0.661c0.63-0.366,1.141-1.253,1.141-1.983C319.213,106.018,318.702,105.722,318.072,106.086z"/>
					<path id="XMLID_2290_" style="fill:#27DEBF;" d="M329.422,111.908c-0.63,0.364-1.141,1.251-1.141,1.983
						c0,0.731,0.511,1.027,1.141,0.661c0.63-0.366,1.141-1.254,1.141-1.983C330.563,111.84,330.052,111.544,329.422,111.908z"/>
				</g>
			</g>
		</g>
	</g>
</g>
<g id="Charts">
	<g id="Charts_4_">
		<g id="XMLID_2279_">
			<polygon id="XMLID_2283_" style="fill:#455A64;" points="365.868,245.195 345.726,256.823 365.87,268.454 386.012,256.824 			"/>
			<polygon id="XMLID_2282_" style="fill:#37474F;" points="386.014,256.798 386.013,303.052 365.871,314.681 365.869,268.456 			
				"/>
			<polygon id="XMLID_2281_" style="fill:#263238;" points="365.869,268.456 365.871,314.681 345.728,303.051 345.726,256.801 			
				"/>
		</g>
		<g id="XMLID_2271_">
			<polygon id="XMLID_2278_" style="fill:#27DEBF;" points="339.368,280.551 319.227,292.179 339.37,303.81 359.512,292.18 			"/>
			<polygon id="XMLID_2277_" style="opacity:0.3;fill:#FFFFFF;" points="339.368,280.551 319.227,292.179 339.37,303.81 
				359.512,292.18 			"/>
			<polygon id="XMLID_2276_" style="fill:#27DEBF;" points="359.514,292.154 359.513,318.352 339.371,329.981 339.369,303.811 			
				"/>
			<polygon id="XMLID_2275_" style="fill:#27DEBF;" points="339.369,303.811 339.371,329.981 319.228,318.35 319.227,292.157 			"/>
			<polygon id="XMLID_2274_" style="opacity:0.1;" points="339.369,303.811 339.371,329.981 319.228,318.35 319.227,292.157 			"/>
		</g>
		<g id="XMLID_2178_">
			<polygon id="XMLID_2269_" style="fill:#27DEBF;" points="312.868,284.972 292.727,296.601 312.87,308.231 333.012,296.602 			"/>
			<polygon id="XMLID_2189_" style="opacity:0.88;fill:#FFFFFF;" points="312.868,284.972 292.727,296.601 312.87,308.231 
				333.012,296.602 			"/>
			<polygon id="XMLID_2188_" style="fill:#27DEBF;" points="333.015,296.576 333.013,333.651 312.871,345.281 312.87,308.233 			"/>
			<polygon id="XMLID_2187_" style="opacity:0.75;fill:#FFFFFF;" points="333.015,296.576 333.013,333.651 312.871,345.281 
				312.87,308.233 			"/>
			<polygon id="XMLID_2186_" style="fill:#27DEBF;" points="312.87,308.233 312.871,345.281 292.728,333.65 292.727,296.578 			"/>
			<polygon id="XMLID_2180_" style="opacity:0.6;fill:#FFFFFF;" points="312.87,308.233 312.871,345.281 292.728,333.65 
				292.727,296.578 			"/>
		</g>
		<g id="XMLID_2153_">
			<polygon id="XMLID_2177_" style="fill:#27DEBF;" points="286.369,324.248 266.228,335.876 286.371,347.507 306.513,335.877 			
				"/>
			<polygon id="XMLID_2174_" style="opacity:0.3;" points="286.369,324.248 266.228,335.876 286.371,347.507 306.513,335.877 			"/>
			<polygon id="XMLID_2172_" style="fill:#27DEBF;" points="306.515,335.851 306.514,348.951 286.372,360.58 286.37,347.508 			"/>
			<polygon id="XMLID_2171_" style="opacity:0.4;" points="306.515,335.851 306.514,348.951 286.372,360.58 286.37,347.508 			"/>
			<polygon id="XMLID_2166_" style="fill:#27DEBF;" points="286.37,347.508 286.372,360.58 266.229,348.95 266.227,335.854 			"/>
			<polygon id="XMLID_2162_" style="opacity:0.55;" points="286.37,347.508 286.372,360.58 266.229,348.95 266.227,335.854 			"/>
		</g>
	</g>
	<g id="Charts_1_">
		<g id="XMLID_1951_">
			<path id="XMLID_2142_" style="fill:#263238;" d="M176.653,405.603v7.624l-7.53-20.466v-7.614c0,0,0,0,0.009,0.009
				L176.653,405.603z"/>
			<polygon id="XMLID_2141_" style="fill:#37474F;" points="176.656,405.607 176.656,413.227 207.717,402.453 207.717,394.833 			
				"/>
			<path id="XMLID_2129_" style="fill:#455A64;" d="M169.123,385.144l7.534,20.464l31.061-10.775
				C199.19,387.391,184.365,383.67,169.123,385.144z"/>
			<path id="XMLID_2117_" style="fill:#27DEBF;" d="M136.671,407.02c-0.009,0.075-0.009,0.158-0.009,0.233v-0.233H136.671z"/>
			<path id="XMLID_1999_" style="fill:#27DEBF;" d="M173.559,415.221l-4.613,21.696c-18.826-1.836-32.432-11.361-32.274-22.246
				l-0.009,0.019v-7.437c0,10.801,13.57,20.224,32.283,22.05l3.169-14.911L173.559,415.221z"/>
			<path id="XMLID_1965_" style="opacity:0.4;" d="M173.559,415.221l-4.613,21.696c-18.826-1.836-32.432-11.361-32.274-22.246
				l-0.009,0.019v-7.437c0,10.801,13.57,20.224,32.283,22.05l3.169-14.911L173.559,415.221z"/>
			<g id="XMLID_1960_">
				<path id="XMLID_1964_" style="fill:#27DEBF;" d="M172.48,429.554v7.62c8.221,0.388,15.737-0.642,22.923-3.135
					c8.879-3.081,15.146-7.971,17.653-13.772c0.762-1.764,1.147-3.548,1.166-5.32c0.008-0.722,0.001-7.874,0.001-7.874
					s-2.15-0.169-4.671-2.857l-5.816,2.017l-26.64,9.242L172.48,429.554z"/>
				<path id="XMLID_1963_" style="opacity:0.6;fill:#FFFFFF;" d="M172.48,429.554v7.62c8.221,0.388,15.737-0.642,22.923-3.135
					c8.879-3.081,15.146-7.971,17.653-13.772c0.762-1.764,1.147-3.548,1.166-5.32c0.008-0.722,0.001-7.874,0.001-7.874
					s-2.15-0.169-4.671-2.857l-5.816,2.017l-26.64,9.242L172.48,429.554z"/>
				<polygon id="XMLID_1962_" style="fill:#27DEBF;" points="149.299,398.309 172.441,411.669 172.441,404.05 149.299,390.689 				
					"/>
				<polygon id="XMLID_1961_" style="opacity:0.1;" points="149.299,398.309 172.441,411.669 172.441,404.05 149.299,390.689 				
					"/>
			</g>
			<g id="XMLID_1954_">
				<path id="XMLID_1959_" style="fill:#27DEBF;" d="M136.951,404.504c-2.533,11.909,11.707,22.817,31.995,24.797l4.615-21.698
					l-26.776-15.459C141.194,395.646,137.972,399.699,136.951,404.504z"/>
				<path id="XMLID_1958_" style="opacity:0.3;" d="M136.951,404.504c-2.533,11.909,11.707,22.817,31.995,24.797l4.615-21.698
					l-26.776-15.459C141.194,395.646,137.972,399.699,136.951,404.504z"/>
				<path id="XMLID_1957_" style="fill:#27DEBF;" d="M172.615,428.919l-0.135,0.635c8.221,0.388,15.737-0.641,22.923-3.135
					c8.879-3.081,15.146-7.971,17.653-13.772c2.36-5.468,1.113-11.128-3.504-16.051l-5.816,2.017l-26.64,9.242L172.615,428.919z"/>
				<path id="XMLID_1956_" style="opacity:0.75;fill:#FFFFFF;" d="M172.615,428.919l-0.135,0.635
					c8.221,0.388,15.737-0.641,22.923-3.135c8.879-3.081,15.146-7.971,17.653-13.772c2.36-5.468,1.113-11.128-3.504-16.051
					l-5.816,2.017l-26.64,9.242L172.615,428.919z"/>
				<path id="XMLID_1955_" style="fill:#27DEBF;" d="M149.299,390.689l23.141,13.361l-6.804-18.482
					C159.199,386.499,154.162,388.079,149.299,390.689z"/>
			</g>
			<polygon id="XMLID_1953_" style="fill:#27DEBF;" points="173.56,415.224 173.56,407.603 168.945,429.301 168.945,436.921 			"/>
			<polygon id="XMLID_1952_" style="opacity:0.55;" points="173.56,415.224 173.56,407.603 168.945,429.301 168.945,436.921 			"/>
		</g>
		<g id="XMLID_1414_">
			<g id="XMLID_1429_">
				<polygon id="XMLID_1950_" style="fill:#27DEBF;" points="203.081,373.712 198.039,376.622 203.081,379.533 208.122,376.622 				
					"/>
				<polygon id="XMLID_1949_" style="opacity:0.3;" points="203.081,373.712 198.039,376.622 203.081,379.533 208.122,376.622 				
					"/>
				<polygon id="XMLID_1928_" style="fill:#27DEBF;" points="208.123,376.616 208.123,379.537 203.081,382.448 203.081,379.534 				
					"/>
				<polygon id="XMLID_1927_" style="opacity:0.4;" points="208.123,376.616 208.123,379.537 203.081,382.448 203.081,379.534 				
					"/>
				<polygon id="XMLID_1926_" style="fill:#27DEBF;" points="203.081,379.534 203.081,382.448 198.04,379.537 198.039,376.616 				
					"/>
				<polygon id="XMLID_1922_" style="opacity:0.55;" points="203.081,379.534 203.081,382.448 198.04,379.537 198.039,376.616 				
					"/>
			</g>
			<path id="XMLID_1419_" style="fill:#E0E0E0;" d="M210.777,371.453l18.679-10.784c1.114-0.643,2.865-0.676,3.911-0.072
				c1.045,0.604,0.99,1.615-0.125,2.258l-18.678,10.784c-1.114,0.643-2.865,0.676-3.911,0.072
				C209.607,373.108,209.663,372.097,210.777,371.453z"/>
		</g>
		<g id="XMLID_1079_">
			<g id="XMLID_1314_">
				<polygon id="XMLID_1324_" style="fill:#27DEBF;" points="214.438,380.269 209.397,383.179 214.438,386.09 219.48,383.18 				"/>
				<polygon id="XMLID_1323_" style="opacity:0.88;fill:#FFFFFF;" points="214.438,380.269 209.397,383.179 214.438,386.09 
					219.48,383.18 				"/>
				<polygon id="XMLID_1322_" style="fill:#27DEBF;" points="219.48,383.173 219.48,386.094 214.439,389.005 214.438,386.091 				
					"/>
				<polygon id="XMLID_1321_" style="opacity:0.75;fill:#FFFFFF;" points="219.48,383.173 219.48,386.094 214.439,389.005 
					214.438,386.091 				"/>
				<polygon id="XMLID_1320_" style="fill:#27DEBF;" points="214.438,386.091 214.439,389.005 209.397,386.094 209.397,383.174 				
					"/>
				<polygon id="XMLID_1318_" style="opacity:0.6;fill:#FFFFFF;" points="214.438,386.091 214.439,389.005 209.397,386.094 
					209.397,383.174 				"/>
			</g>
			<path id="XMLID_1312_" style="fill:#E0E0E0;" d="M222.135,378.011l18.678-10.784c1.114-0.643,2.865-0.676,3.911-0.072
				c1.045,0.604,0.99,1.614-0.125,2.258l-18.679,10.784c-1.114,0.643-2.865,0.676-3.911,0.072
				C220.965,379.665,221.021,378.654,222.135,378.011z"/>
		</g>
		<g id="XMLID_1036_">
			<g id="XMLID_1038_">
				<polygon id="XMLID_1062_" style="fill:#27DEBF;" points="225.795,386.826 220.754,389.737 225.796,392.648 230.837,389.737 				
					"/>
				<polygon id="XMLID_1058_" style="opacity:0.3;fill:#FFFFFF;" points="225.795,386.826 220.754,389.737 225.796,392.648 
					230.837,389.737 				"/>
				<polygon id="XMLID_1057_" style="fill:#27DEBF;" points="230.838,389.73 230.837,392.651 225.796,395.562 225.796,392.648 				
					"/>
				<polygon id="XMLID_1056_" style="fill:#27DEBF;" points="225.796,392.648 225.796,395.562 220.755,392.651 220.754,389.731 				
					"/>
				<polygon id="XMLID_1039_" style="opacity:0.1;" points="225.796,392.648 225.796,395.562 220.755,392.651 220.754,389.731 				
					"/>
			</g>
			<path id="XMLID_1037_" style="fill:#E0E0E0;" d="M233.493,384.568l18.679-10.784c1.114-0.643,2.865-0.676,3.911-0.072
				c1.045,0.603,0.99,1.614-0.125,2.258l-18.678,10.784c-1.114,0.643-2.865,0.676-3.911,0.072
				C232.322,386.222,232.378,385.211,233.493,384.568z"/>
		</g>
		<g id="XMLID_1003_">
			<g id="XMLID_1005_">
				<polygon id="XMLID_1035_" style="fill:#455A64;" points="237.153,393.383 232.111,396.294 237.153,399.205 242.195,396.294 				
					"/>
				<polygon id="XMLID_1034_" style="fill:#37474F;" points="242.195,396.288 242.195,399.209 237.154,402.119 237.153,399.205 				
					"/>
				<polygon id="XMLID_1006_" style="fill:#263238;" points="237.153,399.205 237.154,402.119 232.112,399.208 232.111,396.288 				
					"/>
			</g>
			<path id="XMLID_1004_" style="fill:#E0E0E0;" d="M244.85,391.125l18.678-10.784c1.114-0.643,2.865-0.676,3.911-0.072
				c1.045,0.604,0.99,1.615-0.125,2.258l-18.679,10.784c-1.114,0.643-2.865,0.676-3.911,0.072
				C243.68,392.78,243.736,391.769,244.85,391.125z"/>
		</g>
	</g>
</g>
<g id="Character">
	<g id="Character_1_">
		<g id="XMLID_46_">
			<g id="XMLID_82_">
				<path id="XMLID_83_" style="fill:#FFA8A7;" d="M395.232,235.478c6.932-0.038,10.221,1.949,12.716,8.587
					c2.495,6.638,9.116,21.846,9.244,26.369c0.133,4.691-14.967,18.908-14.426,18.663c0.166-0.075-4.602-8.617-4.602-8.617
					l8.493-10.409l-4.869-14.133L395.232,235.478z"/>
			</g>
			<g id="XMLID_72_">
				<g id="XMLID_80_">
					<path id="XMLID_81_" style="fill:#263238;" d="M403.811,390.852c0.424,0.405,0.505,0.798,0.491,2.275
						c-0.014,1.481,0.611,3.13-0.148,4.51c-0.568,1.031-3.463,1.741-4.935,0.977c-1.225-0.636-2.446-2.051-3.395-3.053
						c-0.95-1.002-1.866-2.049-2.973-2.874c-1.248-0.93-2.698-1.548-4-2.401c-2.039-1.335-3.437-3.551-3.625-5.989
						c-0.056-0.725,0.064-1.674,0.464-2.281c0.533-0.809,1.654-1.007,2.61-0.854c1.41,0.226,6.186,2.895,7.291,3.659
						C396.977,385.779,403.373,390.434,403.811,390.852z"/>
				</g>
				<path id="XMLID_79_" style="fill:#FFA8A7;" d="M396.789,384.728c-0.045,1.062-4.52-1.422-6.353-1.18
					c-0.019,0.003-0.034,0.016-0.051,0.024c-1.701,0.819-0.289,3.206,1.297,4.428c1.586,1.222,6.757,5.022,6.757,5.022l1.059-6.133
					L396.789,384.728z"/>
				<g id="XMLID_77_">
					<path id="XMLID_78_" style="fill:#263238;" d="M377.394,402.003c0.829-0.003,1.199,2.714,1.351,4.81
						c0.118,1.62,0.732,4.262,0.159,5.452c-0.573,1.19-2.757,1.934-6.127,1.865c-2.183-0.045-5.604,1.393-7.951,2.663
						c-2.423,1.311-5.034,1.282-7.575,0.95c-2.995-0.391-6.079-2.17-6.547-3.419s0.162-1.837,7.269-4.757
						c0.065-0.027,7.496-3.268,10.965-6.997L377.394,402.003z"/>
				</g>
				<path id="XMLID_76_" style="fill:#FFA8A7;" d="M357.973,409.569c-0.984,0.404-1.832,0.76-2.582,1.083
					c-0.192,0.672,0.065,1.736,3.205,2.259c4.786,0.798,18.849-9.787,18.849-9.787s-2.015,0.555-2.394-0.598l-6.113,0.046
					C365.47,406.301,358.038,409.542,357.973,409.569z"/>
				<g id="XMLID_74_">
					<path id="XMLID_75_" style="fill:#FFA8A7;" d="M406.657,356.069c0-8.551-1.374-13.871-1.374-13.871s0.834-17.857,0.93-29.082
						c0.19-22.197-0.235-25.457-5.145-35.034c0,0-28.669-3.355-29.877,10.617c-1.504,17.4-3.253,46.516-3.207,54.802
						c0.034,6.17,0.733,12.857,1.073,26.848c0.218,8.96,1.163,21.621-0.119,32.224c1.622,2.716,6.008,2.668,8.507,0.552
						c0.72-10.381,5.872-30.259,6.671-37.196c0.827-7.181-0.612-14.987-0.612-14.987s3.798-29.636,4.465-34.147
						c0,0,1.724,8.306,1.663,14.476c-0.02,1.967,0.681,8.569,1.807,19.671c0.686,6.762,5.471,33.18,6.507,41.673
						c2.4,2.318,5.501,0.72,5.641-0.289C404.389,381.961,406.657,362.536,406.657,356.069z"/>
				</g>
				<path id="XMLID_73_" style="opacity:0.15;" d="M387.969,316.794l2.534-14.392c0,0,5.876-0.471,11.285-5.925
					c0,0-1.518,5.756-8.969,7.714l-2.965,13.022l-0.502,11.872L387.969,316.794z"/>
			</g>
			<g id="XMLID_69_">
				<g id="XMLID_70_">
					<polygon id="XMLID_71_" style="fill:#FFA8A7;" points="380.776,230.648 381.971,243.693 393.43,242.999 392.552,228.532 					
						"/>
				</g>
			</g>
			<g id="XMLID_66_">
				<g id="XMLID_67_">
					<path id="XMLID_68_" style="fill:#27DEBF;" d="M403.778,281.586c-1.116-2.757-1.742-4.61-4.955-9.908
						c4.898-15.776,6.466-21.089,5.515-27.834c-0.605-4.292-3.977-8.581-8.156-8.357c0,0-2.258,0.004-3.208,0
						c-0.188,2.991-8.497,3.137-11.649,1.079l-2.901,0.077c-2.053,0.727-9.035,10.954-9.805,17.744
						c-0.625,5.517,3.696,10.298,3.696,10.298c0.167,2.193-0.41,6.994-0.41,6.994s0.021,13.35,0,19.987c0,0,1.62,5.118,18.435,3.517
						c14.957-1.424,15.323-6.535,15.323-6.535S405.228,285.169,403.778,281.586z"/>
				</g>
			</g>
			<g id="XMLID_5_" style="opacity:0.3;">
				<g id="XMLID_6_">
					<path id="XMLID_7_" d="M403.778,281.586c-1.116-2.757-1.742-4.61-4.955-9.908c4.898-15.776,6.466-21.089,5.515-27.834
						c-0.605-4.292-3.977-8.581-8.156-8.357c0,0-2.258,0.004-3.208,0c-0.188,2.991-8.497,3.137-11.649,1.079l-2.901,0.077
						c-2.053,0.727-9.035,10.954-9.805,17.744c-0.625,5.517,3.696,10.298,3.696,10.298c0.167,2.193-0.41,6.994-0.41,6.994
						s0.021,13.35,0,19.987c0,0,1.62,5.118,18.435,3.517c14.957-1.424,15.323-6.535,15.323-6.535S405.228,285.169,403.778,281.586z"
						/>
				</g>
			</g>
			<g id="XMLID_59_">
				<path id="XMLID_65_" style="fill:#263238;" d="M382.514,200.13c0,0-5.409-0.948-9.215,3.339
					c-5.864,6.604,0.566,11.463,0.566,11.463L382.514,200.13"/>
				<g id="XMLID_63_">
					<path id="XMLID_64_" style="fill:#F28F8F;" d="M372.315,216.314c0,0-2.547,3.829-2.217,4.235
						c0.33,0.407,1.941,0.843,1.941,0.843L372.315,216.314z"/>
				</g>
				<g id="XMLID_61_">
					<path id="XMLID_62_" style="fill:#FFA8A7;" d="M380.1,204.181c-2.47,1.268-6.738,3.611-7.859,12.693
						c-1.15,9.323,0.918,12.57,2.186,13.796c0.857,0.827,5.284,1.138,7.596,0.427c2.893-0.89,9.163-3.968,12.111-8.773
						c3.468-5.654,4.202-13.2,0.223-16.17C388.759,201.974,382.19,203.108,380.1,204.181z"/>
				</g>
				<path id="XMLID_60_" style="fill:#263238;" d="M378.865,214.906c-5.165-2.63-3.849-9.489-3.849-9.489s7.383-10.545,20.997-3.725
					c4.71,2.36,7.537,7.72,7.422,13.995l0,0c0,8.161-6.616,14.777-14.777,14.777l0,0c-4.758,0-8.615-3.857-8.615-8.615v-0.57
					l0.436,0.141c0.746,0.19,2.359,0.357,4.021-1.075c2.266-1.952,2.539-5.782-0.332-6.748c-2.851-0.96-4.368,2.356-4.368,2.356
					c-0.001-0.001-0.002-0.003-0.003-0.004l-1.111,3.049c-1.126-0.41-1.706-1.655-1.296-2.781
					C377.64,215.532,378.212,215.087,378.865,214.906z"/>
			</g>
			<g id="XMLID_51_">
				<polygon id="XMLID_58_" style="fill:#27DEBF;" points="347.624,217.012 323.042,229.324 334.601,262.635 357.555,250.273 				
					"/>
				<polygon id="XMLID_57_" style="fill:#F5F5F5;" points="346.451,220.234 325.829,230.564 336.072,259.207 355.329,248.836 				
					"/>
				<path id="XMLID_56_" style="opacity:0.15;" d="M342.087,223.234c0,0-0.17-0.456-0.379-1.019
					c-0.209-0.563-1.916-0.258-3.813,0.682l-3.631,1.799c-1.897,0.939-3.264,2.157-3.055,2.72l0.379,1.019L342.087,223.234z"/>
				<g id="XMLID_52_">
					<path id="XMLID_55_" style="fill:#37474F;" d="M341.759,219.176c-0.129-0.352-0.871-0.307-1.656,0.1l-1.422,0.737
						c0,0-0.832-2.201-4.1-0.742c-3.268,1.46-2.569,4.007-2.569,4.007s-0.676,0.358-1.51,0.8c-0.834,0.442-1.434,1.089-1.339,1.446
						l0.171,0.647l12.663-6.341C341.996,219.83,341.888,219.527,341.759,219.176z"/>
					<path id="XMLID_54_" style="fill:#263238;" d="M340.379,220.623c-1.177,0.555-1.641,0.824-1.32,1.692
						c0.367,0.991,0.713,1.704,0.713,1.704l-5.601,2.812c0,0-0.442-1.26-0.636-1.746c-0.194-0.487-0.597-0.724-1.488-0.277
						l-0.323-0.353l8.832-4.318L340.379,220.623z"/>
					<path id="XMLID_53_" style="fill:#37474F;" d="M342.324,223.29c0,0-0.17-0.456-0.379-1.019
						c-0.209-0.563-1.917-0.258-3.813,0.682l-3.631,1.799c-1.897,0.939-3.264,2.157-3.055,2.72l0.379,1.019L342.324,223.29z"/>
				</g>
			</g>
			<g id="XMLID_48_">
				<g id="XMLID_49_">
					<path id="XMLID_50_" style="fill:#FFA8A7;" d="M378.424,236.642c-3.871-0.064-6.211,0.279-11.494,8.119
						c-5.283,7.839-15.076,22.275-16.225,24.146c-1.598,2.602-1.958,6.593-0.657,9.029c1.215,2.275,3.351,3.064,9.437-3.403
						c4.508-4.79,13.98-17.511,13.98-17.511S380.836,243.28,378.424,236.642z"/>
				</g>
			</g>
			<path id="XMLID_47_" style="fill:#FFA8A7;" d="M352.447,279.583c-3.191,0.985-14.894-12.947-18.149-17.137
				c-3.607-4.642-6.505-7.259-9.14-9.274c-4.509-3.448-3.758-8.619-1.687-13.335c0.717-1.633,3.038-0.524,3.038-0.524l0.787,2.267
				l1.362,3.926c0.952,0.913,1.498,1.215,1.567,0.949c0.13-0.501-0.667-2.614-0.61-4.801c0.068-2.631,1.882-0.871,2.417,0.061
				c0.535,0.932,1.153,2.443,1.873,4.38c0.88,2.371,0.461,4.749,1.553,6.373c1.093,1.624,16.99,14.829,16.99,14.829V279.583z"/>
		</g>
		<path id="XMLID_45_" style="fill:#27DEBF;" d="M398.822,271.678c0,0-11.215,6.624-26.917,0c0,0-2.185,12.281-2.848,24.885
			c-0.559,10.616-1.791,33.409-1.791,33.409s4.638,5.405,21.176,4.309c15.895-1.054,18.702-5.197,18.702-5.197
			s0.037-20.471,0.12-29.421C407.371,288.219,405.766,281.965,398.822,271.678z"/>
		<path id="XMLID_1_" style="opacity:0.5;" d="M398.822,271.678c0,0-11.215,6.624-26.917,0c0,0-2.185,12.281-2.848,24.885
			c-0.559,10.616-1.791,33.409-1.791,33.409s4.638,5.405,21.176,4.309c15.895-1.054,18.702-5.197,18.702-5.197
			s0.037-20.471,0.12-29.421C407.371,288.219,405.766,281.965,398.822,271.678z"/>
		<path id="XMLID_44_" style="fill:#263238;" d="M404.034,211.29l2.622-2.402c-0.857-0.935-2.309-0.999-3.244-0.142
			c-0.674,0.617-0.887,1.542-0.638,2.362c-0.326-0.029-0.654-0.05-0.986-0.05v21.085c0,6.049,4.903,10.952,10.952,10.952V222.01
			C412.74,216.732,409.005,212.327,404.034,211.29z"/>
	</g>
</g>
</svg>
