<?xml version="1.0" encoding="utf-8"?>
<!-- Generator: Adobe Illustrator 27.5.0, SVG Export Plug-In . SVG Version: 6.00 Build 0)  -->
<svg version="1.1" xmlns="http://www.w3.org/2000/svg" xmlns:xlink="http://www.w3.org/1999/xlink" x="0px" y="0px"
	 viewBox="0 0 750 500" style="enable-background:new 0 0 750 500;" xml:space="preserve">
<g id="Background_Simple">
	<g>
		<path style="fill:#92E3A9;" d="M624.489,140.894c0,0-102.786-105.269-236.354-113.391
			c-133.567-8.122-211.462,78.153-248.372,129.615C102.854,208.58,10.801,294.316,21.631,372.832
			c10.83,78.516,117.323,138.08,269.842,111.908c152.519-26.172,196.741-36.099,266.232-16.245
			c69.491,19.855,159.739-9.927,161.544-122.738C721.055,232.947,624.489,140.894,624.489,140.894z"/>
		<path style="opacity:0.7;fill:#FFFFFF;" d="M624.489,140.894c0,0-102.786-105.269-236.354-113.391
			c-133.567-8.122-211.462,78.153-248.372,129.615C102.854,208.58,10.801,294.316,21.631,372.832
			c10.83,78.516,117.323,138.08,269.842,111.908c152.519-26.172,196.741-36.099,266.232-16.245
			c69.491,19.855,159.739-9.927,161.544-122.738C721.055,232.947,624.489,140.894,624.489,140.894z"/>
	</g>
</g>
<g id="Floor">
	<g>
		<line style="fill:none;stroke:#263238;stroke-miterlimit:10;" x1="699.395" y1="464.81" x2="715.641" y2="464.81"/>
		<line style="fill:none;stroke:#263238;stroke-miterlimit:10;" x1="23.982" y1="464.81" x2="685.858" y2="464.81"/>
	</g>
</g>
<g id="Plants_2">
	<g style="opacity:0.15;">
		<path d="M154.105,386.169c-2.906,1.07-9.825,0.506-9.831,0.505c-0.071-0.006,1.757-4.448,1.904-4.715
			c1.707-3.091,6.824-8.058,10.705-7.299c2.795,0.547,4.196,3.46,3.404,6.075C159.478,383.407,156.579,385.256,154.105,386.169z"/>
		<path d="M156.249,395.731c-3.543-1.757-9.789,1.683-12.253,4.213c-0.175,0.18-2.16,2.742-2.839,3.681
			c0.014-0.04,0.033-0.081,0.047-0.122c1.206-3.585,1.915-7.156,2.423-10.576c0.511-3.411,0.702-6.667,0.801-9.666
			c0.107-3.001,0.019-5.752-0.079-8.186c-0.063-1.317-0.144-2.522-0.233-3.644c0.012,0.01,0.066,0.052,0.066,0.052
			c0.058,0.043,1.654-4.488,1.722-4.785c0.785-3.443,0.278-10.556-3.122-12.576c-2.449-1.454-5.434-0.215-6.586,2.264
			c-1.176,2.531-0.246,5.842,0.992,8.17c1.269,2.386,5.644,5.878,6.74,6.731c0.069,1.167,0.13,2.416,0.166,3.798
			c0.044,2.43,0.072,5.175-0.099,8.16c-0.043,0.795-0.123,1.649-0.185,2.478c-0.185-1.418-0.468-3.362-0.517-3.548
			c-0.889-3.417-4.617-9.497-8.565-9.722c-2.844-0.163-4.922,2.313-4.802,5.044c0.123,2.788,2.473,5.298,4.646,6.794
			c2.266,1.561,7.897,2.651,9.131,2.876c-0.165,1.834-0.377,3.714-0.713,5.661c-0.571,3.353-1.355,6.895-2.616,10.389
			c-0.07,0.194-0.167,0.386-0.239,0.58c0.029-0.716-0.091-4.661-0.132-4.936c-0.509-3.494-3.546-9.947-7.445-10.604
			c-2.81-0.474-5.147,1.758-5.327,4.485c-0.184,2.786,1.876,5.538,3.871,7.264c2.299,1.988,8.735,3.856,8.978,3.926
			c-1.223,3.256-2.727,6.506-4.439,9.722c-1.239,2.333-2.589,4.644-3.965,6.95c0.017-0.934-0.098-4.6-0.136-4.864
			c-0.509-3.494-3.546-9.946-7.446-10.604c-2.809-0.474-5.146,1.758-5.327,4.485c-0.184,2.785,1.877,5.538,3.871,7.264
			c2.244,1.941,8.403,3.758,8.923,3.91c-0.625,1.047-1.246,2.095-1.881,3.139c-2.073,3.411-4.166,6.82-6.128,10.25
			c-0.68,1.188-1.306,2.384-1.939,3.578c-0.019-1.401-0.102-3.949-0.134-4.167c-0.509-3.494-3.546-9.947-7.446-10.604
			c-2.809-0.474-5.146,1.758-5.327,4.486c-0.184,2.785,1.877,5.538,3.871,7.264c2.003,1.734,7.149,3.374,8.605,3.815
			c-1.038,1.995-2.024,3.998-2.9,6.016c-0.359,0.878-0.782,1.751-1.079,2.613c-0.318,0.863-0.633,1.717-0.944,2.564
			c-0.582,1.773-1.129,3.418-1.629,5.082c-0.258,0.84-0.482,1.637-0.724,2.455c0.194-1.422,0.463-3.68,0.464-3.888
			c0.027-3.53-1.997-10.369-5.752-11.609c-2.705-0.894-5.354,0.958-5.946,3.626c-0.075,0.339-0.115,0.683-0.126,1.029
			c-1.813,2.578-2.869,6.336-2.953,8.68c-0.008,0.226,0.198,2.906,0.331,4.273c-0.36-1.073-0.722-2.137-1.079-3.261
			c-0.525-1.612-1.027-3.333-1.525-4.997c-0.226-0.873-0.454-1.755-0.684-2.644c-0.251-0.894-0.382-1.775-0.582-2.677
			c-0.263-1.326-0.469-2.706-0.677-4.084c1.674-0.435,6.564-1.801,8.564-3.387c2.067-1.638,4.245-4.299,4.181-7.089
			c-0.063-2.733-2.302-5.063-5.13-4.712c-3.923,0.489-7.235,6.804-7.895,10.273c-0.021,0.113-0.085,0.86-0.151,1.747
			c-0.162-1.35-0.33-2.698-0.447-4.073c-0.338-3.899-0.56-7.881-0.8-11.87c-0.05-0.831-0.112-1.661-0.165-2.493
			c1.41-0.36,6.72-1.792,8.817-3.454c2.067-1.638,4.244-4.299,4.18-7.09c-0.062-2.732-2.301-5.063-5.128-4.711
			c-3.924,0.489-7.236,6.803-7.896,10.273c-0.024,0.124-0.097,1.017-0.171,2.016c-0.161-2.165-0.349-4.322-0.601-6.457
			c-0.438-3.733-1.071-7.386-1.965-10.876c0.499-0.123,6.758-1.676,9.089-3.523c2.067-1.638,4.244-4.299,4.181-7.09
			c-0.063-2.733-2.302-5.063-5.129-4.711c-3.925,0.489-7.236,6.805-7.896,10.273c-0.047,0.246-0.289,3.478-0.336,4.635
			c-0.011-0.041-0.017-0.086-0.028-0.127c-0.972-3.656-2.35-7.025-3.813-10.157c-1.456-3.127-3.092-5.948-4.664-8.503
			c-1.566-2.561-3.157-4.807-4.581-6.784c-0.78-1.064-1.512-2.023-2.206-2.911c0.016,0.001,0.084,0.006,0.084,0.006
			c0.072,0.005-1.096-4.654-1.203-4.94c-1.244-3.305-5.591-8.958-9.541-8.766c-2.845,0.137-4.652,2.817-4.245,5.521
			c0.416,2.76,3.019,5.008,5.335,6.268c2.374,1.29,7.95,1.789,9.334,1.895c0.702,0.936,1.441,1.945,2.233,3.077
			c1.378,2.003,2.915,4.276,4.419,6.86c0.403,0.687,0.807,1.443,1.213,2.169c-0.937-1.08-2.245-2.546-2.387-2.674
			c-2.627-2.359-9.09-5.374-12.507-3.384c-2.462,1.434-2.83,4.645-1.223,6.855c1.64,2.258,4.986,3.055,7.623,3.105
			c2.751,0.052,8.049-2.145,9.203-2.639c0.874,1.621,1.734,3.306,2.528,5.116c1.373,3.111,2.674,6.498,3.548,10.108
			c0.049,0.201,0.075,0.414,0.122,0.616c-0.371-0.614-2.649-3.838-2.833-4.045c-2.352-2.634-8.444-6.34-12.06-4.737
			c-2.605,1.155-3.323,4.306-1.969,6.68c1.383,2.425,4.62,3.584,7.236,3.923c3.014,0.391,9.413-1.603,9.653-1.678
			c0.776,3.391,1.316,6.931,1.661,10.559c0.254,2.629,0.403,5.301,0.528,7.985c-0.502-0.788-2.62-3.784-2.797-3.982
			c-2.352-2.634-8.444-6.34-12.059-4.737c-2.604,1.154-3.323,4.306-1.969,6.679c1.383,2.425,4.62,3.585,7.236,3.923
			c2.943,0.382,9.082-1.5,9.599-1.661c0.056,1.218,0.117,2.435,0.163,3.657c0.153,3.989,0.288,7.987,0.544,11.929
			c0.088,1.366,0.225,2.708,0.356,4.054c-0.788-1.158-2.263-3.238-2.41-3.401c-2.352-2.634-8.444-6.34-12.06-4.738
			c-2.604,1.155-3.323,4.306-1.969,6.68c1.383,2.425,4.62,3.584,7.235,3.923c2.628,0.341,7.825-1.13,9.282-1.565
			c0.235,2.237,0.517,4.45,0.901,6.617c0.185,0.931,0.314,1.892,0.542,2.776c0.212,0.895,0.421,1.781,0.628,2.659
			c0.492,1.799,0.942,3.474,1.444,5.137c0.248,0.843,0.5,1.632,0.75,2.447c-0.623-1.293-1.643-3.325-1.757-3.499
			c-1.925-2.96-7.387-7.546-11.202-6.509c-2.75,0.747-3.938,3.753-2.959,6.304c1,2.607,4.025,4.243,6.559,4.975
			c2.794,0.806,8.942-0.07,9.693-0.181c0.479,1.529,0.958,3.003,1.436,4.43h2.457c-0.535-1.467-1.076-3.003-1.616-4.594
			c0.689-0.286,6.017-2.542,8.167-4.61c2.243,1.433,4.798,2.646,5.248,2.856c-0.579,2.007-1.124,3.965-1.6,5.807
			c-0.048,0.185-0.091,0.359-0.138,0.541h2.418c0.392-1.667,0.836-3.426,1.309-5.229c0.76,0.147,6.852,1.283,9.674,0.599
			c2.563-0.621,5.655-2.126,6.766-4.686c1.089-2.507,0.032-5.561-2.683-6.426c-3.768-1.2-9.422,3.146-11.473,6.02
			c-0.132,0.184-1.439,2.533-2.082,3.747c0.291-1.094,0.578-2.181,0.9-3.316c0.451-1.634,0.981-3.347,1.485-5.009
			c0.293-0.853,0.588-1.714,0.888-2.584c0.282-0.884,0.661-1.691,0.991-2.553c0.511-1.251,1.101-2.516,1.688-3.78
			c1.636,0.56,6.467,2.119,9.012,1.899c2.628-0.226,5.912-1.244,7.398-3.607c1.455-2.313,0.873-5.492-1.679-6.758
			c-3.542-1.757-9.789,1.683-12.252,4.212c-0.08,0.083-0.545,0.671-1.09,1.375c0.61-1.216,1.215-2.433,1.874-3.644
			c1.87-3.438,3.881-6.882,5.881-10.342c0.417-0.721,0.823-1.447,1.237-2.169c1.375,0.478,6.594,2.214,9.26,1.984
			c2.627-0.226,5.913-1.245,7.398-3.607c1.455-2.314,0.874-5.493-1.679-6.758c-3.542-1.757-9.788,1.682-12.252,4.212
			c-0.088,0.09-0.642,0.795-1.254,1.588c1.06-1.895,2.094-3.797,3.06-5.717c1.695-3.355,3.182-6.752,4.362-10.156
			c0.483,0.174,6.561,2.331,9.524,2.076c2.627-0.226,5.911-1.244,7.398-3.607C159.384,400.176,158.801,396.997,156.249,395.731z"/>
		<path d="M83.934,383.562c-0.063,0.035-0.989-4.679-1.013-4.983c-0.28-3.52,1.248-10.486,4.903-11.994
			c2.633-1.086,5.408,0.571,6.19,3.19c0.799,2.674-0.599,5.816-2.16,7.942C90.021,380.213,83.938,383.559,83.934,383.562z"/>
	</g>
	<g style="opacity:0.15;">
		<path d="M660.278,386.169c-2.906,1.07-9.825,0.506-9.83,0.505c-0.072-0.006,1.757-4.448,1.904-4.715
			c1.707-3.091,6.825-8.058,10.705-7.299c2.795,0.547,4.197,3.46,3.404,6.075C665.651,383.407,662.753,385.256,660.278,386.169z"/>
		<path d="M662.423,395.731c-3.543-1.757-9.789,1.683-12.253,4.213c-0.175,0.18-2.16,2.742-2.839,3.681
			c0.014-0.04,0.033-0.081,0.047-0.122c1.206-3.585,1.915-7.156,2.423-10.576c0.511-3.411,0.703-6.667,0.801-9.666
			c0.107-3.001,0.019-5.752-0.079-8.186c-0.063-1.317-0.145-2.522-0.234-3.644c0.012,0.01,0.066,0.052,0.066,0.052
			c0.058,0.043,1.654-4.488,1.722-4.785c0.784-3.443,0.278-10.556-3.122-12.576c-2.449-1.454-5.434-0.215-6.586,2.264
			c-1.176,2.531-0.246,5.842,0.992,8.17c1.268,2.386,5.644,5.878,6.739,6.731c0.069,1.167,0.13,2.416,0.166,3.798
			c0.044,2.43,0.071,5.175-0.099,8.16c-0.043,0.795-0.123,1.649-0.185,2.478c-0.185-1.418-0.468-3.362-0.516-3.548
			c-0.889-3.417-4.617-9.497-8.565-9.722c-2.844-0.163-4.922,2.313-4.802,5.044c0.123,2.788,2.473,5.298,4.646,6.794
			c2.266,1.561,7.897,2.651,9.131,2.876c-0.165,1.834-0.377,3.714-0.713,5.661c-0.571,3.353-1.355,6.895-2.616,10.389
			c-0.07,0.194-0.167,0.386-0.239,0.58c0.029-0.716-0.091-4.661-0.131-4.936c-0.509-3.494-3.546-9.947-7.445-10.604
			c-2.81-0.474-5.147,1.758-5.327,4.485c-0.184,2.786,1.876,5.538,3.871,7.264c2.298,1.988,8.735,3.856,8.978,3.926
			c-1.223,3.256-2.727,6.506-4.439,9.722c-1.239,2.333-2.589,4.644-3.965,6.95c0.017-0.934-0.098-4.6-0.136-4.864
			c-0.509-3.494-3.546-9.946-7.446-10.604c-2.809-0.474-5.146,1.758-5.327,4.485c-0.184,2.785,1.877,5.538,3.871,7.264
			c2.244,1.941,8.403,3.758,8.923,3.91c-0.625,1.047-1.246,2.095-1.881,3.139c-2.073,3.411-4.166,6.82-6.128,10.25
			c-0.68,1.188-1.306,2.384-1.939,3.578c-0.019-1.401-0.102-3.949-0.134-4.167c-0.509-3.494-3.546-9.947-7.446-10.604
			c-2.809-0.474-5.146,1.758-5.327,4.486c-0.184,2.785,1.877,5.538,3.871,7.264c2.003,1.734,7.149,3.374,8.605,3.815
			c-1.038,1.995-2.024,3.998-2.9,6.016c-0.359,0.878-0.782,1.751-1.079,2.613c-0.318,0.863-0.633,1.717-0.944,2.564
			c-0.582,1.773-1.129,3.418-1.629,5.082c-0.258,0.84-0.482,1.637-0.724,2.455c0.194-1.422,0.463-3.68,0.465-3.888
			c0.027-3.53-1.997-10.369-5.752-11.609c-2.705-0.894-5.354,0.958-5.946,3.626c-0.075,0.339-0.115,0.683-0.125,1.029
			c-1.813,2.578-2.869,6.336-2.953,8.68c-0.008,0.226,0.198,2.906,0.331,4.273c-0.36-1.073-0.722-2.137-1.079-3.261
			c-0.525-1.612-1.027-3.333-1.525-4.997c-0.226-0.873-0.454-1.755-0.684-2.644c-0.251-0.894-0.382-1.775-0.582-2.677
			c-0.263-1.326-0.469-2.706-0.677-4.084c1.674-0.435,6.564-1.801,8.564-3.387c2.067-1.638,4.245-4.299,4.181-7.089
			c-0.063-2.733-2.302-5.063-5.129-4.712c-3.924,0.489-7.235,6.804-7.895,10.273c-0.021,0.113-0.085,0.86-0.151,1.747
			c-0.162-1.35-0.329-2.698-0.447-4.073c-0.338-3.899-0.56-7.881-0.8-11.87c-0.05-0.831-0.112-1.661-0.165-2.493
			c1.41-0.36,6.72-1.792,8.817-3.454c2.067-1.638,4.244-4.299,4.18-7.09c-0.062-2.732-2.301-5.063-5.128-4.711
			c-3.924,0.489-7.236,6.803-7.896,10.273c-0.024,0.124-0.097,1.017-0.171,2.016c-0.161-2.165-0.349-4.322-0.601-6.457
			c-0.438-3.733-1.071-7.386-1.965-10.876c0.498-0.123,6.758-1.676,9.089-3.523c2.067-1.638,4.244-4.299,4.181-7.09
			c-0.063-2.733-2.302-5.063-5.129-4.711c-3.925,0.489-7.237,6.805-7.896,10.273c-0.047,0.246-0.289,3.478-0.336,4.635
			c-0.011-0.041-0.017-0.086-0.028-0.127c-0.972-3.656-2.35-7.025-3.814-10.157c-1.456-3.127-3.092-5.948-4.664-8.503
			c-1.566-2.561-3.157-4.807-4.581-6.784c-0.78-1.064-1.512-2.023-2.206-2.911c0.017,0.001,0.084,0.006,0.084,0.006
			c0.072,0.005-1.096-4.654-1.203-4.94c-1.244-3.305-5.591-8.958-9.541-8.766c-2.845,0.137-4.652,2.817-4.245,5.521
			c0.416,2.76,3.019,5.008,5.335,6.268c2.374,1.29,7.95,1.789,9.334,1.895c0.702,0.936,1.441,1.945,2.233,3.077
			c1.378,2.003,2.915,4.276,4.419,6.86c0.403,0.687,0.807,1.443,1.213,2.169c-0.937-1.08-2.245-2.546-2.387-2.674
			c-2.627-2.359-9.089-5.374-12.507-3.384c-2.462,1.434-2.83,4.645-1.223,6.855c1.64,2.258,4.986,3.055,7.622,3.105
			c2.751,0.052,8.049-2.145,9.203-2.639c0.873,1.621,1.734,3.306,2.528,5.116c1.373,3.111,2.674,6.498,3.548,10.108
			c0.049,0.201,0.075,0.414,0.122,0.616c-0.371-0.614-2.649-3.838-2.833-4.045c-2.352-2.634-8.444-6.34-12.06-4.737
			c-2.605,1.155-3.323,4.306-1.969,6.68c1.383,2.425,4.621,3.584,7.236,3.923c3.014,0.391,9.413-1.603,9.653-1.678
			c0.776,3.391,1.316,6.931,1.661,10.559c0.254,2.629,0.403,5.301,0.528,7.985c-0.501-0.788-2.62-3.784-2.797-3.982
			c-2.352-2.634-8.444-6.34-12.059-4.737c-2.604,1.154-3.323,4.306-1.969,6.679c1.383,2.425,4.62,3.585,7.236,3.923
			c2.943,0.382,9.082-1.5,9.599-1.661c0.056,1.218,0.117,2.435,0.163,3.657c0.153,3.989,0.288,7.987,0.543,11.929
			c0.088,1.366,0.225,2.708,0.356,4.054c-0.788-1.158-2.263-3.238-2.41-3.401c-2.352-2.634-8.445-6.34-12.06-4.738
			c-2.604,1.155-3.323,4.306-1.969,6.68c1.383,2.425,4.62,3.584,7.236,3.923c2.628,0.341,7.824-1.13,9.282-1.565
			c0.235,2.237,0.517,4.45,0.901,6.617c0.185,0.931,0.314,1.892,0.542,2.776c0.212,0.895,0.421,1.781,0.628,2.659
			c0.492,1.799,0.943,3.474,1.445,5.137c0.248,0.843,0.5,1.632,0.75,2.447c-0.623-1.293-1.643-3.325-1.758-3.499
			c-1.925-2.96-7.386-7.546-11.202-6.509c-2.75,0.747-3.938,3.753-2.959,6.304c1,2.607,4.025,4.243,6.558,4.975
			c2.794,0.806,8.942-0.07,9.694-0.181c0.479,1.529,0.958,3.003,1.436,4.43h2.457c-0.536-1.467-1.076-3.003-1.616-4.594
			c0.689-0.286,6.017-2.542,8.167-4.61c2.243,1.433,4.798,2.646,5.249,2.856c-0.579,2.007-1.124,3.965-1.6,5.807
			c-0.048,0.185-0.091,0.359-0.138,0.541h2.418c0.392-1.667,0.836-3.426,1.309-5.229c0.76,0.147,6.852,1.283,9.674,0.599
			c2.563-0.621,5.655-2.126,6.766-4.686c1.089-2.507,0.032-5.561-2.683-6.426c-3.768-1.2-9.422,3.146-11.473,6.02
			c-0.132,0.184-1.439,2.533-2.081,3.747c0.291-1.094,0.578-2.181,0.9-3.316c0.451-1.634,0.981-3.347,1.485-5.009
			c0.293-0.853,0.588-1.714,0.888-2.584c0.282-0.884,0.661-1.691,0.991-2.553c0.511-1.251,1.102-2.516,1.688-3.78
			c1.636,0.56,6.467,2.119,9.012,1.899c2.628-0.226,5.912-1.244,7.398-3.607c1.455-2.313,0.873-5.492-1.679-6.758
			c-3.543-1.757-9.789,1.683-12.253,4.212c-0.08,0.083-0.545,0.671-1.09,1.375c0.61-1.216,1.215-2.433,1.874-3.644
			c1.87-3.438,3.881-6.882,5.881-10.342c0.417-0.721,0.823-1.447,1.237-2.169c1.375,0.478,6.594,2.214,9.26,1.984
			c2.627-0.226,5.913-1.245,7.398-3.607c1.455-2.314,0.874-5.493-1.679-6.758c-3.541-1.757-9.788,1.682-12.252,4.212
			c-0.088,0.09-0.641,0.795-1.254,1.588c1.06-1.895,2.094-3.797,3.06-5.717c1.695-3.355,3.182-6.752,4.362-10.156
			c0.483,0.174,6.561,2.331,9.524,2.076c2.627-0.226,5.911-1.244,7.398-3.607C665.557,400.176,664.975,396.997,662.423,395.731z"/>
		<path d="M590.107,383.562c-0.063,0.035-0.989-4.679-1.013-4.983c-0.28-3.52,1.247-10.486,4.903-11.994
			c2.633-1.086,5.408,0.571,6.19,3.19c0.799,2.674-0.599,5.816-2.16,7.942C596.195,380.213,590.112,383.559,590.107,383.562z"/>
	</g>
</g>
<g id="Plants_1">
	<g style="opacity:0.15;">
		<path d="M519.496,142.144c4.607,3.099,16.898,5.057,16.908,5.059c0.127,0.02-1.169-8.494-1.313-9.022
			c-1.66-6.109-8.462-16.937-15.543-17.265c-5.102-0.235-8.78,4.242-8.512,9.135C511.311,135.05,515.573,139.503,519.496,142.144z"
			/>
		<path d="M555.49,295.959c-0.002,0.289-0.007,0.559-0.01,0.845l4.248,2.66c-0.008-1.15-0.019-2.319-0.038-3.523
			c-0.045-3.41-0.162-7.054-0.318-10.795c0.874-0.175,5.84-1.202,10.356-2.744c2.864,4.517,11.186,10.711,12.265,11.502
			c-1.803,2.834-3.585,5.573-5.308,8.13c-1.182,1.764-2.331,3.448-3.45,5.063l4.629,0.845c0.766-1.171,1.54-2.361,2.335-3.604
			c1.844-2.87,3.757-5.974,5.69-9.179c1.262,0.514,11.598,4.652,16.807,4.437c4.724-0.198,10.688-1.762,13.538-5.877
			c2.79-4.028,1.998-9.769-2.474-12.238c-6.205-3.427-17.667,2.239-22.279,6.577c-0.273,0.255-2.915,3.361-4.549,5.348
			c0.783-1.314,1.558-2.581,2.347-3.943c1.581-2.683,3.078-5.408,4.7-8.333c0.734-1.44,1.475-2.895,2.224-4.364
			c0.773-1.441,1.406-3.062,2.123-4.604c1.589-3.612,3.021-7.348,4.382-11.144c2.353,1.377,10.78,6.15,15.502,6.672
			c4.7,0.521,10.831-0.121,14.271-3.757c3.368-3.559,3.456-9.354-0.589-12.473c-5.616-4.328-17.804-0.462-23.02,3.126
			c-0.326,0.222-3.779,3.218-5.643,4.9c0.8-2.288,1.609-4.568,2.344-6.909c2.12-6.758,4.055-13.666,6.018-20.548
			c0.6-2.109,1.223-4.202,1.839-6.3c0.832,0.5,10.725,6.388,16.014,6.974c4.699,0.522,10.831-0.121,14.271-3.758
			c3.368-3.559,3.456-9.353-0.59-12.471c-5.615-4.328-17.803-0.463-23.019,3.124c-0.393,0.27-5.356,4.587-6.565,5.747
			c1.358-4.621,2.753-9.212,4.313-13.683c2.143-6.171,4.588-12.108,7.381-17.685c0.386,0.234,10.685,6.426,16.101,7.027
			c4.7,0.52,10.832-0.122,14.272-3.758c3.368-3.559,3.456-9.353-0.59-12.472c-5.616-4.328-17.803-0.462-23.019,3.125
			c-0.409,0.282-5.746,4.929-6.654,5.841c0.168-0.331,0.304-0.693,0.475-1.021c3.058-5.916,6.763-11.262,10.477-16.098
			c2.153-2.814,4.368-5.384,6.579-7.835c1.8,1.351,10.094,7.429,14.908,8.509c4.614,1.034,10.78,1.068,14.597-2.168
			c3.739-3.168,4.462-8.917,0.784-12.461c-5.107-4.919-17.645-2.415-23.224,0.578c-0.303,0.162-3.203,2.159-5.295,3.643
			c1.015-1.092,2.041-2.237,3.034-3.262c3.719-3.862,7.363-7.168,10.614-10.071c1.861-1.635,3.577-3.077,5.198-4.41
			c2.456,0.404,12.38,1.905,17.064,0.668c4.57-1.21,10.059-4.018,11.957-8.65c1.857-4.536-0.15-9.972-5.047-11.42
			c-6.798-2.013-16.773,5.986-20.345,11.214c-0.308,0.453-4.324,8.072-4.196,8.094c0,0,0.119,0.02,0.148,0.025
			c-1.585,1.25-3.268,2.61-5.079,4.132c-3.321,2.837-7.047,6.073-10.863,9.869c-3.826,3.783-7.875,8.001-11.74,12.829
			c-3.88,4.834-7.713,10.117-10.96,16.071c-0.037,0.067-0.066,0.142-0.103,0.21c0.409-2.037,1.362-7.769,1.385-8.217
			c0.326-6.322-2.757-18.731-9.385-21.251c-4.774-1.814-9.665,1.293-10.936,6.026c-1.296,4.834,1.364,10.394,4.269,14.127
			c3.274,4.209,13.517,9.575,14.333,10c-3.04,5.698-5.696,11.793-8.046,18.109c-1.347,3.611-2.591,7.288-3.792,10.991
			c0.297-1.773,0.549-3.359,0.56-3.585c0.326-6.323-2.758-18.73-9.385-21.25c-4.775-1.816-9.665,1.293-10.935,6.025
			c-1.298,4.834,1.364,10.394,4.267,14.126c2.947,3.786,11.587,8.538,13.89,9.764c-0.446,1.425-0.907,2.845-1.347,4.271
			c-2.114,6.847-4.193,13.688-6.439,20.336c-0.789,2.344-1.654,4.622-2.51,6.904c0.262-1.573,0.469-2.902,0.48-3.107
			c0.326-6.323-2.758-18.731-9.384-21.251c-4.776-1.814-9.667,1.292-10.938,6.026c-1.298,4.832,1.365,10.394,4.269,14.126
			c2.81,3.614,10.747,8.071,13.478,9.541c-0.948,2.312-1.893,4.628-2.916,6.826c-0.733,1.485-1.334,2.964-2.152,4.415
			c-0.78,1.451-1.552,2.891-2.316,4.315c-1.574,2.688-3.18,5.472-4.78,8.056c-1.1,1.806-2.182,3.507-3.265,5.222
			c0.813-2.323,2.311-6.905,2.393-7.301c0.85-4.119,0.608-11.113-1.453-16.375c0.13-0.608,0.206-1.223,0.219-1.846
			c0.104-4.9-3.723-9.251-8.815-8.844c-7.067,0.565-13.5,11.615-14.954,17.776c-0.086,0.364-0.577,4.411-0.844,6.97
			c-0.073-1.528-0.124-3.012-0.217-4.584c-0.163-3.11-0.418-6.208-0.677-9.544c-0.182-1.606-0.368-3.227-0.554-4.866
			c-0.15-1.628-0.516-3.329-0.768-5.011c-0.668-3.887-1.534-7.796-2.493-11.712c2.724-0.149,12.384-0.818,16.611-2.986
			c4.207-2.157,8.967-6.077,9.83-11.006c0.845-4.827-2.277-9.709-7.372-10.077c-7.071-0.513-15.105,9.435-17.477,15.305
			c-0.148,0.367-1.376,4.769-2.004,7.201c-0.595-2.349-1.177-4.698-1.857-7.056c-1.959-6.807-4.154-13.636-6.316-20.458
			c-0.663-2.089-1.298-4.178-1.942-6.268c0.97-0.043,12.471-0.59,17.205-3.018c4.207-2.158,8.967-6.077,9.83-11.007
			c0.845-4.826-2.277-9.708-7.372-10.076c-7.071-0.513-15.104,9.434-17.476,15.304c-0.178,0.443-1.936,6.78-2.304,8.414
			c-1.416-4.601-2.785-9.202-3.951-13.792c-1.616-6.33-2.853-12.63-3.6-18.822c0.453-0.019,12.458-0.536,17.307-3.022
			c4.207-2.158,8.967-6.077,9.83-11.007c0.846-4.827-2.277-9.707-7.372-10.076c-7.071-0.513-15.104,9.435-17.475,15.305
			c-0.186,0.461-2.074,7.282-2.327,8.541c-0.044-0.368-0.131-0.744-0.17-1.112c-0.711-6.622-0.571-13.125-0.141-19.208
			c0.242-3.534,0.674-6.899,1.165-10.163c2.246,0.133,12.517,0.628,17.127-1.128c4.42-1.684,9.581-5.056,10.98-9.86
			c1.37-4.705-1.198-9.901-6.22-10.826c-6.972-1.286-16.05,7.72-19.051,13.293c-0.163,0.304-1.482,3.568-2.408,5.96
			c0.245-1.47,0.469-2.992,0.732-4.395c0.972-5.272,2.187-10.041,3.297-14.255c0.651-2.392,1.287-4.541,1.904-6.545
			c2.271-1.02,11.376-5.242,14.6-8.859c3.146-3.53,6.173-8.901,5.201-13.809c-0.952-4.808-5.626-8.234-10.509-6.743
			c-6.781,2.072-10.686,14.247-10.784,20.577c-0.007,0.546,0.847,9.117,0.966,9.066c0,0,0.111-0.05,0.137-0.062
			c-0.632,1.916-1.286,3.98-1.956,6.248c-1.205,4.198-2.527,8.952-3.617,14.225c-1.103,5.266-2.154,11.018-2.714,17.176
			c-0.569,6.171-0.853,12.694-0.276,19.451c0.007,0.076,0.023,0.155,0.031,0.232c-0.783-1.925-3.152-7.231-3.38-7.618
			c-3.215-5.454-12.633-14.1-19.551-12.546c-4.983,1.121-7.349,6.411-5.797,11.059c1.585,4.748,6.873,7.916,11.352,9.427
			c5.054,1.704,16.557,0.53,17.472,0.432c0.609,6.431,1.755,12.98,3.281,19.544c0.867,3.754,1.859,7.507,2.899,11.258
			c-0.73-1.641-1.396-3.104-1.51-3.299c-3.216-5.454-12.635-14.101-19.551-12.545c-4.985,1.119-7.348,6.409-5.798,11.057
			c1.582,4.747,6.873,7.918,11.352,9.428c4.547,1.534,14.374,0.729,16.972,0.481c0.414,1.435,0.812,2.872,1.233,4.305
			c2.014,6.877,4.053,13.73,5.848,20.514c0.634,2.39,1.169,4.767,1.715,7.145c-0.65-1.458-1.21-2.68-1.315-2.858
			c-3.216-5.453-12.634-14.101-19.551-12.546c-4.984,1.12-7.349,6.41-5.798,11.058c1.585,4.748,6.872,7.918,11.353,9.428
			c4.339,1.464,13.416,0.802,16.505,0.523c0.485,2.451,0.975,4.905,1.334,7.301c0.208,1.642,0.524,3.209,0.64,4.869
			c0.152,1.642,0.3,3.267,0.448,4.878c0.172,3.109,0.367,6.318,0.457,9.356c0.079,2.113,0.116,4.128,0.158,6.158
			c-0.603-2.387-1.882-7.034-2.033-7.411c-2.35-5.877-10.351-15.85-17.424-15.362c-5.096,0.353-8.235,5.223-7.404,10.053
			c0.846,4.932,5.592,8.867,9.792,11.039c4.625,2.391,15.718,3.002,17.104,3.069C555.49,289.608,555.516,292.875,555.49,295.959z"/>
		<path d="M642.829,167.434c0.095,0.087,3.711-7.73,3.883-8.249c1.984-6.012,2.284-18.795-3.442-22.975
			c-4.125-3.011-9.663-1.305-12.137,2.925c-2.528,4.318-1.43,10.385,0.386,14.751C633.65,159.013,642.823,167.427,642.829,167.434z"
			/>
	</g>
	<g style="opacity:0.15;">
		<path d="M266.255,123.935c-2.475,4.97-12.197,12.743-12.205,12.749c-0.101,0.08-3.178-7.964-3.314-8.493
			c-1.574-6.132-1.006-18.907,4.991-22.688c4.32-2.724,9.73-0.647,11.913,3.74C269.869,113.724,268.361,119.701,266.255,123.935z"/>
		<path d="M310.911,275.461c0.144,0.251,0.282,0.483,0.425,0.73l-2.38,4.411c-0.561-1.004-1.128-2.026-1.706-3.082
			c-1.645-2.988-3.342-6.214-5.054-9.544c-0.847,0.28-5.672,1.839-10.36,2.728c-0.26,5.342-4.438,14.837-4.985,16.058
			c2.967,1.574,5.869,3.076,8.631,4.449c1.899,0.95,3.73,1.847,5.5,2.699l-3.608,3.02c-1.245-0.64-2.505-1.292-3.81-1.981
			c-3.02-1.585-6.217-3.34-9.48-5.172c-0.844,1.07-7.788,9.773-12.424,12.158c-4.205,2.16-10.164,3.746-14.675,1.575
			c-4.415-2.125-6.561-7.508-3.892-11.864c3.703-6.044,16.469-6.777,22.62-5.283c0.363,0.087,4.194,1.483,6.596,2.404
			c-1.33-0.755-2.629-1.475-3.989-2.27c-2.7-1.552-5.347-3.182-8.202-4.925c-1.349-0.89-2.712-1.789-4.089-2.697
			c-1.384-0.872-2.735-1.968-4.12-2.955c-3.165-2.356-6.256-4.898-9.313-7.527c-1.367,2.359-6.337,10.671-10.185,13.457
			c-3.83,2.774-9.478,5.243-14.265,3.78c-4.687-1.432-7.624-6.427-5.646-11.137c2.746-6.536,15.253-9.193,21.561-8.649
			c0.393,0.033,4.875,0.933,7.327,1.474c-1.825-1.595-3.655-3.177-5.45-4.851c-5.181-4.83-10.275-9.881-15.38-14.896
			c-1.563-1.537-3.138-3.05-4.71-4.57c-0.477,0.846-6.172,10.851-10.481,13.972c-3.828,2.774-9.479,5.243-14.265,3.78
			c-4.686-1.431-7.624-6.427-5.645-11.136c2.745-6.537,15.252-9.194,21.559-8.65c0.475,0.041,6.923,1.344,8.546,1.756
			c-3.463-3.348-6.943-6.651-10.508-9.769c-4.911-4.308-9.969-8.263-15.152-11.733c-0.221,0.394-6.118,10.864-10.531,14.061
			c-3.83,2.773-9.48,5.243-14.266,3.78c-4.686-1.432-7.624-6.427-5.646-11.137c2.746-6.537,15.252-9.193,21.56-8.65
			c0.494,0.043,7.43,1.449,8.67,1.793c-0.309-0.205-0.606-0.452-0.917-0.654c-5.58-3.634-11.442-6.454-17.06-8.824
			c-3.262-1.384-6.457-2.525-9.59-3.565c-0.899,2.063-5.108,11.445-8.762,14.76c-3.502,3.177-8.846,6.252-13.763,5.323
			c-4.816-0.908-8.284-5.55-6.835-10.448c2.012-6.799,14.151-10.813,20.48-10.966c0.343-0.008,3.852,0.296,6.403,0.553
			c-1.422-0.448-2.879-0.937-4.249-1.338c-5.141-1.521-9.942-2.597-14.203-3.516c-2.426-0.503-4.63-0.91-6.697-1.268
			c-1.936,1.564-9.824,7.77-14.509,9.007c-4.572,1.205-10.732,1.473-14.669-1.617c-3.855-3.027-4.794-8.745-1.251-12.423
			c4.917-5.107,17.541-3.077,23.229-0.295c0.491,0.241,7.746,4.883,7.646,4.966c0,0-0.094,0.076-0.117,0.095
			c1.996,0.304,4.131,0.655,6.457,1.085c4.289,0.827,9.126,1.801,14.32,3.217c5.195,1.401,10.799,3.069,16.543,5.358
			c5.761,2.287,11.703,4.989,17.467,8.563c0.065,0.04,0.128,0.091,0.193,0.131c-1.362-1.569-5.021-6.083-5.262-6.461
			c-3.406-5.336-6.852-17.65-2.333-23.114c3.256-3.935,9.043-3.649,12.485-0.16c3.514,3.563,3.946,9.712,3.264,14.392
			c-0.769,5.277-7.026,15.001-7.525,15.774c5.458,3.454,10.777,7.443,15.938,11.774c2.954,2.474,5.852,5.058,8.725,7.685
			c-1.133-1.395-2.137-2.65-2.257-2.841c-3.406-5.338-6.851-17.649-2.332-23.113c3.255-3.937,9.043-3.649,12.484-0.161
			c3.516,3.562,3.947,9.712,3.265,14.391c-0.693,4.748-5.86,13.146-7.257,15.35c1.091,1.019,2.193,2.026,3.28,3.049
			c5.219,4.91,10.405,9.832,15.641,14.504c1.844,1.648,3.72,3.202,5.592,4.764c-1.005-1.239-1.84-2.292-1.951-2.465
			c-3.406-5.338-6.851-17.65-2.334-23.113c3.257-3.936,9.044-3.65,12.487-0.161c3.515,3.561,3.946,9.713,3.263,14.391
			c-0.659,4.53-5.36,12.326-7.008,14.952c1.966,1.542,3.931,3.09,5.906,4.496c1.37,0.929,2.624,1.918,4.052,2.776
			c1.395,0.877,2.777,1.747,4.144,2.608c2.697,1.56,5.468,3.188,8.135,4.645c1.848,1.028,3.629,1.972,5.418,2.929
			c-1.854-1.619-5.419-4.863-5.686-5.168c-2.773-3.162-6.017-9.363-6.823-14.957c-0.413-0.464-0.783-0.962-1.102-1.497
			c-2.51-4.209-1.331-9.882,3.298-12.043c6.424-2.999,17.475,3.434,21.781,8.073c0.254,0.274,2.68,3.551,4.176,5.644
			c-0.691-1.365-1.38-2.68-2.075-4.093c-1.394-2.785-2.702-5.604-4.124-8.633c-0.635-1.486-1.274-2.988-1.921-4.505
			c-0.673-1.489-1.195-3.149-1.806-4.737c-1.339-3.71-2.516-7.536-3.615-11.416c-2.443,1.215-11.173,5.404-15.919,5.606
			c-4.724,0.202-10.798-0.857-13.983-4.716c-3.118-3.781-2.814-9.567,1.434-12.403c5.896-3.938,17.794,0.745,22.755,4.679
			c0.309,0.246,3.551,3.468,5.299,5.272c-0.643-2.337-1.296-4.667-1.87-7.053c-1.658-6.887-3.121-13.909-4.611-20.909
			c-0.456-2.144-0.935-4.274-1.406-6.41c-0.865,0.441-11.135,5.645-16.451,5.872c-4.724,0.201-10.798-0.856-13.983-4.717
			c-3.118-3.779-2.814-9.566,1.435-12.402c5.896-3.938,17.793,0.745,22.754,4.678c0.373,0.297,5.032,4.94,6.159,6.178
			c-1.041-4.701-2.122-9.377-3.374-13.944c-1.72-6.303-3.756-12.392-6.164-18.144c-0.403,0.207-11.098,5.685-16.542,5.918
			c-4.724,0.201-10.798-0.856-13.983-4.717c-3.119-3.779-2.814-9.566,1.435-12.403c5.895-3.938,17.793,0.746,22.753,4.679
			c0.39,0.309,5.399,5.308,6.241,6.278c-0.143-0.342-0.254-0.712-0.401-1.051c-2.652-6.11-5.985-11.695-9.363-16.772
			c-1.956-2.953-3.992-5.666-6.032-8.262c-1.887,1.224-10.575,6.727-15.45,7.477c-4.675,0.719-10.828,0.335-14.417-3.152
			c-3.515-3.415-3.848-9.201,0.063-12.486c5.428-4.561,17.768-1.213,23.13,2.151c0.292,0.183,3.051,2.371,5.037,3.994
			c-0.939-1.157-1.885-2.37-2.806-3.461c-3.449-4.104-6.86-7.651-9.906-10.767c-1.747-1.759-3.362-3.313-4.887-4.751
			c-2.479,0.235-12.481,1.059-17.07-0.494c-4.479-1.516-9.763-4.691-11.342-9.44c-1.546-4.651,0.826-9.938,5.809-11.053
			c6.92-1.547,16.328,7.112,19.539,12.569c0.276,0.472,3.765,8.346,3.637,8.361c0,0-0.121,0.011-0.149,0.014
			c1.496,1.354,3.084,2.826,4.786,4.467c3.121,3.055,6.618,6.537,10.169,10.583c3.56,4.034,7.314,8.517,10.841,13.596
			c3.542,5.086,7.01,10.616,9.845,16.777c0.032,0.07,0.056,0.147,0.088,0.217c-0.27-2.06-0.83-7.844-0.823-8.293
			c0.103-6.33,4.023-18.5,10.805-20.564c4.887-1.486,9.556,1.945,10.503,6.754c0.966,4.911-2.067,10.278-5.216,13.804
			c-3.553,3.978-14.136,8.637-14.98,9.004c2.646,5.893,4.884,12.154,6.798,18.615c1.1,3.692,2.091,7.446,3.038,11.222
			c-0.176-1.788-0.319-3.388-0.316-3.614c0.103-6.331,4.024-18.501,10.806-20.563c4.887-1.489,9.555,1.944,10.502,6.752
			c0.968,4.909-2.066,10.279-5.216,13.805c-3.196,3.579-12.139,7.732-14.521,8.8c0.348,1.453,0.712,2.898,1.054,4.352
			c1.645,6.975,3.256,13.941,5.045,20.726c0.629,2.391,1.337,4.723,2.037,7.06c-0.155-1.589-0.271-2.927-0.268-3.134
			c0.103-6.329,4.023-18.5,10.806-20.564c4.887-1.487,9.555,1.945,10.502,6.753c0.966,4.912-2.066,10.279-5.217,13.805
			c-3.05,3.416-11.27,7.323-14.094,8.605c0.789,2.37,1.574,4.746,2.445,7.007c0.63,1.531,1.129,3.049,1.848,4.55
			c0.679,1.503,1.353,2.989,2.019,4.463c1.386,2.788,2.801,5.676,4.223,8.362c0.974,1.876,1.938,3.647,2.903,5.433
			c-0.654-2.373-1.837-7.046-1.892-7.448c-0.858-6.271,1.174-18.895,7.566-21.963c4.605-2.21,9.74,0.475,11.403,5.085
			c1.7,4.707-0.484,10.472-3.064,14.434c-2.841,4.363-12.185,10.372-13.358,11.115C307.774,269.939,309.366,272.793,310.911,275.461
			z"/>
		<path d="M171.496,206.83c-0.04,0.123-7.045-4.889-7.45-5.255c-4.694-4.248-11.268-15.215-8.352-21.678
			c2.1-4.655,7.758-5.906,11.999-3.45c4.331,2.506,6.372,8.324,6.949,13.018C175.32,194.974,171.498,206.82,171.496,206.83z"/>
	</g>
</g>
<g id="Credit_Card">
	<g>
		<path style="fill:#263238;stroke:#263238;stroke-miterlimit:10;" d="M421.874,276.136l42.634-219.084
			c0.756-3.887,4.521-6.425,8.408-5.669l130.585,25.412c3.887,0.757,6.425,4.521,5.669,8.408l-42.634,219.084
			c-0.757,3.887-4.521,6.425-8.408,5.669l-130.585-25.412C423.655,283.787,421.117,280.023,421.874,276.136z"/>
		
			<rect x="472.957" y="79.989" transform="matrix(-0.191 0.9816 -0.9816 -0.191 661.8956 -375.123)" style="fill:#FFFFFF;stroke:#263238;stroke-miterlimit:10;" width="25.14" height="10.403"/>
		
			<rect x="466.582" y="112.751" transform="matrix(-0.191 0.9816 -0.9816 -0.191 686.4591 -329.8459)" style="fill:#FFFFFF;stroke:#263238;stroke-miterlimit:10;" width="25.14" height="10.403"/>
		
			<rect x="460.206" y="145.512" transform="matrix(-0.191 0.9816 -0.9816 -0.191 711.022 -284.5692)" style="fill:#FFFFFF;stroke:#263238;stroke-miterlimit:10;" width="25.141" height="10.403"/>
		
			<rect x="453.831" y="178.274" transform="matrix(-0.191 0.9816 -0.9816 -0.191 735.5887 -239.2907)" style="fill:#FFFFFF;stroke:#263238;stroke-miterlimit:10;" width="25.141" height="10.403"/>
		
			<rect x="447.455" y="211.035" transform="matrix(-0.191 0.9816 -0.9816 -0.191 760.1542 -194.0124)" style="fill:#FFFFFF;stroke:#263238;stroke-miterlimit:10;" width="25.14" height="10.403"/>
		
			<rect x="441.08" y="243.797" transform="matrix(-0.191 0.9816 -0.9816 -0.191 784.7184 -148.7352)" style="fill:#FFFFFF;stroke:#263238;stroke-miterlimit:10;" width="25.141" height="10.403"/>
		<path style="fill:#FFFFFF;stroke:#263238;stroke-miterlimit:10;" d="M507.06,128.843l9.168-47.112
			c0.349-1.794,2.087-2.966,3.881-2.617l33.496,6.519c1.795,0.349,2.966,2.087,2.617,3.882l-9.168,47.112
			c-0.349,1.794-2.087,2.966-3.881,2.617l-33.497-6.518C507.883,132.375,506.711,130.637,507.06,128.843z"/>
		
			<rect x="515.821" y="147.825" transform="matrix(-0.191 0.9816 -0.9816 -0.191 833.6776 -385.3617)" style="fill:#FFFFFF;stroke:#263238;stroke-miterlimit:10;" width="119.634" height="6.068"/>
	</g>
</g>
<g id="Banknotes">
	<g>
		<g>
			
				<rect x="295.181" y="68.635" transform="matrix(0.5585 -0.8295 0.8295 0.5585 16.027 367.1053)" style="fill:#92E3A9;stroke:#263238;stroke-miterlimit:10;" width="115.359" height="199.726"/>
			<path style="fill:#FFFFFF;stroke:#263238;stroke-miterlimit:10;" d="M319.668,90.11c-4.293,6.376-12.941,8.065-19.318,3.772
				c-0.485-0.326-0.933-0.685-1.363-1.059l-36.99,54.945c0.508,0.258,1.009,0.538,1.494,0.864
				c6.376,4.293,8.065,12.942,3.773,19.318c-0.163,0.241-0.343,0.462-0.517,0.69l118.38,79.697c0.145-0.247,0.282-0.497,0.445-0.738
				c4.293-6.376,12.941-8.066,19.318-3.773c0.485,0.326,0.933,0.685,1.363,1.059l36.991-54.945
				c-0.508-0.258-1.009-0.538-1.494-0.864c-6.376-4.293-8.065-12.941-3.773-19.317c0.326-0.485,0.685-0.933,1.059-1.363
				L320.532,88.616C320.274,89.124,319.994,89.625,319.668,90.11z M371.784,181.238c-7.036,10.452-21.213,13.22-31.665,6.184
				c-10.452-7.036-13.22-21.213-6.184-31.665c7.036-10.452,21.214-13.22,31.665-6.184
				C376.052,156.609,378.821,170.786,371.784,181.238z"/>
		</g>
		<g>
			
				<rect x="297.562" y="59.984" transform="matrix(0.6591 -0.7521 0.7521 0.6591 0.8907 321.6581)" style="fill:#92E3A9;stroke:#263238;stroke-miterlimit:10;" width="115.359" height="199.726"/>
			<path style="fill:#FFFFFF;stroke:#263238;stroke-miterlimit:10;" d="M332.251,77.885c-5.066,5.78-13.859,6.36-19.64,1.294
				c-0.44-0.385-0.838-0.798-1.218-1.223l-43.655,49.814c0.471,0.32,0.933,0.661,1.372,1.046c5.781,5.066,6.36,13.86,1.294,19.64
				c-0.192,0.218-0.398,0.415-0.6,0.619l107.325,94.057c0.176-0.227,0.343-0.458,0.535-0.676c5.066-5.781,13.859-6.36,19.64-1.294
				c0.439,0.385,0.838,0.798,1.217,1.223l43.656-49.814c-0.471-0.32-0.933-0.661-1.372-1.046c-5.781-5.066-6.36-13.859-1.294-19.64
				c0.385-0.439,0.798-0.838,1.223-1.217L333.297,76.513C332.977,76.984,332.636,77.445,332.251,77.885z M372.398,174.882
				c-8.304,9.476-22.718,10.426-32.193,2.121c-9.476-8.304-10.425-22.718-2.121-32.193c8.304-9.476,22.718-10.425,32.193-2.121
				C379.753,150.993,380.702,165.407,372.398,174.882z"/>
		</g>
		<g>
			
				<rect x="310.269" y="53.684" transform="matrix(0.7689 -0.6394 0.6394 0.7689 -13.1321 270.7665)" style="fill:#92E3A9;stroke:#263238;stroke-miterlimit:10;" width="115.359" height="199.726"/>
			<path style="fill:#FFFFFF;stroke:#263238;stroke-miterlimit:10;" d="M358.093,68.995c-5.91,4.915-14.685,4.108-19.6-1.802
				c-0.374-0.449-0.703-0.919-1.011-1.399l-50.926,42.353c0.415,0.39,0.818,0.799,1.191,1.249c4.915,5.91,4.109,14.685-1.801,19.6
				c-0.224,0.186-0.458,0.348-0.69,0.517l91.25,109.721c0.209-0.196,0.41-0.398,0.634-0.584c5.91-4.915,14.685-4.109,19.6,1.801
				c0.374,0.449,0.703,0.919,1.011,1.399l50.926-42.353c-0.415-0.39-0.818-0.799-1.191-1.249c-4.915-5.91-4.108-14.685,1.801-19.6
				c0.449-0.374,0.919-0.703,1.399-1.011L359.342,67.803C358.952,68.218,358.542,68.621,358.093,68.995z M382.535,171.087
				c-9.687,8.056-24.071,6.734-32.128-2.953c-8.056-9.687-6.735-24.071,2.953-32.128c9.687-8.056,24.072-6.734,32.128,2.953
				C393.545,148.647,392.223,163.031,382.535,171.087z"/>
		</g>
		<g>
			
				<rect x="331.25" y="48.084" transform="matrix(0.8994 -0.4371 0.4371 0.8994 -25.5475 184.8709)" style="fill:#92E3A9;stroke:#263238;stroke-miterlimit:10;" width="115.359" height="199.726"/>
			<path style="fill:#FFFFFF;stroke:#263238;stroke-miterlimit:10;" d="M399.574,63.491c-6.913,3.359-15.241,0.478-18.601-6.435
				c-0.256-0.526-0.463-1.061-0.647-1.6l-59.574,28.95c0.31,0.478,0.603,0.972,0.858,1.497c3.36,6.914,0.479,15.242-6.435,18.601
				c-0.262,0.127-0.528,0.228-0.793,0.337l62.374,128.354c0.25-0.141,0.494-0.288,0.755-0.415c6.914-3.36,15.242-0.479,18.601,6.435
				c0.255,0.525,0.463,1.061,0.647,1.6l59.575-28.95c-0.31-0.478-0.603-0.972-0.858-1.497c-3.359-6.913-0.479-15.241,6.435-18.601
				c0.526-0.255,1.061-0.463,1.6-0.647L401.071,62.632C400.593,62.942,400.1,63.235,399.574,63.491z M398.901,168.466
				c-11.332,5.507-24.983,0.785-30.49-10.548c-5.507-11.332-0.785-24.983,10.548-30.49c11.332-5.507,24.983-0.784,30.49,10.548
				C414.955,149.308,410.233,162.959,398.901,168.466z"/>
		</g>
		<g>
			
				<rect x="358.244" y="48.358" transform="matrix(0.9885 -0.1513 0.1513 0.9885 -17.6343 64.6185)" style="fill:#92E3A9;stroke:#263238;stroke-miterlimit:10;" width="115.359" height="199.726"/>
			<path style="fill:#FFFFFF;stroke:#263238;stroke-miterlimit:10;" d="M451.09,70.699c-7.598,1.162-14.7-4.054-15.862-11.653
				c-0.089-0.578-0.128-1.15-0.145-1.72l-65.474,10.019c0.155,0.548,0.288,1.106,0.376,1.684c1.163,7.598-4.054,14.7-11.652,15.863
				c-0.287,0.044-0.572,0.061-0.858,0.087l21.586,141.065c0.28-0.061,0.557-0.129,0.844-0.173c7.598-1.163,14.7,4.054,15.863,11.652
				c0.088,0.577,0.128,1.15,0.144,1.72l65.474-10.019c-0.155-0.548-0.288-1.107-0.377-1.684c-1.163-7.598,4.054-14.7,11.652-15.863
				c0.578-0.088,1.15-0.128,1.72-0.144L452.774,70.323C452.226,70.477,451.668,70.611,451.09,70.699z M419.374,170.772
				c-12.455,1.906-24.096-6.646-26.002-19.1c-1.906-12.455,6.646-24.096,19.1-26.002c12.455-1.906,24.096,6.646,26.002,19.1
				C440.38,157.224,431.829,168.866,419.374,170.772z"/>
		</g>
	</g>
</g>
<g id="Window">
	<g>
		<path style="fill:#FFFFFF;stroke:#263238;stroke-miterlimit:10;" d="M587.158,464.81H262.697c-6.511,0-11.789-5.278-11.789-11.789
			V179.407c0-6.511,5.278-11.789,11.789-11.789h324.461c6.511,0,11.789,5.278,11.789,11.789v273.614
			C598.946,459.532,593.669,464.81,587.158,464.81z"/>
		<g>
			<path style="fill:#666666;stroke:#263238;stroke-miterlimit:10;" d="M598.946,197.592v-18.185
				c0-6.511-5.278-11.789-11.789-11.789H262.697c-6.511,0-11.789,5.278-11.789,11.789v18.185H598.946z"/>
			<path style="fill:#FFFFFF;stroke:#263238;stroke-miterlimit:10;" d="M550.491,183.457c0-2.445-1.982-4.426-4.426-4.426
				c-2.445,0-4.426,1.982-4.426,4.426c0,2.445,1.982,4.426,4.426,4.426C548.509,187.883,550.491,185.902,550.491,183.457z"/>
			<path style="fill:#FFFFFF;stroke:#263238;stroke-miterlimit:10;" d="M565.349,183.457c0-2.445-1.982-4.426-4.426-4.426
				c-2.444,0-4.426,1.982-4.426,4.426c0,2.445,1.982,4.426,4.426,4.426C563.367,187.883,565.349,185.902,565.349,183.457z"/>
			<path style="fill:#92E3A9;stroke:#263238;stroke-miterlimit:10;" d="M580.207,183.457c0-2.445-1.982-4.426-4.426-4.426
				c-2.445,0-4.426,1.982-4.426,4.426c0,2.445,1.982,4.426,4.426,4.426C578.225,187.883,580.207,185.902,580.207,183.457z"/>
		</g>
	</g>
</g>
<g id="Levels">
	<g>
		<g>
			<g>
				<path style="fill:#92E3A9;" d="M578.665,415.213H506.68c-2.632-20.58-13.067-38.728-28.235-51.372l50.799-50.799
					C557.446,338.686,575.959,374.783,578.665,415.213z"/>
				<path style="fill:#92E3A9;" d="M375.692,363.833c-15.168,12.652-25.595,30.8-28.227,51.38h-71.994
					c2.706-40.43,21.22-76.527,49.43-102.171L375.692,363.833z"/>
				<path style="opacity:0.9;fill:#FFFFFF;" d="M375.692,363.833c-15.168,12.652-25.595,30.8-28.227,51.38h-71.994
					c2.706-40.43,21.22-76.527,49.43-102.171L375.692,363.833z"/>
				<path style="fill:#92E3A9;" d="M427.073,273.566v71.67c-19.551,0-37.458,6.982-51.38,18.596l-50.791-50.791
					C351.883,288.526,387.73,273.566,427.073,273.566z"/>
				<path style="opacity:0.6;fill:#FFFFFF;" d="M427.073,273.566v71.67c-19.551,0-37.458,6.982-51.38,18.596l-50.791-50.791
					C351.883,288.526,387.73,273.566,427.073,273.566z"/>
				<path style="fill:#92E3A9;" d="M529.244,313.042l-50.799,50.799c-13.922-11.623-31.838-18.604-51.372-18.604v-71.67
					C466.407,273.566,502.263,288.526,529.244,313.042z"/>
				<path style="opacity:0.3;fill:#FFFFFF;" d="M529.244,313.042l-50.799,50.799c-13.922-11.623-31.838-18.604-51.372-18.604v-71.67
					C466.407,273.566,502.263,288.526,529.244,313.042z"/>
			</g>
			<g>
				<path style="fill:none;stroke:#263238;stroke-miterlimit:10;" d="M578.665,415.213H506.68
					c-2.632-20.58-13.067-38.728-28.235-51.372l50.799-50.799C557.446,338.686,575.959,374.783,578.665,415.213z"/>
				<path style="fill:none;stroke:#263238;stroke-miterlimit:10;" d="M375.692,363.833c-15.168,12.652-25.595,30.8-28.227,51.38
					h-71.994c2.706-40.43,21.22-76.527,49.43-102.171L375.692,363.833z"/>
				<path style="opacity:0.9;fill:none;stroke:#263238;stroke-miterlimit:10;" d="M375.692,363.833
					c-15.168,12.652-25.595,30.8-28.227,51.38h-71.994c2.706-40.43,21.22-76.527,49.43-102.171L375.692,363.833z"/>
				<path style="fill:none;stroke:#263238;stroke-miterlimit:10;" d="M427.073,273.566v71.67c-19.551,0-37.458,6.982-51.38,18.596
					l-50.791-50.791C351.883,288.526,387.73,273.566,427.073,273.566z"/>
				<path style="opacity:0.6;fill:none;stroke:#263238;stroke-miterlimit:10;" d="M427.073,273.566v71.67
					c-19.551,0-37.458,6.982-51.38,18.596l-50.791-50.791C351.883,288.526,387.73,273.566,427.073,273.566z"/>
				<path style="fill:none;stroke:#263238;stroke-miterlimit:10;" d="M529.244,313.042l-50.799,50.799
					c-13.922-11.623-31.838-18.604-51.372-18.604v-71.67C466.407,273.566,502.263,288.526,529.244,313.042z"/>
				<path style="opacity:0.3;fill:none;stroke:#263238;stroke-miterlimit:10;" d="M529.244,313.042l-50.799,50.799
					c-13.922-11.623-31.838-18.604-51.372-18.604v-71.67C466.407,273.566,502.263,288.526,529.244,313.042z"/>
			</g>
		</g>
		<g>
			<path style="fill:#263238;stroke:#263238;stroke-miterlimit:10;" d="M441.222,406.551l29.588-33.284l-41.63,18.527
				c-3.603-0.445-7.374,0.513-10.409,2.99c-5.9,4.815-6.779,13.5-1.965,19.4c4.815,5.9,13.5,6.779,19.4,1.965
				C439.241,413.672,440.936,410.17,441.222,406.551z"/>
			<path style="fill:#FFFFFF;stroke:#263238;stroke-miterlimit:10;" d="M431.265,410.095c2.556-2.086,2.937-5.85,0.851-8.406
				c-2.086-2.556-5.85-2.937-8.406-0.851c-2.556,2.086-2.937,5.85-0.851,8.406C424.945,411.801,428.709,412.182,431.265,410.095z"/>
		</g>
	</g>
	<g>
		<path style="fill:#263238;" d="M507.413,384.681v-11.397h4.967v1.604h-2.646v3.025h2.041v1.618h-2.041v3.574h2.674v1.576H507.413z
			"/>
		<path style="fill:#263238;" d="M512.83,384.681l2.251-6.092l-2.167-5.305h2.195l1.351,3.279l1.14-3.279h1.956l-2.083,5.84
			l2.279,5.558h-2.167l-1.492-3.589l-1.309,3.589H512.83z"/>
		<path style="fill:#263238;" d="M523.707,384.835c-0.844,0-1.513-0.159-2.005-0.478c-0.492-0.318-0.837-0.761-1.034-1.33
			c-0.196-0.567-0.295-1.226-0.295-1.977v-4.095c0-0.787,0.099-1.466,0.295-2.033c0.197-0.567,0.542-1.006,1.034-1.315
			c0.493-0.31,1.161-0.464,2.005-0.464c0.816,0,1.456,0.136,1.92,0.408c0.464,0.272,0.792,0.656,0.986,1.153
			c0.192,0.498,0.288,1.074,0.288,1.731v0.957h-2.251v-1.069c0-0.263-0.014-0.509-0.042-0.739c-0.029-0.23-0.106-0.417-0.232-0.563
			c-0.126-0.145-0.344-0.217-0.654-0.217c-0.31,0-0.535,0.075-0.676,0.225c-0.14,0.15-0.23,0.344-0.267,0.583
			c-0.038,0.239-0.056,0.504-0.056,0.796v5.177c0,0.319,0.025,0.598,0.077,0.838c0.051,0.239,0.15,0.421,0.295,0.548
			c0.145,0.127,0.354,0.191,0.626,0.191c0.3,0,0.514-0.073,0.64-0.218c0.126-0.145,0.206-0.34,0.239-0.584
			c0.033-0.243,0.049-0.502,0.049-0.774v-1.111h2.251v0.943c0,0.666-0.094,1.255-0.281,1.766c-0.188,0.511-0.511,0.914-0.971,1.21
			C525.189,384.688,524.542,384.835,523.707,384.835z"/>
		<path style="fill:#263238;" d="M528.322,384.681v-11.397h4.967v1.604h-2.646v3.025h2.041v1.618h-2.041v3.574h2.673v1.576H528.322z
			"/>
		<path style="fill:#263238;" d="M534.484,384.681v-11.397h2.321v9.822h2.673v1.576H534.484z"/>
		<path style="fill:#263238;" d="M540.493,384.681v-11.397h2.321v9.822h2.673v1.576H540.493z"/>
		<path style="fill:#263238;" d="M546.501,384.681v-11.397h4.967v1.604h-2.646v3.025h2.041v1.618h-2.041v3.574h2.674v1.576H546.501z
			"/>
		<path style="fill:#263238;" d="M552.663,384.681v-11.397h1.617l2.533,5.938v-5.938h1.913v11.397h-1.548l-2.532-6.304v6.304
			H552.663z"/>
		<path style="fill:#263238;" d="M561.527,384.681v-9.667h-1.759v-1.731h5.826v1.731h-1.731v9.667H561.527z"/>
	</g>
	<g>
		<path style="fill:#263238;" d="M308.157,384.681v-11.397h3.616c0.684,0,1.242,0.129,1.674,0.387
			c0.431,0.259,0.753,0.631,0.964,1.119c0.211,0.488,0.316,1.079,0.316,1.773c0,0.816-0.138,1.454-0.415,1.914
			c-0.277,0.459-0.654,0.786-1.132,0.978c-0.479,0.192-1.027,0.288-1.646,0.288h-1.056v4.939H308.157z M310.478,378.11h0.817
			c0.337,0,0.598-0.054,0.781-0.162c0.183-0.107,0.307-0.279,0.373-0.514c0.065-0.234,0.099-0.535,0.099-0.901
			c0-0.347-0.026-0.637-0.078-0.872c-0.051-0.234-0.166-0.417-0.344-0.549c-0.179-0.131-0.46-0.196-0.844-0.196h-0.802V378.11z"/>
		<path style="fill:#263238;" d="M319.103,384.835c-0.835,0-1.497-0.149-1.984-0.45s-0.837-0.729-1.048-1.288
			c-0.211-0.558-0.317-1.226-0.317-2.005v-4.249c0-0.778,0.106-1.445,0.317-1.998c0.211-0.553,0.56-0.975,1.048-1.267
			c0.488-0.29,1.149-0.436,1.984-0.436c0.845,0,1.513,0.148,2.005,0.443c0.492,0.296,0.844,0.717,1.055,1.266
			c0.211,0.549,0.316,1.213,0.316,1.991v4.249c0,0.779-0.106,1.447-0.316,2.005c-0.212,0.558-0.563,0.987-1.055,1.288
			C320.616,384.686,319.948,384.835,319.103,384.835z M319.103,383.162c0.3,0,0.521-0.068,0.662-0.204
			c0.14-0.136,0.234-0.319,0.281-0.549s0.07-0.476,0.07-0.739v-5.389c0-0.263-0.023-0.507-0.07-0.732
			c-0.047-0.225-0.141-0.405-0.281-0.541c-0.141-0.136-0.362-0.204-0.662-0.204c-0.281,0-0.493,0.068-0.633,0.204
			c-0.141,0.136-0.235,0.316-0.282,0.541c-0.047,0.225-0.07,0.469-0.07,0.732v5.389c0,0.263,0.021,0.509,0.063,0.739
			c0.042,0.23,0.133,0.413,0.275,0.549C318.596,383.094,318.812,383.162,319.103,383.162z"/>
		<path style="fill:#263238;" d="M327.208,384.835c-0.835,0-1.497-0.149-1.984-0.45s-0.837-0.729-1.048-1.288
			c-0.211-0.558-0.317-1.226-0.317-2.005v-4.249c0-0.778,0.106-1.445,0.317-1.998c0.211-0.553,0.56-0.975,1.048-1.267
			c0.488-0.29,1.149-0.436,1.984-0.436c0.845,0,1.513,0.148,2.005,0.443c0.492,0.296,0.844,0.717,1.055,1.266
			c0.211,0.549,0.316,1.213,0.316,1.991v4.249c0,0.779-0.106,1.447-0.316,2.005c-0.212,0.558-0.563,0.987-1.055,1.288
			C328.72,384.686,328.052,384.835,327.208,384.835z M327.208,383.162c0.3,0,0.521-0.068,0.661-0.204
			c0.14-0.136,0.234-0.319,0.281-0.549s0.07-0.476,0.07-0.739v-5.389c0-0.263-0.023-0.507-0.07-0.732
			c-0.047-0.225-0.141-0.405-0.281-0.541c-0.141-0.136-0.362-0.204-0.661-0.204c-0.281,0-0.493,0.068-0.633,0.204
			c-0.141,0.136-0.235,0.316-0.282,0.541c-0.047,0.225-0.07,0.469-0.07,0.732v5.389c0,0.263,0.021,0.509,0.063,0.739
			c0.042,0.23,0.134,0.413,0.275,0.549C326.701,383.094,326.917,383.162,327.208,383.162z"/>
		<path style="fill:#263238;" d="M332.133,384.681v-11.397h2.955c0.769,0,1.428,0.087,1.977,0.26
			c0.549,0.174,0.971,0.481,1.267,0.922c0.296,0.441,0.443,1.051,0.443,1.829c0,0.469-0.04,0.885-0.12,1.246
			c-0.08,0.361-0.221,0.676-0.422,0.943c-0.201,0.267-0.485,0.481-0.851,0.641l1.576,5.558h-2.377l-1.309-5.164h-0.817v5.164
			H332.133z M334.454,378.138h0.676c0.375,0,0.671-0.06,0.886-0.183c0.216-0.122,0.368-0.306,0.457-0.556
			c0.089-0.249,0.133-0.556,0.133-0.922c0-0.525-0.096-0.926-0.289-1.203c-0.192-0.276-0.551-0.415-1.076-0.415h-0.788V378.138z"/>
	</g>
	<g>
		<path style="fill:#263238;" d="M454.654,320.759c-0.769,0-1.378-0.162-1.829-0.485c-0.45-0.324-0.771-0.783-0.964-1.379
			c-0.192-0.595-0.289-1.288-0.289-2.075v-3.813c0-0.816,0.099-1.52,0.296-2.111c0.197-0.591,0.542-1.045,1.034-1.365
			c0.493-0.318,1.161-0.478,2.005-0.478c0.816,0,1.461,0.136,1.935,0.408c0.473,0.272,0.813,0.656,1.02,1.153
			c0.206,0.498,0.31,1.089,0.31,1.773v0.661h-2.266v-0.802c0-0.3-0.018-0.565-0.056-0.795c-0.038-0.23-0.124-0.41-0.26-0.542
			c-0.136-0.131-0.354-0.196-0.654-0.196c-0.31,0-0.535,0.08-0.676,0.239c-0.141,0.16-0.23,0.364-0.267,0.612
			c-0.038,0.249-0.056,0.514-0.056,0.795v5.051c0,0.319,0.028,0.604,0.084,0.858c0.056,0.253,0.162,0.451,0.316,0.591
			c0.155,0.141,0.378,0.211,0.668,0.211c0.291,0,0.516-0.076,0.676-0.226c0.16-0.149,0.269-0.353,0.331-0.612
			c0.061-0.258,0.091-0.551,0.091-0.879v-1.21h-1.111v-1.407h3.208v5.853h-1.52l-0.14-1.027c-0.15,0.347-0.375,0.634-0.676,0.859
			C455.564,320.646,455.161,320.759,454.654,320.759z"/>
		<path style="fill:#263238;" d="M462.97,320.745c-0.835,0-1.497-0.15-1.984-0.45c-0.488-0.3-0.837-0.729-1.047-1.288
			c-0.212-0.558-0.317-1.226-0.317-2.005v-4.249c0-0.778,0.106-1.445,0.317-1.998c0.211-0.553,0.56-0.975,1.047-1.267
			c0.488-0.29,1.149-0.436,1.984-0.436c0.844,0,1.513,0.148,2.005,0.443c0.492,0.295,0.844,0.717,1.055,1.266
			c0.211,0.549,0.316,1.213,0.316,1.991v4.249c0,0.779-0.106,1.447-0.316,2.005c-0.211,0.558-0.563,0.987-1.055,1.288
			C464.483,320.595,463.814,320.745,462.97,320.745z M462.97,319.071c0.3,0,0.52-0.068,0.661-0.204
			c0.14-0.136,0.234-0.319,0.281-0.549s0.07-0.476,0.07-0.739v-5.389c0-0.263-0.023-0.507-0.07-0.732
			c-0.047-0.225-0.141-0.406-0.281-0.541c-0.141-0.136-0.362-0.204-0.661-0.204c-0.281,0-0.493,0.068-0.633,0.204
			c-0.141,0.136-0.235,0.316-0.282,0.541c-0.047,0.225-0.07,0.469-0.07,0.732v5.389c0,0.263,0.021,0.509,0.063,0.739
			c0.042,0.23,0.133,0.413,0.275,0.549C462.463,319.003,462.679,319.071,462.97,319.071z"/>
		<path style="fill:#263238;" d="M471.074,320.745c-0.835,0-1.497-0.15-1.984-0.45c-0.488-0.3-0.837-0.729-1.048-1.288
			c-0.212-0.558-0.317-1.226-0.317-2.005v-4.249c0-0.778,0.106-1.445,0.317-1.998c0.211-0.553,0.56-0.975,1.048-1.267
			c0.488-0.29,1.149-0.436,1.984-0.436c0.844,0,1.513,0.148,2.005,0.443c0.492,0.295,0.844,0.717,1.055,1.266
			c0.211,0.549,0.316,1.213,0.316,1.991v4.249c0,0.779-0.106,1.447-0.316,2.005c-0.212,0.558-0.563,0.987-1.055,1.288
			C472.587,320.595,471.919,320.745,471.074,320.745z M471.074,319.071c0.3,0,0.52-0.068,0.661-0.204
			c0.14-0.136,0.234-0.319,0.281-0.549s0.071-0.476,0.071-0.739v-5.389c0-0.263-0.024-0.507-0.071-0.732
			c-0.047-0.225-0.141-0.406-0.281-0.541c-0.141-0.136-0.362-0.204-0.661-0.204c-0.281,0-0.493,0.068-0.633,0.204
			c-0.141,0.136-0.235,0.316-0.282,0.541c-0.047,0.225-0.07,0.469-0.07,0.732v5.389c0,0.263,0.021,0.509,0.063,0.739
			c0.042,0.23,0.133,0.413,0.274,0.549C470.568,319.003,470.783,319.071,471.074,319.071z"/>
		<path style="fill:#263238;" d="M475.999,320.59v-11.397h2.786c0.965,0,1.718,0.124,2.258,0.373
			c0.539,0.249,0.922,0.638,1.147,1.168c0.225,0.53,0.337,1.208,0.337,2.033v4.151c0,0.845-0.112,1.539-0.337,2.083
			c-0.225,0.544-0.603,0.945-1.132,1.203c-0.53,0.259-1.269,0.387-2.216,0.387H475.999z M478.32,318.972h0.493
			c0.431,0,0.739-0.068,0.922-0.204c0.183-0.136,0.298-0.337,0.345-0.605c0.047-0.267,0.07-0.598,0.07-0.991v-4.7
			c0-0.394-0.031-0.711-0.091-0.95c-0.061-0.239-0.183-0.415-0.366-0.527c-0.183-0.113-0.481-0.169-0.894-0.169h-0.479V318.972z"/>
	</g>
	<g>
		<path style="fill:#263238;" d="M366.979,320.59v-11.397h4.811v1.576H369.3v3.081h2.111v1.618H369.3v5.122H366.979z"/>
		<path style="fill:#263238;" d="M372.015,320.59l2.209-11.397h2.574l2.195,11.397h-2.152l-0.408-2.505h-1.801l-0.436,2.505H372.015
			z M374.843,316.664h1.365l-0.689-4.601L374.843,316.664z"/>
		<path style="fill:#263238;" d="M380.092,320.59v-11.397h2.307v11.397H380.092z"/>
		<path style="fill:#263238;" d="M384.145,320.59v-11.397h2.955c0.769,0,1.428,0.087,1.977,0.26
			c0.549,0.174,0.971,0.481,1.267,0.922c0.296,0.441,0.443,1.051,0.443,1.829c0,0.469-0.04,0.885-0.12,1.246
			c-0.08,0.361-0.221,0.676-0.422,0.943c-0.202,0.267-0.485,0.481-0.851,0.64l1.576,5.558h-2.377l-1.309-5.164h-0.817v5.164H384.145
			z M386.465,314.047h0.676c0.375,0,0.671-0.06,0.886-0.183c0.216-0.122,0.368-0.306,0.457-0.556
			c0.089-0.248,0.134-0.556,0.134-0.922c0-0.525-0.096-0.926-0.289-1.203c-0.192-0.276-0.551-0.415-1.076-0.415h-0.788V314.047z"/>
	</g>
</g>
<g id="Text">
	<g>
		<path style="fill:#263238;" d="M375.995,254.215c-1.1,0-1.971-0.208-2.613-0.623c-0.641-0.415-1.091-0.992-1.348-1.733
			c-0.256-0.739-0.385-1.598-0.385-2.576v-5.336c0-1.026,0.129-1.91,0.385-2.649c0.257-0.739,0.707-1.311,1.348-1.714
			c0.642-0.404,1.513-0.605,2.613-0.605c1.063,0,1.898,0.177,2.503,0.532c0.605,0.354,1.033,0.855,1.284,1.503
			c0.251,0.649,0.375,1.4,0.375,2.255v1.247h-2.934v-1.393c0-0.342-0.019-0.663-0.055-0.963c-0.037-0.3-0.138-0.544-0.303-0.734
			c-0.164-0.189-0.448-0.283-0.852-0.283s-0.697,0.097-0.88,0.293c-0.183,0.196-0.3,0.448-0.348,0.76
			c-0.049,0.312-0.073,0.657-0.073,1.037v6.747c0,0.416,0.033,0.78,0.101,1.092c0.067,0.312,0.196,0.549,0.385,0.714
			c0.189,0.165,0.462,0.248,0.816,0.248c0.391,0,0.669-0.095,0.835-0.284c0.164-0.189,0.268-0.443,0.312-0.761
			c0.043-0.317,0.064-0.654,0.064-1.008v-1.448h2.934v1.228c0,0.868-0.123,1.635-0.366,2.301c-0.245,0.666-0.666,1.191-1.266,1.576
			C377.926,254.022,377.083,254.215,375.995,254.215z"/>
		<path style="fill:#263238;" d="M382.01,254.014v-14.852h3.85c1.002,0,1.861,0.114,2.576,0.339
			c0.715,0.226,1.265,0.627,1.651,1.201c0.385,0.575,0.578,1.37,0.578,2.383c0,0.611-0.052,1.153-0.156,1.623
			c-0.104,0.47-0.288,0.88-0.55,1.228c-0.263,0.348-0.632,0.627-1.109,0.835l2.053,7.242h-3.098l-1.705-6.729h-1.064v6.729H382.01z
			 M385.034,245.487h0.88c0.489,0,0.874-0.079,1.155-0.238c0.281-0.159,0.479-0.399,0.596-0.724
			c0.116-0.324,0.174-0.724,0.174-1.201c0-0.684-0.126-1.206-0.376-1.568c-0.25-0.36-0.717-0.54-1.402-0.54h-1.027V245.487z"/>
		<path style="fill:#263238;" d="M392.643,254.014v-14.852h6.472v2.09h-3.448v3.942h2.659v2.109h-2.659v4.657h3.484v2.053H392.643z"
			/>
		<path style="fill:#263238;" d="M400.674,254.014v-14.852h3.63c1.258,0,2.239,0.162,2.942,0.486
			c0.702,0.325,1.201,0.831,1.494,1.523c0.293,0.69,0.44,1.574,0.44,2.649v5.409c0,1.1-0.147,2.005-0.44,2.714
			c-0.293,0.709-0.785,1.232-1.475,1.567c-0.691,0.337-1.654,0.504-2.888,0.504H400.674z M403.698,251.905h0.642
			c0.562,0,0.963-0.089,1.201-0.266c0.239-0.177,0.388-0.44,0.45-0.789c0.061-0.348,0.092-0.779,0.092-1.292v-6.124
			c0-0.513-0.04-0.926-0.119-1.238c-0.08-0.312-0.238-0.54-0.477-0.687c-0.238-0.147-0.627-0.22-1.165-0.22h-0.624V251.905z"/>
		<path style="fill:#263238;" d="M411.216,254.014v-14.852h3.007v14.852H411.216z"/>
		<path style="fill:#263238;" d="M417.889,254.014v-12.596h-2.292v-2.255h7.591v2.255h-2.255v12.596H417.889z"/>
		<path style="fill:#263238;" d="M432.962,254.215c-0.917,0-1.681-0.167-2.293-0.504c-0.611-0.336-1.072-0.843-1.384-1.521
			c-0.312-0.678-0.492-1.543-0.541-2.594l2.604-0.44c0.024,0.611,0.089,1.121,0.193,1.531c0.103,0.409,0.263,0.714,0.476,0.917
			c0.214,0.201,0.48,0.302,0.798,0.302c0.391,0,0.656-0.121,0.797-0.367c0.14-0.244,0.211-0.525,0.211-0.843
			c0-0.623-0.15-1.146-0.449-1.567c-0.3-0.422-0.693-0.847-1.182-1.274l-1.54-1.339c-0.55-0.465-1-0.99-1.348-1.577
			c-0.349-0.586-0.523-1.307-0.523-2.163c0-1.222,0.358-2.16,1.072-2.814c0.715-0.653,1.696-0.98,2.943-0.98
			c0.745,0,1.356,0.121,1.833,0.366c0.477,0.244,0.846,0.571,1.109,0.981c0.263,0.409,0.446,0.855,0.55,1.338
			c0.104,0.483,0.168,0.963,0.193,1.439l-2.585,0.385c-0.025-0.452-0.064-0.849-0.119-1.191c-0.056-0.342-0.165-0.611-0.33-0.807
			c-0.165-0.196-0.412-0.293-0.743-0.293c-0.354,0-0.617,0.131-0.789,0.394c-0.171,0.264-0.256,0.553-0.256,0.871
			c0,0.526,0.119,0.957,0.357,1.293c0.238,0.337,0.565,0.688,0.981,1.054l1.504,1.32c0.623,0.538,1.157,1.152,1.605,1.843
			c0.445,0.69,0.668,1.543,0.668,2.557c0,0.697-0.159,1.327-0.476,1.889c-0.318,0.562-0.761,1.002-1.33,1.32
			C434.401,254.056,433.732,254.215,432.962,254.215z"/>
		<path style="fill:#263238;" d="M442.495,254.215c-1.1,0-1.971-0.208-2.613-0.623c-0.641-0.415-1.09-0.992-1.347-1.733
			c-0.256-0.739-0.385-1.598-0.385-2.576v-5.336c0-1.026,0.129-1.91,0.385-2.649c0.257-0.739,0.707-1.311,1.347-1.714
			c0.642-0.404,1.513-0.605,2.613-0.605c1.063,0,1.898,0.177,2.503,0.532c0.605,0.354,1.033,0.855,1.284,1.503
			c0.25,0.649,0.375,1.4,0.375,2.255v1.247h-2.934v-1.393c0-0.342-0.019-0.663-0.055-0.963c-0.037-0.3-0.138-0.544-0.303-0.734
			c-0.164-0.189-0.449-0.283-0.852-0.283s-0.697,0.097-0.88,0.293c-0.183,0.196-0.3,0.448-0.348,0.76
			c-0.049,0.312-0.073,0.657-0.073,1.037v6.747c0,0.416,0.033,0.78,0.101,1.092c0.067,0.312,0.196,0.549,0.385,0.714
			c0.189,0.165,0.462,0.248,0.816,0.248c0.391,0,0.669-0.095,0.835-0.284c0.164-0.189,0.268-0.443,0.312-0.761
			c0.043-0.317,0.063-0.654,0.063-1.008v-1.448h2.934v1.228c0,0.868-0.122,1.635-0.366,2.301c-0.245,0.666-0.666,1.191-1.266,1.576
			C444.427,254.022,443.583,254.215,442.495,254.215z"/>
		<path style="fill:#263238;" d="M452.652,254.215c-1.088,0-1.95-0.195-2.586-0.586c-0.636-0.392-1.091-0.951-1.365-1.678
			c-0.276-0.727-0.413-1.598-0.413-2.613v-5.537c0-1.014,0.138-1.882,0.413-2.603c0.275-0.721,0.729-1.271,1.365-1.65
			c0.635-0.378,1.497-0.568,2.586-0.568c1.1,0,1.971,0.193,2.613,0.577c0.641,0.385,1.099,0.934,1.375,1.65
			c0.275,0.715,0.412,1.581,0.412,2.594v5.537c0,1.015-0.138,1.886-0.412,2.613c-0.276,0.727-0.734,1.286-1.375,1.678
			C454.623,254.02,453.753,254.215,452.652,254.215z M452.652,252.034c0.391,0,0.678-0.089,0.862-0.266
			c0.183-0.177,0.305-0.416,0.366-0.715c0.061-0.3,0.092-0.62,0.092-0.962v-7.022c0-0.342-0.031-0.661-0.092-0.954
			c-0.061-0.293-0.184-0.528-0.366-0.706c-0.184-0.177-0.471-0.266-0.862-0.266c-0.366,0-0.642,0.089-0.825,0.266
			c-0.184,0.177-0.306,0.412-0.367,0.706c-0.061,0.293-0.091,0.611-0.091,0.954v7.022c0,0.342,0.027,0.663,0.082,0.962
			c0.055,0.3,0.174,0.538,0.358,0.715C451.991,251.945,452.273,252.034,452.652,252.034z"/>
		<path style="fill:#263238;" d="M459.069,254.014v-14.852h3.85c1.002,0,1.861,0.114,2.576,0.339
			c0.715,0.226,1.266,0.627,1.651,1.201c0.385,0.575,0.577,1.37,0.577,2.383c0,0.611-0.052,1.153-0.156,1.623
			c-0.104,0.47-0.288,0.88-0.55,1.228c-0.262,0.348-0.632,0.627-1.109,0.835l2.053,7.242h-3.098l-1.705-6.729h-1.064v6.729H459.069z
			 M462.094,245.487h0.881c0.489,0,0.874-0.079,1.155-0.238c0.281-0.159,0.479-0.399,0.596-0.724
			c0.116-0.324,0.174-0.724,0.174-1.201c0-0.684-0.126-1.206-0.376-1.568c-0.251-0.36-0.717-0.54-1.402-0.54h-1.027V245.487z"/>
		<path style="fill:#263238;" d="M469.704,254.014v-14.852h6.472v2.09h-3.448v3.942h2.659v2.109h-2.659v4.657h3.484v2.053H469.704z"
			/>
	</g>
</g>
<g id="Character_1">
	<g>
		<g>
			<path style="fill:#FFFFFF;stroke:#263238;stroke-miterlimit:10;" d="M180.331,274.258c0,0-3.576,52.205-3.576,53.874
				c0,1.669,0.057,8.85-0.896,11.234c-0.953,2.384-5.302,3.069-6.255,3.307c-0.954,0.238-2.384-0.953-2.384-0.953
				s-1.192,0.238-1.43-1.907c-0.238-2.145-1.42-5.144-1.897-8.72c-0.477-3.576,3.566-7.252,4.042-8.92
				c0.477-1.669,1.192-3.337,1.192-3.337l-2.384-43.862L180.331,274.258z"/>
			<polyline style="fill:#FFFFFF;stroke:#263238;stroke-miterlimit:10;" points="167.221,341.719 168.03,334.49 167.291,333.013 			
				"/>
		</g>
		<g>
			<path style="fill:#FFFFFF;stroke:#263238;stroke-miterlimit:10;" d="M113.017,441.521c0,0-2.5,6.389-3.611,8.889
				c-1.111,2.5-3.611,6.111-4.167,7.778c-0.556,1.667-2.5,5-0.833,6.389c1.667,1.389,19.445,0,19.445,0s2.778-0.278,3.611-2.222
				c0.833-1.944,0-9.167,0-10.278c0-1.111-0.278-8.889-0.278-8.889L113.017,441.521z"/>
			<path style="fill:#FFFFFF;stroke:#263238;stroke-miterlimit:10;" d="M127.462,462.354c0.307-0.715,0.387-2.146,0.367-3.723
				c-2.295,1.715-4.811,2.057-4.811,2.057h-18.765c-0.535,1.474-0.862,3.042,0.154,3.889c1.667,1.389,19.445,0,19.445,0
				S126.629,464.299,127.462,462.354z"/>
		</g>
		<g>
			<path style="fill:#FFFFFF;stroke:#263238;stroke-miterlimit:10;" d="M164.862,441.521c0,0,2.5,6.389,3.611,8.889
				c1.111,2.5,3.611,6.111,4.167,7.778c0.556,1.667,2.5,5,0.833,6.389c-1.667,1.389-19.445,0-19.445,0s-2.778-0.278-3.611-2.222
				c-0.833-1.944,0-9.167,0-10.278c0-1.111,0.278-8.889,0.278-8.889L164.862,441.521z"/>
			<path style="fill:#FFFFFF;stroke:#263238;stroke-miterlimit:10;" d="M150.417,462.354c-0.307-0.715-0.387-2.146-0.367-3.723
				c2.295,1.715,4.811,2.057,4.811,2.057h18.765c0.535,1.474,0.862,3.042-0.154,3.889c-1.667,1.389-19.445,0-19.445,0
				S151.25,464.299,150.417,462.354z"/>
		</g>
		<path style="fill:#263238;stroke:#263238;stroke-miterlimit:10;" d="M110.902,286.71l1.43,88.2c0,0-2.86,9.058-1.192,18.355
			c1.669,9.297,2.384,40.763,2.384,40.763s-2.384,1.669-2.384,3.337c0,1.669,0.238,6.198,0.238,6.198s5.006,2.384,8.343,2.861
			s10.489-0.477,10.489-0.477l0.954-9.535l-0.238-8.105l3.576-70.798l1.907-37.425l3.576-0.238l5.006,37.664l4.052,69.845
			l0.715,18.117c0,0,2.384,1.192,6.198,1.43c3.814,0.238,10.489-2.145,10.489-2.145s0.954-6.198,1.192-7.866
			c0.238-1.669-1.907-9.058-1.907-9.058l1.43-50.775l-0.715-10.965l-4.052-80.095L110.902,286.71z"/>
		<path style="fill:#92E3A9;stroke:#263238;stroke-miterlimit:10;" d="M133.31,189.214l-11.681,5.959l2.861,92.491h26.698
			l0.715-89.153C151.903,198.51,137.839,188.498,133.31,189.214z"/>
		<g>
			<path style="fill:#BDBDBD;stroke:#263238;stroke-miterlimit:10;" d="M143.739,192.443c0,0,28.384,14.149,28.188,15.126
				c-0.195,0.977,10.304,52.416,10.304,52.416l-0.782,9.573l-15.63,0.195l-1.758-6.643l1.43,37.902l-21.282-1.003
				c0,0-1.758-46.499,0.782-71.703C147.53,203.104,143.739,192.443,143.739,192.443z"/>
			<path style="fill:#BDBDBD;stroke:#263238;stroke-miterlimit:10;" d="M183.598,266.042c0,0-0.977,10.746-1.954,11.136
				c-0.977,0.391-13.285,0.782-14.653-0.195c-1.368-0.977-2.344-10.16-1.758-11.136c0.586-0.977,16.607-0.586,16.607-0.586
				S183.598,264.478,183.598,266.042z"/>
			<line style="fill:#FFFFFF;stroke:#263238;stroke-miterlimit:10;" x1="164.061" y1="263.111" x2="161.127" y2="225.266"/>
			<path style="fill:none;stroke:#263238;stroke-miterlimit:10;" d="M166.847,209.718c0,0-2.008,5.975-4.743,11.25"/>
			<path style="fill:#BDBDBD;stroke:#263238;stroke-miterlimit:10;" d="M143.678,256.51c0.135-10.101,0.507-20.22,1.312-28.202
				c2.54-25.203-1.251-35.865-1.251-35.865s3.018,1.381,7.255,3.348l4.009,14.401l-5.338,3.157l3.908,7.815L143.678,256.51z"/>
		</g>
		<path style="fill:#FFFFFF;stroke:#263238;stroke-miterlimit:10;" d="M126.808,171.538l-2.149,20.905
			c0,0-0.391,18.17,11.527,18.951c11.918,0.782,8.597-15.825,8.401-19.928c-0.195-4.103,0-9.183,0-9.183L126.808,171.538z"/>
		<polyline style="fill:#263238;stroke:#263238;stroke-miterlimit:10;" points="133.056,183.924 144.563,196.253 145.111,186.389 
			133.056,183.924 		"/>
		<g>
			<g>
				<path style="fill:#263238;stroke:#263238;stroke-miterlimit:10;" d="M153.894,149.94c0,0,2.064-2.477,2.271-6.193
					c0.206-3.716-2.477-7.225-5.987-8.464c-3.509-1.239-24.359-0.413-28.282,1.652c-3.922,2.064-5.574,8.051-4.748,12.386
					c0.826,4.335,0.826,14.038,1.858,15.483c1.032,1.445,3.922,6.4,5.78,5.574c1.858-0.826,5.161-2.271,5.574-3.922
					s0.413-3.922,0.826-4.954c0.413-1.032,4.335-4.335,4.542-6.606c0.206-2.271-2.064-3.716-0.206-4.954
					c1.858-1.239,7.638,0.413,10.528,0.826C148.94,151.179,153.894,149.94,153.894,149.94z"/>
				<path style="fill:#FFFFFF;stroke:#263238;stroke-miterlimit:10;" d="M124.168,167.9c0,0-3.097-6.4-5.161-5.367
					c-2.064,1.032-1.651,7.019,0.413,9.909c2.064,2.89,4.954,2.89,4.954,2.89s4.542,7.225,5.987,8.051
					c1.445,0.826,14.572,6.608,16.843,6.608s4.335-1.239,5.367-3.303c1.032-2.064,3.387-16.517,3.387-19.613
					c0-3.096-1.032-6.399-1.032-7.225c0-0.826,0-4.954-0.207-6.606c-0.206-1.651-1.445-6.606-1.651-7.225
					c-0.206-0.619-2.89,2.064-5.367,1.858c-2.477-0.206-14.244-3.097-15.07-2.684c-0.826,0.413-4.748,4.542-4.335,5.78
					c0.413,1.239,4.954,3.716,4.954,4.542c0,0.826-6.399,5.367-6.399,5.367s1.858,4.129,0.826,4.955
					C126.645,166.662,124.168,167.9,124.168,167.9z"/>
				<polyline style="fill:none;stroke:#263238;stroke-miterlimit:10;" points="150.295,157.842 149.986,163.406 152.304,173.144 
					147.667,173.453 				"/>
				<path style="fill:none;stroke:#263238;stroke-miterlimit:10;" d="M148.44,178.089c0,0-2.937,1.237-7.574-2.782"/>
				<path style="fill:#263238;" d="M141.794,163.715c0,1.11-0.623,2.009-1.391,2.009c-0.768,0-1.391-0.9-1.391-2.009
					c0-1.11,0.623-2.009,1.391-2.009C141.171,161.706,141.794,162.606,141.794,163.715z"/>
				<path style="fill:#263238;" d="M154.623,162.479c0,1.11-0.623,2.009-1.391,2.009c-0.768,0-1.391-0.9-1.391-2.009
					s0.623-2.009,1.391-2.009C154,160.47,154.623,161.369,154.623,162.479z"/>
				<path style="fill:none;stroke:#263238;stroke-miterlimit:10;" d="M136.075,160.006c0,0,1.855-1.855,6.801-1.546"/>
				<path style="fill:none;stroke:#263238;stroke-miterlimit:10;" d="M151.531,157.533c0,0,1.391-0.618,2.782,0"/>
			</g>
		</g>
		<g>
			<path style="fill:#FFFFFF;stroke:#263238;stroke-miterlimit:10;" d="M91.117,275.507c0,0,3.576,52.205,3.576,53.874
				c0,1.669-0.057,8.85,0.896,11.234c0.953,2.384,5.302,3.069,6.255,3.307c0.953,0.238,2.384-0.954,2.384-0.954
				s1.192,0.238,1.43-1.907c0.238-2.145,1.42-5.144,1.897-8.72c0.477-3.576-3.566-7.252-4.042-8.92
				c-0.477-1.669-1.192-3.337-1.192-3.337l2.384-43.862L91.117,275.507z"/>
			<polyline style="fill:#FFFFFF;stroke:#263238;stroke-miterlimit:10;" points="104.228,342.968 103.418,335.739 104.157,334.261 
							"/>
		</g>
		<g>
			<path style="fill:#BDBDBD;stroke:#263238;stroke-miterlimit:10;" d="M124.658,192.443c0,0-34.581,15.825-34.386,16.802
				c0.195,0.977-0.391,51.97-0.391,51.97l0.782,9.573l15.63,0.195l1.758-6.643l0.195,36.926l22.273-0.586
				c0,0,1.758-46.499-0.781-71.703C127.198,203.775,124.658,192.443,124.658,192.443z"/>
			<path style="fill:#BDBDBD;stroke:#263238;stroke-miterlimit:10;" d="M88.514,267.272c0,0,0.977,10.746,1.954,11.136
				c0.977,0.391,13.285,0.781,14.653-0.195c1.368-0.977,2.345-10.16,1.758-11.136c-0.586-0.977-16.607-0.586-16.607-0.586
				S88.514,265.709,88.514,267.272z"/>
			<line style="fill:#FFFFFF;stroke:#263238;stroke-miterlimit:10;" x1="108.051" y1="264.341" x2="107.27" y2="225.266"/>
			<path style="fill:none;stroke:#263238;stroke-miterlimit:10;" d="M95.352,211.394c0,0,8.206,4.298,10.941,9.573"/>
			<path style="fill:none;stroke:#263238;stroke-miterlimit:10;" d="M106.684,214.911c0,0,3.517,2.735,3.126,10.355"/>
			<path style="fill:#BDBDBD;stroke:#263238;stroke-miterlimit:10;" d="M131.05,257.18c-0.135-10.101-0.507-20.22-1.312-28.202
				c-2.54-25.203-5.08-36.535-5.08-36.535s-3.018,1.381-7.255,3.348l-0.169,14.236l5.275,3.321l-3.908,7.815L131.05,257.18z"/>
		</g>
	</g>
</g>
<g id="Character_2">
	<g>
		<path style="fill:#263238;stroke:#263238;stroke-miterlimit:10;" d="M213.715,170.381c0,0,3.942-0.986,4.646-4.787
			c0.704-3.802-1.549-11.405-6.618-15.066s-17.741-6.758-29.286-1.408c-11.546,5.35-12.25,24.358-12.531,30.835
			c-0.282,6.477-1.267,23.654-1.267,23.654h49.139c0,0,0.141-7.744-1.549-13.094c-1.69-5.35-2.816-9.011-2.675-9.574
			C213.715,180.378,212.307,172.212,213.715,170.381z"/>
		<g>
			<path style="fill:#FFFFFF;stroke:#263238;stroke-miterlimit:10;" d="M172.133,295.128c0,0-3.554,16.948,0,40.457
				c3.554,23.509,6.561,37.997,6.561,37.997s-3.007,15.035-1.094,23.782c1.914,8.748,6.287,48.932,6.287,48.932
				s-4.647,15.582-4.647,16.675c0,1.093,0.547,2.46,1.64,2.187c1.093-0.273,12.848,0,12.848,0s1.64-0.547,1.913-3.554
				c0.273-3.007-2.46-17.769-2.46-17.769l7.107-59.593l4.374,61.506c0,0-0.547,18.589,0.273,18.589s1.367,0.547,2.46,0.547
				c1.093,0,22.142,0.547,23.782,0c1.64-0.547,0-4.1-0.82-4.1c-0.82,0-9.841-4.1-10.934-5.467c-1.094-1.367-5.194-8.747-4.921-9.568
				c0.273-0.82,6.014-45.925,6.834-53.852s1.094-18.862,1.094-18.862s4.374-19.135,6.287-45.651
				c1.913-26.516-1.367-33.897-1.367-33.897L172.133,295.128z"/>
			<g>
				<path style="fill:#666666;stroke:#263238;stroke-miterlimit:10;" d="M172.133,295.128c0,0-3.554,16.948,0,40.457
					c3.554,23.509,6.561,37.997,6.561,37.997s-3.007,15.035-1.094,23.783c1.26,5.76,3.587,25.151,5.029,37.724h11.596l6.064-50.845
					l3.616,50.845h12.063c1.835-14.062,4.799-37.663,5.371-43.191c0.82-7.927,1.094-18.862,1.094-18.862s4.374-19.135,6.287-45.651
					c1.913-26.516-1.367-33.897-1.367-33.897L172.133,295.128z"/>
				<path style="fill:none;stroke:#263238;stroke-miterlimit:10;" d="M201.308,373.248c0.38-3.915,0.763-7.586,0.945-8.495
					c0.427-2.135,1.281-52.089,1.281-52.089"/>
				<path style="fill:none;stroke:#263238;stroke-miterlimit:10;" d="M200.289,384.244c0,0,0.342-3.859,0.748-8.162"/>
			</g>
			<path style="fill:#FFFFFF;stroke:#263238;stroke-miterlimit:10;" d="M231.179,464.885c1.64-0.547,0-4.1-0.82-4.1
				s-9.841-4.1-10.934-5.467l-1.885,4l-13.044-0.269c0.033,2.984,0.152,5.29,0.441,5.29c0.82,0,1.367,0.547,2.46,0.547
				C208.49,464.885,229.539,465.432,231.179,464.885z"/>
			<path style="fill:#FFFFFF;stroke:#263238;stroke-miterlimit:10;" d="M195.642,461.605c0.082-0.905-0.109-2.876-0.415-5.187
				l-0.141-0.114h-14.118c-0.933,3.283-1.728,6.216-1.728,6.668c0,1.094,0.547,2.46,1.64,2.187c1.093-0.273,12.848,0,12.848,0
				S195.368,464.612,195.642,461.605z"/>
		</g>
		<path style="fill:#92E3A9;stroke:#263238;stroke-miterlimit:10;" d="M163.109,219.227l-4.128,33.888l18.813,1.579l-0.351-10.696
			l5.015,17.323c0,0-6.382,12.536-8.889,20.286c-2.507,7.75-3.419,17.095-3.419,17.095h58.579c0,0-1.923-23.162-3.291-28.177
			c-1.368-5.014-2.408-14.675-2.408-14.675l-4.103-6.382c0,0,4.888-11.853,4.66-17.779s-1.368-11.169-1.368-11.169l-22.393,3.687
			L163.109,219.227z"/>
		<path style="fill:#FFFFFF;stroke:#263238;stroke-miterlimit:10;" d="M189.702,188.953c0,0-0.723,13.378-1.627,15.548
			c-0.904,2.169-22.023,13.225-22.023,13.225s28.712,6.482,33.774,6.482c5.062,0,26.379-8.136,26.379-8.136
			s-14.989-7.413-18.424-9.401c-3.435-1.989-4.339-2.893-4.339-2.893l-0.542-6.87L189.702,188.953z"/>
		<polyline style="fill:#263238;stroke:#263238;stroke-miterlimit:10;" points="192.877,195.162 203.442,203.778 203.014,200.09 
			192.877,195.162 		"/>
		<g>
			<path style="fill:#FFFFFF;stroke:#263238;stroke-miterlimit:10;" d="M209.491,159.68c0,0,5.35,6.336,5.632,8.87
				c0.282,2.534-0.986,5.491-0.422,8.589c0.563,3.098,0.563,8.87-1.267,12.39c-1.83,3.52-3.942,8.87-5.773,9.574
				s-2.816,0.986-4.646,0.986s-8.166-3.802-10.137-4.928c-1.971-1.126-4.365-2.816-5.35-4.506c-0.986-1.69-1.69-3.802-1.69-3.802
				s-1.69-0.563-2.957-1.971c-1.267-1.408-1.971-5.914-1.971-5.914s5.632-0.563,8.026-4.928c2.394-4.365,3.52-10.701,8.166-13.658
				c4.646-2.957,6.899-0.845,7.744-0.141S209.491,159.68,209.491,159.68z"/>
			<path style="fill:none;stroke:#263238;stroke-miterlimit:10;" d="M206.253,186.714l3.802-0.845l-0.563-2.534
				c0,0-2.675-5.773-0.704-11.686c0,0,2.534-0.282,4.224,0.986"/>
			<path style="fill:#FFFFFF;stroke:#263238;stroke-miterlimit:10;" d="M205.83,189.952c0,0-4.646,0.845-7.603-2.816"/>
			<ellipse style="fill:#263238;" cx="200.55" cy="176.717" rx="1.056" ry="1.69"/>
			<ellipse style="fill:#263238;" cx="210.195" cy="176.295" rx="1.056" ry="1.69"/>
			<path style="fill:#FFFFFF;stroke:#263238;stroke-miterlimit:10;" d="M196.397,172.915c0,0,1.971-0.986,5.773-1.267"/>
		</g>
		<path style="fill:#FFFFFF;stroke:#263238;stroke-miterlimit:10;" d="M162.856,253.571l1.596,15.272l34.646,31.227
			c0,0,3.191,5.47,5.014,6.154c1.824,0.684,5.926,3.191,7.522,2.051c1.596-1.14,0.684-1.595,0.228-2.735
			c-0.456-1.14-1.368-3.191-1.824-5.015c-0.456-1.823-2.051-5.242-3.647-6.382c-1.596-1.14-5.015-2.051-5.698-2.279
			c-0.684-0.228-23.79-28.44-23.79-28.44l-0.645-8.818L162.856,253.571z"/>
		<path style="fill:#92E3A9;stroke:#263238;stroke-miterlimit:10;" d="M226.779,218.925c0,0,1.368,4.103,2.963,7.066
			c1.596,2.963,5.895,23.635,5.895,23.635l-16.145,4.985l-0.565-5.143c0,0,5.116-14.132,4.66-17.779
			c-0.456-3.647-1.368-11.169-1.368-11.169L226.779,218.925z"/>
		<g>
			<path style="fill:#FFFFFF;stroke:#263238;stroke-miterlimit:10;" d="M231.368,251.026l-1.499,17.133
				c0,0-16.458,23.704-17.37,24.615c-0.912,0.912-2.689,7.067-4.74,8.435c-2.051,1.368-6.154,4.559-8.206,5.015
				c-2.051,0.456-3.419-0.228-3.191-1.368c0.228-1.14,2.963-8.889,2.963-8.889s-2.148,1.869-3.516,2.964
				c-1.368,1.094-2.599-0.41-1.642-1.642c0.958-1.231,3.05-4.151,4.788-4.788c1.737-0.637,6.84-1.915,7.798-2.599
				c0.958-0.684,11.081-24.488,11.081-24.488l1.658-10.803L231.368,251.026z"/>
			<path style="fill:none;stroke:#263238;stroke-miterlimit:10;" d="M197.143,305.942c0,0,2.87-4.942,3.667-5.74
				c0.797-0.797,1.754-2.073,1.754-2.073"/>
			<polyline style="fill:none;stroke:#263238;stroke-miterlimit:10;" points="199.553,306.224 203.52,301.478 205.274,299.246 			
				"/>
			<line style="fill:none;stroke:#263238;stroke-miterlimit:10;" x1="204.317" y1="304.029" x2="206.868" y2="300.202"/>
		</g>
		<polygon style="fill:#FFFFFF;stroke:#263238;stroke-miterlimit:10;" points="166.984,213.757 160.602,219.683 200.237,226.675 
			230.198,220.065 225.867,213.683 199.098,222.572 		"/>
	</g>
</g>
</svg>
