<?xml version="1.0" encoding="utf-8"?>
<!-- Generator: Adobe Illustrator 27.5.0, SVG Export Plug-In . SVG Version: 6.00 Build 0)  -->
<svg version="1.1" xmlns="http://www.w3.org/2000/svg" xmlns:xlink="http://www.w3.org/1999/xlink" x="0px" y="0px"
	 viewBox="0 0 500 500" style="enable-background:new 0 0 500 500;" xml:space="preserve">
<g id="Floor">
	<path id="Floor_7_" style="fill:#F0F0F0;" d="M81.822,446.215c-92.882-53.626-92.882-140.57,0-194.196
		c92.882-53.625,243.475-53.625,336.357,0c92.882,53.625,92.882,140.57,0,194.196S174.704,499.841,81.822,446.215z"/>
</g>
<g id="Shadows">
	<path id="Shadow_11_" style="fill:#E0E0E0;" d="M207.673,456.335L65.869,374.408c-5.532-3.194-5.532-8.421,0-11.615
		l229.604-132.659c2.278-1.315,6.005-1.315,8.283,0l145.284,83.945c2.921,1.688,2.92,5.905-0.002,7.592L215.956,456.335
		C213.678,457.651,209.951,457.651,207.673,456.335z"/>
	<ellipse id="Shadow_14_" style="fill:#E0E0E0;" cx="384.289" cy="414.637" rx="52.556" ry="30.343"/>
</g>
<g id="Plants">
	<g id="Plants_11_">
		<g id="XMLID_28954_">
			<g id="XMLID_28958_">
				<path id="XMLID_28960_" style="fill:#27DEBF;" d="M80.507,326.806c0,0-0.299-21.347-9.169-38.774
					c-8.87-17.427-22.279-29.088-35.635-31.492c-13.355-2.405-25.461,8.899-11.904,18.837c13.557,9.938,38.283,21.165,46.893,54.147
					L80.507,326.806z"/>
				<path id="XMLID_28959_" style="opacity:0.15;" d="M80.507,326.806c0,0-0.299-21.347-9.169-38.774
					c-8.87-17.427-22.279-29.088-35.635-31.492c-13.355-2.405-25.461,8.899-11.904,18.837c13.557,9.938,38.283,21.165,46.893,54.147
					L80.507,326.806z"/>
			</g>
			<path id="XMLID_28957_" style="fill:#FFFFFF;" d="M77.106,320.931c0.049-0.004,0.098-0.012,0.146-0.028
				c0.383-0.112,0.602-0.514,0.489-0.897c-10.723-36.399-36.314-53.699-48.348-57.761c-0.376-0.131-0.787,0.076-0.916,0.453
				c-0.127,0.379,0.075,0.788,0.454,0.915c11.787,3.979,36.868,20.973,47.424,56.8C76.454,320.749,76.773,320.958,77.106,320.931z"
				/>
		</g>
		<g id="Plant_9_">
			<path style="fill:#27DEBF;" d="M81.862,346.95c-4.958,2.852-7.801,4.696-16.895,5.463c-5.425,0.457-12.767-0.312-19.098-2.594
				c-1.687-0.608-4.296-1.939-2.83-3.563c0.758-0.839,9.678-2.255,12.868-6.008c-3.735,0.998-8.646,2.133-12.51,2.217
				c-3.865,0.084-7.885-0.842-10.851-3.322c-2.944-2.462-4.536-6.138-6.027-9.674c-0.509-1.207-0.992-2.687-0.21-3.739
				c0.497-0.668,1.359-0.931,2.161-1.155c3.378-0.941,6.757-1.881,10.135-2.822c2.205-0.47,0.649-1.927-0.186-2.051
				c-1.447-0.215-2.832-0.21-3.674-0.165c-3.87,0.207-8.144,0.936-11.303-1.309c-1.891-1.344-3.006-3.569-3.48-5.84
				c-0.167-0.8-0.833-11.244-0.373-11.369c2.515-0.685,5.15-1.05,7.733-1.346c2.451-0.281,4.84-0.395,7.281-0.724
				c2.757-0.372,5.539-0.555,8.32-0.546c0.944,0.003,1.941,0.043,2.74,0.547c1.097,0.692,1.532,2.075,1.672,3.365
				c0.14,1.289,0.073,2.625,0.521,3.842c1.188-0.103,1.576-1.646,1.545-2.838c-0.031-1.192-0.008-2.678,1.068-3.192
				c0.546-0.261,1.188-0.156,1.78-0.035c3.777,0.774,7.461,1.999,10.948,3.641c1.595,0.751,3.189,1.62,4.337,2.959
				c1.695,1.976,2.196,4.717,2.211,7.321c0.015,2.603-0.389,5.205-0.219,7.803c2.037-1.819,4.871-7.351,5.093-10.072
				c4.38,2.816,6.976,8.621,7.792,16.557c0.538,5.236,0.406,12.134-0.322,17.443C82.065,345.93,82.024,346.857,81.862,346.95z"/>
			<path style="opacity:0.3;" d="M81.862,346.95c-4.958,2.852-7.801,4.696-16.895,5.463c-5.425,0.457-12.767-0.312-19.098-2.594
				c-1.687-0.608-4.296-1.939-2.83-3.563c0.758-0.839,9.678-2.255,12.868-6.008c-3.735,0.998-8.646,2.133-12.51,2.217
				c-3.865,0.084-7.885-0.842-10.851-3.322c-2.944-2.462-4.536-6.138-6.027-9.674c-0.509-1.207-0.992-2.687-0.21-3.739
				c0.497-0.668,1.359-0.931,2.161-1.155c3.378-0.941,6.757-1.881,10.135-2.822c2.205-0.47,0.649-1.927-0.186-2.051
				c-1.447-0.215-2.832-0.21-3.674-0.165c-3.87,0.207-8.144,0.936-11.303-1.309c-1.891-1.344-3.006-3.569-3.48-5.84
				c-0.167-0.8-0.833-11.244-0.373-11.369c2.515-0.685,5.15-1.05,7.733-1.346c2.451-0.281,4.84-0.395,7.281-0.724
				c2.757-0.372,5.539-0.555,8.32-0.546c0.944,0.003,1.941,0.043,2.74,0.547c1.097,0.692,1.532,2.075,1.672,3.365
				c0.14,1.289,0.073,2.625,0.521,3.842c1.188-0.103,1.576-1.646,1.545-2.838c-0.031-1.192-0.008-2.678,1.068-3.192
				c0.546-0.261,1.188-0.156,1.78-0.035c3.777,0.774,7.461,1.999,10.948,3.641c1.595,0.751,3.189,1.62,4.337,2.959
				c1.695,1.976,2.196,4.717,2.211,7.321c0.015,2.603-0.389,5.205-0.219,7.803c2.037-1.819,4.871-7.351,5.093-10.072
				c4.38,2.816,6.976,8.621,7.792,16.557c0.538,5.236,0.406,12.134-0.322,17.443C82.065,345.93,82.024,346.857,81.862,346.95z"/>
			<g>
				<g>
					<path style="fill:#FFFFFF;" d="M81.042,345.963c-0.217,0-0.426-0.118-0.533-0.323c-14.186-27.241-45.57-38.721-53.198-40.304
						c-0.324-0.067-0.533-0.386-0.466-0.71c0.068-0.324,0.392-0.525,0.71-0.466c7.746,1.607,39.614,13.265,54.019,40.925
						c0.153,0.294,0.039,0.656-0.255,0.81C81.23,345.941,81.135,345.963,81.042,345.963z"/>
				</g>
				<g>
					<path style="fill:#FFFFFF;" d="M39.818,330.266c-0.31,0-0.572-0.238-0.598-0.553c-0.025-0.33,0.222-0.619,0.552-0.646
						c15.657-1.229,20.721-7.359,20.771-7.422c0.205-0.26,0.582-0.301,0.842-0.097c0.259,0.206,0.304,0.581,0.1,0.841
						c-0.212,0.269-5.37,6.598-21.618,7.875C39.85,330.266,39.833,330.266,39.818,330.266z"/>
				</g>
			</g>
		</g>
	</g>
	<g id="Plants_8_">
		<g id="XMLID_28976_">
			<g id="XMLID_28994_">
				<path style="fill:#27DEBF;" d="M460.035,254.297c-6.94,7.59-19.67,20.08-27.07,32.14c-0.02,0.03-0.04,0.06-0.05,0.09
					c-2.89,4.73-4.96,9.39-5.53,13.66l-0.52,7.71l-3.17-1.83l-0.53-0.31l-1.31-0.75l0,0c-1.877-1.087-3.055-3.075-3.114-5.243
					c-0.509-18.801,4.515-34.782,9.375-44.455c6.65-13.21,19.109-26.681,29.94-25.361
					C468.125,231.177,469.715,243.717,460.035,254.297z"/>
				<path style="opacity:0.15;" d="M460.035,254.297c-6.94,7.59-19.67,20.08-27.07,32.14c-0.02,0.03-0.04,0.06-0.05,0.09
					c-2.89,4.73-4.96,9.39-5.53,13.66l-0.52,7.71l-3.17-1.83l-0.53-0.31l-1.31-0.75l0,0c-1.877-1.087-3.055-3.075-3.114-5.243
					c-0.509-18.801,4.515-34.782,9.375-44.455c6.65-13.21,19.109-26.681,29.94-25.361
					C468.125,231.177,469.715,243.717,460.035,254.297z"/>
			</g>
			<path style="fill:#FFFFFF;" d="M454.925,237.237c-13.26,8.38-32.19,37.59-31.76,68.52l-1.31-0.75
				c-0.11-31.12,18.98-60.4,32.37-68.87c0.31-0.2,0.71-0.1,0.9,0.21C455.315,236.647,455.225,237.047,454.925,237.237z"/>
		</g>
		<g id="XMLID_28961_">
			<g id="XMLID_28963_">
				<path style="fill:#27DEBF;" d="M467.895,279.077c-2.31,6.27-15.49,11.71-25.22,20.76c-2.557,2.383-4.786,4.84-6.673,7.253
					c-1.883,2.407-5.251,3.048-7.897,1.517l0,0l-1.16-0.67l-0.08-0.04l-3.17-1.83c1.88-7.08,5.26-13.79,9.22-19.54
					c0.01-0.03,0.03-0.06,0.05-0.09c6.44-9.34,14.39-16.09,19.94-17.62C463.815,265.817,470.665,271.547,467.895,279.077z"/>
				<path style="opacity:0.3;" d="M467.895,279.077c-2.31,6.27-15.49,11.71-25.22,20.76c-2.557,2.383-4.786,4.84-6.673,7.253
					c-1.883,2.407-5.251,3.048-7.897,1.517l0,0l-1.16-0.67l-0.08-0.04l-3.17-1.83c1.88-7.08,5.26-13.79,9.22-19.54
					c0.01-0.03,0.03-0.06,0.05-0.09c6.44-9.34,14.39-16.09,19.94-17.62C463.815,265.817,470.665,271.547,467.895,279.077z"/>
			</g>
			<path style="fill:#FFFFFF;" d="M458.625,275.307c-7.97,2.25-23.41,11.97-30.52,33.3l-1.16-0.67
				c7.21-21.59,22.56-31.41,31.33-33.88c0.36-0.1,0.7,0.1,0.8,0.45C459.175,274.857,458.975,275.217,458.625,275.307z"/>
		</g>
	</g>
</g>
<g id="Device">
	<g id="Laptop_2_">
		<g>
			<path id="XMLID_28956_" style="fill:#455A64;" d="M73.099,359.309c0,3.47,2.598,7.782,5.801,9.632l126.287,72.926
				c3.203,1.849,8.397,1.849,11.601,0l222.376-128.389c3.203-1.849,5.8-6.162,5.801-9.632c0-3.47-2.597-7.783-5.8-9.632
				l-126.287-72.926c-3.203-1.85-8.397-1.85-11.601,0L78.899,349.677C75.696,351.526,73.099,355.839,73.099,359.309z"/>
			<path id="XMLID_28955_" style="fill:#37474F;" d="M444.969,303.846c0,3.473-2.6,7.778-5.802,9.629L216.785,441.871
				c-1.601,0.915-3.702,1.383-5.792,1.383v-12.562c2.09,0,4.191-0.468,5.792-1.394l222.381-128.385
				c2.806-1.617,3.156-4.119,1.052-5.96C442.913,297.048,444.969,300.767,444.969,303.846z"/>
			<path id="XMLID_28953_" style="fill:#263238;" d="M210.99,430.698v12.552c-2.103,0-4.206-0.455-5.8-1.38l-126.292-72.93
				c-3.202-1.849-5.8-6.162-5.8-9.631c0-3.255,2.291-7.247,5.211-9.256c-2.599,1.862-2.398,4.595,0.589,6.323l126.292,72.929
				C206.783,430.229,208.887,430.698,210.99,430.698z"/>
		</g>
		<g>
			<path id="XMLID_28952_" style="fill:#37474F;" d="M67.658,349.884c-2.835-2-2.841-4.665-2.841-8.364l-0.001-186.876
				c0-3.699,2.597-8.197,5.8-10.047L292.992,16.208c3.203-1.85,6.158-0.509,9.164,1.226c3.005,1.735,4.921,3.232,4.921,6.931
				v186.876c0,3.699-2.597,8.197-5.801,10.047L78.899,349.677C74.05,352.946,70.744,352.061,67.658,349.884z"/>
			<path style="fill:#263238;" d="M78.899,349.679c-4.848,3.264-8.16,2.381-11.241,0.202c-2.832-1.997-2.841-4.665-2.841-8.361
				V154.647c0-1.853,0.653-3.897,1.689-5.712l8.284,4.819c-1.047,1.805-1.69,3.849-1.69,5.692v186.882
				C73.101,350.025,75.693,351.522,78.899,349.679z"/>
			<path id="XMLID_28951_" style="fill:#455A64;" d="M307.079,24.36c0-3.692-2.6-5.189-5.803-3.348L78.896,149.407
				c-1.601,0.925-3.057,2.516-4.097,4.336l-8.278-4.815h-0.01c1.05-1.82,2.506-3.411,4.108-4.336L292.989,16.207
				c3.203-1.851,6.157-0.512,9.163,1.225C305.156,19.169,307.079,20.668,307.079,24.36z"/>
		</g>
		<g>
			<path id="XMLID_28949_" style="fill:#263238;" d="M82.019,156.096l214.4-123.752c1.922-1.11,3.48-0.21,3.48,2.01V205.76
				c0,2.22-1.558,4.918-3.48,6.028l-214.4,123.749c-1.922,1.11-3.48,0.21-3.48-2.009V162.124
				C78.539,159.904,80.097,157.206,82.019,156.096z"/>
			<path style="fill:#27DEBF;" d="M82.019,156.096c-1.922,1.11-3.48,3.808-3.48,6.028v170.37l213.139-123.021
				c1.922-1.11,3.48-3.808,3.48-6.028V33.072L82.019,156.096z"/>
			<path style="opacity:0.65;fill:#FFFFFF;" d="M82.019,156.096c-1.922,1.11-3.48,3.808-3.48,6.028v170.37l213.139-123.021
				c1.922-1.11,3.48-3.808,3.48-6.028V33.072L82.019,156.096z"/>
		</g>
		<path id="XMLID_28948_" style="fill:#37474F;" d="M94.951,350.019l206.414-119.172c1.602-0.925,4.199-0.925,5.801,0l6.005,3.155
			c1.602,0.925,1.602,2.424,0,3.348L106.726,356.504c-1.602,0.925-4.199,0.924-5.801,0l-5.974-3.136
			C93.349,352.443,93.349,350.944,94.951,350.019z"/>
		<g id="XMLID_8036_">
			<path id="XMLID_28947_" style="fill:#263238;" d="M111.141,359.646l206.412-119.173c1.602-0.925,3.974-1.054,5.3-0.289
				l53.727,31.02c1.325,0.765,1.101,2.135-0.501,3.06L169.906,393.275c-1.602,0.925-3.977,1.058-5.306,0.298l-53.954-30.875
				C109.317,361.937,109.539,360.571,111.141,359.646z"/>
			<path id="XMLID_8037_" style="fill:#455A64;" d="M288.295,290.039l6.463-3.731c0.275-0.159,0.315-0.393,0.09-0.523l-5.701-3.291
				c-0.225-0.13-0.63-0.106-0.905,0.052l-6.463,3.731c-0.274,0.158-0.314,0.392-0.089,0.522l5.701,3.292
				C287.616,290.221,288.021,290.197,288.295,290.039z M279.277,277.37l-6.463,3.731c-0.274,0.159-0.315,0.393-0.09,0.522
				l5.701,3.291c0.225,0.13,0.63,0.106,0.904-0.052l6.463-3.732c0.275-0.158,0.316-0.393,0.09-0.522l-5.701-3.292
				C279.957,277.188,279.552,277.212,279.277,277.37z M258.397,289.425l-10.937,6.314c-0.274,0.158-0.315,0.392-0.09,0.522
				l5.701,3.292c0.225,0.13,0.63,0.106,0.904-0.052l10.937-6.314c0.275-0.158,0.315-0.393,0.09-0.522l-5.7-3.292
				C259.077,289.243,258.672,289.266,258.397,289.425z M269.832,282.823l-6.463,3.732c-0.274,0.158-0.315,0.392-0.089,0.522
				l5.701,3.292c0.224,0.13,0.63,0.107,0.904-0.052l6.463-3.731c0.275-0.159,0.315-0.393,0.09-0.522l-5.701-3.291
				C270.511,282.641,270.106,282.665,269.832,282.823z M244.478,297.461l-6.462,3.731c-0.275,0.159-0.315,0.393-0.09,0.522
				l5.701,3.292c0.225,0.13,0.629,0.107,0.904-0.052l6.463-3.732c0.274-0.158,0.314-0.392,0.089-0.522l-5.7-3.292
				C245.157,297.28,244.752,297.303,244.478,297.461z M235.032,302.915l-6.463,3.731c-0.275,0.158-0.315,0.392-0.09,0.522
				l5.701,3.291c0.225,0.13,0.629,0.107,0.904-0.052l6.463-3.731c0.275-0.159,0.315-0.392,0.09-0.522l-5.701-3.291
				C235.711,302.733,235.307,302.756,235.032,302.915z M258.981,317.316l6.463-3.732c0.274-0.158,0.315-0.392,0.089-0.522
				l-5.701-3.291c-0.225-0.13-0.63-0.107-0.904,0.052l-6.463,3.731c-0.275,0.159-0.315,0.393-0.09,0.523l5.701,3.291
				C258.301,317.498,258.707,317.475,258.981,317.316z M249.536,322.769l6.463-3.731c0.275-0.159,0.315-0.392,0.09-0.522l-5.7-3.291
				c-0.225-0.13-0.63-0.107-0.905,0.052l-6.463,3.731c-0.275,0.159-0.315,0.392-0.09,0.522l5.701,3.292
				C248.856,322.951,249.261,322.928,249.536,322.769z M240.09,328.223l6.463-3.732c0.275-0.158,0.315-0.392,0.09-0.522
				l-5.701-3.292c-0.225-0.13-0.63-0.106-0.904,0.052l-6.463,3.731c-0.275,0.159-0.315,0.392-0.09,0.522l5.701,3.292
				C239.411,328.405,239.815,328.381,240.09,328.223z M230.644,333.676l6.463-3.731c0.275-0.158,0.315-0.392,0.09-0.522
				l-5.701-3.291c-0.225-0.13-0.63-0.107-0.904,0.052l-6.463,3.731c-0.275,0.158-0.315,0.392-0.09,0.522l5.701,3.291
				C229.965,333.858,230.37,333.835,230.644,333.676z M278.85,295.493l6.462-3.732c0.274-0.158,0.315-0.392,0.09-0.522l-5.701-3.292
				c-0.224-0.13-0.63-0.106-0.904,0.052l-6.463,3.731c-0.275,0.159-0.315,0.393-0.091,0.522l5.701,3.292
				C278.17,295.674,278.575,295.651,278.85,295.493z M268.427,311.863l14.417-8.324c0.275-0.159,0.315-0.392,0.09-0.522
				l-14.666-8.468c-0.225-0.13-0.63-0.106-0.904,0.052l-7.457,4.305c-0.275,0.159-0.315,0.392-0.091,0.522l8.152,4.706
				c0.225,0.13,0.184,0.364-0.09,0.522l-5.965,3.445c-0.275,0.158-0.315,0.392-0.09,0.522l5.701,3.292
				C267.747,312.045,268.153,312.021,268.427,311.863z M225.587,308.368l-6.463,3.732c-0.274,0.158-0.315,0.392-0.089,0.522
				l5.701,3.292c0.225,0.13,0.63,0.106,0.904-0.052l6.463-3.731c0.274-0.159,0.315-0.393,0.09-0.522l-5.7-3.292
				C226.266,308.187,225.861,308.21,225.587,308.368z M216.141,313.822l-6.463,3.731c-0.275,0.159-0.315,0.393-0.09,0.523
				l5.701,3.292c0.225,0.13,0.63,0.106,0.904-0.052l6.463-3.731c0.275-0.158,0.315-0.393,0.09-0.522l-5.701-3.291
				C216.82,313.64,216.415,313.664,216.141,313.822z M163.621,371.903c0.225,0.13,0.63,0.106,0.904-0.052l6.463-3.732
				c0.274-0.158,0.315-0.393,0.09-0.522l-5.701-3.291c-0.225-0.13-0.63-0.106-0.905,0.052l-6.462,3.731
				c-0.275,0.159-0.315,0.392-0.09,0.522L163.621,371.903z M140.576,357.449l-6.463,3.731c-0.275,0.159-0.315,0.392-0.09,0.522
				l5.701,3.291c0.225,0.13,0.63,0.107,0.904-0.052l6.463-3.731c0.275-0.159,0.315-0.392,0.09-0.522l-5.701-3.291
				C141.255,357.268,140.85,357.29,140.576,357.449z M152.169,368.161c0.225,0.13,0.63,0.107,0.904-0.052l6.463-3.732
				c0.274-0.158,0.315-0.392,0.09-0.522l-5.701-3.292c-0.225-0.13-0.63-0.106-0.905,0.052l-6.463,3.731
				c-0.275,0.159-0.315,0.392-0.09,0.522L152.169,368.161z M178.462,374.157l6.463-3.731c0.275-0.159,0.315-0.392,0.09-0.522
				l-5.701-3.292c-0.225-0.129-0.63-0.106-0.905,0.052l-6.463,3.731c-0.274,0.158-0.315,0.392-0.09,0.522l5.701,3.291
				C177.782,374.338,178.187,374.316,178.462,374.157z M168.112,379.662c0.224,0.13,0.63,0.107,0.904-0.052l6.463-3.732
				c0.274-0.158,0.315-0.392,0.09-0.522l-5.701-3.292c-0.225-0.13-0.63-0.107-0.904,0.052l-6.463,3.732
				c-0.274,0.158-0.314,0.392-0.089,0.522L168.112,379.662z M150.021,351.996l-6.463,3.731c-0.275,0.159-0.315,0.392-0.09,0.522
				l5.701,3.292c0.225,0.13,0.63,0.107,0.904-0.052l6.463-3.732c0.275-0.158,0.315-0.392,0.09-0.522l-5.701-3.291
				C150.701,351.814,150.296,351.837,150.021,351.996z M197.249,324.729l-6.463,3.731c-0.274,0.159-0.315,0.392-0.09,0.522
				l5.701,3.292c0.225,0.13,0.63,0.107,0.904-0.052l6.463-3.732c0.275-0.158,0.315-0.392,0.09-0.522l-5.701-3.292
				C197.929,324.547,197.524,324.57,197.249,324.729z M159.467,346.543l-6.463,3.731c-0.275,0.158-0.315,0.393-0.09,0.522
				l5.701,3.292c0.225,0.13,0.63,0.107,0.904-0.052l6.463-3.731c0.275-0.159,0.315-0.392,0.09-0.522l-5.7-3.292
				C160.146,346.361,159.742,346.384,159.467,346.543z M206.695,319.275l-6.463,3.732c-0.275,0.158-0.315,0.392-0.089,0.522
				l5.701,3.292c0.225,0.13,0.629,0.107,0.904-0.052l6.463-3.731c0.275-0.159,0.315-0.392,0.09-0.522l-5.701-3.292
				C207.374,319.093,206.969,319.117,206.695,319.275z M187.804,330.182l-6.463,3.731c-0.275,0.158-0.315,0.392-0.09,0.522
				l5.701,3.291c0.224,0.13,0.63,0.107,0.904-0.052l6.462-3.731c0.275-0.158,0.315-0.392,0.09-0.522l-5.701-3.291
				C188.483,330.001,188.078,330.023,187.804,330.182z M178.358,335.635l-6.463,3.732c-0.275,0.158-0.315,0.392-0.09,0.522
				l5.701,3.292c0.225,0.13,0.63,0.106,0.904-0.052l6.463-3.731c0.274-0.159,0.315-0.393,0.09-0.523l-5.701-3.291
				C179.038,335.454,178.632,335.477,178.358,335.635z M168.913,341.089l-6.463,3.731c-0.275,0.159-0.315,0.393-0.09,0.522
				l5.701,3.292c0.225,0.13,0.63,0.106,0.904-0.052l6.463-3.732c0.274-0.158,0.314-0.392,0.089-0.522l-5.701-3.291
				C169.592,340.907,169.187,340.931,168.913,341.089z M211.753,344.584l6.463-3.732c0.275-0.158,0.315-0.393,0.09-0.522
				l-5.701-3.291c-0.225-0.13-0.63-0.106-0.904,0.052l-6.463,3.731c-0.275,0.159-0.314,0.393-0.089,0.523l5.7,3.291
				C211.074,344.766,211.478,344.742,211.753,344.584z M300.157,265.315l-6.463,3.731c-0.275,0.158-0.314,0.392-0.09,0.522
				l5.701,3.291c0.225,0.13,0.63,0.106,0.904-0.052l6.463-3.731c0.275-0.159,0.315-0.392,0.09-0.522l-5.701-3.292
				C300.837,265.133,300.432,265.156,300.157,265.315z M288.723,271.917l-6.463,3.731c-0.275,0.158-0.315,0.392-0.09,0.522
				l5.701,3.292c0.225,0.13,0.63,0.106,0.904-0.052l6.463-3.731c0.275-0.159,0.315-0.393,0.09-0.522l-5.701-3.292
				C289.402,271.735,288.997,271.758,288.723,271.917z M309.602,259.862l-6.462,3.731c-0.274,0.158-0.315,0.392-0.09,0.522
				l5.701,3.291c0.225,0.13,0.63,0.107,0.904-0.052l6.463-3.731c0.275-0.159,0.315-0.393,0.09-0.522l-5.701-3.292
				C310.282,259.68,309.878,259.703,309.602,259.862z M256.976,308.121l6.463-3.731c0.275-0.159,0.315-0.392,0.09-0.523l-5.7-3.292
				c-0.225-0.13-0.63-0.106-0.904,0.052l-6.463,3.731c-0.275,0.158-0.314,0.392-0.09,0.522l5.701,3.291
				C256.296,308.303,256.701,308.28,256.976,308.121z M319.953,254.356c-0.225-0.13-0.63-0.107-0.905,0.051l-6.462,3.731
				c-0.275,0.159-0.315,0.392-0.09,0.522l5.701,3.292c0.224,0.13,0.63,0.107,0.904-0.052l6.463-3.732
				c0.275-0.158,0.315-0.392,0.09-0.522L319.953,254.356z M221.199,339.13l6.463-3.731c0.275-0.159,0.315-0.392,0.09-0.522
				l-5.701-3.292c-0.225-0.13-0.63-0.107-0.904,0.052l-6.463,3.732c-0.275,0.158-0.315,0.392-0.089,0.522l5.701,3.291
				C220.519,339.312,220.924,339.289,221.199,339.13z M337.032,272.253l6.462-3.731c0.275-0.158,0.315-0.393,0.09-0.522
				l-5.701-3.291c-0.225-0.13-0.63-0.107-0.904,0.052l-6.463,3.731c-0.274,0.158-0.315,0.393-0.09,0.522l5.701,3.291
				C336.352,272.435,336.757,272.412,337.032,272.253z M318.621,272.531l6.463-3.732c0.274-0.158,0.315-0.392,0.089-0.522
				l-5.701-3.291c-0.224-0.13-0.63-0.107-0.904,0.052l-6.463,3.731c-0.275,0.159-0.315,0.393-0.09,0.522l5.701,3.291
				C317.941,272.713,318.346,272.689,318.621,272.531z M328.918,259.533c-0.224-0.13-0.63-0.107-0.904,0.052l-6.463,3.732
				c-0.274,0.158-0.314,0.392-0.089,0.522l5.701,3.291c0.225,0.13,0.63,0.107,0.904-0.051l6.463-3.731
				c0.275-0.159,0.315-0.392,0.09-0.522L328.918,259.533z M330.907,258.384l14.666,8.468c0.225,0.13,0.63,0.106,0.904-0.052
				l6.463-3.731c0.275-0.159,0.315-0.393,0.09-0.522l-14.667-8.468c-0.225-0.13-0.63-0.106-0.905,0.052l-6.463,3.731
				C330.722,258.021,330.682,258.255,330.907,258.384z M309.123,270.492l-6.463,3.731c-0.275,0.158-0.315,0.392-0.09,0.522
				l5.701,3.291c0.225,0.13,0.63,0.107,0.904-0.052l6.463-3.731c0.274-0.159,0.315-0.393,0.09-0.522l-5.701-3.292
				C309.802,270.31,309.397,270.333,309.123,270.492z M238.032,311.535l-6.463,3.732c-0.275,0.159-0.315,0.392-0.09,0.522
				l5.701,3.291c0.225,0.13,0.63,0.107,0.904-0.052l6.463-3.731c0.275-0.159,0.315-0.392,0.09-0.522l-5.701-3.292
				C238.711,311.353,238.307,311.377,238.032,311.535z M326.682,277.759c0.224,0.13,0.63,0.106,0.904-0.052l6.463-3.731
				c0.274-0.159,0.315-0.392,0.09-0.522l-5.701-3.292c-0.224-0.13-0.63-0.106-0.904,0.052l-6.463,3.732
				c-0.275,0.158-0.315,0.392-0.09,0.522L326.682,277.759z M247.477,306.082l-6.462,3.731c-0.275,0.159-0.315,0.392-0.09,0.522
				l5.701,3.292c0.225,0.13,0.63,0.107,0.904-0.052l6.463-3.732c0.275-0.158,0.315-0.392,0.09-0.522l-5.701-3.292
				C248.157,305.9,247.752,305.924,247.477,306.082z M173.066,366.449c0.225,0.13,0.63,0.106,0.905-0.052l6.463-3.731
				c0.274-0.159,0.314-0.392,0.089-0.522l-5.701-3.292c-0.225-0.13-0.63-0.107-0.904,0.052l-6.463,3.732
				c-0.275,0.158-0.315,0.392-0.09,0.522L173.066,366.449z M162.467,355.163l-6.463,3.732c-0.274,0.158-0.315,0.392-0.09,0.522
				l5.701,3.291c0.225,0.13,0.63,0.106,0.904-0.052l6.463-3.731c0.275-0.159,0.315-0.392,0.09-0.522l-5.7-3.291
				C163.146,354.981,162.741,355.005,162.467,355.163z M183.416,360.944l6.463-3.731c0.275-0.158,0.315-0.392,0.09-0.522
				l-5.701-3.291c-0.225-0.13-0.63-0.107-0.905,0.052l-6.463,3.731c-0.274,0.158-0.315,0.392-0.09,0.522l5.701,3.291
				C182.737,361.125,183.141,361.102,183.416,360.944z M192.861,355.491l6.463-3.731c0.275-0.159,0.315-0.392,0.09-0.522
				l-5.701-3.292c-0.224-0.13-0.63-0.107-0.904,0.052l-6.463,3.731c-0.274,0.159-0.315,0.393-0.09,0.522l5.701,3.291
				C192.182,355.672,192.587,355.648,192.861,355.491z M202.307,350.037l6.463-3.731c0.275-0.159,0.315-0.392,0.09-0.523
				l-5.701-3.291c-0.225-0.129-0.63-0.106-0.905,0.053l-6.462,3.731c-0.275,0.158-0.315,0.393-0.09,0.522l5.7,3.292
				C201.628,350.219,202.033,350.196,202.307,350.037z M171.912,349.71l-6.462,3.731c-0.275,0.159-0.315,0.392-0.09,0.522
				l5.701,3.291c0.225,0.13,0.63,0.107,0.904-0.052l6.463-3.731c0.275-0.158,0.315-0.393,0.09-0.522l-5.701-3.291
				C172.592,349.528,172.187,349.551,171.912,349.71z M181.358,344.256l-6.463,3.731c-0.275,0.159-0.315,0.392-0.09,0.522
				l5.701,3.292c0.225,0.13,0.63,0.106,0.904-0.052l6.463-3.732c0.274-0.158,0.315-0.392,0.09-0.522l-5.701-3.291
				C182.038,344.074,181.632,344.098,181.358,344.256z M219.141,322.443l-6.463,3.731c-0.275,0.159-0.315,0.393-0.089,0.523
				l5.7,3.291c0.225,0.13,0.63,0.107,0.905-0.052l6.462-3.731c0.275-0.158,0.315-0.393,0.09-0.523l-5.701-3.291
				C219.82,322.261,219.415,322.284,219.141,322.443z M209.695,327.896l-6.463,3.731c-0.274,0.158-0.315,0.393-0.09,0.522
				l5.701,3.292c0.225,0.13,0.63,0.106,0.904-0.052l6.463-3.731c0.275-0.159,0.315-0.393,0.09-0.523l-5.701-3.291
				C210.374,327.714,209.97,327.737,209.695,327.896z M228.586,316.989l-6.463,3.731c-0.275,0.159-0.315,0.392-0.09,0.522l5.7,3.292
				c0.225,0.13,0.63,0.106,0.905-0.052l6.463-3.732c0.275-0.158,0.314-0.392,0.089-0.522l-5.701-3.292
				C229.266,316.807,228.861,316.831,228.586,316.989z M190.804,338.802l-6.463,3.732c-0.275,0.158-0.315,0.393-0.09,0.522
				l5.701,3.291c0.225,0.13,0.63,0.107,0.904-0.052l6.462-3.731c0.275-0.159,0.315-0.393,0.09-0.522l-5.701-3.291
				C191.483,338.621,191.078,338.644,190.804,338.802z M200.249,333.349l-6.463,3.731c-0.274,0.159-0.315,0.392-0.09,0.522
				l5.701,3.292c0.224,0.13,0.63,0.107,0.904-0.052l6.463-3.732c0.275-0.158,0.315-0.392,0.09-0.522l-5.701-3.292
				C200.929,333.168,200.523,333.191,200.249,333.349z M187.907,368.703l6.463-3.731c0.275-0.158,0.315-0.392,0.09-0.522
				l-5.701-3.291c-0.225-0.13-0.629-0.107-0.904,0.052l-6.463,3.731c-0.275,0.159-0.315,0.392-0.09,0.522l5.701,3.292
				C187.228,368.885,187.633,368.862,187.907,368.703z M137.736,366.142l-5.701-3.291c-0.225-0.13-0.63-0.106-0.904,0.052
				l-6.463,3.732c-0.274,0.158-0.315,0.392-0.09,0.522l5.7,3.292c0.225,0.13,0.63,0.106,0.905-0.052l6.463-3.731
				C137.92,366.506,137.96,366.272,137.736,366.142z M150.18,369.309l-5.701-3.291c-0.225-0.13-0.629-0.107-0.904,0.052l-9.943,5.74
				c-0.275,0.158-0.315,0.392-0.09,0.522l5.701,3.291c0.225,0.13,0.629,0.107,0.904-0.052l9.943-5.74
				C150.365,369.673,150.405,369.439,150.18,369.309z M129.342,359.574l-5.701-3.291c-0.225-0.13-0.63-0.107-0.904,0.052
				l-7.954,4.592c-0.274,0.158-0.315,0.393-0.09,0.522l5.7,3.291c0.225,0.13,0.631,0.106,0.904-0.052l7.955-4.592
				C129.527,359.939,129.567,359.704,129.342,359.574z M135.441,356.054c0.224,0.13,0.63,0.106,0.904-0.052l6.463-3.732
				c0.275-0.158,0.315-0.392,0.09-0.522l-5.701-3.292c-0.224-0.13-0.63-0.106-0.905,0.052l-6.462,3.731
				c-0.275,0.159-0.315,0.393-0.09,0.522L135.441,356.054z M161.632,373.051l-5.701-3.292c-0.225-0.129-0.63-0.106-0.904,0.053
				l-12.429,7.175c-0.275,0.159-0.315,0.392-0.09,0.522l5.7,3.292c0.225,0.13,0.63,0.106,0.904-0.052l12.429-7.176
				C161.817,373.414,161.857,373.181,161.632,373.051z M166.124,380.81l-5.701-3.291c-0.224-0.13-0.63-0.107-0.904,0.051
				l-7.954,4.593c-0.275,0.159-0.315,0.393-0.09,0.522l5.701,3.292c0.225,0.13,0.63,0.106,0.904-0.052l7.954-4.592
				C166.308,381.174,166.348,380.94,166.124,380.81z M205.67,315.507c0.224,0.13,0.629,0.107,0.904-0.051l6.463-3.732
				c0.275-0.158,0.315-0.392,0.09-0.522l-5.7-3.291c-0.225-0.13-0.63-0.107-0.905,0.052l-6.462,3.731
				c-0.275,0.159-0.315,0.392-0.09,0.522L205.67,315.507z M186.778,326.414c0.225,0.13,0.63,0.106,0.904-0.052l6.463-3.732
				c0.274-0.158,0.314-0.392,0.089-0.522l-5.7-3.291c-0.225-0.13-0.63-0.107-0.904,0.052l-6.463,3.731
				c-0.275,0.159-0.315,0.392-0.09,0.523L186.778,326.414z M144.886,350.6c0.225,0.13,0.63,0.107,0.904-0.052l6.463-3.731
				c0.274-0.158,0.315-0.393,0.09-0.522l-5.701-3.292c-0.225-0.129-0.63-0.106-0.904,0.052l-6.463,3.731
				c-0.274,0.158-0.315,0.392-0.09,0.522L144.886,350.6z M196.224,320.96c0.225,0.13,0.63,0.107,0.904-0.052l6.463-3.731
				c0.274-0.158,0.315-0.392,0.09-0.522l-5.701-3.291c-0.225-0.129-0.629-0.107-0.904,0.052l-6.463,3.731
				c-0.275,0.158-0.315,0.392-0.09,0.522L196.224,320.96z M177.333,331.868c0.225,0.129,0.63,0.106,0.905-0.053l6.462-3.731
				c0.275-0.158,0.315-0.392,0.09-0.522l-5.7-3.291c-0.225-0.13-0.63-0.107-0.905,0.052l-6.463,3.731
				c-0.275,0.159-0.314,0.393-0.09,0.522L177.333,331.868z M171.377,381.547c-0.226-0.13-0.63-0.107-0.905,0.052l-9.943,5.74
				c-0.275,0.158-0.315,0.392-0.09,0.522l5.701,3.291c0.225,0.13,0.63,0.107,0.904-0.052l9.943-5.74
				c0.275-0.158,0.314-0.392,0.089-0.522L171.377,381.547z M163.777,339.694c0.225,0.13,0.63,0.106,0.904-0.052l6.463-3.731
				c0.275-0.159,0.314-0.393,0.09-0.523l-5.701-3.292c-0.225-0.13-0.63-0.106-0.905,0.052l-6.463,3.731
				c-0.275,0.158-0.315,0.392-0.09,0.522L163.777,339.694z M154.332,345.147c0.225,0.13,0.63,0.107,0.904-0.052l6.463-3.732
				c0.274-0.158,0.315-0.393,0.09-0.522l-5.701-3.291c-0.225-0.13-0.63-0.106-0.904,0.052l-6.463,3.731
				c-0.274,0.159-0.314,0.392-0.089,0.522L154.332,345.147z M346.369,280.515c-0.225-0.13-0.63-0.107-0.904,0.052l-15.908,9.185
				c-0.275,0.158-0.315,0.392-0.091,0.523l5.702,3.291c0.224,0.13,0.629,0.107,0.904-0.052l15.908-9.185
				c0.274-0.158,0.315-0.392,0.09-0.522L346.369,280.515z M325.489,292.57c-0.225-0.13-0.629-0.107-0.904,0.052l-6.463,3.731
				c-0.275,0.159-0.315,0.392-0.09,0.522l5.7,3.291c0.225,0.129,0.63,0.106,0.905-0.052l6.463-3.731
				c0.275-0.158,0.315-0.392,0.09-0.522L325.489,292.57z M197.353,363.25l6.463-3.731c0.274-0.159,0.314-0.393,0.089-0.522
				l-5.7-3.292c-0.225-0.13-0.63-0.107-0.904,0.052l-6.463,3.731c-0.275,0.159-0.315,0.392-0.09,0.522l5.701,3.292
				C196.674,363.432,197.079,363.408,197.353,363.25z M306.598,303.477c-0.225-0.13-0.63-0.106-0.904,0.052l-6.463,3.731
				c-0.275,0.159-0.315,0.392-0.09,0.522l5.701,3.291c0.225,0.13,0.63,0.107,0.904-0.052l6.463-3.732
				c0.275-0.158,0.315-0.392,0.09-0.522L306.598,303.477z M355.815,275.061c-0.225-0.13-0.63-0.107-0.904,0.052l-6.463,3.732
				c-0.274,0.158-0.315,0.393-0.09,0.522l5.7,3.291c0.225,0.13,0.63,0.107,0.904-0.052l6.463-3.731
				c0.275-0.159,0.315-0.392,0.09-0.522L355.815,275.061z M370.962,272.9l-14.667-8.468c-0.225-0.13-0.63-0.107-0.904,0.052
				l-6.463,3.732c-0.275,0.158-0.315,0.392-0.09,0.522l14.666,8.468c0.225,0.13,0.63,0.106,0.904-0.052l6.463-3.732
				C371.146,273.263,371.186,273.029,370.962,272.9z M271.302,323.855c-0.225-0.13-0.63-0.107-0.904,0.052l-7.954,4.592
				c-0.275,0.158-0.315,0.392-0.09,0.522l5.701,3.291c0.225,0.13,0.63,0.107,0.904-0.052l7.954-4.592
				c0.275-0.158,0.315-0.393,0.09-0.522L271.302,323.855z M295.164,310.078c-0.225-0.13-0.63-0.106-0.904,0.052l-9.943,5.741
				c-0.274,0.158-0.314,0.392-0.09,0.522l5.701,3.291c0.225,0.13,0.63,0.106,0.904-0.052l9.943-5.741
				c0.275-0.158,0.315-0.392,0.09-0.522L295.164,310.078z M249.428,336.484c-0.225-0.13-0.63-0.107-0.904,0.052l-53.194,30.712
				c-0.275,0.158-0.315,0.392-0.09,0.522l5.701,3.292c0.225,0.13,0.63,0.107,0.904-0.052l53.194-30.711
				c0.275-0.159,0.315-0.393,0.09-0.523L249.428,336.484z M193.251,368.918c-0.225-0.13-0.63-0.107-0.904,0.052l-7.955,4.592
				c-0.275,0.158-0.315,0.392-0.09,0.522l5.701,3.292c0.225,0.129,0.63,0.106,0.904-0.053l7.955-4.593
				c0.274-0.158,0.314-0.392,0.089-0.521L193.251,368.918z M260.364,330.17c-0.225-0.13-0.629-0.107-0.904,0.052l-7.954,4.592
				c-0.275,0.159-0.315,0.392-0.09,0.522l5.701,3.291c0.224,0.131,0.63,0.107,0.904-0.051l7.954-4.593
				c0.275-0.158,0.315-0.392,0.089-0.522L260.364,330.17z M182.314,375.232c-0.225-0.13-0.63-0.106-0.904,0.052l-7.954,4.592
				c-0.275,0.159-0.315,0.392-0.09,0.522l5.7,3.292c0.225,0.13,0.63,0.107,0.904-0.052l7.954-4.592
				c0.275-0.159,0.315-0.392,0.09-0.523L182.314,375.232z M282.238,317.541c-0.225-0.13-0.629-0.107-0.904,0.052l-7.955,4.592
				c-0.274,0.158-0.315,0.392-0.09,0.522l5.701,3.292c0.224,0.13,0.63,0.107,0.904-0.052l7.954-4.592
				c0.275-0.158,0.315-0.392,0.09-0.522L282.238,317.541z M316.044,298.023c-0.225-0.13-0.63-0.106-0.905,0.052l-6.463,3.731
				c-0.275,0.158-0.314,0.392-0.089,0.522l5.701,3.292c0.225,0.13,0.63,0.106,0.904-0.052l6.463-3.731
				c0.275-0.159,0.315-0.392,0.09-0.523L316.044,298.023z M336.552,282.883l6.463-3.731c0.275-0.159,0.315-0.392,0.09-0.522
				l-5.701-3.291c-0.225-0.13-0.63-0.107-0.904,0.052l-6.463,3.731c-0.274,0.158-0.315,0.392-0.09,0.522l5.701,3.291
				C335.872,283.065,336.278,283.042,336.552,282.883z M297.741,284.586l6.463-3.731c0.275-0.158,0.315-0.392,0.09-0.522
				l-5.701-3.291c-0.225-0.13-0.63-0.107-0.904,0.052l-6.463,3.731c-0.275,0.159-0.315,0.392-0.09,0.522l5.7,3.291
				C297.061,284.767,297.466,284.744,297.741,284.586z M272.918,319.622l18.891-10.907c0.275-0.159,0.315-0.392,0.09-0.522
				l-5.701-3.292c-0.225-0.129-0.629-0.107-0.904,0.052l-18.891,10.907c-0.275,0.158-0.315,0.392-0.09,0.522l5.701,3.291
				C272.239,319.804,272.643,319.781,272.918,319.622z M326.202,288.388c0.224,0.13,0.63,0.107,0.904-0.052l6.463-3.731
				c0.275-0.159,0.315-0.392,0.09-0.523l-5.701-3.292c-0.225-0.13-0.63-0.106-0.904,0.052l-6.463,3.732
				c-0.274,0.158-0.314,0.392-0.09,0.522L326.202,288.388z M318.141,283.161l6.463-3.732c0.274-0.158,0.315-0.392,0.09-0.522
				l-5.701-3.292c-0.225-0.13-0.63-0.107-0.904,0.052l-6.463,3.731c-0.275,0.159-0.315,0.392-0.09,0.522l5.701,3.292
				C317.461,283.342,317.866,283.319,318.141,283.161z M263.472,325.076l6.463-3.732c0.275-0.159,0.315-0.392,0.09-0.522
				l-5.701-3.292c-0.225-0.13-0.63-0.107-0.904,0.052l-6.463,3.732c-0.275,0.158-0.315,0.392-0.09,0.522l5.701,3.292
				C262.793,325.258,263.198,325.234,263.472,325.076z M305.322,300.444c0.225,0.13,0.63,0.106,0.905-0.052l6.463-3.732
				c0.275-0.158,0.315-0.392,0.09-0.522l-5.701-3.292c-0.225-0.13-0.63-0.107-0.904,0.052l-6.463,3.731
				c-0.275,0.159-0.315,0.392-0.09,0.522L305.322,300.444z M216.245,352.343l6.463-3.732c0.274-0.158,0.314-0.392,0.09-0.522
				l-5.701-3.291c-0.225-0.13-0.63-0.107-0.904,0.052l-6.463,3.731c-0.275,0.159-0.314,0.392-0.09,0.522l5.701,3.292
				C215.565,352.525,215.97,352.501,216.245,352.343z M225.69,346.889l6.463-3.731c0.275-0.159,0.315-0.392,0.09-0.522l-5.701-3.292
				c-0.225-0.129-0.629-0.106-0.904,0.052l-6.463,3.731c-0.275,0.158-0.315,0.392-0.09,0.522l5.701,3.291
				C225.011,347.071,225.415,347.048,225.69,346.889z M206.799,357.796l6.463-3.731c0.275-0.158,0.315-0.393,0.09-0.522
				l-5.701-3.291c-0.225-0.13-0.63-0.107-0.904,0.052l-6.463,3.731c-0.275,0.158-0.315,0.392-0.09,0.522l5.701,3.292
				C206.12,357.978,206.524,357.955,206.799,357.796z M244.581,335.983l6.462-3.731c0.275-0.159,0.315-0.393,0.09-0.522
				l-5.701-3.291c-0.225-0.13-0.63-0.106-0.905,0.052l-6.463,3.732c-0.274,0.158-0.315,0.392-0.09,0.522l5.701,3.292
				C243.902,336.164,244.307,336.141,244.581,335.983z M235.136,341.436l6.463-3.731c0.275-0.158,0.315-0.392,0.09-0.522
				l-5.701-3.291c-0.225-0.13-0.63-0.107-0.905,0.052l-6.463,3.731c-0.274,0.159-0.315,0.393-0.09,0.522l5.701,3.292
				C234.456,341.617,234.861,341.595,235.136,341.436z M254.027,330.529l6.463-3.731c0.274-0.158,0.315-0.392,0.09-0.522
				l-5.701-3.291c-0.225-0.13-0.63-0.107-0.904,0.052l-6.463,3.731c-0.274,0.158-0.315,0.392-0.089,0.522l5.7,3.292
				C253.347,330.711,253.752,330.688,254.027,330.529z M306.22,255.039c0.225,0.13,0.63,0.107,0.905-0.052l6.463-3.732
				c0.275-0.158,0.314-0.392,0.089-0.522l-1.517-0.877c-0.225-0.13-0.63-0.106-0.905,0.052l-6.463,3.732
				c-0.273,0.158-0.314,0.392-0.089,0.522L306.22,255.039z M259.096,284.661c0.225,0.13,0.63,0.107,0.904-0.052l6.463-3.731
				c0.274-0.159,0.315-0.393,0.09-0.522l-5.701-3.291c-0.225-0.131-0.63-0.107-0.904,0.051l-6.463,3.732
				c-0.275,0.158-0.315,0.392-0.09,0.522L259.096,284.661z M277.987,273.755c0.224,0.13,0.63,0.106,0.904-0.052l6.463-3.731
				c0.275-0.159,0.315-0.392,0.091-0.523l-5.701-3.291c-0.225-0.13-0.63-0.106-0.904,0.052l-6.463,3.731
				c-0.274,0.158-0.315,0.393-0.09,0.522L277.987,273.755z M247.562,291.321c0.225,0.13,0.629,0.107,0.904-0.052l6.463-3.731
				c0.274-0.158,0.314-0.392,0.09-0.522l-5.701-3.292c-0.225-0.129-0.63-0.106-0.904,0.053l-6.463,3.731
				c-0.275,0.158-0.315,0.392-0.09,0.522L247.562,291.321z M268.541,279.208c0.224,0.13,0.63,0.107,0.905-0.052l6.463-3.732
				c0.274-0.158,0.315-0.392,0.089-0.522l-5.701-3.291c-0.224-0.13-0.629-0.107-0.904,0.052l-6.463,3.731
				c-0.275,0.159-0.315,0.392-0.09,0.522L268.541,279.208z M228.67,302.228c0.225,0.129,0.63,0.106,0.905-0.053l6.463-3.731
				c0.275-0.158,0.315-0.392,0.09-0.523l-5.701-3.291c-0.225-0.13-0.63-0.107-0.904,0.052l-6.463,3.731
				c-0.275,0.159-0.314,0.393-0.09,0.522L228.67,302.228z M238.116,296.774c0.225,0.13,0.63,0.106,0.904-0.052l6.463-3.731
				c0.274-0.158,0.314-0.392,0.089-0.522l-5.7-3.292c-0.225-0.13-0.63-0.106-0.904,0.052l-6.463,3.731
				c-0.275,0.159-0.315,0.392-0.09,0.522L238.116,296.774z M287.329,265.946c0.225,0.13,0.63,0.106,0.905-0.052l6.463-3.732
				c0.274-0.158,0.315-0.392,0.09-0.521l-1.518-0.876c-0.225-0.13-0.63-0.107-0.904,0.051l-6.463,3.732
				c-0.275,0.158-0.315,0.392-0.09,0.522L287.329,265.946z M315.666,249.585c0.225,0.13,0.63,0.107,0.905-0.051l6.463-3.732
				c0.275-0.159,0.315-0.392,0.09-0.522l-1.517-0.877c-0.225-0.129-0.63-0.106-0.904,0.052l-6.463,3.731
				c-0.274,0.158-0.315,0.393-0.09,0.523L315.666,249.585z M327.642,256.499c0.225,0.13,0.63,0.107,0.905-0.052l6.463-3.731
				c0.275-0.159,0.315-0.392,0.09-0.522l-5.701-3.292c-0.224-0.13-0.63-0.107-0.904,0.052l-6.463,3.732
				c-0.275,0.158-0.315,0.392-0.09,0.522L327.642,256.499z M345.997,277.43l6.463-3.732c0.275-0.158,0.315-0.392,0.09-0.522
				l-5.701-3.292c-0.224-0.13-0.63-0.106-0.905,0.052l-6.463,3.731c-0.274,0.159-0.315,0.392-0.09,0.522l5.7,3.292
				C345.318,277.612,345.723,277.588,345.997,277.43z M296.775,260.492c0.225,0.13,0.63,0.107,0.904-0.052l6.463-3.731
				c0.275-0.158,0.315-0.393,0.09-0.522l-1.518-0.876c-0.225-0.13-0.63-0.107-0.904,0.052l-6.463,3.731
				c-0.274,0.159-0.315,0.392-0.09,0.522L296.775,260.492z M219.225,307.681c0.225,0.13,0.63,0.107,0.904-0.052l6.463-3.731
				c0.275-0.159,0.315-0.392,0.09-0.522l-5.701-3.291c-0.225-0.13-0.63-0.107-0.904,0.052l-6.463,3.732
				c-0.274,0.158-0.315,0.392-0.089,0.522L219.225,307.681z"/>
		</g>
		<g>
			<polygon id="XMLID_8035_" style="fill:#263238;" points="248.145,356.458 249.47,357.223 284.667,377.54 347.261,341.401 
				348.564,340.658 312.042,319.577 			"/>
			<polygon style="fill:#37474F;" points="346.677,341.738 312.042,321.756 250.053,357.559 284.667,377.54 			"/>
		</g>
	</g>
</g>
<g id="Browser">
	<g id="Www">
		<g id="www">
			<g>
				<path style="fill:#27DEBF;" d="M386.217,63.423c0-2.635-0.919-4.491-2.408-5.366c-1.507-0.886-10.229-5.917-11.746-6.781
					c-1.503-0.856-3.573-0.725-5.858,0.594L202.95,146.126l0,54.03l11.698,6.753l163.256-94.255
					c4.591-2.651,8.313-9.098,8.313-14.399L386.217,63.423z"/>
				<path style="opacity:0.15;" d="M386.217,63.423c0-2.635-0.919-4.491-2.408-5.366c-1.507-0.886-10.229-5.917-11.746-6.781
					c-1.503-0.856-3.573-0.725-5.858,0.594L202.95,146.126l0,54.03l11.698,6.753l163.256-94.255
					c4.591-2.651,8.313-9.098,8.313-14.399L386.217,63.423z"/>
				<path style="fill:#27DEBF;" d="M377.904,58.624c4.591-2.651,8.313-0.502,8.313,4.8l0,34.832c0,5.302-3.722,11.748-8.313,14.399
					l-163.256,94.255l0-54.03L377.904,58.624z"/>
				<path style="fill:#FAFAFA;" d="M376.228,108.204c3.082-1.78,5.604-6.147,5.604-9.706l0-32.177c0-2.536-1.797-3.574-3.994-2.306
					l-159.904,92.387v43.26L376.228,108.204z"/>
			</g>
			<g>
				<path style="fill:#455A64;" d="M245.805,172.976c0,0.248-0.059,0.495-0.176,0.741c-0.117,0.249-0.256,0.419-0.417,0.512
					l-2.762,1.595c-0.161,0.093-0.3,0.083-0.417-0.03c-0.116-0.111-0.175-0.291-0.175-0.539v-8.54c0-0.967-0.153-1.655-0.46-2.063
					c-0.308-0.406-0.789-0.422-1.447-0.041c-0.658,0.379-1.137,0.949-1.437,1.705c-0.299,0.76-0.449,1.622-0.449,2.589v8.54
					c0,0.248-0.059,0.495-0.176,0.742c-0.116,0.248-0.255,0.418-0.416,0.511l-2.763,1.595c-0.161,0.094-0.3,0.084-0.416-0.029
					c-0.118-0.112-0.176-0.291-0.176-0.539V157.58c0-0.248,0.058-0.495,0.176-0.742c0.116-0.248,0.255-0.418,0.416-0.512
					l2.763-1.595c0.161-0.093,0.3-0.082,0.416,0.03c0.117,0.112,0.176,0.292,0.176,0.539v7.189c0.248-0.615,0.636-1.295,1.162-2.037
					c0.526-0.743,1.132-1.311,1.819-1.709c0.701-0.404,1.345-0.625,1.93-0.658c0.584-0.033,1.085,0.145,1.502,0.534
					c0.416,0.39,0.741,1.001,0.975,1.833c0.234,0.832,0.352,1.913,0.352,3.24V172.976z"/>
				<path style="fill:#455A64;" d="M253.389,162.656c0,0.518,0.073,0.875,0.219,1.071c0.146,0.196,0.388,0.198,0.725,0.004
					l1.753-1.013c0.161-0.092,0.3-0.082,0.417,0.029c0.116,0.113,0.175,0.293,0.175,0.541v3.408c0,0.248-0.059,0.495-0.175,0.742
					c-0.117,0.248-0.256,0.418-0.417,0.512l-2.082,1.201c-0.688,0.398-1.313,0.605-1.875,0.627s-1.041-0.141-1.436-0.487
					c-0.394-0.346-0.701-0.866-0.92-1.561c-0.219-0.694-0.329-1.559-0.329-2.595v-5.672l-1.622,0.938
					c-0.161,0.093-0.3,0.084-0.417-0.029c-0.116-0.112-0.175-0.293-0.175-0.541v-3.408c0-0.248,0.059-0.495,0.175-0.742
					c0.117-0.247,0.256-0.418,0.417-0.512l1.622-0.936v-5.502c0-0.248,0.059-0.495,0.175-0.742c0.117-0.247,0.256-0.418,0.417-0.512
					l2.763-1.594c0.16-0.094,0.299-0.082,0.417,0.029c0.116,0.112,0.175,0.293,0.175,0.539v5.502l2.478-1.43
					c0.16-0.093,0.299-0.082,0.417,0.029c0.116,0.113,0.175,0.293,0.175,0.54v3.409c0,0.248-0.059,0.496-0.175,0.742
					c-0.118,0.249-0.257,0.418-0.417,0.511l-2.478,1.431V162.656z"/>
				<path style="fill:#455A64;" d="M263.781,156.656c0,0.518,0.072,0.875,0.219,1.072c0.147,0.196,0.388,0.197,0.725,0.004
					l1.753-1.013c0.16-0.093,0.299-0.083,0.417,0.028c0.116,0.113,0.175,0.294,0.175,0.541v3.409c0,0.248-0.059,0.495-0.175,0.741
					c-0.118,0.249-0.257,0.419-0.417,0.512l-2.082,1.202c-0.688,0.397-1.313,0.605-1.875,0.626
					c-0.563,0.021-1.041-0.141-1.436-0.486c-0.394-0.346-0.701-0.866-0.92-1.561c-0.219-0.695-0.329-1.561-0.329-2.596v-5.671
					l-1.622,0.936c-0.161,0.094-0.3,0.084-0.417-0.029c-0.116-0.111-0.175-0.292-0.175-0.54v-3.409c0-0.247,0.059-0.494,0.175-0.742
					c0.117-0.246,0.256-0.418,0.417-0.511l1.622-0.936v-5.502c0-0.247,0.059-0.494,0.175-0.742c0.117-0.246,0.256-0.418,0.417-0.511
					l2.763-1.595c0.16-0.093,0.299-0.082,0.417,0.029c0.116,0.113,0.175,0.293,0.175,0.54v5.502l2.478-1.431
					c0.16-0.092,0.299-0.082,0.417,0.03c0.116,0.112,0.175,0.292,0.175,0.54v3.408c0,0.248-0.059,0.496-0.175,0.743
					c-0.118,0.249-0.257,0.417-0.417,0.511l-2.478,1.43V156.656z"/>
				<path style="fill:#455A64;" d="M275.816,156.897c-0.423,0.245-0.796,0.393-1.117,0.443c-0.322,0.051-0.6,0.042-0.833-0.025
					c-0.234-0.068-0.432-0.173-0.593-0.316c-0.16-0.143-0.292-0.287-0.394-0.431v7.189c0,0.247-0.06,0.495-0.176,0.742
					c-0.117,0.248-0.256,0.418-0.416,0.511l-2.764,1.596c-0.16,0.092-0.299,0.082-0.416-0.031c-0.117-0.111-0.176-0.291-0.176-0.539
					v-22.143c0-0.246,0.059-0.494,0.176-0.742c0.117-0.246,0.256-0.418,0.416-0.51l2.653-1.532c0.16-0.093,0.3-0.082,0.417,0.03
					c0.116,0.111,0.175,0.292,0.175,0.539v0.776c0.131-0.3,0.275-0.619,0.428-0.954c0.153-0.338,0.343-0.666,0.569-0.988
					c0.227-0.322,0.505-0.64,0.833-0.953c0.329-0.315,0.735-0.609,1.217-0.889c0.658-0.379,1.279-0.586,1.864-0.621
					c0.585-0.033,1.097,0.145,1.534,0.533c0.439,0.387,0.793,0.988,1.063,1.799c0.271,0.811,0.42,1.873,0.449,3.183
					c0.015,0.329,0.022,0.781,0.022,1.354c0,0.574-0.008,1.033-0.022,1.38c-0.029,1.345-0.179,2.579-0.449,3.703
					c-0.271,1.124-0.624,2.132-1.063,3.026c-0.438,0.895-0.949,1.668-1.534,2.32C277.095,156,276.474,156.518,275.816,156.897z
					 M276.803,148.158c0.043-0.654,0.043-1.285,0-1.89c-0.044-0.762-0.212-1.351-0.505-1.769c-0.292-0.415-0.781-0.426-1.468-0.029
					c-0.322,0.186-0.6,0.426-0.833,0.718c-0.234,0.292-0.429,0.613-0.581,0.96c-0.154,0.348-0.274,0.703-0.362,1.07
					c-0.088,0.365-0.147,0.725-0.175,1.079c-0.03,0.354-0.044,0.757-0.044,1.207c0,0.45,0.014,0.835,0.044,1.155
					c0.028,0.321,0.087,0.613,0.175,0.879c0.088,0.264,0.208,0.48,0.362,0.65c0.152,0.171,0.347,0.268,0.581,0.289
					c0.233,0.023,0.511-0.059,0.833-0.244c0.686-0.396,1.176-0.972,1.468-1.725C276.592,149.756,276.76,148.972,276.803,148.158z"/>
				<path style="fill:#455A64;" d="M286.821,137.481c0,0.248-0.059,0.495-0.175,0.742c-0.117,0.248-0.256,0.418-0.417,0.512
					l-2.871,1.657c-0.162,0.093-0.301,0.083-0.417-0.03c-0.117-0.111-0.175-0.291-0.175-0.539v-4.422
					c0-0.247,0.058-0.494,0.175-0.742c0.116-0.248,0.255-0.418,0.417-0.511l2.871-1.657c0.161-0.094,0.3-0.084,0.417,0.028
					c0.116,0.113,0.175,0.294,0.175,0.54V137.481z M286.821,149.295c0,0.248-0.059,0.494-0.175,0.741
					c-0.117,0.249-0.256,0.419-0.417,0.511l-2.871,1.658c-0.162,0.094-0.301,0.084-0.417-0.029c-0.117-0.113-0.175-0.292-0.175-0.54
					v-4.422c0-0.247,0.058-0.495,0.175-0.743c0.116-0.246,0.255-0.416,0.417-0.51l2.871-1.658c0.161-0.092,0.3-0.082,0.417,0.029
					c0.116,0.113,0.175,0.293,0.175,0.541V149.295z"/>
				<path style="fill:#455A64;" d="M295.942,119.422c0.072-0.289,0.183-0.582,0.328-0.881c0.146-0.298,0.358-0.527,0.637-0.688
					l2.718-1.569c0.131-0.076,0.244-0.068,0.34,0.023c0.095,0.092,0.143,0.238,0.143,0.441c0,0.09-0.015,0.199-0.044,0.329
					l-7.388,31.571c-0.06,0.258-0.162,0.543-0.307,0.853c-0.146,0.309-0.366,0.548-0.658,0.717l-2.675,1.544
					c-0.132,0.076-0.245,0.068-0.34-0.022c-0.096-0.091-0.143-0.239-0.143-0.441c0-0.09,0.015-0.2,0.044-0.33L295.942,119.422z"/>
				<path style="fill:#455A64;" d="M303.462,115.08c0.073-0.289,0.183-0.582,0.329-0.881c0.146-0.298,0.357-0.527,0.636-0.688
					l2.719-1.569c0.131-0.076,0.244-0.068,0.34,0.023c0.095,0.092,0.142,0.238,0.142,0.442c0,0.09-0.014,0.199-0.044,0.329
					l-7.387,31.571c-0.06,0.258-0.162,0.543-0.308,0.853c-0.146,0.31-0.366,0.548-0.657,0.717l-2.676,1.544
					c-0.131,0.076-0.244,0.068-0.339-0.022c-0.096-0.091-0.143-0.239-0.143-0.441c0-0.09,0.014-0.2,0.044-0.33L303.462,115.08z"/>
				<path style="fill:#455A64;" d="M317.953,114.68c0.219-0.126,0.387-0.132,0.504-0.02c0.116,0.111,0.197,0.246,0.241,0.4
					l1.622,6.726l1.623-8.599c0.043-0.205,0.123-0.432,0.241-0.68c0.116-0.247,0.284-0.436,0.504-0.562l2.718-1.569
					c0.147-0.084,0.271-0.077,0.373,0.021c0.103,0.099,0.153,0.261,0.153,0.485c0,0.09-0.007,0.184-0.021,0.282l-3.486,17.641
					c-0.044,0.227-0.12,0.463-0.229,0.705c-0.11,0.244-0.274,0.43-0.494,0.557l-2.499,1.442c-0.219,0.126-0.38,0.13-0.482,0.008
					c-0.102-0.12-0.183-0.266-0.241-0.435l-1.557-6.188l-1.556,7.986c-0.059,0.235-0.14,0.474-0.241,0.712
					c-0.102,0.24-0.264,0.423-0.483,0.55l-2.499,1.442c-0.219,0.127-0.383,0.132-0.493,0.015c-0.109-0.116-0.185-0.264-0.229-0.44
					l-3.486-13.615c-0.015-0.082-0.022-0.167-0.022-0.257c0-0.225,0.052-0.446,0.154-0.663c0.102-0.216,0.226-0.367,0.372-0.451
					l2.719-1.57c0.22-0.126,0.387-0.132,0.505-0.02c0.116,0.111,0.196,0.246,0.24,0.4l1.622,6.726l1.623-8.599
					c0.044-0.205,0.124-0.432,0.241-0.68c0.117-0.247,0.285-0.436,0.504-0.562L317.953,114.68z"/>
				<path style="fill:#455A64;" d="M336.938,103.719c0.22-0.127,0.387-0.133,0.504-0.021c0.117,0.112,0.197,0.247,0.241,0.401
					l1.622,6.725l1.623-8.599c0.043-0.204,0.124-0.432,0.241-0.679c0.117-0.248,0.285-0.436,0.504-0.563l2.719-1.568
					c0.146-0.085,0.271-0.078,0.373,0.021c0.102,0.099,0.152,0.261,0.152,0.485c0,0.09-0.007,0.184-0.02,0.282l-3.486,17.641
					c-0.044,0.228-0.121,0.464-0.23,0.706c-0.109,0.244-0.273,0.429-0.493,0.556l-2.5,1.442c-0.219,0.127-0.379,0.13-0.481,0.008
					c-0.103-0.12-0.183-0.266-0.241-0.434l-1.557-6.189l-1.557,7.986c-0.059,0.236-0.14,0.475-0.241,0.713
					c-0.102,0.24-0.263,0.422-0.483,0.549l-2.499,1.443c-0.22,0.127-0.384,0.131-0.493,0.014c-0.11-0.115-0.187-0.264-0.23-0.439
					l-3.486-13.615c-0.014-0.082-0.021-0.168-0.021-0.258c0-0.225,0.052-0.445,0.154-0.662c0.101-0.217,0.226-0.367,0.372-0.451
					l2.719-1.57c0.219-0.127,0.387-0.133,0.504-0.021s0.197,0.247,0.241,0.401l1.622,6.725l1.623-8.599
					c0.044-0.205,0.123-0.432,0.241-0.679c0.116-0.248,0.284-0.436,0.504-0.563L336.938,103.719z"/>
				<path style="fill:#455A64;" d="M355.925,92.758c0.219-0.127,0.387-0.133,0.504-0.021c0.116,0.113,0.197,0.247,0.241,0.401
					l1.622,6.726l1.623-8.6c0.043-0.204,0.123-0.432,0.241-0.679c0.116-0.247,0.284-0.435,0.504-0.562l2.718-1.569
					c0.147-0.085,0.271-0.077,0.373,0.021c0.103,0.1,0.153,0.262,0.153,0.486c0,0.09-0.007,0.184-0.022,0.281l-3.486,17.641
					c-0.044,0.229-0.12,0.464-0.229,0.707c-0.11,0.244-0.274,0.428-0.494,0.555l-2.499,1.443c-0.219,0.127-0.38,0.129-0.482,0.008
					c-0.102-0.121-0.183-0.266-0.241-0.434l-1.557-6.189l-1.556,7.986c-0.059,0.236-0.14,0.475-0.241,0.713
					c-0.103,0.239-0.264,0.422-0.483,0.549l-2.499,1.443c-0.219,0.126-0.383,0.131-0.493,0.014c-0.109-0.116-0.186-0.264-0.23-0.44
					l-3.486-13.615c-0.015-0.081-0.022-0.167-0.022-0.257c0-0.225,0.052-0.445,0.154-0.663c0.102-0.216,0.226-0.366,0.372-0.451
					l2.719-1.569c0.22-0.127,0.387-0.133,0.505-0.021c0.116,0.113,0.196,0.247,0.24,0.401l1.622,6.726l1.623-8.6
					c0.044-0.205,0.124-0.432,0.241-0.679c0.117-0.247,0.285-0.435,0.504-0.562L355.925,92.758z"/>
				<path style="fill:#455A64;" d="M368.75,101.993c0,0.248-0.059,0.495-0.176,0.742c-0.116,0.248-0.256,0.418-0.416,0.511
					l-2.872,1.658c-0.161,0.093-0.3,0.083-0.417-0.029c-0.117-0.113-0.175-0.292-0.175-0.54v-4.422c0-0.247,0.058-0.495,0.175-0.743
					c0.117-0.247,0.256-0.417,0.417-0.51l2.872-1.658c0.16-0.093,0.3-0.083,0.416,0.029c0.117,0.113,0.176,0.293,0.176,0.54V101.993
					z"/>
			</g>
		</g>
		<g id="World">
			<g id="Check_1_">
				<g id="Circle_1_">
					<path id="XMLID_306_" style="fill:#37474F;" d="M207.444,137.153l0.002-0.004l-0.078-0.048
						c-0.003-0.002-0.005-0.003-0.008-0.005l-20.006-11.877c-0.006-0.004-0.012-0.007-0.018-0.011l-0.11-0.067l-0.002,0.005
						c-8.811-5.312-20.569-4.475-33.215,3.782c-25.406,16.588-44.765,56.823-43.24,89.867c0.76,16.47,6.567,28.042,15.345,33.455
						l-0.002,0.003l0.078,0.047c0.003,0.002,0.007,0.004,0.01,0.006l20.01,11.88c0.003,0.001,0.005,0.003,0.008,0.005l0.093,0.056
						l0.002-0.004c8.814,5.327,20.581,4.495,33.238-3.769c25.405-16.588,44.765-56.823,43.24-89.867
						C222.029,154.137,216.222,142.566,207.444,137.153z"/>
					<path id="XMLID_302_" style="fill:#263238;" d="M145.566,263.778l-19.362-11.473c-0.014,0-0.014,0-0.014,0l-0.085-0.06
						c-8.774-5.426-14.578-16.997-15.336-33.445c-0.68-14.737,2.802-30.895,9.102-45.739l0.127-0.326l19.886,12.202
						c-6.315,14.845-9.783,31.003-9.103,45.74C131.525,246.794,137.102,258.216,145.566,263.778z"/>
					<path id="XMLID_297_" style="fill:#455A64;" d="M179.548,260.474c25.405-16.588,44.765-56.823,43.24-89.867
						c-1.524-33.043-23.356-46.383-48.762-29.794c-25.406,16.588-44.765,56.823-43.24,89.866
						C132.312,263.723,154.143,277.062,179.548,260.474z"/>
				</g>
			</g>
			<g>
				<g>
					<path style="fill:#27DEBF;" d="M165.21,251.748c-3.398,0-6.596-0.822-9.471-2.475c-8.003-4.604-12.594-15.157-12.594-28.957
						c0-25.387,15.434-55.018,34.403-66.054c8.626-5.019,17.055-5.664,23.732-1.823c8.003,4.602,12.594,15.157,12.594,28.957
						c0,25.386-15.434,55.018-34.402,66.054C174.559,250.308,169.709,251.748,165.21,251.748z M191.805,153.799
						c-3.829,0-8.025,1.264-12.332,3.77c-17.922,10.425-32.501,38.573-32.501,62.747c0,12.394,3.891,21.739,10.675,25.642
						c5.442,3.128,12.511,2.487,19.902-1.814c17.921-10.426,32.5-38.574,32.5-62.747c0-12.394-3.891-21.739-10.675-25.642
						C197.102,154.447,194.548,153.799,191.805,153.799z"/>
				</g>
				<g>
					<g>
						<path style="fill:#27DEBF;" d="M165.205,188.268c-4.206,0-8.078-1.31-11.423-3.93l1.77-2.258
							c5.845,4.58,13.743,4.382,22.237-0.562c8.802-5.121,17.073-14.605,23.288-26.705l2.553,1.311
							c-6.464,12.582-15.128,22.481-24.398,27.875C174.342,186.843,169.592,188.268,165.205,188.268z"/>
					</g>
					<g>
						<path style="fill:#27DEBF;" d="M155.944,246.897l-2.553-1.311c6.462-12.581,15.127-22.48,24.397-27.874
							c9.581-5.572,18.617-5.691,25.449-0.34l-1.77,2.258c-5.846-4.578-13.743-4.378-22.236,0.563
							C170.428,225.313,162.158,234.797,155.944,246.897z"/>
					</g>
				</g>
				<g>
					<path style="fill:#27DEBF;" d="M174.807,248.325c-1.329,0-2.632-0.357-3.874-1.072c-6.742-3.878-10.93-17.851-10.93-36.466
						c0-25.663,7.813-50.31,17.786-56.112c2.823-1.642,5.69-1.719,8.3-0.218c6.741,3.878,10.929,17.851,10.929,36.467
						c0,25.662-7.813,50.31-17.785,56.112C177.755,247.895,176.265,248.325,174.807,248.325z M182.207,156.254
						c-0.955,0-1.942,0.3-2.975,0.901c-8.868,5.158-16.36,29.719-16.36,53.632c0,19.701,4.767,31.262,9.49,33.979
						c1.714,0.986,3.49,0.917,5.427-0.21c8.868-5.158,16.359-29.719,16.359-53.632c0-19.702-4.767-31.263-9.49-33.979
						C183.858,156.485,183.045,156.254,182.207,156.254z"/>
				</g>
				<g>
					<rect x="177.076" y="155.915" style="fill:#27DEBF;" width="2.869" height="89.881"/>
				</g>
				<g>
					
						<rect x="139.81" y="199.421" transform="matrix(0.8643 -0.5029 0.5029 0.8643 -76.7989 117.0334)" style="fill:#27DEBF;" width="77.4" height="2.87"/>
				</g>
			</g>
		</g>
	</g>
</g>
<g id="Cursor_1_">
	<g id="Cursor">
		<g>
			<path style="fill:#27DEBF;" d="M412.591,137.483c-0.333-0.693-0.746-1.13-1.194-1.392l0.008-0.001l0-0.001l-2.981-1.721l0,0.008
				c-1.297-0.745-2.881-0.008-3.72,0.507l-1.86-1.074v0c-2.258-1.363-5.395,1.488-6.098,2.173l-0.804-0.464l0,0.001
				c-1.062-0.64-2.507-0.236-3.788,0.412v-10.836c0-1.188-0.408-2.028-1.068-2.441l0.003-0.002l-0.031-0.018
				c-0.017-0.01-0.033-0.02-0.05-0.029l-2.925-1.691c-0.002-0.001-0.004-0.003-0.007-0.004l-0.021-0.012l-0.001,0.002
				c-0.69-0.385-1.636-0.323-2.68,0.28c-2.113,1.22-3.826,4.187-3.826,6.626v33.192c-0.152-0.074-0.304-0.145-0.456-0.212
				c-2.615-1.842-5.359-2.938-7.783-2.507c-2.313,0.411-4.379,2.381-4.979,3.439c-1.266,2.231,0.822,3.63,3.512,6.706
				c2.665,3.048,5.017,6.719,7.445,8.984c2.428,2.265,4.188,2.854,4.188,2.854v4.342l2.954,1.706l22.48-12.979v-4.342
				c0,0,2.79-11.121,3.681-15.769C413.482,148.574,414.305,141.047,412.591,137.483z"/>
			<path style="opacity:0.8;fill:#FFFFFF;" d="M412.591,137.483c-0.333-0.693-0.746-1.13-1.194-1.392l0.008-0.001l0-0.001
				l-2.981-1.721l0,0.008c-1.297-0.745-2.881-0.008-3.72,0.507l-1.86-1.074v0c-2.258-1.363-5.395,1.488-6.098,2.173l-0.804-0.464
				l0,0.001c-1.062-0.64-2.507-0.236-3.788,0.412v-10.836c0-1.188-0.408-2.028-1.068-2.441l0.003-0.002l-0.031-0.018
				c-0.017-0.01-0.033-0.02-0.05-0.029l-2.925-1.691c-0.002-0.001-0.004-0.003-0.007-0.004l-0.021-0.012l-0.001,0.002
				c-0.69-0.385-1.636-0.323-2.68,0.28c-2.113,1.22-3.826,4.187-3.826,6.626v33.192c-0.152-0.074-0.304-0.145-0.456-0.212
				c-2.615-1.842-5.359-2.938-7.783-2.507c-2.313,0.411-4.379,2.381-4.979,3.439c-1.266,2.231,0.822,3.63,3.512,6.706
				c2.665,3.048,5.017,6.719,7.445,8.984c2.428,2.265,4.188,2.854,4.188,2.854v4.342l2.954,1.706l22.48-12.979v-4.342
				c0,0,2.79-11.121,3.681-15.769C413.482,148.574,414.305,141.047,412.591,137.483z"/>
		</g>
		<path style="opacity:0.2;fill:#27DEBF;" d="M392.157,135.968v3.676c0,0,0,0,0.007-0.007c0.117-0.103,1.385-1.2,2.887-1.975
			L392.157,135.968z M405.736,134.37c-0.398,0.158-0.754,0.343-1.029,0.514l0.953,0.555c0.528,0.274,1.015,0.768,1.413,1.55
			c0,0,0.734-0.59,1.701-0.953L405.736,134.37z M398.741,134.405c-0.94,0.59-1.694,1.282-1.996,1.577l1.948,1.132
			c0.034,0.021,0.075,0.034,0.11,0.062c0.281,0.144,0.535,0.363,0.754,0.658c0,0,0,0,0.007-0.007
			c0.089-0.089,0.933-0.953,2.071-1.68L398.741,134.405z M381.548,127.807V161c0.987,0.48,1.982,1.104,2.956,1.824v-33.309
			L381.548,127.807z M392.143,135.962l0.014,0.007v-0.034L392.143,135.962z M382.24,179.112c-2.428-2.263-4.78-5.932-7.441-8.984
			c-2.524-2.887-4.526-4.3-3.703-6.309l-2.956-1.708c-0.823,2.009,1.173,3.422,3.703,6.316c2.668,3.045,5.013,6.714,7.441,8.984
			c2.435,2.263,4.19,2.853,4.19,2.853v4.341l2.956,1.708v-4.341C386.431,181.972,384.668,181.382,382.24,179.112z"/>
		<path style="opacity:0.1;" d="M392.157,135.968v3.676c0,0,0,0,0.007-0.007c0.117-0.103,1.385-1.2,2.887-1.975L392.157,135.968z
			 M405.736,134.37c-0.398,0.158-0.754,0.343-1.029,0.514l0.953,0.555c0.528,0.274,1.015,0.768,1.413,1.55
			c0,0,0.734-0.59,1.701-0.953L405.736,134.37z M398.741,134.405c-0.94,0.59-1.694,1.282-1.996,1.577l1.948,1.132
			c0.034,0.021,0.075,0.034,0.11,0.062c0.281,0.144,0.535,0.363,0.754,0.658c0,0,0,0,0.007-0.007
			c0.089-0.089,0.933-0.953,2.071-1.68L398.741,134.405z M381.548,127.807V161c0.987,0.48,1.982,1.104,2.956,1.824v-33.309
			L381.548,127.807z M392.143,135.962l0.014,0.007v-0.034L392.143,135.962z M382.24,179.112c-2.428-2.263-4.78-5.932-7.441-8.984
			c-2.524-2.887-4.526-4.3-3.703-6.309l-2.956-1.708c-0.823,2.009,1.173,3.422,3.703,6.316c2.668,3.045,5.013,6.714,7.441,8.984
			c2.435,2.263,4.19,2.853,4.19,2.853v4.341l2.956,1.708v-4.341C386.431,181.972,384.668,181.382,382.24,179.112z"/>
		<g>
			<path id="XMLID_8048_" style="fill:#27DEBF;" d="M386.43,186.311v-4.342c0,0-1.76-0.589-4.188-2.854
				c-2.428-2.265-4.78-5.936-7.445-8.984c-2.689-3.076-4.777-4.475-3.512-6.706c0.6-1.057,2.666-3.027,4.979-3.439
				c2.565-0.456,5.489,0.796,8.239,2.835v-33.309c0-2.44,1.713-5.406,3.826-6.626l0,0c2.113-1.22,3.826-0.231,3.826,2.209v14.548
				c0,0,5.272-4.682,7.402-1.811c0,0,5.179-5.426,7.517-0.843c0,0,3.803-3.071,5.517,0.493c1.715,3.564,0.891,11.091,0,15.738
				c-0.891,4.648-3.681,15.769-3.681,15.769v4.342L386.43,186.311z"/>
			<path id="XMLID_272_" style="opacity:0.65;fill:#FFFFFF;" d="M386.43,186.311v-4.342c0,0-1.76-0.589-4.188-2.854
				c-2.428-2.265-4.78-5.936-7.445-8.984c-2.689-3.076-4.777-4.475-3.512-6.706c0.6-1.057,2.666-3.027,4.979-3.439
				c2.565-0.456,5.489,0.796,8.239,2.835v-33.309c0-2.44,1.713-5.406,3.826-6.626l0,0c2.113-1.22,3.826-0.231,3.826,2.209v14.548
				c0,0,5.272-4.682,7.402-1.811c0,0,5.179-5.426,7.517-0.843c0,0,3.803-3.071,5.517,0.493c1.715,3.564,0.891,11.091,0,15.738
				c-0.891,4.648-3.681,15.769-3.681,15.769v4.342L386.43,186.311z"/>
		</g>
		<g id="XMLID_8042_" style="opacity:0.1;">
			<path id="XMLID_8045_" d="M392.155,145.89c0,0,0.48-6.638,2.919-8.217c-0.001,0-0.035,0.01-0.087,0.025
				c-1.552,0.81-2.832,1.945-2.832,1.945v-0.125c-0.027,0.083,0,0.125,0,0.125V145.89z"/>
			<path id="XMLID_8044_" d="M399.557,137.832v6.073c0,0,0.673-6.244,2.073-7.753C400.438,136.912,399.562,137.827,399.557,137.832z
				"/>
			<path id="XMLID_8043_" d="M407.075,136.989L407.075,136.989v6.095c0,0,0.371-6.14,1.693-7.046
				C407.806,136.4,407.079,136.986,407.075,136.989z"/>
		</g>
	</g>
</g>
<g id="Character_1_">
	<g id="Character">
		<path id="Shadow_13_" style="opacity:0.15;" d="M336.526,311.399c-17.271,8.606-25.111,17.649-16.17,23.984
			c8.94,6.335,33.271,14.914,33.271,14.914l3.19,10.723l35.345-20.406v-12.139c0,0-21.808-15.035-30.324-17.931
			C353.322,307.647,346.648,306.355,336.526,311.399z"/>
		<g id="Character_7_">
			<g>
				<g>
					<path id="XMLID_29003_" style="fill:#FFA8A7;" d="M385.263,366.131c0,0-5.338,13.084-5.61,18.245
						c-0.283,5.378-1.583,7.159-0.672,13.009c0.199,1.274,0.868,3.828,1.035,4.862c0.149,0.921-0.197,1.662-1.382,1.907
						c-2.334,0.484-6.21-3.9-8.054-8.67c-1.844-4.77-4.458-15.53-4.621-16.819c-0.157-1.242,0.257-2.788,0.739-3.765
						c0.846-1.714,1.072-1.949,1.072-1.949c0.772-2.341,1.143-6.792,1.793-9.871L385.263,366.131z"/>
					<g>
						<path style="fill:#263238;" d="M361.396,383.568c0,0-0.589,1.074-0.625,1.763c-0.056,1.073,2.367,4.607,3.317,5.894
							c0.95,1.287,1.88,2.899,1.75,6.113c-0.139,3.435,1.378,6.74,3.595,9.572c2.217,2.832,6.066,5.933,11.731,7.677
							c5.665,1.743,7.663-1.095,7.663-1.095s1.757-2.734,0.701-3.854C388.47,408.518,361.396,383.568,361.396,383.568z"/>
						<path id="XMLID_29002_" style="fill:#455A64;" d="M367.771,372.952c-0.172-0.006-0.477-0.055-0.921,0.48
							c-0.168,0.202-1.202,2.75-2.059,4.088c-0.918,1.432-3.107,3.877-3.395,6.049c1.311,4.2,5.251,7.122,5.843,11.087
							c0.591,3.965,0.658,8.567,6.752,13.42c6.094,4.852,12.359,5.354,14.611,4.069c2.252-1.284,2.046-3.697-1.093-8.292
							c-3.332-4.877-5.576-15.444-5.577-15.448c-0.311-1.462-0.472-3.005-0.589-4.494c-0.114-1.447,0.307-2.993,0.42-4.448
							c0.053-0.688,0.08-1.428-0.284-2.015c-0.365-0.586-1.04-0.889-1.676-1.159c-1.016-0.431-2.043-0.866-3.13-1.061
							c-1.087-0.195-2.254-0.133-3.226,0.391c-0.703,0.378-1.278,0.98-2.015,1.286c-0.989,0.409-2.206,0.192-2.992-0.535
							c-1.158-1.071-0.987-2.035-0.81-2.75C367.609,373.599,367.771,372.952,367.771,372.952z"/>
						<path style="fill:#FAFAFA;" d="M370.429,404.185c0,0,2.361-4.801,8.831-4.776c6.47,0.025,8.709,3.317,9.694,5.253
							c1.172,2.306,2.394,6.485-0.277,7.684c-2.885,1.296-6.225,0.895-11.48-1.739C371.943,407.974,370.429,404.185,370.429,404.185
							z"/>
						<g>
							<path style="fill:#FAFAFA;" d="M371.608,384.695c0.183,0.087,0.402,0.093,0.59-0.003c1-0.509,6.288-1.616,9.368,1.242
								c0.399-0.32,0.318-0.905-0.193-1.729c-3.605-2.289-8.61-1.267-9.817-0.651c-0.316,0.161-0.428,0.547-0.251,0.86
								C371.377,384.542,371.484,384.636,371.608,384.695z"/>
							<path style="fill:#FAFAFA;" d="M382.231,389.705c0.222-0.573-0.056-1.457-0.374-1.778c-3.555-1.929-8.206-0.965-9.363-0.376
								c-0.316,0.161-0.427,0.546-0.251,0.86c0.072,0.127,0.178,0.222,0.302,0.281c0.183,0.088,0.402,0.093,0.591-0.003
								C374.108,388.196,379.124,387.152,382.231,389.705z"/>
							<path style="fill:#FAFAFA;" d="M384.87,398.448c0.028-0.791-0.255-1.576-0.827-2.342c-3.591-2.165-8.481-1.165-9.671-0.558
								c-0.316,0.161-0.428,0.547-0.251,0.86c0.072,0.127,0.178,0.222,0.302,0.281c0.183,0.087,0.402,0.093,0.59-0.003
								C376.069,396.149,381.899,394.95,384.87,398.448z"/>
							<path style="fill:#FAFAFA;" d="M373.484,392.692c0.183,0.087,0.402,0.093,0.59-0.003c0.989-0.504,6.168-1.582,9.262,1.153
								c0.141-0.6-0.028-1.244-0.54-1.916c-3.557-1.93-8.207-0.965-9.363-0.375c-0.316,0.161-0.428,0.547-0.251,0.86
								C373.254,392.538,373.361,392.632,373.484,392.692z"/>
						</g>
					</g>
				</g>
				<g id="XMLID_28999_">
					<path id="XMLID_29001_" style="fill:#FFA8A7;" d="M391.013,382.199c0,0,2.646,15.959,5.588,22.151
						c2.942,6.192,4.454,9.182,8.507,13.867c0.883,1.02,2.893,2.916,3.614,3.741c0.643,0.735,0.747,1.584-0.168,2.458
						c-1.803,1.724-9.444,2.133-13.726-1.078c-4.282-3.21-8.182-10.048-10.735-12.632c-0.96-0.971-1.863-1.963-2.722-3.017
						c-0.828-1.016-0.601-1.981-0.675-3.118c-0.036-0.55,0.044-2.051,0.044-2.051c-0.585-2.687-2.171-6.904-3.013-9.523
						L391.013,382.199z"/>
					<g>
						<path style="fill:#263238;" d="M379.231,414.579c0,0-0.078,1.28,0.196,1.947c0.427,1.04,4.298,3.302,5.772,4.096
							c1.474,0.793,3.074,1.904,4.387,5.003c1.402,3.312,4.314,5.763,7.678,7.453c3.363,1.689,8.39,2.905,14.53,2.025
							c6.139-0.881,6.762-4.459,6.762-4.459s0.441-3.372-1.059-3.96C415.996,426.095,379.231,414.579,379.231,414.579z"/>
						<path id="XMLID_29000_" style="fill:#455A64;" d="M380.521,401.686c-0.166,0.071-0.476,0.16-0.657,0.865
							c-0.069,0.267,0.091,3.139-0.123,4.788c-0.229,1.764-1.208,5.056-0.511,7.24c3.117,3.388,8.151,4.394,10.482,7.882
							c2.331,3.488,4.45,7.813,12.384,9.683c7.934,1.87,14.086-0.454,15.644-2.676c1.557-2.221,0.284-4.412-4.738-7.358
							c-5.331-3.127-12.175-12.123-12.178-12.127c-0.947-1.245-1.789-2.633-2.565-3.99c-0.755-1.319-1.046-2.97-1.589-4.397
							c-0.257-0.675-0.562-1.387-1.169-1.779c-0.607-0.392-1.382-0.377-2.104-0.348c-1.154,0.046-2.32,0.094-3.435,0.395
							c-1.115,0.301-2.192,0.881-2.878,1.811c-0.496,0.672-0.771,1.498-1.333,2.117c-0.753,0.829-2.002,1.167-3.07,0.83
							c-1.574-0.496-1.843-1.484-1.995-2.241C380.658,402.37,380.521,401.686,380.521,401.686z"/>
						<path style="fill:#FAFAFA;" d="M396.989,430.054c0,0,0.09-5.597,6.223-8.464c6.134-2.867,9.723-0.752,11.52,0.641
							c2.139,1.658,5.162,5.067,3.171,7.395c-2.151,2.514-5.491,3.628-11.64,3.482C400.113,432.963,396.989,430.054,396.989,430.054
							z"/>
						<g>
							<path style="fill:#FAFAFA;" d="M389.398,411.084c0.212,0.001,0.422-0.091,0.557-0.267c0.719-0.929,5.228-4.338,9.42-3.009
								c0.234-0.481-0.104-0.999-0.955-1.55c-4.434-0.556-8.714,2.647-9.58,3.768c-0.227,0.294-0.161,0.709,0.147,0.926
								C389.111,411.042,389.254,411.084,389.398,411.084z"/>
							<path style="fill:#FAFAFA;" d="M401.689,411.08c-0.046-0.641-0.704-1.354-1.147-1.516c-4.226-0.238-8.196,2.753-9.028,3.827
								c-0.227,0.294-0.161,0.707,0.147,0.926c0.125,0.088,0.268,0.13,0.411,0.131c0.213,0.001,0.422-0.091,0.558-0.266
								C393.327,413.28,397.608,410.052,401.689,411.08z"/>
							<path style="fill:#FAFAFA;" d="M408.091,418.174c-0.327-0.761-0.946-1.378-1.829-1.846c-4.365-0.445-8.546,2.686-9.401,3.792
								c-0.227,0.294-0.161,0.709,0.147,0.926c0.125,0.088,0.268,0.13,0.412,0.131c0.212,0.001,0.422-0.091,0.558-0.267
								C398.735,419.93,403.717,416.191,408.091,418.174z"/>
							<path style="fill:#FAFAFA;" d="M394.746,417.813c0.212,0.001,0.422-0.091,0.557-0.267c0.711-0.918,5.13-4.252,9.279-3.046
								c-0.135-0.631-0.583-1.165-1.367-1.572c-4.228-0.238-8.197,2.753-9.028,3.827c-0.227,0.294-0.161,0.709,0.147,0.926
								C394.459,417.77,394.602,417.812,394.746,417.813z"/>
						</g>
					</g>
				</g>
				<g>
					<path style="fill:#27DEBF;" d="M355.802,291.319c6.543,4.796,29.33,17.95,38.583,26.515c2.673,2.474,3.553,5.731,2.895,12.83
						c-0.892,9.634-8.463,42.466-8.463,42.466c-1.042,1.854-2.877-1.663-2.877-1.663l-36.108-45.842L355.802,291.319z"/>
					<path style="opacity:0.3;" d="M355.802,291.319c6.543,4.796,29.33,17.95,38.583,26.515c2.673,2.474,3.553,5.731,2.895,12.83
						c-0.892,9.634-8.463,42.466-8.463,42.466c-1.042,1.854-2.877-1.663-2.877-1.663l-36.108-45.842L355.802,291.319z"/>
					<path style="opacity:0.3;" d="M387.25,362.907c-8.355-6.981-35.343-49.563-35.343-49.563s0.007-0.007,0.014-0.013
						c3.675-3.105,5.571-13.871,5.571-13.871c1.457,4.154-0.082,10.418-1.213,12.708c2.125,1.839,14.133,11.714,22.474,18.317
						c2.092,1.656,4.231,3.701,4.948,7.469C385.419,346.986,387.447,361.08,387.25,362.907z"/>
				</g>
				<g id="XMLID_28998_">
					<path style="fill:#27DEBF;" d="M355.802,291.319L355.802,291.319l-46.481,10.29c2.27,8.531,2.917,12.938,5.286,17.431
						c2.377,4.508,5.009,9.315,17.099,15.268c11.639,5.73,25.857,11.633,28.702,12.986c2.143,1.02,3.165,5.306,4.134,10.863
						c1.015,5.829,1.107,10.39,6.874,22.622c5.645,11.978,6.799,14.566,6.799,14.566s8.735,0.908,14.532-4.193
						c0,0-7.91-41.067-9.597-48.46c-0.942-4.13-0.961-6.306-6.088-10.844c-4.395-3.89-24.026-18.749-24.026-18.749
						S360.832,302.628,355.802,291.319z"/>
					<path style="opacity:0.3;" d="M355.802,291.319L355.802,291.319l-46.481,10.29c2.27,8.531,2.917,12.938,5.286,17.431
						c2.377,4.508,5.009,9.315,17.099,15.268c11.639,5.73,25.857,11.633,28.702,12.986c2.143,1.02,3.165,5.306,4.134,10.863
						c1.015,5.829,1.107,10.39,6.874,22.622c5.645,11.978,6.799,14.566,6.799,14.566s8.735,0.908,14.532-4.193
						c0,0-7.91-41.067-9.597-48.46c-0.942-4.13-0.961-6.306-6.088-10.844c-4.395-3.89-24.026-18.749-24.026-18.749
						S360.832,302.628,355.802,291.319z"/>
				</g>
			</g>
			<g>
				<path style="fill:#FFA8A7;" d="M409.228,214.105c-0.782-0.078-1.587,0.125-2.303,0.463c-0.849,0.4-1.6,0.979-2.356,1.536
					c-1.156,0.851-2.342,1.661-3.556,2.426c-1.081,0.682-2.219,1.445-3.505,1.657c-0.431,0.071-1.349,0.086-0.88-0.567
					c0.612-0.853,1.299-1.663,1.756-2.607c0.457-0.945,0.662-2.075,0.259-3.043c-0.122-0.292-0.311-0.575-0.598-0.708
					c-0.407-0.187-0.614,0.03-0.847,0.296c-0.245,0.281-0.539,0.519-0.82,0.768c-0.58,0.512-1.16,1.025-1.733,1.546
					c-3.344,3.037-7.41,5.67-8.842,10.059c-0.207,0.635-1.154,3.529-1.184,8.347c-0.03,4.819-0.315,21.59-0.315,21.59
					s-13.32-11.203-19.097-16.03c-2.785-2.328-6.678-5.154-10.968-5.561c-3.035-0.288-4.807-0.27-4.807-0.27l9.085,22.023
					c0,0,17.178,12.78,25.414,17.18c7.433,3.971,11.047,1.111,11.945-0.973c1.489-3.454,3.017-5.073,0.922-24.352
					c-0.15-1.492-0.335-5.76-0.503-7.25c-0.216-3.112,0.136-6.274,1.342-6.95c2.218-1.243,4.39-2.598,6.302-4.274
					c1.259-1.103,2.403-2.349,3.331-3.745c0.389-0.585,1.067-1.435,1.14-2.151c0.074-0.725-0.244-1.493-0.024-2.209
					c0.15-0.489,0.479-0.887,0.602-1.409c0.251-1.063,0.159-2.282,0.835-3.202c0.372-0.506,0.991-0.962,0.905-1.584
					c-0.068-0.498-0.581-0.812-1.069-0.931C409.517,214.143,409.373,214.119,409.228,214.105z"/>
				<path style="fill:#F28F8F;" d="M395.64,222.47c-0.374,2.599-2.229,5.846-3.473,6.936c0,0,2.077-1.179,2.952-2.993
					C396.079,224.427,395.97,223.417,395.64,222.47z"/>
				<path style="fill:#27DEBF;" d="M348.515,233.559c4.637,0.202,8.25,0.305,12.203,2.587c3.953,2.282,21.607,17.06,21.607,17.06
					s0.174-7.523,0.626-11.487c0.313-2.747,0.768-3.611,1.626-3.474c0,0,1.531,2.348,5.868,2.673
					c4.338,0.325,5.796-1.475,5.796-1.475s1.265-0.298,1.72,1.475c0.455,1.773,1.273,20.991,0.482,26.529
					c-0.792,5.538-3.273,8.111-6.599,8.89c-3.326,0.78-11.036-3.882-20.294-10.108c-9.259-6.227-19.313-12.031-19.313-12.031
					L348.515,233.559z"/>
				<path style="opacity:0.7;fill:#FFFFFF;" d="M348.515,233.559c4.637,0.202,8.25,0.305,12.203,2.587
					c3.953,2.282,21.607,17.06,21.607,17.06s0.174-7.523,0.626-11.487c0.313-2.747,0.768-3.611,1.626-3.474
					c0,0,1.531,2.348,5.868,2.673c4.338,0.325,5.796-1.475,5.796-1.475s1.265-0.298,1.72,1.475
					c0.455,1.773,1.273,20.991,0.482,26.529c-0.792,5.538-3.273,8.111-6.599,8.89c-3.326,0.78-11.036-3.882-20.294-10.108
					c-9.259-6.227-19.313-12.031-19.313-12.031L348.515,233.559z"/>
				<path style="opacity:0.1;" d="M382.325,253.206c-0.753,5.158,0.381,10.789,0.381,10.789s-3.386-6.542-2.342-12.531
					L382.325,253.206z"/>
			</g>
			<g>
				<path id="XMLID_28996_" style="fill:#FAFAFA;" d="M310.398,237.62c-0.764,4.051-8.461,42.549,0.293,71.257
					c15.764,1.859,43.45-5.378,47.601-15.811c0,0-2.797-9.9-4.01-14.741c0.257-7.943-0.002-23.1-0.163-27.79
					c-0.318-9.294-1.769-16.483-6.38-17.162c0,0-9.259-0.366-14.862-0.137c-4.84,0.198-8.477,0.25-8.477,0.25L310.398,237.62z"/>
				<path style="fill:#F0F0F0;" d="M333.553,298.811c-1.018-2.259-19.73-13.812-19.73-13.812s0.285-5.351,1.399-15.198
					c1.115-9.847,1.443-21.648-2.105-27.579l-3.579,0.14c-2.023,11.944-6.136,42.613,1.152,66.515
					c8.405,0.991,20.197-0.604,30.006-3.89C338.888,303.773,334.364,300.611,333.553,298.811z"/>
				<g>
					<path style="fill:#455A64;" d="M322.778,224.45c0.031-1.991-3.787-7.943-5.515-12.649c-2.89-7.871-3.143-14.936,3.99-18.004
						c0,0,4.46-7.69,15.703-8.073c11.243-0.383,19.885,9.108,16.151,21.796L322.778,224.45z"/>
					<g id="XMLID_28983_">
						<g id="XMLID_28990_">
							<path id="XMLID_28992_" style="fill:#FFA8A7;" d="M325.557,212.291c-1.468-0.001-2.002-2.108-3.01-3.24
								c-1.007-1.131-4.481-2.405-6.718,0.834c-2.077,3.008-0.059,7.341,2.209,9.018c2.855,2.112,4.824,0.074,4.824,0.074
								l-0.259,15.89c0,0,0.506,3.523,6.996,5.568c7.496,2.362,13.597-1.585,9.132-6.53l0.166-4.187
								c2.129,0.481,5.038,0.74,7.247,0.404c2.5-0.38,4.503-2.263,5.788-6.118c2.508-7.525,1.812-17.561-0.778-26.723
								c-2.473,1.956-13.919,5.624-24.228,1.988C327.294,205.598,326.991,212.291,325.557,212.291z"/>
							<path style="fill:#263238;" d="M321.483,217.196c0,0.514-0.417,0.93-0.93,0.93c-0.514,0-0.93-0.416-0.93-0.93
								c0-0.514,0.417-0.93,0.93-0.93C321.067,216.266,321.483,216.682,321.483,217.196z"/>
							<path id="XMLID_28991_" style="fill:#F28F8F;" d="M338.899,229.719c0,0-6.256-1.826-8.723-3.557
								c-1.821-1.277-3.444-3.31-3.837-4.377c0,0,0.937,3.354,2.643,5.293c2.986,3.393,9.835,4.96,9.835,4.96L338.899,229.719z"/>
						</g>
						<g id="XMLID_28984_">
							<path id="XMLID_28989_" style="fill:#263238;" d="M338.396,212.205c0.016,0.893-0.667,1.629-1.527,1.643
								c-0.86,0.014-1.571-0.699-1.587-1.593c-0.017-0.894,0.667-1.629,1.527-1.643
								C337.668,210.599,338.379,211.312,338.396,212.205z"/>
							<path id="XMLID_28987_" style="fill:#263238;" d="M336.694,206.894l-3.366,1.774c-0.473-0.966-0.102-2.147,0.827-2.637
								C335.085,205.542,336.222,205.928,336.694,206.894z"/>
							<path id="XMLID_28988_" style="fill:#F28F8F;" d="M337.907,220.39l5.355,1.707c-0.528,1.499-2.155,2.332-3.633,1.86
								C338.149,223.486,337.379,221.889,337.907,220.39z"/>
							<path id="XMLID_28986_" style="fill:#263238;" d="M351.105,206.827l-3.698-1.013c0.243-1.04,1.269-1.656,2.29-1.376
								C350.718,204.717,351.348,205.787,351.105,206.827z"/>
							<path id="XMLID_28985_" style="fill:#263238;" d="M350.148,210.977c0.017,0.893-0.667,1.629-1.527,1.642
								c-0.86,0.013-1.571-0.699-1.587-1.593c-0.017-0.893,0.667-1.629,1.527-1.643C349.421,209.37,350.131,210.083,350.148,210.977
								z"/>
						</g>
					</g>
					<path style="fill:#37474F;" d="M351.871,197.282c3.457-2.464,5.38-5.758,4.462-10.294c-1.348,1.355-5.129,1.597-8.438,0.019
						c-3.528-1.684-9.125-3.969-16.957-2.453c-6.108,1.182-9.685,5.827-9.685,9.243c1.195,2.445,2.839,3.747,5.676,5.473
						c0,0,5.857,4.792,14.74,4.243c5.714-0.353,8.679-3.14,8.679-3.14s-3.193,0.281-4.687-0.711
						C345.661,199.661,349.287,199.123,351.871,197.282z"/>
					<g id="XMLID_28981_">
						<polygon id="XMLID_28982_" style="fill:#F28F8F;" points="343.451,218.405 348.22,216.229 342.126,207.826 						"/>
					</g>
				</g>
			</g>
			<g id="Laptop_1_">
				<path style="opacity:0.15;" d="M395.834,319.535c-0.406-0.62-0.885-1.18-1.449-1.701c-5.558-5.145-15.997-11.944-24.868-17.594
					l-40.356,23.303c-0.247,0.143-0.247,0.5,0,0.642l29.308,16.924L395.834,319.535z"/>
				<g id="XMLID_28964_">
					<g>
						<g id="XMLID_28980_">
							<path style="fill:#37474F;" d="M408.07,307.686v0.652c0,0.956-0.509,1.841-1.34,2.323l-46.922,27.089
								c-0.411,0.241-0.88,0.355-1.335,0.355c-0.465,0-0.929-0.116-1.349-0.357l-25.576-14.718
								c-0.822-0.474-1.337-1.367-1.337-2.323v-0.903h0.006v0.009c0,0.116,0.054,0.223,0.17,0.295l28.087,16.22L408.07,307.686z"/>
						</g>
						<g id="XMLID_28979_">
							<path style="fill:#263238;" d="M358.47,336.323v1.785c0.461,0,0.925-0.117,1.339-0.357l46.922-27.089
								c0.831-0.479,1.343-1.367,1.343-2.325v-0.653L358.47,336.323z"/>
						</g>
						<g id="XMLID_28978_">
							<path style="fill:#455A64;" d="M408.074,307.684l-27.821-16.061c-0.495-0.285-1.104-0.285-1.599,0l-48.266,27.87
								c-0.237,0.137-0.237,0.479,0,0.616l28.082,16.216L408.074,307.684z"/>
						</g>
						<g>
							<g id="XMLID_28972_">
								<polygon style="fill:#37474F;" points="358.214,333.962 343.208,325.308 387.086,299.975 402.169,308.585 								"/>
							</g>
							<g id="XMLID_28971_">
								<polygon style="fill:#263238;" points="402.169,308.584 401.596,308.914 387.084,300.634 343.783,325.639 343.211,325.309 
									387.084,299.974 								"/>
							</g>
						</g>
						<g>
							<g id="XMLID_28970_">
								<polygon style="fill:#263238;" points="350.839,309.887 351.116,310.047 358.47,314.292 371.55,306.741 371.822,306.585 
									364.19,302.18 								"/>
							</g>
							<g id="XMLID_28969_">
								<polygon style="fill:#37474F;" points="351.116,310.047 358.47,314.292 371.55,306.741 364.19,302.495 								"/>
							</g>
						</g>
					</g>
					<g id="Arm_5_">
						<path style="fill:#FFA8A7;" d="M365.073,315.143c-2.105-2.087-5.157-4.98-7.722-5.83c-0.331-0.106-0.829-0.338-1.803-0.561
							c0.884-0.174,1.773-0.236,2.636-0.527c0.856-0.288,1.673-0.762,2.227-1.476c0.223-0.287,0.38-0.746,0.099-0.976
							c-0.102-0.083-0.234-0.13-0.365-0.134c-1.922-0.058-3.437-0.357-5.182-0.483c-0.762-0.055-1.619-0.157-2.354,0.043
							c-0.716,0.195-1.43,0.403-2.132,0.646c-3.188,1.103-6.095,2.096-10.609,1.044l-8.122-4.333c0,0-1.735-0.434-4.293,3.897
							c-2.558,4.331-1.063,6.709-1.063,6.709l9.123,3.15c0,0,0,0,0-0.001c0.045,0.017,0.085,0.033,0.132,0.051
							c1.004,0.376,1.907,1.16,4.305,1.896c2.843,0.872,6.48-0.16,8.95-0.291c2.47-0.132,6.657,1.01,8.948,1.94
							c2.291,0.93,5.042-2.599,6.191-2.174C365.188,318.158,367.178,317.229,365.073,315.143z"/>
						<path style="fill:#F28F8F;" d="M354.484,307.393c-1.664-0.169-3.497,0.566-3.497,0.566s2.054,0.043,4.561,0.794
							c0.884-0.174,1.773-0.236,2.636-0.527c0.756-0.255,1.481-0.654,2.021-1.236C358.823,307.929,356.146,307.562,354.484,307.393z
							"/>
						<g>
							<path style="fill:#27DEBF;" d="M310.398,237.62c2.311,0.913,5.318,10.547,3.466,19.817l-4.302,28.986
								c0,0,5.27,3.12,12.665,7.7c5.125,3.174,9.518,6.084,9.52,8.435c-3.356,1.206-6.372,7.385-5.356,10.606
								c-2.292,2.716-23.45-9.013-30.848-14.073c-3.43-2.346-5.159-3.271-3.839-13.861c1.46-11.721,2.461-24.742,4.745-33.431
								C298.83,242.728,301.483,239.207,310.398,237.62z"/>
							<path style="opacity:0.7;fill:#FFFFFF;" d="M310.398,237.62c2.311,0.913,5.318,10.547,3.466,19.817l-4.302,28.986
								c0,0,5.27,3.12,12.665,7.7c5.125,3.174,9.518,6.084,9.52,8.435c-3.356,1.206-6.372,7.385-5.356,10.606
								c-2.292,2.716-23.45-9.013-30.848-14.073c-3.43-2.346-5.159-3.271-3.839-13.861c1.46-11.721,2.461-24.742,4.745-33.431
								C298.83,242.728,301.483,239.207,310.398,237.62z"/>
						</g>
					</g>
					<g>
						<g id="XMLID_28968_">
							<path style="fill:#37474F;" d="M359.226,336.719c0.888,0.343,1.897,0.277,2.738-0.211l46.715-26.971
								c0.822-0.474,1.386-1.287,1.545-2.221l5.115-30.499c0.028-0.174,0.042-0.348,0.042-0.521c0-0.85-0.338-1.663-0.939-2.259
								l-48.547,28.033c-0.606,0.352-1.024,0.953-1.141,1.644L359.226,336.719z"/>
						</g>
						<g id="XMLID_28967_">
							<path style="fill:#455A64;" d="M358.47,336.325l0.32,0.183c0.141,0.08,0.286,0.15,0.436,0.211l5.528-33.007
								c0.117-0.69,0.535-1.292,1.141-1.644l48.547-28.033c-0.188-0.188-0.409-0.352-0.648-0.493l-48.646,28.085
								c-0.606,0.352-1.024,0.953-1.141,1.644L358.47,336.325z"/>
						</g>
						<g id="XMLID_28966_">
							<path style="fill:#263238;" d="M365.205,302.691l-0.753-0.435c-0.223,0.297-0.381,0.64-0.445,1.015l-5.537,33.054
								l0.319,0.183c0.141,0.08,0.286,0.15,0.437,0.211l5.528-33.007C364.818,303.335,364.979,302.989,365.205,302.691z"/>
						</g>
						<g id="XMLID_28965_">
							<path style="fill:#27DEBF;" d="M385.537,308.565c0.343-2.042,2.451-4.754,4.709-6.058c2.258-1.303,3.811-0.705,3.469,1.337
								c-0.343,2.042-2.451,4.754-4.709,6.058C386.747,311.205,385.194,310.607,385.537,308.565z"/>
						</g>
					</g>
				</g>
			</g>
		</g>
	</g>
</g>
</svg>
