<?xml version="1.0" encoding="utf-8"?>
<!-- Generator: Adobe Illustrator 27.5.0, SVG Export Plug-In . SVG Version: 6.00 Build 0)  -->
<svg version="1.1" xmlns="http://www.w3.org/2000/svg" xmlns:xlink="http://www.w3.org/1999/xlink" x="0px" y="0px"
	 viewBox="0 0 500 500" style="enable-background:new 0 0 500 500;" xml:space="preserve">
<g id="Background_Simple">
	<g>
		<path style="fill:#92E3A9;" d="M453.064,406.878c-1.775,2.907-3.617,5.758-5.536,8.54
			c-25.553,37.039-67.129,61.769-107.188,72.415c-17.549,4.673-35.499,6.888-53.367,7.108
			c-117.194,1.39-157.58-100.475-194.625-127.434C55.303,340.55-1.427,294.674,8.265,201.66
			c7.358-70.721,47.75-137.474,119.102-166.471c7.859-3.204,16.101-5.949,24.713-8.179c16.021-4.151,33.331-6.569,51.923-6.947
			c53.403-1.091,96.362,13.456,137.845,48.349c9.643,8.111,19.207,17.225,31.96,18.529c9.271,0.948,18.168-2.306,8.703-11.927
			c-11.124-11.309,2.607-32.623,31.182-16.822c47.727,26.391,66.216,81.128,74.156,136.505
			C497.596,262.669,489.826,346.683,453.064,406.878z"/>
		<path style="opacity:0.7;fill:#FFFFFF;" d="M453.064,406.878c-1.775,2.907-3.617,5.758-5.536,8.54
			c-25.553,37.039-67.129,61.769-107.188,72.415c-17.549,4.673-35.499,6.888-53.367,7.108
			c-117.194,1.39-157.58-100.475-194.625-127.434C55.303,340.55-1.427,294.674,8.265,201.66
			c7.358-70.721,47.75-137.474,119.102-166.471c7.859-3.204,16.101-5.949,24.713-8.179c16.021-4.151,33.331-6.569,51.923-6.947
			c53.403-1.091,96.362,13.456,137.845,48.349c9.643,8.111,19.207,17.225,31.96,18.529c9.271,0.948,18.168-2.306,8.703-11.927
			c-11.124-11.309,2.607-32.623,31.182-16.822c47.727,26.391,66.216,81.128,74.156,136.505
			C497.596,262.669,489.826,346.683,453.064,406.878z"/>
	</g>
</g>
<g id="Devices_2">
	<g>
		<path style="fill:none;stroke:#263238;strokeLinecap:round;strokeLinejoin:round;stroke-miterlimit:10;" d="M381.398,446.295
			l-37.077,7.885c-2.802,0.596-5.557-1.193-6.153-3.995l-16.431-77.261c-0.596-2.802,1.193-5.557,3.995-6.153l37.077-7.885
			c2.802-0.596,5.557,1.193,6.153,3.995l16.432,77.261C385.989,442.944,384.2,445.699,381.398,446.295z"/>
		<polyline style="fill:none;stroke:#263238;strokeLinecap:round;strokeLinejoin:round;stroke-miterlimit:10;" points="
			351.571,368.469 367.063,365.174 382.726,438.82 340.067,447.892 324.404,374.247 346.902,369.462 		"/>
		<path style="fill:none;stroke:#263238;strokeLinecap:round;strokeLinejoin:round;stroke-miterlimit:10;" d="M444.289,432.92
			l-37.077,7.885c-2.802,0.596-5.557-1.193-6.153-3.995l-16.432-77.261c-0.596-2.802,1.193-5.557,3.995-6.153l37.077-7.885
			c2.802-0.596,5.557,1.193,6.153,3.995l16.432,77.261C448.879,429.569,447.091,432.324,444.289,432.92z"/>
		<polyline style="fill:none;stroke:#263238;strokeLinecap:round;strokeLinejoin:round;stroke-miterlimit:10;" points="
			429.572,428.857 402.957,434.517 387.295,360.871 429.953,351.799 445.616,425.444 433.917,427.932 		"/>
		<path style="fill:#263238;" d="M401.789,343.876l-4.124-13.736l-3.587,3.809c-6.802-4.154-15.027-5.587-22.854-3.922
			c-14.57,3.099-25.002,16.142-24.806,31.016c0.015,1.103,0.921,1.986,2.024,1.971c0.134-0.002,0.266-0.017,0.392-0.043
			c0.913-0.194,1.593-1.011,1.58-1.98c-0.171-12.973,8.93-24.351,21.642-27.055c6.658-1.416,13.392-0.347,19.217,2.993l-3.441,3.653
			L401.789,343.876z"/>
		<path style="fill:#263238;" d="M366.919,457.623l4.124,13.736l3.587-3.809c6.802,4.154,15.027,5.586,22.854,3.922
			c14.57-3.099,25.002-16.142,24.806-31.016c-0.015-1.103-0.921-1.986-2.024-1.971c-0.134,0.002-0.266,0.017-0.392,0.043
			c-0.913,0.194-1.593,1.011-1.58,1.98c0.171,12.973-8.93,24.351-21.642,27.055c-6.658,1.416-13.392,0.347-19.217-2.993l3.441-3.653
			L366.919,457.623z"/>
		<g>
			<g>
				
					<rect x="330.883" y="380.309" transform="matrix(0.9781 -0.208 0.208 0.9781 -72.6873 78.1546)" style="fill:none;stroke:#263238;strokeLinecap:round;strokeLinejoin:round;stroke-miterlimit:10;" width="8.744" height="8.744"/>
				
					<rect x="343.713" y="377.581" transform="matrix(0.9781 -0.208 0.208 0.9781 -71.8424 80.7684)" style="fill:none;stroke:#263238;strokeLinecap:round;strokeLinejoin:round;stroke-miterlimit:10;" width="8.744" height="8.744"/>
				
					<rect x="356.543" y="374.852" transform="matrix(0.9781 -0.208 0.208 0.9781 -70.9942 83.3777)" style="fill:none;stroke:#263238;strokeLinecap:round;strokeLinejoin:round;stroke-miterlimit:10;" width="8.744" height="8.744"/>
			</g>
			<g>
				
					<rect x="333.773" y="393.894" transform="matrix(0.9781 -0.208 0.208 0.9781 -75.4535 79.0574)" style="fill:none;stroke:#263238;strokeLinecap:round;strokeLinejoin:round;stroke-miterlimit:10;" width="8.744" height="8.744"/>
				
					<rect x="346.602" y="391.165" transform="matrix(0.9781 -0.208 0.208 0.9781 -74.6051 81.6666)" style="fill:none;stroke:#263238;strokeLinecap:round;strokeLinejoin:round;stroke-miterlimit:10;" width="8.744" height="8.744"/>
				
					<rect x="359.432" y="388.437" transform="matrix(0.9781 -0.208 0.208 0.9781 -73.7535 84.271)" style="fill:none;stroke:#263238;strokeLinecap:round;strokeLinejoin:round;stroke-miterlimit:10;" width="8.744" height="8.744"/>
			</g>
			<g>
				
					<rect x="336.662" y="407.478" transform="matrix(0.9781 -0.208 0.208 0.9781 -78.2163 79.9556)" style="fill:none;stroke:#263238;strokeLinecap:round;strokeLinejoin:round;stroke-miterlimit:10;" width="8.744" height="8.744"/>
				
					<rect x="349.491" y="404.749" transform="matrix(0.9781 -0.208 0.208 0.9781 -77.3644 82.5601)" style="fill:none;stroke:#263238;strokeLinecap:round;strokeLinejoin:round;stroke-miterlimit:10;" width="8.744" height="8.744"/>
				
					<rect x="362.321" y="402.021" transform="matrix(0.9781 -0.208 0.208 0.9781 -76.5168 85.1702)" style="fill:none;stroke:#263238;strokeLinecap:round;strokeLinejoin:round;stroke-miterlimit:10;" width="8.744" height="8.744"/>
			</g>
		</g>
		<g>
			<g>
				
					<rect x="394.025" y="366.881" transform="matrix(0.9781 -0.208 0.208 0.9781 -68.5126 90.9956)" style="fill:none;stroke:#263238;strokeLinecap:round;strokeLinejoin:round;stroke-miterlimit:10;" width="8.744" height="8.744"/>
				
					<rect x="406.855" y="364.152" transform="matrix(0.9781 -0.208 0.208 0.9781 -67.6644 93.6047)" style="fill:none;stroke:#263238;strokeLinecap:round;strokeLinejoin:round;stroke-miterlimit:10;" width="8.744" height="8.744"/>
				
					<rect x="419.685" y="361.423" transform="matrix(0.9781 -0.208 0.208 0.9781 -66.8192 96.2193)" style="fill:none;stroke:#263238;strokeLinecap:round;strokeLinejoin:round;stroke-miterlimit:10;" width="8.744" height="8.744"/>
			</g>
			<g>
				
					<rect x="396.914" y="380.465" transform="matrix(0.9781 -0.208 0.208 0.9781 -71.2752 91.8937)" style="fill:none;stroke:#263238;strokeLinecap:round;strokeLinejoin:round;stroke-miterlimit:10;" width="8.744" height="8.744"/>
				
					<rect x="409.744" y="377.736" transform="matrix(0.9781 -0.208 0.208 0.9781 -70.4302 94.5082)" style="fill:none;stroke:#263238;strokeLinecap:round;strokeLinejoin:round;stroke-miterlimit:10;" width="8.744" height="8.744"/>
				
					<rect x="422.574" y="375.008" transform="matrix(0.9781 -0.208 0.208 0.9781 -69.5819 97.1175)" style="fill:none;stroke:#263238;strokeLinecap:round;strokeLinejoin:round;stroke-miterlimit:10;" width="8.744" height="8.744"/>
			</g>
			<g>
				
					<rect x="399.804" y="394.049" transform="matrix(0.9781 -0.208 0.208 0.9781 -74.0413 92.7972)" style="fill:none;stroke:#263238;strokeLinecap:round;strokeLinejoin:round;stroke-miterlimit:10;" width="8.744" height="8.744"/>
				
					<rect x="412.633" y="391.321" transform="matrix(0.9781 -0.208 0.208 0.9781 -73.193 95.4066)" style="fill:none;stroke:#263238;strokeLinecap:round;strokeLinejoin:round;stroke-miterlimit:10;" width="8.744" height="8.744"/>
				
					<rect x="425.463" y="388.592" transform="matrix(0.9781 -0.208 0.208 0.9781 -72.3414 98.0101)" style="fill:none;stroke:#263238;strokeLinecap:round;strokeLinejoin:round;stroke-miterlimit:10;" width="8.744" height="8.744"/>
			</g>
		</g>
	</g>
</g>
<g id="Coins">
	<g>
		<path style="fill:#263238;" d="M446.332,215.303l6.032-8.165l-3.68-0.416c-0.533-5.616-3.211-10.884-7.475-14.612
			c-7.938-6.94-19.754-7.315-28.097-0.893c-0.618,0.477-0.734,1.364-0.258,1.983c0.058,0.075,0.122,0.144,0.191,0.204
			c0.497,0.435,1.249,0.473,1.792,0.055c7.277-5.602,17.585-5.273,24.511,0.781c3.627,3.171,5.879,7.44,6.458,12.158l-3.53-0.399
			L446.332,215.303z"/>
		<path style="fill:#263238;" d="M379.537,226.838l-6.032,8.165l3.68,0.416c0.533,5.616,3.211,10.884,7.475,14.612
			c7.938,6.94,19.754,7.315,28.097,0.893c0.618-0.477,0.734-1.364,0.258-1.983c-0.058-0.075-0.122-0.144-0.191-0.204
			c-0.497-0.435-1.249-0.473-1.793-0.055c-7.277,5.602-17.585,5.273-24.511-0.781c-3.627-3.171-5.879-7.44-6.458-12.158l3.53,0.399
			L379.537,226.838z"/>
		<g>
			<path style="fill:none;stroke:#263238;strokeLinecap:round;strokeLinejoin:round;stroke-miterlimit:10;" d="M373.342,192.337
				c4.384-6.03,11.495-9.951,19.521-9.951c13.321,0,24.119,10.798,24.119,24.119s-10.798,24.119-24.119,24.119
				c-13.321,0-24.119-10.798-24.119-24.119c0-2.647,0.426-5.195,1.214-7.578"/>
			
				<ellipse transform="matrix(0.7071 -0.7071 0.7071 0.7071 -30.9545 338.2802)" style="fill:none;stroke:#263238;strokeLinecap:round;strokeLinejoin:round;stroke-miterlimit:10;" cx="392.863" cy="206.505" rx="19.88" ry="19.88"/>
			<g>
				<path style="fill:none;stroke:#263238;stroke-miterlimit:10;" d="M393.036,223.518v-3.388c-2.35-0.114-4.112-0.873-5.286-2.276
					c-1.175-1.403-1.808-3.564-1.899-6.484l5.235-0.787c0.023,1.186,0.125,2.144,0.308,2.874c0.182,0.731,0.451,1.255,0.804,1.574
					c0.353,0.32,0.781,0.479,1.283,0.479c0.638,0,1.054-0.216,1.249-0.651c0.194-0.433,0.291-0.889,0.291-1.369
					c0-1.14-0.268-2.104-0.804-2.891c-0.537-0.787-1.272-1.579-2.207-2.378l-2.43-2.087c-0.684-0.616-1.305-1.249-1.864-1.899
					c-0.559-0.651-1.01-1.403-1.352-2.258c-0.342-0.855-0.513-1.876-0.513-3.063c0-2.166,0.621-3.866,1.865-5.099
					c1.242-1.232,2.913-1.927,5.013-2.087v-3.251h1.745v3.216c1.323,0.069,2.384,0.371,3.183,0.907
					c0.798,0.537,1.397,1.197,1.796,1.984c0.398,0.788,0.673,1.621,0.821,2.499c0.148,0.878,0.234,1.693,0.257,2.446l-5.304,0.651
					c-0.023-0.822-0.074-1.54-0.154-2.156c-0.08-0.616-0.239-1.088-0.479-1.42c-0.24-0.33-0.622-0.485-1.146-0.462
					c-0.571,0-0.993,0.239-1.266,0.718c-0.273,0.48-0.411,0.958-0.411,1.438c0,1.095,0.279,1.979,0.838,2.652
					c0.559,0.673,1.169,1.306,1.831,1.899l2.327,2.018c0.775,0.708,1.489,1.461,2.139,2.258c0.651,0.799,1.169,1.689,1.557,2.669
					c0.388,0.981,0.582,2.11,0.582,3.388c0,1.209-0.251,2.316-0.753,3.319c-0.502,1.004-1.22,1.819-2.155,2.447
					c-0.935,0.628-2.053,1.009-3.353,1.146v3.422H393.036z"/>
			</g>
		</g>
		<g>
			
				<ellipse transform="matrix(0.2274 -0.9738 0.9738 0.2274 104.4936 603.4857)" style="fill:none;stroke:#263238;strokeLinecap:round;strokeLinejoin:round;stroke-miterlimit:10;" cx="432.571" cy="235.89" rx="24.119" ry="24.119"/>
			<path style="fill:none;stroke:#263238;strokeLinecap:round;strokeLinejoin:round;stroke-miterlimit:10;" d="M450.912,243.574
				c-3.005,7.164-10.085,12.196-18.341,12.196c-10.979,0-19.88-8.901-19.88-19.88c0-10.979,8.901-19.88,19.88-19.88
				c10.979,0,19.88,8.901,19.88,19.88"/>
			<g>
				<path style="fill:none;stroke:#263238;stroke-miterlimit:10;" d="M432.744,252.902v-3.388c-2.35-0.114-4.112-0.873-5.286-2.276
					c-1.175-1.403-1.808-3.564-1.899-6.484l5.235-0.787c0.023,1.186,0.125,2.144,0.308,2.874c0.182,0.731,0.451,1.255,0.804,1.574
					c0.353,0.32,0.781,0.48,1.283,0.48c0.638,0,1.054-0.216,1.249-0.651c0.194-0.433,0.291-0.889,0.291-1.368
					c0-1.14-0.268-2.104-0.804-2.891c-0.536-0.787-1.272-1.579-2.207-2.378l-2.43-2.087c-0.684-0.616-1.306-1.249-1.864-1.899
					c-0.56-0.651-1.01-1.403-1.352-2.259c-0.342-0.855-0.513-1.876-0.513-3.062c0-2.167,0.621-3.866,1.865-5.099
					c1.242-1.232,2.913-1.927,5.013-2.087v-3.251h1.745v3.216c1.323,0.069,2.384,0.371,3.183,0.907
					c0.798,0.536,1.397,1.197,1.796,1.984c0.399,0.788,0.673,1.621,0.821,2.499c0.148,0.878,0.234,1.693,0.257,2.446l-5.304,0.651
					c-0.023-0.822-0.074-1.54-0.154-2.156c-0.08-0.616-0.239-1.088-0.479-1.42c-0.24-0.33-0.622-0.485-1.146-0.462
					c-0.571,0-0.993,0.239-1.266,0.718c-0.273,0.479-0.41,0.958-0.41,1.438c0,1.095,0.279,1.979,0.838,2.652
					c0.559,0.673,1.169,1.306,1.831,1.899l2.327,2.018c0.775,0.708,1.489,1.461,2.139,2.259c0.651,0.799,1.169,1.689,1.557,2.669
					c0.388,0.981,0.582,2.11,0.582,3.388c0,1.209-0.251,2.316-0.753,3.319c-0.502,1.004-1.22,1.819-2.155,2.447
					c-0.935,0.628-2.053,1.009-3.353,1.146v3.422H432.744z"/>
			</g>
		</g>
	</g>
</g>
<g id="Credit_card">
	<g>
		<g>
			<path style="fill:none;stroke:#263238;strokeLinecap:round;strokeLinejoin:round;stroke-miterlimit:10;" d="M115.604,82.607
				L96.707,69.75c-1.994-1.357-2.511-4.073-1.154-6.067l18.45-27.118c1.357-1.994,4.073-2.511,6.067-1.154l47.106,32.05
				c1.994,1.357,2.51,4.073,1.154,6.067l-18.45,27.118c-1.357,1.994-4.073,2.51-6.067,1.154L120.63,86.026"/>
			
				<rect x="130.237" y="29.601" transform="matrix(0.5625 -0.8268 0.8268 0.5625 7.9156 139.8701)" style="fill:#263238;stroke:#263238;strokeLinecap:round;strokeLinejoin:round;stroke-miterlimit:10;" width="11.778" height="65.709"/>
		</g>
		<g id="crgtaD.tif">
			<g>
				<path style="fill:#263238;" d="M182.746,96.296c-0.097-0.044-0.195-0.085-0.29-0.131c-1.503-0.738-1.663-2.813-0.277-3.763
					c1.339-0.917,2.586-1.939,3.71-3.111c2.078-2.167,3.65-4.655,4.73-7.455c0.643-1.668,1.087-3.391,1.304-5.165
					c0.67-5.471-0.482-10.529-3.483-15.157c-0.264-0.407-0.446-0.83-0.453-1.32c-0.014-0.959,0.61-1.824,1.526-2.112
					c0.922-0.291,1.917,0.049,2.459,0.851c0.787,1.165,1.473,2.389,2.063,3.665c1.58,3.422,2.394,7.02,2.46,10.787
					c0.027,1.528-0.083,3.048-0.326,4.558c-0.009,0.054-0.006,0.111-0.009,0.166c-0.119,0.599-0.238,1.198-0.357,1.796
					c-0.022,0.067-0.046,0.134-0.065,0.201c-0.216,0.752-0.407,1.513-0.653,2.256c-0.656,1.982-1.551,3.855-2.66,5.624
					c-2.026,3.231-4.628,5.903-7.794,8.026c-0.365,0.245-0.768,0.366-1.206,0.373c-0.066,0.001-0.131,0.004-0.197,0.006
					C183.065,96.359,182.906,96.328,182.746,96.296z"/>
				<path style="fill:#263238;" d="M188.182,77.508c-1.077,5.03-3.735,9.057-8.027,11.992c-0.729,0.498-1.638,0.491-2.349-0.001
					c-0.7-0.484-1.033-1.35-0.829-2.186c0.128-0.526,0.427-0.938,0.876-1.241c1.064-0.717,2.024-1.553,2.87-2.519
					c1.389-1.587,2.416-3.381,3.013-5.405c1.314-4.454,0.731-8.652-1.784-12.559c-0.679-1.055-0.389-2.355,0.59-2.968
					c0.953-0.596,2.188-0.325,2.82,0.626c1.438,2.162,2.405,4.516,2.877,7.071c0.367,1.986,0.414,3.979,0.132,5.98
					C188.316,76.685,188.25,77.071,188.182,77.508z"/>
				<path style="fill:#263238;" d="M180.874,76.004c-0.653,3.081-2.261,5.529-4.866,7.309c-0.701,0.479-1.453,0.516-2.189,0.095
					c-0.725-0.414-1.07-1.072-1.028-1.906c0.034-0.672,0.351-1.203,0.907-1.581c0.879-0.598,1.629-1.326,2.162-2.246
					c1.537-2.655,1.529-5.313-0.068-7.943c-0.313-0.515-0.478-1.039-0.36-1.637c0.16-0.813,0.789-1.446,1.601-1.614
					c0.807-0.167,1.643,0.164,2.105,0.855c1.178,1.759,1.831,3.698,1.945,5.814C181.134,74.109,181.062,75.06,180.874,76.004z"/>
			</g>
		</g>
	</g>
</g>
<g id="Cart">
	<g>
		<g>
			
				<polyline style="fill:none;stroke:#263238;strokeWidth:2;strokeLinecap:round;strokeLinejoin:round;stroke-miterlimit:10;" points="
				22.653,203.674 32.847,203.674 45.748,245.705 81.709,245.705 			"/>
			
				<polyline style="fill:none;stroke:#263238;strokeWidth:2;strokeLinecap:round;strokeLinejoin:round;stroke-miterlimit:10;" points="
				35.994,213.249 89.712,213.249 83.363,236.69 43.319,236.69 			"/>
			
				<line style="fill:none;stroke:#263238;strokeWidth:2;strokeLinecap:round;strokeLinejoin:round;stroke-miterlimit:10;" x1="54.197" y1="213.546" x2="56.509" y2="236.048"/>
			
				<line style="fill:none;stroke:#263238;strokeWidth:2;strokeLinecap:round;strokeLinejoin:round;stroke-miterlimit:10;" x1="71.213" y1="213.546" x2="68.902" y2="236.048"/>
			
				<circle style="fill:none;stroke:#263238;strokeWidth:2;strokeLinecap:round;strokeLinejoin:round;stroke-miterlimit:10;" cx="80.998" cy="251.193" r="5.455"/>
			
				<circle style="fill:none;stroke:#263238;strokeWidth:2;strokeLinecap:round;strokeLinejoin:round;stroke-miterlimit:10;" cx="47.794" cy="251.193" r="5.455"/>
			
				<line style="fill:none;stroke:#263238;strokeWidth:2;strokeLinecap:round;strokeLinejoin:round;stroke-miterlimit:10;" x1="39.73" y1="225.816" x2="86.453" y2="225.816"/>
		</g>
		<g>
			<circle style="fill:#263238;" cx="97" cy="210.409" r="20.015"/>
			
				<polyline style="fill:none;stroke:#FFFFFF;strokeWidth:3;strokeLinecap:round;strokeLinejoin:round;stroke-miterlimit:10;" points="
				91.286,208.997 95.04,215.567 108.18,202.427 			"/>
		</g>
	</g>
</g>
<g id="Device_1">
	<g>
		<path style="fill:#757575;stroke:#263238;strokeLinecap:round;strokeLinejoin:round;stroke-miterlimit:10;" d="M187.916,123.515
			c0,0-6.954,1.58-7.27,9.166c-0.316,7.586-1.896,64.164,0.632,126.432c2.529,62.268,8.218,132.437,9.166,139.075
			c0.948,6.638,6.322,6.954,8.218,7.902c1.896,0.948,30.976,3.161,48.044,3.161s44.883-3.161,48.36-4.109
			c3.477-0.948,5.057-7.586,6.005-12.327c0.948-4.741,0.632-11.379,0.632-11.379l4.741-103.042c0,0,1.896-70.17,1.896-93.876
			c0-23.706,0.316-49.309-0.948-54.366c-1.264-5.057-7.27-8.534-7.27-8.534s-3.477-2.213-8.534-3.161
			c-5.057-0.948-11.063,0.316-11.063,0.316l-70.17,0.316c0,0-1.264-1.58-5.373-0.948c-4.109,0.632-12.011,1.264-14.54,2.529
			C187.916,121.934,187.916,123.515,187.916,123.515z"/>
		<path style="fill:#263238;stroke:#263238;strokeLinecap:round;strokeLinejoin:round;stroke-miterlimit:10;" d="M191.393,166.818
			l1.896,79.336c0,0,0,35.085,1.264,39.194c1.264,4.109,7.27,5.689,10.115,6.322c2.845,0.632,19.913,2.845,44.567,2.529
			c24.654-0.316,39.826-1.58,44.567-5.689c4.741-4.109,4.425-8.534,4.425-12.643c0-4.109,0.632-110.312,0.632-110.312
			L191.393,166.818z"/>
		
			<rect x="199.611" y="194.949" style="fill:#FFFFFF;stroke:#263238;strokeLinecap:round;strokeLinejoin:round;stroke-miterlimit:10;" width="91.347" height="70.802"/>
		<path style="fill:#919191;stroke:#263238;strokeLinecap:round;strokeLinejoin:round;stroke-miterlimit:10;" d="M198.663,125.411
			l-7.912,26.189c-0.383,1.088-0.383,2.275,0.001,3.363l0,0c0.764,2.163,2.873,3.403,5.167,3.358
			c13.035-0.254,29.841-0.458,50.778-0.453c19.694,0.005,36.598-0.535,43.139,0.102c3.129,0.304,6.076-1.511,7.222-4.439
			l-0.343,0.999c0.573-1.464,0.984-4.072,0.532-5.577c-1.968-6.561-5.764-23.041-7.318-24.335c-1.896-1.58-7.586-2.845-8.534-2.845
			c-0.948,0-67.56,0.478-71.985,1.11C204.985,123.515,201.508,121.934,198.663,125.411z"/>
		<g>
			<path style="fill:#FFFFFF;stroke:#263238;strokeLinecap:round;strokeLinejoin:round;stroke-miterlimit:10;" d="
				M271.335,275.111c0,0,2.63,7.67,3.506,9.642s3.944,2.849,5.259,2.849c1.315,0,10.299-1.315,11.614-2.63
				c1.315-1.315,1.534-5.916,1.096-8.108c-0.438-2.191-0.657-2.191-2.63-2.191C288.208,274.672,271.335,275.111,271.335,275.111z"/>
			<path style="fill:#FFFFFF;stroke:#263238;strokeLinecap:round;strokeLinejoin:round;stroke-miterlimit:10;" d="
				M196.173,274.015c0,0-0.657,9.642,1.972,11.395c2.63,1.753,19.941,3.506,19.722,2.41c-0.219-1.096-3.725-12.71-5.478-13.148
				C210.636,274.234,196.173,274.015,196.173,274.015z"/>
			<path style="fill:#FFFFFF;stroke:#263238;strokeLinecap:round;strokeLinejoin:round;stroke-miterlimit:10;" d="M219.62,275.987
				c0,0,3.287,9.861,5.478,11.395c2.191,1.534,3.944,1.753,5.478,1.753c1.534,0,25.638,0.438,29.802,0.438
				c4.163,0,8.327-1.534,8.327-2.191c0-0.657-4.602-10.518-5.697-11.395c-1.096-0.877-3.068-0.877-3.944-0.877
				c-0.876,0-36.595-0.219-37.69-0.438C220.277,274.453,219.62,274.672,219.62,275.987z"/>
			
				<line style="fill:none;stroke:#263238;strokeLinecap:round;strokeLinejoin:round;stroke-miterlimit:10;" x1="237.808" y1="288.259" x2="250.736" y2="275.549"/>
			<polygon style="fill:#263238;stroke:#263238;strokeLinecap:round;strokeLinejoin:round;stroke-miterlimit:10;" points="
				259.063,278.617 255.338,282.123 261.036,282.123 			"/>
			<polygon style="fill:#263238;stroke:#263238;strokeLinecap:round;strokeLinejoin:round;stroke-miterlimit:10;" points="
				228.166,282.78 231.234,286.505 234.959,283.219 			"/>
			<g>
				<rect x="278.566" y="279.279" style="fill:#263238;" width="9.861" height="1.744"/>
			</g>
			<g>
				<rect x="199.898" y="279.279" style="fill:#263238;" width="9.861" height="1.744"/>
			</g>
		</g>
		<g>
			<path style="fill:none;stroke:#263238;strokeLinecap:round;strokeLinejoin:round;stroke-miterlimit:10;" d="M203.185,298.777
				c0,0-0.642-0.096-1.533-0.105c-1.437-0.013-3.521,0.202-4.603,1.419c-1.753,1.972-0.656,10.111,0.438,11.614
				c1.852,2.544,21.694,4.163,23.447,3.725c1.753-0.438,2.849-0.876,3.068-3.287c0.219-2.41,0.876-8.546-1.096-10.299
				C220.935,300.092,203.185,298.777,203.185,298.777z"/>
			<path style="fill:#263238;stroke:#263238;strokeLinecap:round;strokeLinejoin:round;stroke-miterlimit:10;" d="
				M204.246,301.091c0,0-0.545-0.073-1.301-0.079c-1.22-0.01-2.989,0.152-3.908,1.071c-1.488,1.488-0.557,7.631,0.372,8.765
				c1.572,1.92,18.418,3.142,19.906,2.812c1.488-0.331,2.419-0.661,2.605-2.481c0.186-1.819,0.744-6.45-0.93-7.773
				C219.315,302.084,204.246,301.091,204.246,301.091z"/>
		</g>
		<g>
			<path style="fill:none;stroke:#263238;strokeLinecap:round;strokeLinejoin:round;stroke-miterlimit:10;" d="M203.185,319.328
				c0,0-0.642-0.096-1.533-0.105c-1.437-0.013-3.521,0.202-4.603,1.419c-1.753,1.972-0.656,10.111,0.438,11.614
				c1.852,2.544,21.694,4.163,23.447,3.725c1.753-0.438,2.849-0.876,3.068-3.287c0.219-2.411,0.876-8.546-1.096-10.299
				C220.935,320.643,203.185,319.328,203.185,319.328z"/>
			<path style="fill:#263238;stroke:#263238;strokeLinecap:round;strokeLinejoin:round;stroke-miterlimit:10;" d="
				M204.246,321.643c0,0-0.545-0.073-1.301-0.079c-1.22-0.01-2.989,0.152-3.908,1.071c-1.488,1.488-0.557,7.631,0.372,8.766
				c1.572,1.92,18.418,3.142,19.906,2.812s2.419-0.662,2.605-2.481c0.186-1.819,0.744-6.45-0.93-7.773
				C219.315,322.635,204.246,321.643,204.246,321.643z"/>
		</g>
		<g>
			<path style="fill:none;stroke:#263238;strokeLinecap:round;strokeLinejoin:round;stroke-miterlimit:10;" d="M204.47,339.308
				c0,0-0.642-0.096-1.533-0.105c-1.437-0.013-3.521,0.202-4.603,1.419c-1.753,1.972-0.656,10.111,0.438,11.614
				c1.852,2.544,21.694,4.164,23.447,3.725c1.753-0.438,2.849-0.876,3.068-3.287c0.219-2.41,0.876-8.546-1.096-10.299
				C222.219,340.623,204.47,339.308,204.47,339.308z"/>
			<path style="fill:#263238;stroke:#263238;strokeLinecap:round;strokeLinejoin:round;stroke-miterlimit:10;" d="M205.53,341.623
				c0,0-0.545-0.073-1.301-0.079c-1.22-0.01-2.989,0.152-3.908,1.071c-1.488,1.488-0.557,7.631,0.372,8.765
				c1.573,1.92,18.418,3.142,19.906,2.812c1.488-0.331,2.419-0.661,2.604-2.481c0.186-1.819,0.744-6.45-0.93-7.773
				C220.599,342.615,205.53,341.623,205.53,341.623z"/>
		</g>
		<g>
			<path style="fill:none;stroke:#263238;strokeLinecap:round;strokeLinejoin:round;stroke-miterlimit:10;" d="M204.755,358.861
				c0,0-0.642-0.096-1.533-0.105c-1.437-0.013-3.521,0.202-4.603,1.419c-1.753,1.972-0.656,10.111,0.438,11.614
				c1.852,2.544,21.694,4.163,23.447,3.725c1.753-0.438,2.849-0.876,3.068-3.287c0.219-2.41,0.877-8.546-1.096-10.299
				C222.505,360.175,204.755,358.861,204.755,358.861z"/>
			<path style="fill:#263238;stroke:#263238;strokeLinecap:round;strokeLinejoin:round;stroke-miterlimit:10;" d="
				M205.815,361.175c0,0-0.545-0.073-1.301-0.079c-1.22-0.01-2.989,0.153-3.908,1.071c-1.488,1.488-0.557,7.631,0.372,8.766
				c1.573,1.92,18.418,3.142,19.906,2.812c1.488-0.331,2.419-0.662,2.605-2.481c0.186-1.819,0.744-6.45-0.93-7.773
				C220.885,362.168,205.815,361.175,205.815,361.175z"/>
		</g>
		<g>
			<path style="fill:none;stroke:#263238;strokeLinecap:round;strokeLinejoin:round;stroke-miterlimit:10;" d="M285.305,298.777
				c0,0,0.642-0.096,1.533-0.105c1.437-0.013,3.521,0.202,4.603,1.419c1.753,1.972,0.656,10.111-0.438,11.614
				c-1.852,2.544-21.694,4.163-23.447,3.725c-1.753-0.438-2.849-0.876-3.068-3.287c-0.219-2.41-0.876-8.546,1.096-10.299
				C267.555,300.092,285.305,298.777,285.305,298.777z"/>
			<path style="fill:#263238;stroke:#263238;strokeLinecap:round;strokeLinejoin:round;stroke-miterlimit:10;" d="
				M284.245,301.091c0,0,0.545-0.073,1.301-0.079c1.22-0.01,2.989,0.152,3.908,1.071c1.488,1.488,0.557,7.631-0.372,8.765
				c-1.573,1.92-18.418,3.142-19.906,2.812c-1.488-0.331-2.418-0.661-2.604-2.481c-0.186-1.819-0.744-6.45,0.93-7.773
				C269.175,302.084,284.245,301.091,284.245,301.091z"/>
		</g>
		<g>
			<path style="fill:none;stroke:#263238;strokeLinecap:round;strokeLinejoin:round;stroke-miterlimit:10;" d="M285.305,319.328
				c0,0,0.642-0.096,1.533-0.105c1.437-0.013,3.521,0.202,4.603,1.419c1.753,1.972,0.656,10.111-0.438,11.614
				c-1.852,2.544-21.694,4.163-23.447,3.725c-1.753-0.438-2.849-0.876-3.068-3.287c-0.219-2.411-0.876-8.546,1.096-10.299
				C267.555,320.643,285.305,319.328,285.305,319.328z"/>
			<path style="fill:#263238;stroke:#263238;strokeLinecap:round;strokeLinejoin:round;stroke-miterlimit:10;" d="
				M284.245,321.643c0,0,0.545-0.073,1.301-0.079c1.22-0.01,2.989,0.152,3.908,1.071c1.488,1.488,0.557,7.631-0.372,8.766
				c-1.573,1.92-18.418,3.142-19.906,2.812s-2.418-0.662-2.604-2.481c-0.186-1.819-0.744-6.45,0.93-7.773
				C269.175,322.635,284.245,321.643,284.245,321.643z"/>
		</g>
		<g>
			<path style="fill:none;stroke:#263238;strokeLinecap:round;strokeLinejoin:round;stroke-miterlimit:10;" d="M284.02,339.308
				c0,0,0.642-0.096,1.533-0.105c1.437-0.013,3.521,0.202,4.603,1.419c1.753,1.972,0.656,10.111-0.438,11.614
				c-1.852,2.544-21.694,4.164-23.447,3.725c-1.753-0.438-2.849-0.876-3.068-3.287c-0.219-2.41-0.876-8.546,1.096-10.299
				C266.271,340.623,284.02,339.308,284.02,339.308z"/>
			<path style="fill:#263238;stroke:#263238;strokeLinecap:round;strokeLinejoin:round;stroke-miterlimit:10;" d="M282.96,341.623
				c0,0,0.545-0.073,1.302-0.079c1.22-0.01,2.989,0.152,3.908,1.071c1.488,1.488,0.557,7.631-0.372,8.765
				c-1.573,1.92-18.418,3.142-19.906,2.812c-1.488-0.331-2.419-0.661-2.605-2.481c-0.186-1.819-0.744-6.45,0.93-7.773
				C267.891,342.615,282.96,341.623,282.96,341.623z"/>
		</g>
		<g>
			<path style="fill:none;stroke:#263238;strokeLinecap:round;strokeLinejoin:round;stroke-miterlimit:10;" d="M283.735,358.861
				c0,0,0.642-0.096,1.533-0.105c1.437-0.013,3.521,0.202,4.603,1.419c1.753,1.972,0.656,10.111-0.438,11.614
				c-1.852,2.544-21.694,4.163-23.447,3.725c-1.753-0.438-2.849-0.876-3.068-3.287c-0.219-2.41-0.876-8.546,1.096-10.299
				C265.985,360.175,283.735,358.861,283.735,358.861z"/>
			<path style="fill:#263238;stroke:#263238;strokeLinecap:round;strokeLinejoin:round;stroke-miterlimit:10;" d="
				M282.675,361.175c0,0,0.545-0.073,1.301-0.079c1.22-0.01,2.989,0.153,3.908,1.071c1.488,1.488,0.557,7.631-0.372,8.766
				c-1.573,1.92-18.418,3.142-19.906,2.812c-1.488-0.331-2.419-0.662-2.605-2.481c-0.186-1.819-0.744-6.45,0.93-7.773
				C267.605,362.168,282.675,361.175,282.675,361.175z"/>
		</g>
		<path style="fill:none;stroke:#263238;strokeLinecap:round;strokeLinejoin:round;stroke-miterlimit:10;" d="M237.448,301.547
			c0,0-4.145-0.267-5.482,0.267c-1.337,0.535-1.872,1.471-1.738,2.407c0.134,0.936,0.133,6.736,0.267,8.825
			c0.138,2.146,1.399,3.058,2.942,3.209c1.227,0.12,20.993,0.401,23.266-0.401c2.273-0.802,2.006-4.011,2.006-5.081
			s0.267-6.133-0.401-7.47c-0.669-1.337-2.808-1.872-3.878-1.738C253.36,301.699,239.721,301.28,237.448,301.547z"/>
		<path style="fill:none;stroke:#263238;strokeLinecap:round;strokeLinejoin:round;stroke-miterlimit:10;" d="M254.743,321.121
			c0,0-18.899-0.453-20.771,0.082c-1.872,0.535-3.878,1.471-3.744,3.477s-0.401,7.488,0.535,9.092
			c0.936,1.604,1.337,2.139,2.541,2.54s21.26,0.535,22.597-0.134c1.337-0.669,2.273-1.471,2.541-3.209
			c0.267-1.738,0.581-7.971-0.222-9.709C257.417,321.522,254.743,321.121,254.743,321.121z"/>
		<path style="fill:#263238;stroke:#263238;strokeLinecap:round;strokeLinejoin:round;stroke-miterlimit:10;" d="M255.365,324.278
			c0,0-17.249-0.267-19.656-0.267s-3.343,0-3.477,2.006c-0.134,2.006-0.401,8.156,0.669,8.558c1.07,0.401,10.028,0.535,15.109,0.535
			c5.081,0,7.087-0.134,7.889-0.802c0.802-0.668,0.936-4.68,0.936-6.819C256.836,325.348,256.569,323.877,255.365,324.278z"/>
		<path style="fill:#263238;stroke:#263238;strokeLinecap:round;strokeLinejoin:round;stroke-miterlimit:10;" d="M255.365,303.954
			c0,0-17.249-0.267-19.656-0.267s-3.343,0-3.477,2.006s-0.401,8.156,0.669,8.558c1.07,0.401,10.028,0.535,15.109,0.535
			c5.081,0,7.087-0.134,7.889-0.802c0.802-0.669,0.936-4.68,0.936-6.819S256.569,303.553,255.365,303.954z"/>
		<path style="fill:none;stroke:#263238;strokeLinecap:round;strokeLinejoin:round;stroke-miterlimit:10;" d="M254.921,341.197
			c0,0-19.077-0.606-20.949-0.071c-1.872,0.535-3.878,1.471-3.744,3.477c0.134,2.006-0.401,7.488,0.535,9.092
			c0.936,1.604,1.337,2.139,2.541,2.54c1.203,0.401,21.26,0.535,22.597-0.134c1.337-0.668,2.273-1.471,2.541-3.209
			c0.267-1.738,0.759-7.818-0.044-9.556C257.595,341.598,254.921,341.197,254.921,341.197z"/>
		<path style="fill:#263238;stroke:#263238;strokeLinecap:round;strokeLinejoin:round;stroke-miterlimit:10;" d="M255.365,344.201
			c0,0-17.249-0.267-19.656-0.267s-3.343,0-3.477,2.006c-0.134,2.006-0.401,8.156,0.669,8.558c1.07,0.401,10.028,0.535,15.109,0.535
			c5.081,0,7.087-0.134,7.889-0.802c0.802-0.669,0.936-4.68,0.936-6.819S256.569,343.8,255.365,344.201z"/>
		<path style="fill:none;stroke:#263238;strokeLinecap:round;strokeLinejoin:round;stroke-miterlimit:10;" d="M254.296,361.049
			c0,0-18.452-0.535-20.324,0c-1.872,0.535-3.878,1.471-3.744,3.477c0.134,2.006-0.401,7.488,0.535,9.092
			c0.936,1.605,1.337,2.139,2.541,2.541c1.203,0.401,21.26,0.535,22.597-0.134c1.337-0.669,2.273-1.471,2.541-3.209
			c0.267-1.738,0.134-7.889-0.669-9.627C256.97,361.45,254.296,361.049,254.296,361.049z"/>
		<path style="fill:#263238;stroke:#263238;strokeLinecap:round;strokeLinejoin:round;stroke-miterlimit:10;" d="M255.365,364.124
			c0,0-17.249-0.267-19.656-0.267s-3.343,0-3.477,2.006c-0.134,2.006-0.401,8.156,0.669,8.558s10.028,0.535,15.109,0.535
			c5.081,0,7.087-0.134,7.889-0.802c0.802-0.669,0.936-4.68,0.936-6.819C256.836,365.194,256.569,363.723,255.365,364.124z"/>
		<path style="fill:#666666;stroke:#263238;strokeLinecap:round;strokeLinejoin:round;stroke-miterlimit:10;" d="M223.048,379.923
			c0,0-16.026-1.658-18.42-1.842c-2.395-0.184-4.421,1.474-4.237,3.316c0.184,1.842,0.184,8.105,1.289,9.763
			c1.105,1.658,5.158,2.21,11.052,2.579c5.895,0.368,9.21,0.921,10.684,0c1.474-0.921,2.026-1.658,2.21-3.868
			c0.184-2.21,0.184-5.895-0.184-7.368C225.075,381.029,223.048,379.923,223.048,379.923z"/>
		<path style="fill:#92E3A9;stroke:#263238;strokeLinecap:round;strokeLinejoin:round;stroke-miterlimit:10;" d="M265.801,379.923
			c0,0,16.026-1.658,18.42-1.842c2.395-0.184,4.421,1.474,4.237,3.316s-0.184,8.105-1.289,9.763
			c-1.105,1.658-5.158,2.21-11.052,2.579c-5.895,0.368-9.21,0.921-10.684,0c-1.474-0.921-2.026-1.658-2.211-3.868
			c-0.184-2.21-0.184-5.895,0.184-7.368C263.775,381.029,265.801,379.923,265.801,379.923z"/>
		<path style="fill:#BABABA;stroke:#263238;strokeLinecap:round;strokeLinejoin:round;stroke-miterlimit:10;" d="M231.844,382.173
			c0,0-0.774,8.28,0.066,9.82c0.84,1.54,1.26,2.241,2.941,2.381c1.68,0.14,16.524,0.56,18.905-0.14
			c2.381-0.7,3.361-1.82,3.501-2.801c0.14-0.98,0.036-7.833-0.244-8.953s-1.26-2.381-3.081-2.521
			c-1.82-0.14-15.16-0.289-17.261-0.289C234.57,379.67,232.198,380.755,231.844,382.173z"/>
		<path style="fill:none;stroke:#263238;strokeLinecap:round;strokeLinejoin:round;stroke-miterlimit:10;" d="M195.946,403.858
			l3.138-3.5c0,0,22.929,2.172,47.427,1.569c24.498-0.603,42.72-2.293,42.72-2.293s4.103,3.379,5.913,4.103"/>
		<g>
			<path style="fill:none;stroke:#263238;strokeLinecap:round;strokeLinejoin:round;stroke-miterlimit:10;" d="M265.539,229.335
				l-9.584-5.001c-0.831-0.433-1.856-0.115-2.295,0.714v0c-0.38,0.718-0.201,1.604,0.428,2.117l8.559,6.99
				c0,0,2.249,4.82,4.017,5.142c1.767,0.321,3.214,0.482,3.214,0.482"/>
			<path style="fill:none;stroke:#263238;strokeLinecap:round;strokeLinejoin:round;stroke-miterlimit:10;" d="M260.404,227.019
				l0.719-3.457c0.18-0.867-0.376-1.716-1.243-1.896l-5.817-1.21c-0.867-0.18-1.716,0.376-1.896,1.243l-1.04,5.003
				c-0.18,0.867,0.376,1.716,1.243,1.896l4.94,1.027c0,0-1.727,1.219-0.887,1.954c0.84,0.735,2.31,2.31,3.465,2.94
				c1.155,0.63,2.76-0.365,2.76-0.365"/>
			<path style="fill:none;stroke:#263238;strokeLinecap:round;strokeLinejoin:round;stroke-miterlimit:10;" d="M261.123,223.562
				c0,0,4.118,0.039,5.063,0.879c0.945,0.84,8.819,12.598,8.819,12.598"/>
			<path style="fill:none;stroke:#263238;strokeLinecap:round;strokeLinejoin:round;stroke-miterlimit:10;" d="M258.207,233.365
				c0,0-1.68,1.26-0.84,1.995s1.365,1.05,3.045,1.47c1.68,0.42,1.89,0.63,2.415,0.42c0.525-0.21,1.155-0.525,1.155-0.525"/>
			<path style="fill:none;stroke:#263238;strokeLinecap:round;strokeLinejoin:round;stroke-miterlimit:10;" d="M261.165,237.127
				c-4.181,4.874-11.696,8.125-20.271,8.125c-13.128,0-23.771-7.62-23.771-17.019s10.643-17.019,23.771-17.019
				c11.019,0,20.286,5.368,22.98,12.65"/>
			<g>
				<g>
					<path style="fill:#263238;" d="M244.451,240.243c-0.163,0-0.328-0.046-0.474-0.141c-0.404-0.263-0.519-0.803-0.256-1.206
						c1.972-3.033,3.015-6.558,3.015-10.192c0-3.471-0.957-6.86-2.767-9.799c-0.253-0.41-0.125-0.947,0.285-1.2
						c0.41-0.253,0.947-0.125,1.2,0.285c1.98,3.215,3.026,6.919,3.026,10.714c0,3.972-1.14,7.825-3.297,11.142
						C245.016,240.103,244.736,240.243,244.451,240.243z"/>
				</g>
				<g>
					<path style="fill:#263238;" d="M240.028,237.952c-0.172,0-0.347-0.051-0.499-0.157c-0.395-0.276-0.491-0.82-0.215-1.214
						c1.618-2.316,2.474-5.04,2.474-7.876c0-2.653-0.755-5.228-2.185-7.447c-0.261-0.405-0.144-0.945,0.261-1.206
						c0.406-0.26,0.945-0.144,1.205,0.261c1.611,2.501,2.463,5.403,2.463,8.391c0,3.196-0.964,6.265-2.788,8.875
						C240.574,237.822,240.303,237.952,240.028,237.952z"/>
				</g>
				<g>
					<path style="fill:#263238;" d="M235.525,235.562c-0.191,0-0.383-0.062-0.543-0.19c-0.376-0.301-0.438-0.849-0.138-1.225
						c1.245-1.56,1.903-3.442,1.903-5.442c0-1.971-0.641-3.832-1.854-5.38c-0.297-0.379-0.23-0.927,0.149-1.224
						c0.38-0.297,0.927-0.231,1.224,0.149c1.456,1.858,2.226,4.091,2.226,6.456c0,2.365-0.811,4.684-2.284,6.53
						C236.035,235.45,235.781,235.562,235.525,235.562z"/>
				</g>
				<g>
					<path style="fill:#263238;" d="M230.936,233.905c-0.28,0-0.555-0.135-0.724-0.384c-0.27-0.399-0.165-0.941,0.235-1.211
						c1.2-0.811,1.917-2.159,1.917-3.606c0-1.138-0.436-2.213-1.229-3.029c-0.335-0.345-0.327-0.898,0.018-1.233
						c0.345-0.336,0.897-0.327,1.233,0.018c1.111,1.143,1.722,2.65,1.722,4.245c0,2.027-1.004,3.915-2.685,5.051
						C231.273,233.856,231.103,233.905,230.936,233.905z"/>
				</g>
			</g>
		</g>
		<g>
			<g>
				<path style="fill:#FFFFFF;" d="M207.563,311.474v-6.75c-0.077,0.042-0.163,0.084-0.261,0.126c-0.098,0.042-0.2,0.085-0.308,0.13
					c-0.108,0.046-0.213,0.089-0.314,0.131c-0.101,0.042-0.193,0.083-0.278,0.125v-1.297c0.077-0.043,0.185-0.1,0.325-0.173
					c0.14-0.073,0.289-0.155,0.451-0.246c0.16-0.09,0.31-0.183,0.45-0.278c0.14-0.094,0.244-0.176,0.314-0.245h1.37v8.476H207.563z"
					/>
			</g>
			<g>
				<path style="fill:#FFFFFF;" d="M240.608,313.62v-1.235l2.03-3.119c0.153-0.23,0.298-0.453,0.434-0.669
					c0.135-0.216,0.247-0.436,0.335-0.659c0.087-0.223,0.13-0.457,0.13-0.702c0-0.244-0.048-0.425-0.146-0.544
					c-0.097-0.118-0.23-0.178-0.398-0.178c-0.188,0-0.335,0.053-0.439,0.158c-0.105,0.105-0.176,0.244-0.215,0.418
					c-0.038,0.175-0.057,0.371-0.057,0.586v0.419h-1.696v-0.45c0-0.503,0.08-0.951,0.241-1.345c0.16-0.394,0.415-0.705,0.764-0.932
					c0.348-0.227,0.806-0.34,1.371-0.34c0.76,0,1.334,0.197,1.721,0.591c0.387,0.394,0.581,0.944,0.581,1.648
					c0,0.342-0.055,0.659-0.162,0.952c-0.109,0.293-0.251,0.577-0.429,0.853c-0.178,0.276-0.368,0.563-0.571,0.864l-1.549,2.312
					h2.481v1.371H240.608z"/>
			</g>
			<g>
				<path style="fill:#FFFFFF;" d="M277.766,311.983c-0.593,0-1.059-0.112-1.397-0.335c-0.339-0.223-0.579-0.536-0.722-0.937
					c-0.143-0.401-0.215-0.863-0.215-1.387v-0.303h1.747c0,0.007,0,0.045,0,0.115s0,0.133,0,0.188c0,0.279,0.017,0.506,0.052,0.68
					c0.035,0.174,0.098,0.301,0.189,0.382c0.09,0.081,0.216,0.121,0.377,0.121c0.16,0,0.281-0.042,0.361-0.126
					c0.08-0.083,0.135-0.21,0.162-0.376c0.028-0.168,0.043-0.376,0.043-0.628c0-0.419-0.058-0.738-0.173-0.958
					c-0.115-0.22-0.354-0.333-0.717-0.34c-0.007,0-0.045,0-0.115,0s-0.14,0-0.21,0v-1.203c0.049,0,0.098,0,0.147,0
					c0.048,0,0.094,0,0.136,0c0.37,0,0.617-0.101,0.743-0.304c0.126-0.202,0.189-0.516,0.189-0.941c0-0.328-0.044-0.579-0.131-0.754
					c-0.088-0.175-0.25-0.262-0.486-0.262c-0.231,0-0.382,0.097-0.456,0.293c-0.073,0.195-0.11,0.446-0.11,0.753
					c0,0.07,0,0.141,0,0.215c0,0.073,0,0.148,0,0.225h-1.747v-0.513c0-0.509,0.092-0.939,0.278-1.292
					c0.185-0.353,0.45-0.619,0.795-0.801c0.346-0.181,0.759-0.272,1.241-0.272c0.488,0,0.906,0.088,1.255,0.261
					c0.349,0.175,0.618,0.431,0.806,0.77c0.189,0.338,0.283,0.759,0.283,1.26c0,0.496-0.101,0.91-0.303,1.246
					c-0.203,0.335-0.447,0.541-0.732,0.617c0.195,0.07,0.371,0.181,0.528,0.335c0.157,0.153,0.281,0.361,0.371,0.623
					c0.091,0.261,0.136,0.594,0.136,0.999c0,0.517-0.075,0.973-0.225,1.371c-0.15,0.398-0.396,0.71-0.738,0.937
					C278.785,311.869,278.331,311.983,277.766,311.983z"/>
			</g>
			<g>
				<path style="fill:#FFFFFF;" d="M209.039,331.972v-1.904h-2.606v-1.288l2.208-5.284h2.03v5.274h0.784v1.298h-0.784v1.904H209.039
					z M207.762,328.77h1.277v-3.527L207.762,328.77z"/>
			</g>
			<g>
				<path style="fill:#FFFFFF;" d="M242.847,334.275c-0.621,0-1.09-0.11-1.407-0.33c-0.318-0.22-0.532-0.528-0.644-0.926
					c-0.112-0.398-0.168-0.859-0.168-1.381h1.685c0,0.321,0.017,0.582,0.052,0.784c0.035,0.203,0.1,0.347,0.194,0.434
					c0.094,0.088,0.228,0.128,0.403,0.121c0.181-0.007,0.31-0.08,0.387-0.22c0.077-0.14,0.124-0.341,0.141-0.602
					c0.018-0.261,0.026-0.577,0.026-0.947c0-0.279-0.016-0.526-0.047-0.743c-0.032-0.215-0.095-0.388-0.189-0.518
					c-0.094-0.129-0.235-0.193-0.423-0.193c-0.175,0-0.318,0.063-0.429,0.188c-0.112,0.126-0.192,0.321-0.241,0.586h-1.507
					l0.157-4.887h3.956v1.465h-2.553l-0.094,1.747c0.07-0.097,0.203-0.183,0.398-0.256c0.195-0.073,0.404-0.12,0.628-0.141
					c0.433-0.048,0.797,0.03,1.094,0.236c0.297,0.205,0.52,0.518,0.67,0.936c0.15,0.419,0.225,0.932,0.225,1.539
					c0,0.453-0.028,0.87-0.083,1.25c-0.056,0.381-0.164,0.708-0.324,0.984c-0.161,0.276-0.394,0.491-0.701,0.644
					C243.744,334.198,243.342,334.275,242.847,334.275z"/>
			</g>
			<g>
				<path style="fill:#FFFFFF;" d="M277.923,332.449c-0.551,0-0.999-0.12-1.345-0.36c-0.345-0.241-0.598-0.571-0.758-0.99
					c-0.161-0.418-0.241-0.896-0.241-1.433v-3.067c0-0.551,0.065-1.042,0.193-1.475c0.129-0.433,0.361-0.772,0.696-1.02
					c0.335-0.248,0.817-0.371,1.444-0.371c0.544,0,0.973,0.083,1.288,0.25c0.313,0.168,0.536,0.412,0.669,0.733
					c0.133,0.321,0.199,0.718,0.199,1.192c0,0.028,0.001,0.055,0.005,0.079c0.003,0.024,0.005,0.047,0.005,0.067h-1.643
					c0-0.342-0.026-0.595-0.079-0.758c-0.052-0.164-0.197-0.246-0.434-0.246c-0.16,0-0.28,0.048-0.36,0.147
					c-0.081,0.098-0.135,0.268-0.163,0.513c-0.028,0.244-0.042,0.586-0.042,1.025v0.754c0.083-0.146,0.22-0.26,0.408-0.34
					c0.188-0.08,0.401-0.124,0.639-0.131c0.446-0.014,0.804,0.088,1.072,0.303c0.269,0.216,0.462,0.512,0.581,0.885
					c0.118,0.373,0.178,0.789,0.178,1.25c0,0.593-0.07,1.115-0.21,1.564c-0.14,0.451-0.376,0.801-0.711,1.052
					C278.98,332.324,278.516,332.449,277.923,332.449z M277.944,331.162c0.16,0,0.278-0.054,0.351-0.162
					c0.073-0.108,0.122-0.269,0.147-0.482c0.024-0.212,0.037-0.476,0.037-0.789c0-0.279-0.009-0.52-0.026-0.722
					c-0.018-0.203-0.065-0.361-0.141-0.476c-0.077-0.116-0.206-0.173-0.387-0.173c-0.083,0-0.164,0.017-0.24,0.052
					c-0.077,0.035-0.143,0.078-0.199,0.131c-0.055,0.052-0.097,0.103-0.125,0.152v1.381c0,0.188,0.015,0.366,0.047,0.534
					c0.031,0.167,0.091,0.301,0.178,0.403C277.67,331.112,277.791,331.162,277.944,331.162z"/>
			</g>
			<g>
				<path style="fill:#FFFFFF;" d="M206.852,351.541l1.841-7.148h-2.312v-1.329h4.018v1.203l-1.841,7.273H206.852z"/>
			</g>
			<g>
				<path style="fill:#FFFFFF;" d="M242.9,353.823c-0.572,0-1.03-0.114-1.371-0.341c-0.341-0.227-0.586-0.54-0.732-0.942
					c-0.146-0.401-0.22-0.859-0.22-1.375c0.007-0.21,0.03-0.414,0.068-0.612c0.038-0.199,0.097-0.384,0.178-0.555
					c0.08-0.17,0.181-0.32,0.303-0.45c0.122-0.129,0.267-0.235,0.434-0.319c-0.216-0.16-0.408-0.392-0.576-0.696
					c-0.167-0.303-0.258-0.689-0.272-1.157c-0.008-0.474,0.072-0.882,0.235-1.224c0.164-0.342,0.41-0.604,0.738-0.785
					c0.328-0.181,0.733-0.272,1.214-0.272c0.488,0,0.895,0.092,1.219,0.277c0.324,0.185,0.567,0.447,0.727,0.785
					c0.161,0.338,0.234,0.744,0.22,1.219c-0.007,0.475-0.09,0.864-0.25,1.167c-0.161,0.304-0.353,0.532-0.576,0.686
					c0.167,0.084,0.312,0.191,0.434,0.319c0.122,0.129,0.223,0.279,0.303,0.45c0.08,0.171,0.141,0.356,0.183,0.555
					c0.042,0.199,0.063,0.403,0.063,0.612c0.014,0.516-0.055,0.974-0.204,1.375c-0.15,0.402-0.396,0.715-0.738,0.942
					C243.939,353.709,243.479,353.823,242.9,353.823z M242.9,352.536c0.188,0,0.324-0.069,0.408-0.209
					c0.083-0.14,0.136-0.306,0.157-0.497c0.021-0.192,0.031-0.368,0.031-0.529c0.007-0.215-0.002-0.425-0.025-0.628
					c-0.025-0.202-0.079-0.368-0.163-0.497c-0.084-0.129-0.22-0.193-0.408-0.193c-0.181,0-0.314,0.065-0.398,0.193
					c-0.083,0.129-0.138,0.293-0.163,0.492c-0.024,0.198-0.037,0.41-0.037,0.633c0,0.161,0.011,0.339,0.032,0.534
					c0.021,0.195,0.075,0.361,0.163,0.497C242.584,352.468,242.718,352.536,242.9,352.536z M242.9,348.601
					c0.118,0,0.216-0.047,0.293-0.141c0.077-0.094,0.135-0.235,0.173-0.424c0.038-0.188,0.057-0.422,0.057-0.701
					c0-0.286-0.044-0.513-0.13-0.681c-0.088-0.167-0.218-0.25-0.393-0.25c-0.175,0-0.309,0.083-0.403,0.25
					c-0.094,0.168-0.141,0.391-0.141,0.67c0,0.279,0.019,0.514,0.057,0.706c0.038,0.193,0.1,0.336,0.184,0.429
					C242.68,348.554,242.78,348.601,242.9,348.601z"/>
			</g>
			<g>
				<path style="fill:#FFFFFF;" d="M277.766,352.018c-0.544,0-0.973-0.083-1.287-0.25c-0.314-0.168-0.537-0.414-0.67-0.738
					c-0.132-0.324-0.198-0.724-0.198-1.198c0-0.02,0-0.043,0-0.068c0-0.024,0-0.047,0-0.067h1.633c0,0.342,0.03,0.595,0.089,0.758
					c0.06,0.164,0.208,0.246,0.445,0.246c0.161,0,0.279-0.048,0.356-0.147c0.077-0.097,0.128-0.27,0.152-0.518
					c0.025-0.248,0.037-0.588,0.037-1.02v-0.754c-0.09,0.146-0.228,0.258-0.413,0.335c-0.185,0.078-0.393,0.123-0.623,0.136
					c-0.446,0.007-0.806-0.105-1.078-0.335c-0.272-0.231-0.467-0.541-0.586-0.932c-0.118-0.391-0.178-0.816-0.178-1.277
					c0-0.593,0.075-1.104,0.225-1.533s0.396-0.762,0.738-1c0.341-0.237,0.795-0.355,1.36-0.355c0.558,0,1.008,0.111,1.35,0.335
					c0.342,0.223,0.592,0.536,0.749,0.937c0.157,0.401,0.235,0.874,0.235,1.418v3.16c0,0.551-0.064,1.042-0.193,1.475
					c-0.129,0.433-0.361,0.773-0.696,1.02C278.876,351.895,278.394,352.018,277.766,352.018z M277.787,347.393
					c0.14,0,0.251-0.038,0.335-0.115c0.083-0.077,0.15-0.15,0.198-0.22v-1.381c0-0.195-0.014-0.375-0.042-0.539
					c-0.028-0.163-0.08-0.296-0.157-0.398c-0.077-0.101-0.195-0.152-0.356-0.152c-0.153,0-0.268,0.055-0.345,0.162
					c-0.077,0.109-0.128,0.269-0.152,0.482c-0.024,0.213-0.037,0.476-0.037,0.789c0,0.272,0.009,0.512,0.026,0.717
					c0.018,0.206,0.065,0.366,0.141,0.481C277.477,347.336,277.606,347.393,277.787,347.393z"/>
			</g>
			<g>
				<path style="fill:#FFFFFF;" d="M206.799,371.532v-8.476h3.663v1.266h-1.789v2.134h1.559v1.308h-1.559v3.768H206.799z"/>
			</g>
			<g>
				<path style="fill:#FFFFFF;" d="M243.056,373.834c-0.509,0-0.935-0.103-1.277-0.308c-0.342-0.206-0.6-0.49-0.774-0.853
					c-0.175-0.363-0.261-0.784-0.261-1.266v-3.841c0-0.496,0.082-0.93,0.245-1.303c0.164-0.373,0.417-0.664,0.759-0.874
					c0.341-0.209,0.778-0.314,1.308-0.314c0.531,0,0.965,0.105,1.303,0.314c0.338,0.21,0.589,0.501,0.754,0.874
					c0.163,0.373,0.246,0.807,0.246,1.303v3.841c0,0.474-0.088,0.894-0.262,1.26c-0.175,0.366-0.433,0.652-0.774,0.858
					C243.981,373.731,243.559,373.834,243.056,373.834z M243.056,372.275c0.168,0,0.288-0.054,0.361-0.162
					c0.073-0.108,0.118-0.233,0.136-0.376c0.017-0.143,0.026-0.267,0.026-0.372v-3.757c0-0.118-0.008-0.253-0.021-0.403
					c-0.014-0.15-0.058-0.283-0.131-0.398c-0.073-0.115-0.197-0.173-0.371-0.173c-0.175,0-0.298,0.058-0.371,0.173
					c-0.073,0.115-0.117,0.248-0.131,0.398c-0.014,0.15-0.02,0.284-0.02,0.403v3.757c0,0.105,0.01,0.229,0.032,0.372
					c0.02,0.143,0.068,0.268,0.141,0.376C242.78,372.221,242.896,372.275,243.056,372.275z"/>
			</g>
			<g>
				<path style="fill:#FFFFFF;" d="M271.891,371.475v-1.611h1.612v1.611H271.891z"/>
				<path style="fill:#FFFFFF;" d="M274.705,371.475l0.324-2.815h-0.575l0.031-1.058h0.691l0.146-1.214h-0.826l0.021-1.088h0.995
					l0.261-2.302h1.109l-0.272,2.302h0.816l0.262-2.302h1.099l-0.273,2.302h0.555l-0.031,1.088h-0.712l-0.136,1.214h0.827
					l-0.031,1.058h-0.942l-0.345,2.815h-1.088l0.335-2.815h-0.816l-0.335,2.815H274.705z M276.265,367.603h0.827l0.147-1.214h-0.816
					L276.265,367.603z"/>
				<path style="fill:#FFFFFF;" d="M281.33,366.766l-0.994-0.596l0.753-1.067l-1.119-0.429l0.376-1.015l1.015,0.565l-0.136-1.224
					h1.277l-0.136,1.224l1.026-0.565l0.376,1.025l-1.13,0.429l0.764,1.057l-1.015,0.596l-0.523-1.109L281.33,366.766z"/>
			</g>
		</g>
	</g>
</g>
<g id="Hand_2">
	<g>
		<g>
			<path style="fill:#FFFFFF;stroke:#263238;strokeLinecap:round;strokeLinejoin:round;stroke-miterlimit:10;" d="M500.149,61.83
				L467.86,13.079c0,0,0,0-12.674,6.028c-12.674,6.028-29.759,9.009-53.282,16.007c-23.523,6.998-34.786,5.947-42.674,12.248
				c-7.887,6.301-29.383,43.968-31.479,47.473c-2.097,3.505,1.882,11.49,1.882,11.49s31.802,21.042,32.254,21.517
				c0.452,0.475,8.359,5.928,12.061,6.328c3.701,0.4,11.934-1.098,11.934-1.098s3.045,1.931,5.194,2.602
				c2.148,0.671,7.592-0.586,7.592-0.586s9.031,3.779,12.982,0.32c3.951-3.459,9.972-21.868,9.972-21.868s18.818-4.33,33.363-10.931
				c14.544-6.601,21.696-14.981,31.151-22.171c5.104-3.881,10.305-6.687,14.013-8.449V61.83z"/>
			<path style="fill:none;stroke:#263238;strokeLinecap:round;strokeLinejoin:round;stroke-miterlimit:10;" d="M390.17,126.638
				c3.49-5.046,8.729-13.254,10.577-19.489"/>
			<path style="fill:none;stroke:#263238;strokeLinecap:round;strokeLinejoin:round;stroke-miterlimit:10;" d="M386.855,131.24
				c0,0,0.536-0.701,1.403-1.898"/>
			<path style="fill:none;stroke:#263238;strokeLinecap:round;strokeLinejoin:round;stroke-miterlimit:10;" d="M401.668,132.533
				c0,0,2.263-3.965,7.919-13.877c5.657-9.912,4.647-12.876,3.585-13.675"/>
			<path style="fill:none;stroke:#263238;strokeLinecap:round;strokeLinejoin:round;stroke-miterlimit:10;" d="M361.483,88.754
				c1.389,0.967,2.898,1.851,4.529,2.604"/>
			<path style="fill:none;stroke:#263238;strokeLinecap:round;strokeLinejoin:round;stroke-miterlimit:10;" d="M348.548,72.924
				c0,0,3.067,7.362,9.816,13.366"/>
			<path style="fill:none;stroke:#263238;strokeLinecap:round;strokeLinejoin:round;stroke-miterlimit:10;" d="M359.196,61.279
				c0,0,7.173,16.414,14.214,19.371"/>
			<path style="fill:none;stroke:#263238;strokeLinecap:round;strokeLinejoin:round;stroke-miterlimit:10;" d="M415.645,105.042
				c0,0,6.234,4.329,5.976,8.498"/>
			<path style="fill:none;stroke:#263238;strokeLinecap:round;strokeLinejoin:round;stroke-miterlimit:10;" d="M337.505,95.133
				c2.289,0.462,5.282,1.387,8.097,3.234"/>
			<path style="fill:none;stroke:#263238;strokeLinecap:round;strokeLinejoin:round;stroke-miterlimit:10;" d="M333.631,94.67
				c0,0,0.908,0,2.343,0.201"/>
		</g>
		<g>
			<path style="fill:#92E3A9;stroke:#263238;strokeLinecap:round;strokeLinejoin:round;stroke-miterlimit:10;" d="
				M374.157,162.775l-93.551,27.182c-2.604,0.756-5.328-0.741-6.084-3.344l-16.749-57.644c-0.757-2.604,0.741-5.328,3.344-6.084
				l93.551-27.182c2.604-0.756,5.328,0.741,6.084,3.344l16.749,57.644C378.258,159.295,376.761,162.019,374.157,162.775z"/>
			<g>
				<path style="fill:#FFFFFF;stroke:#263238;strokeLinecap:round;strokeLinejoin:round;stroke-miterlimit:10;" d="
					M285.331,156.505l-7.087,2.059c-2.034,0.591-4.162-0.579-4.753-2.613l-2.125-7.313c-0.591-2.034,0.579-4.162,2.613-4.753
					l7.087-2.059c2.034-0.591,4.162,0.579,4.753,2.613l2.125,7.313C288.535,153.786,287.365,155.914,285.331,156.505z"/>
				
					<line style="fill:none;stroke:#263238;strokeLinecap:round;strokeLinejoin:round;stroke-miterlimit:10;" x1="279.464" y1="157.965" x2="275.33" y2="143.738"/>
				<polyline style="fill:none;stroke:#263238;strokeLinecap:round;strokeLinejoin:round;stroke-miterlimit:10;" points="
					283.951,156.661 280.737,145.598 285.734,144.146 				"/>
				
					<line style="fill:none;stroke:#263238;strokeLinecap:round;strokeLinejoin:round;stroke-miterlimit:10;" x1="271.575" y1="148.789" x2="276.258" y2="147.428"/>
				
					<line style="fill:none;stroke:#263238;strokeLinecap:round;strokeLinejoin:round;stroke-miterlimit:10;" x1="272.482" y1="151.911" x2="277.164" y2="150.55"/>
				
					<line style="fill:none;stroke:#263238;strokeLinecap:round;strokeLinejoin:round;stroke-miterlimit:10;" x1="273.417" y1="155.13" x2="278.1" y2="153.769"/>
				
					<line style="fill:none;stroke:#263238;strokeLinecap:round;strokeLinejoin:round;stroke-miterlimit:10;" x1="282.111" y1="149.007" x2="286.794" y2="147.646"/>
				
					<line style="fill:none;stroke:#263238;strokeLinecap:round;strokeLinejoin:round;stroke-miterlimit:10;" x1="283.075" y1="152.324" x2="287.368" y2="151.076"/>
			</g>
			<g>
				<path style="fill:#FFFFFF;stroke:#263238;strokeWidth:0.5;stroke-miterlimit:10;" d="M278.78,171.766
					c-0.315-1.084-0.379-1.947-0.193-2.588c0.187-0.641,0.625-1.061,1.315-1.262c0.693-0.201,1.29-0.082,1.79,0.357
					c0.501,0.439,0.909,1.203,1.225,2.29c0.315,1.084,0.379,1.946,0.192,2.586c-0.187,0.639-0.627,1.06-1.32,1.261
					c-0.69,0.201-1.286,0.08-1.787-0.361C279.502,173.609,279.095,172.848,278.78,171.766z M280.208,168.964
					c-0.285,0.083-0.442,0.318-0.472,0.706c-0.03,0.387,0.067,0.965,0.29,1.734c0.069,0.238,0.138,0.453,0.206,0.645l0.773-2.721
					c-0.005-0.008-0.01-0.015-0.016-0.023C280.756,168.995,280.495,168.881,280.208,168.964z M280.708,173.02
					c0.233,0.311,0.492,0.425,0.777,0.342c0.288-0.084,0.447-0.319,0.477-0.707c0.03-0.387-0.066-0.964-0.289-1.73
					c-0.085-0.291-0.17-0.548-0.256-0.771l-0.786,2.756C280.658,172.951,280.684,172.987,280.708,173.02z"/>
				<path style="fill:#FFFFFF;stroke:#263238;strokeWidth:0.5;stroke-miterlimit:10;" d="M284.813,172.218l1.383-0.402l-1.18-4.062
					l-1.195,0.693l-0.324-1.115l1.205-0.687l1.195-0.347l1.502,5.169l1.384-0.402l0.317,1.09l-3.97,1.154L284.813,172.218z"/>
				<path style="fill:#FFFFFF;stroke:#263238;strokeWidth:0.5;stroke-miterlimit:10;" d="M289.118,168.762
					c-0.315-1.084-0.379-1.947-0.193-2.588c0.187-0.641,0.625-1.061,1.316-1.262c0.693-0.201,1.29-0.082,1.79,0.357
					c0.5,0.439,0.909,1.203,1.225,2.29c0.315,1.084,0.379,1.946,0.192,2.586c-0.187,0.639-0.627,1.06-1.32,1.261
					c-0.69,0.201-1.286,0.08-1.787-0.361C289.84,170.605,289.433,169.844,289.118,168.762z M290.546,165.961
					c-0.285,0.083-0.443,0.318-0.472,0.706c-0.03,0.387,0.067,0.965,0.29,1.734c0.069,0.238,0.138,0.453,0.206,0.645l0.773-2.721
					c-0.005-0.008-0.01-0.015-0.016-0.023C291.094,165.991,290.834,165.877,290.546,165.961z M291.047,170.016
					c0.233,0.311,0.492,0.425,0.777,0.343c0.288-0.084,0.447-0.319,0.476-0.707c0.03-0.387-0.066-0.964-0.289-1.73
					c-0.085-0.291-0.17-0.548-0.256-0.771l-0.786,2.756C290.996,169.947,291.022,169.984,291.047,170.016z"/>
				<path style="fill:#FFFFFF;stroke:#263238;strokeWidth:0.5;stroke-miterlimit:10;" d="M295.151,169.214l1.384-0.402l-1.18-4.062
					l-1.195,0.693l-0.324-1.115l1.205-0.687l1.195-0.347l1.502,5.169l1.383-0.402l0.317,1.09l-3.97,1.154L295.151,169.214z"/>
				<path style="fill:#FFFFFF;stroke:#263238;strokeWidth:0.5;stroke-miterlimit:10;" d="M299.457,165.758
					c-0.315-1.084-0.379-1.947-0.193-2.588c0.187-0.641,0.625-1.061,1.315-1.262c0.693-0.201,1.29-0.082,1.79,0.357
					c0.501,0.439,0.909,1.203,1.225,2.29c0.315,1.084,0.379,1.946,0.192,2.586c-0.187,0.639-0.627,1.06-1.32,1.261
					c-0.69,0.201-1.286,0.08-1.787-0.361C300.178,167.601,299.771,166.84,299.457,165.758z M300.884,162.957
					c-0.285,0.083-0.442,0.318-0.472,0.706c-0.03,0.387,0.067,0.965,0.29,1.734c0.069,0.238,0.138,0.453,0.206,0.645l0.773-2.72
					c-0.005-0.008-0.01-0.015-0.016-0.023C301.432,162.987,301.172,162.873,300.884,162.957z M301.385,167.012
					c0.233,0.311,0.492,0.425,0.777,0.343c0.288-0.084,0.447-0.319,0.477-0.707c0.03-0.387-0.066-0.964-0.289-1.73
					c-0.084-0.291-0.17-0.548-0.256-0.771l-0.786,2.756C301.335,166.943,301.36,166.98,301.385,167.012z"/>
				<path style="fill:#FFFFFF;stroke:#263238;strokeWidth:0.5;stroke-miterlimit:10;" d="M305.489,166.21l1.383-0.402l-1.18-4.062
					l-1.194,0.693l-0.324-1.115l1.205-0.687l1.195-0.347l1.502,5.169l1.384-0.402l0.317,1.09l-3.97,1.154L305.489,166.21z"/>
				<path style="fill:#FFFFFF;stroke:#263238;strokeWidth:0.5;stroke-miterlimit:10;" d="M309.795,162.755
					c-0.315-1.084-0.379-1.947-0.193-2.588c0.187-0.641,0.625-1.061,1.316-1.262c0.693-0.201,1.29-0.082,1.79,0.357
					c0.5,0.44,0.909,1.203,1.225,2.29c0.315,1.084,0.379,1.946,0.192,2.586c-0.187,0.639-0.627,1.06-1.32,1.261
					c-0.69,0.201-1.286,0.08-1.787-0.361C310.517,164.597,310.109,163.836,309.795,162.755z M311.222,159.953
					c-0.285,0.083-0.443,0.318-0.472,0.705c-0.03,0.388,0.067,0.966,0.29,1.734c0.069,0.238,0.138,0.453,0.206,0.645l0.773-2.721
					c-0.005-0.008-0.01-0.015-0.016-0.023C311.77,159.983,311.51,159.869,311.222,159.953z M311.723,164.008
					c0.233,0.311,0.492,0.425,0.777,0.342c0.288-0.084,0.447-0.319,0.477-0.707c0.03-0.388-0.066-0.964-0.289-1.73
					c-0.085-0.291-0.17-0.548-0.256-0.771l-0.786,2.756C311.673,163.939,311.698,163.976,311.723,164.008z"/>
				<path style="fill:#FFFFFF;stroke:#263238;strokeWidth:0.5;stroke-miterlimit:10;" d="M315.827,163.207l1.384-0.402l-1.18-4.062
					l-1.195,0.693l-0.324-1.115l1.205-0.687l1.195-0.347l1.502,5.169l1.383-0.402l0.317,1.09l-3.97,1.154L315.827,163.207z"/>
				<path style="fill:#FFFFFF;stroke:#263238;strokeWidth:0.5;stroke-miterlimit:10;" d="M320.133,159.751
					c-0.315-1.084-0.379-1.947-0.193-2.588c0.187-0.641,0.625-1.061,1.315-1.262c0.693-0.201,1.29-0.082,1.79,0.357
					c0.5,0.44,0.909,1.203,1.224,2.29c0.315,1.084,0.379,1.946,0.192,2.586c-0.187,0.639-0.627,1.06-1.32,1.261
					c-0.69,0.201-1.286,0.08-1.787-0.361C320.855,161.594,320.447,160.832,320.133,159.751z M321.56,156.949
					c-0.285,0.083-0.442,0.318-0.472,0.705c-0.03,0.388,0.067,0.966,0.29,1.734c0.069,0.238,0.138,0.452,0.206,0.645l0.773-2.721
					c-0.005-0.008-0.01-0.015-0.016-0.023C322.108,156.979,321.848,156.866,321.56,156.949z M322.061,161.004
					c0.233,0.311,0.492,0.425,0.777,0.342c0.288-0.084,0.447-0.319,0.477-0.707c0.03-0.388-0.066-0.964-0.289-1.73
					c-0.084-0.291-0.17-0.548-0.256-0.771l-0.786,2.756C322.011,160.936,322.037,160.972,322.061,161.004z"/>
				<path style="fill:#FFFFFF;stroke:#263238;strokeWidth:0.5;stroke-miterlimit:10;" d="M326.165,160.203l1.384-0.402l-1.18-4.062
					l-1.194,0.693l-0.324-1.115l1.205-0.687l1.195-0.347l1.502,5.169l1.384-0.402l0.317,1.09l-3.97,1.154L326.165,160.203z"/>
				<path style="fill:#FFFFFF;stroke:#263238;strokeWidth:0.5;stroke-miterlimit:10;" d="M330.471,156.747
					c-0.315-1.084-0.379-1.947-0.193-2.588c0.187-0.641,0.625-1.061,1.315-1.262c0.693-0.201,1.29-0.082,1.79,0.357
					c0.5,0.44,0.909,1.203,1.225,2.29c0.315,1.084,0.379,1.946,0.192,2.586c-0.187,0.639-0.627,1.06-1.32,1.261
					c-0.69,0.201-1.286,0.08-1.787-0.361C331.193,158.59,330.785,157.829,330.471,156.747z M331.898,153.945
					c-0.285,0.083-0.443,0.318-0.472,0.705c-0.03,0.388,0.067,0.966,0.29,1.734c0.069,0.238,0.138,0.452,0.206,0.645l0.773-2.721
					c-0.005-0.008-0.01-0.015-0.016-0.023C332.447,153.975,332.186,153.862,331.898,153.945z M332.399,158.001
					c0.233,0.311,0.492,0.425,0.777,0.342c0.288-0.084,0.447-0.319,0.477-0.707c0.03-0.388-0.066-0.964-0.289-1.73
					c-0.085-0.291-0.17-0.548-0.256-0.771l-0.786,2.756C332.349,157.932,332.375,157.968,332.399,158.001z"/>
				<path style="fill:#FFFFFF;stroke:#263238;strokeWidth:0.5;stroke-miterlimit:10;" d="M336.503,157.199l1.383-0.402l-1.18-4.062
					l-1.195,0.693l-0.324-1.115l1.205-0.687l1.195-0.347l1.502,5.169l1.383-0.402l0.317,1.09l-3.97,1.154L336.503,157.199z"/>
				<path style="fill:#FFFFFF;stroke:#263238;strokeWidth:0.5;stroke-miterlimit:10;" d="M340.809,153.743
					c-0.315-1.084-0.379-1.947-0.193-2.588c0.187-0.641,0.625-1.061,1.315-1.262c0.693-0.201,1.29-0.082,1.79,0.357
					c0.5,0.44,0.909,1.203,1.224,2.29c0.315,1.084,0.379,1.946,0.192,2.586c-0.187,0.639-0.627,1.06-1.32,1.261
					c-0.69,0.201-1.286,0.08-1.787-0.361C341.531,155.586,341.124,154.825,340.809,153.743z M342.237,150.942
					c-0.285,0.083-0.443,0.318-0.472,0.705c-0.03,0.388,0.067,0.966,0.29,1.734c0.069,0.238,0.137,0.452,0.205,0.645l0.773-2.721
					c-0.005-0.008-0.01-0.015-0.016-0.023C342.785,150.972,342.524,150.858,342.237,150.942z M342.737,154.997
					c0.233,0.311,0.492,0.425,0.777,0.342c0.288-0.084,0.447-0.319,0.477-0.707c0.03-0.388-0.066-0.964-0.289-1.73
					c-0.084-0.291-0.17-0.548-0.256-0.771l-0.786,2.756C342.687,154.928,342.713,154.964,342.737,154.997z"/>
				<path style="fill:#FFFFFF;stroke:#263238;strokeWidth:0.5;stroke-miterlimit:10;" d="M346.842,154.195l1.384-0.402l-1.18-4.062
					l-1.194,0.692l-0.324-1.115l1.205-0.687l1.195-0.347l1.502,5.169l1.384-0.402l0.317,1.09l-3.97,1.154L346.842,154.195z"/>
				<path style="fill:#FFFFFF;stroke:#263238;strokeWidth:0.5;stroke-miterlimit:10;" d="M351.147,150.739
					c-0.315-1.084-0.379-1.947-0.193-2.588c0.187-0.641,0.625-1.061,1.316-1.262c0.693-0.201,1.29-0.082,1.79,0.357
					c0.501,0.44,0.909,1.203,1.225,2.29c0.315,1.084,0.379,1.946,0.192,2.585c-0.187,0.639-0.627,1.06-1.32,1.261
					c-0.69,0.201-1.286,0.08-1.787-0.361C351.869,152.582,351.462,151.821,351.147,150.739z M352.575,147.938
					c-0.285,0.083-0.443,0.318-0.472,0.705c-0.03,0.388,0.067,0.966,0.29,1.734c0.069,0.238,0.138,0.452,0.206,0.645l0.773-2.721
					c-0.005-0.008-0.01-0.015-0.016-0.023C353.123,147.968,352.863,147.854,352.575,147.938z M353.076,151.993
					c0.233,0.311,0.492,0.425,0.777,0.342c0.288-0.084,0.447-0.319,0.477-0.707c0.03-0.388-0.066-0.964-0.289-1.73
					c-0.085-0.291-0.17-0.548-0.256-0.771l-0.786,2.756C353.025,151.924,353.051,151.961,353.076,151.993z"/>
				<path style="fill:#FFFFFF;stroke:#263238;strokeWidth:0.5;stroke-miterlimit:10;" d="M357.18,151.191l1.383-0.402l-1.18-4.062
					l-1.195,0.692l-0.324-1.115l1.205-0.687l1.195-0.347l1.502,5.169l1.384-0.402l0.317,1.09l-3.97,1.154L357.18,151.191z"/>
				<path style="fill:#FFFFFF;stroke:#263238;strokeWidth:0.5;stroke-miterlimit:10;" d="M362.349,149.689l1.384-0.402l-1.18-4.062
					l-1.195,0.693l-0.324-1.115l1.205-0.687l1.195-0.347l1.502,5.169l1.383-0.402l0.317,1.09l-3.97,1.153L362.349,149.689z"/>
			</g>
			<path style="fill:none;stroke:#263238;strokeLinecap:round;strokeLinejoin:round;stroke-miterlimit:10;" d="M341.251,112.854
				l-6.406,1.861c-1.772,0.515-3.626-0.504-4.141-2.276l0,0c-0.515-1.772,0.504-3.626,2.276-4.141l6.406-1.861
				c1.772-0.515,3.626,0.504,4.141,2.276l0,0C344.042,110.485,343.023,112.339,341.251,112.854z"/>
			<path style="fill:none;stroke:#263238;strokeLinecap:round;strokeLinejoin:round;stroke-miterlimit:10;" d="M350.418,110.19
				l-6.406,1.861c-1.772,0.515-3.626-0.504-4.141-2.276v0c-0.515-1.772,0.504-3.626,2.276-4.141l6.406-1.861
				c1.772-0.515,3.626,0.504,4.141,2.276l0,0C353.21,107.822,352.19,109.675,350.418,110.19z"/>
		</g>
		<g>
			<path style="fill:#FFFFFF;stroke:#263238;strokeLinecap:round;strokeLinejoin:round;stroke-miterlimit:10;" d="M381.976,66.828
				c0,0-8.433,18.051-14.471,23.799c-6.038,5.747-30.733,21.953-36.932,28.721c-7.456,8.138-0.141,16.965,5.116,19.757
				s9.263,2.32,23.925-6.068c14.662-8.388,19.41-23.892,34.516-27.134c15.106-3.242,33.429-3.097,47.182-13.219
				c13.754-10.122,19.321-14.598,19.154-15.554"/>
			<path style="fill:none;stroke:#263238;strokeLinecap:round;strokeLinejoin:round;stroke-miterlimit:10;" d="M345.927,137.01
				c5.769-4.659,6.571-6.88,5.531-7.972c-1.04-1.092-10.129-13.266-10.129-13.266s-9.062,4.044-11.694,6.967
				c-2.633,2.923-1.287,8.931,4.054,13.01c5.341,4.079,9.414,3.326,10.496,2.713"/>
		</g>
		<polygon style="fill:#263238;stroke:#263238;strokeLinecap:round;strokeLinejoin:round;stroke-miterlimit:10;" points="
			485.379,-0.344 463.18,12.92 500.149,75.287 500.149,-0.344 		"/>
	</g>
</g>
<g id="Hand_1">
	<g>
		<path style="fill:#FFFFFF;stroke:#263238;strokeLinecap:round;strokeLinejoin:round;stroke-miterlimit:10;" d="M182.506,329.126
			c-6.085-0.529-14.55,6.878-14.55,6.878l-69.578,1.058c0,0,1.058-8.466-2.117-10.582c-3.175-2.116-5.291,1.852-9.259,4.762
			c-3.968,2.91-19.577,13.228-19.577,13.228s-24.074,15.609-29.101,19.313c-5.027,3.704-17.725,25.926-17.725,25.926
			s-8.466,15.609-10.847,23.81S4.99,429.392,4.99,429.392l-4.551,5.012v64.961h28.579l26.766-19.972c0,0,7.143-2.381,13.228-5.027
			c6.085-2.645,19.577-9.788,33.334-17.46c13.757-7.672,27.514-17.461,27.514-17.461s15.344-16.402,21.958-23.016
			c6.614-6.614,12.963-20.106,15.079-27.514c2.117-7.408,5.291-28.043,5.291-28.043s1.323-2.381,4.762-7.408
			c3.439-5.027,8.201-9.259,10.582-15.344C189.913,332.036,188.59,329.655,182.506,329.126z"/>
		<path style="fill:#263238;stroke:#263238;strokeLinecap:round;strokeLinejoin:round;stroke-miterlimit:10;" d="M171.361,333.406
			c-2.034,1.399-3.406,2.598-3.406,2.598l-69.578,1.058c0,0,0.084-0.669,0.133-1.679c-2.14,6.258-7.25,19.728-12.149,21.548
			c-6.412,2.382-10.626,8.977-10.626,8.977l-7.775,6.264c0,0,4.661,0.881,7.409,1.064c2.748,0.183,6.595,2.382,13.374,3.664
			c6.779,1.282,33.161,13.008,33.161,13.008s7.328,5.496,8.977,13.008c1.649,7.512-1.099,13.557-1.099,13.557l32.399-15.762
			c2.135-4.368,3.813-8.637,4.716-11.797c0.526-1.84,1.117-4.496,1.708-7.448l-0.533-4.383c0,0-3.664-17.038-3.298-24.733
			C165.039,346.806,169.108,337.932,171.361,333.406z"/>
		<path style="fill:#FFFFFF;stroke:#263238;strokeLinecap:round;strokeLinejoin:round;stroke-miterlimit:10;" d="M158.072,409.856
			c0,0,12.015-18.932,14.017-24.394c2.003-5.461,0.728-11.105,0-15.474c-0.728-4.369,0.91-10.741-1.274-12.743
			c-2.185-2.003-8.556-2.003-11.105,2.913c-2.549,4.915-1.638,9.648-0.91,14.199c0.728,4.551,1.092,6.918,1.092,6.918
			s-4.915,5.279-4.915,5.825"/>
		<path style="fill:#FFFFFF;stroke:#263238;strokeLinecap:round;strokeLinejoin:round;stroke-miterlimit:10;" d="M130.947,437.344
			c0,0,20.753-17.476,23.484-22.209c2.731-4.733,7.464-13.653,7.646-19.115s-3.459-12.015-4.187-15.109
			c-0.728-3.095-5.643-3.277-8.738,0.364c-3.095,3.641-1.82,10.741-1.638,12.561c0.182,1.82,0.364,3.641,0.364,3.641
			s-4.005,3.823-5.097,6.189c-1.092,2.367-2.185,4.733-2.185,4.733s-5.825,3.459-8.192,5.097c-2.367,1.638-4.733,5.461-4.733,5.461"
			/>
		<path style="fill:none;stroke:#263238;strokeLinecap:round;strokeLinejoin:round;stroke-miterlimit:10;" d="M149.333,399.115
			c0,0,2.003,4.733,6.918,5.461"/>
		<path style="fill:none;stroke:#263238;strokeLinecap:round;strokeLinejoin:round;stroke-miterlimit:10;" d="M141.506,409.674
			c0,0-2.003,6.371,6.372,8.556"/>
		<path style="fill:none;stroke:#263238;strokeLinecap:round;strokeLinejoin:round;stroke-miterlimit:10;" d="M161.166,382.185
			c0,0-0.364,5.643,7.646,4.551"/>
		<path style="fill:none;stroke:#263238;strokeLinecap:round;strokeLinejoin:round;stroke-miterlimit:10;" d="M124.94,396.203
			c0,0,3.095,4.551,3.459,10.922"/>
		<path style="fill:none;stroke:#263238;strokeLinecap:round;strokeLinejoin:round;stroke-miterlimit:10;" d="M82.706,358.702
			c0,0-6.918,6.736-8.192,8.192c-1.274,1.456-6.553,5.279-6.553,5.279s-1.638,4.551-3.277,7.282"/>
		<path style="fill:none;stroke:#263238;strokeLinecap:round;strokeLinejoin:round;stroke-miterlimit:10;" d="M78.519,384.552
			c0,0-1.092,15.474-10.376,26.396"/>
		<path style="fill:none;stroke:#263238;strokeLinecap:round;strokeLinejoin:round;stroke-miterlimit:10;" d="M99.85,390.22
			c0,0-6.519,10.05,0.543,24.718c7.062,14.668,9.779,23.903,9.779,23.903"/>
		<g>
			<path style="fill:#FFFFFF;stroke:#263238;strokeLinecap:round;strokeLinejoin:round;stroke-miterlimit:10;" d="
				M138.186,257.117l-60.83,111.599c-2.993,5.492,0.086,12.323,6.183,13.718l48.874,11.177c4.246,0.971,8.605-1.09,10.549-4.987
				l58.904-118.044c1.805-3.617-0.445-7.941-4.442-8.54l-53.132-7.959C141.821,253.71,139.382,254.923,138.186,257.117z"/>
			<polygon style="fill:#92E3A9;stroke:#263238;strokeLinecap:round;strokeLinejoin:round;stroke-miterlimit:10;" points="
				136.627,265.183 82.6,364.609 145.71,379.042 196.417,276.097 			"/>
			<path style="fill:#919191;stroke:#263238;strokeLinecap:round;strokeLinejoin:round;stroke-miterlimit:10;" d="
				M203.422,268.384l0.001-0.003l-0.011-0.018c-0.031-0.059-0.068-0.115-0.101-0.173l-0.995-1.701c0.328,1.31,0.219,2.748-0.45,4.09
				l-58.904,118.044c-1.945,3.897-6.303,5.957-10.549,4.986l-48.874-11.176c-3.158-0.722-5.496-2.908-6.61-5.606l-0.056-0.016
				c0,0,0.372,4.367,5.017,7.712c0,0,0.61,0.524,1.818,0.628c0.454,0.182,0.922,0.343,1.418,0.456L134,396.785
				c4.246,0.971,8.604-1.09,10.549-4.987l58.904-118.044C204.35,271.957,204.244,269.986,203.422,268.384z"/>
			<g id="Z4uzrq.tif">
				<g>
					<path style="fill:#263238;" d="M174.902,304.037c-0.09,0.133-0.178,0.268-0.272,0.4c-1.485,2.072-4.331,2.371-5.157,0.525
						c-0.792-1.771-1.753-3.417-2.953-4.889c-2.238-2.745-5.075-4.792-8.499-6.148c-2.377-0.941-4.936-1.505-7.678-1.665
						c-6.82-0.397-13.628,1.415-20.413,5.432c-0.634,0.375-1.264,0.636-1.926,0.663c-1.295,0.053-2.251-0.763-2.337-1.997
						c-0.086-1.242,0.699-2.602,1.959-3.371c1.707-1.042,3.454-1.966,5.237-2.779c4.497-2.051,9.013-3.305,13.545-3.773
						c4.104-0.424,7.98-0.159,11.636,0.77c5.286,1.344,9.612,3.943,12.996,7.766c1.698,1.918,3.05,4.096,4.09,6.504
						c0.228,0.529,0.258,1.116,0.081,1.765c-0.013,0.048-0.016,0.095-0.023,0.143C175.091,303.601,174.996,303.819,174.902,304.037z
						"/>
					<path style="fill:#263238;" d="M138.816,325.203c-0.293-0.171-0.62-0.304-0.872-0.518c-1.027-0.872-1.09-2.529-0.179-3.979
						c0.915-1.456,2.568-2.374,4.05-2.249c1.761,0.148,2.736,1.725,2.171,3.51c-0.613,1.934-2.489,3.374-4.357,3.344
						c-0.039-0.001-0.081,0.011-0.122,0.016C139.277,325.286,139.046,325.245,138.816,325.203z"/>
					<path style="fill:#263238;" d="M151.321,297.397c6.482,1.267,11.035,4.716,13.584,10.43c0.433,0.97,0.127,2.205-0.768,3.191
						c-0.881,0.971-2.154,1.457-3.214,1.214c-0.667-0.153-1.124-0.542-1.385-1.14c-0.646-1.479-1.502-2.798-2.588-3.942
						c-1.661-1.75-3.706-3.008-6.154-3.739c-4.179-1.248-8.676-0.944-13.484,0.929c-1.394,0.543-2.749,1.228-4.071,2.024
						c-0.727,0.438-1.452,0.621-2.163,0.513c-1.076-0.163-1.754-1-1.723-2.11c0.031-1.112,0.762-2.272,1.869-2.945
						c1.631-0.992,3.306-1.839,5.024-2.536c3.809-1.545,7.565-2.296,11.27-2.244C148.82,297.061,150.084,297.186,151.321,297.397z"
						/>
					<path style="fill:#263238;" d="M155.195,315.767c-0.599,1.224-1.479,2.019-2.702,2.3c-1.219,0.28-2.105-0.076-2.558-1.032
						c-0.491-1.036-1.121-1.946-2.005-2.653c-2.781-2.226-7.155-2.172-11.088,0.175c-1.401,0.836-2.808,0.711-3.507-0.153
						c-0.967-1.196-0.284-3.295,1.428-4.33c2.89-1.747,5.855-2.762,8.854-2.874c5.426-0.202,9.255,1.845,11.446,6.141
						c0.266,0.522,0.455,1.076,0.311,1.764C155.322,315.345,155.244,315.586,155.195,315.767z"/>
				</g>
			</g>
		</g>
	</g>
</g>
</svg>
