<?xml version="1.0" encoding="utf-8"?>
<!-- Generator: Adobe Illustrator 27.5.0, SVG Export Plug-In . SVG Version: 6.00 Build 0)  -->
<svg version="1.1" xmlns="http://www.w3.org/2000/svg" xmlns:xlink="http://www.w3.org/1999/xlink" x="0px" y="0px"
	 viewBox="0 0 500 500" style="enable-background:new 0 0 500 500;" xml:space="preserve">
<g id="Background_Simple">
	<g>
		<path style="opacity:0.7;fill:#FFFFFF;" d="M67.931,167.086c0,0-27.877,71.988,11.297,144.503
			c39.174,72.516,119.879,110.802,184.469,143.548c64.59,32.746,131.661,16.799,163.534-36.838
			c31.873-53.637-11.845-91.928-11.897-168.418c-0.051-76.49,11.447-96.742-29.963-161.364
			c-41.41-64.623-143.059-78.925-219.9-30.996C88.631,105.45,67.931,167.086,67.931,167.086z"/>
	</g>
	<g>
		<path style="fill:#92E3A9;" d="M41.714,277.942c-4.385-20.579-3.177-42.342,5.788-64.505
			c11.551-28.556,36.366-48.846,64.171-60.686c40.407-17.206,80.073-17.533,112.917-51.248c10.13-10.399,18.633-22.31,28.98-32.494
			c30.52-30.041,75.192-26.394,108.548-2.575c69.586,49.69,94.615,148.102,90.745,229.464c-1.737,36.513-19.169,70.495-46.759,94.45
			c-62.401,54.181-168.357,45.067-240.026,16.786C112.632,386.044,54.264,336.844,41.714,277.942z"/>
		<path style="opacity:0.7;fill:#FFFFFF;" d="M41.714,277.942c-4.385-20.579-3.177-42.342,5.788-64.505
			c11.551-28.556,36.366-48.846,64.171-60.686c40.407-17.206,80.073-17.533,112.917-51.248c10.13-10.399,18.633-22.31,28.98-32.494
			c30.52-30.041,75.192-26.394,108.548-2.575c69.586,49.69,94.615,148.102,90.745,229.464c-1.737,36.513-19.169,70.495-46.759,94.45
			c-62.401,54.181-168.357,45.067-240.026,16.786C112.632,386.044,54.264,336.844,41.714,277.942z"/>
	</g>
</g>
<g id="Graphics">
	<g>
		<g>
			
				<line style="fill:none;stroke:#263238;strokeLinecap:round;strokeLinejoin:round;" x1="250.487" y1="121.475" x2="250.487" y2="127.475"/>
			
				<line style="fill:none;stroke:#263238;strokeLinecap:round;strokeLinejoin:round;stroke-dasharray:6.4717,6.4717;" x1="250.487" y1="133.947" x2="250.487" y2="143.654"/>
			
				<line style="fill:none;stroke:#263238;strokeLinecap:round;strokeLinejoin:round;" x1="250.487" y1="146.89" x2="250.487" y2="152.89"/>
		</g>
	</g>
	<g>
		<g>
			<g>
				
					<line style="fill:none;stroke:#263238;strokeLinecap:round;strokeLinejoin:round;" x1="346.194" y1="223" x2="340.194" y2="223"/>
				
					<line style="fill:none;stroke:#263238;strokeLinecap:round;strokeLinejoin:round;stroke-dasharray:6.4717,6.4717;" x1="333.723" y1="223" x2="324.015" y2="223"/>
				
					<line style="fill:none;stroke:#263238;strokeLinecap:round;strokeLinejoin:round;" x1="320.779" y1="223" x2="314.779" y2="223"/>
			</g>
		</g>
		<g>
			<g>
				
					<line style="fill:none;stroke:#263238;strokeLinecap:round;strokeLinejoin:round;" x1="186.194" y1="223" x2="180.194" y2="223"/>
				
					<line style="fill:none;stroke:#263238;strokeLinecap:round;strokeLinejoin:round;stroke-dasharray:6.4717,6.4717;" x1="173.722" y1="223" x2="164.015" y2="223"/>
				
					<line style="fill:none;stroke:#263238;strokeLinecap:round;strokeLinejoin:round;" x1="160.779" y1="223" x2="154.779" y2="223"/>
			</g>
		</g>
	</g>
	<g>
		<g>
			<path style="fill:#263238;" d="M415.828,243.344c0-1.059,0.558-1.664,1.579-1.664c1.021,0,1.579,0.605,1.579,1.664v3.442
				c0,1.059-0.558,1.664-1.579,1.664c-1.021,0-1.579-0.605-1.579-1.664V243.344z M416.868,246.852c0,0.473,0.208,0.652,0.539,0.652
				c0.331,0,0.539-0.179,0.539-0.652v-3.574c0-0.473-0.208-0.652-0.539-0.652c-0.331,0-0.539,0.179-0.539,0.652V246.852z"/>
			<path style="fill:#263238;" d="M416.556,252.047c0.804,0,0.983-0.388,1.144-0.832h0.699v6.618h-1.04v-5.048h-0.804V252.047z"/>
			<path style="fill:#263238;" d="M415.828,262.263c0-1.059,0.558-1.664,1.579-1.664c1.021,0,1.579,0.605,1.579,1.664v3.442
				c0,1.058-0.558,1.664-1.579,1.664c-1.021,0-1.579-0.605-1.579-1.664V262.263z M416.868,265.771c0,0.473,0.208,0.652,0.539,0.652
				c0.331,0,0.539-0.179,0.539-0.652v-3.574c0-0.473-0.208-0.652-0.539-0.652c-0.331,0-0.539,0.179-0.539,0.652V265.771z"/>
			<path style="fill:#263238;" d="M416.556,270.966c0.804,0,0.983-0.388,1.144-0.832h0.699v6.618h-1.04v-5.048h-0.804V270.966z"/>
			<path style="fill:#263238;" d="M415.828,281.181c0-1.059,0.558-1.663,1.579-1.663c1.021,0,1.579,0.605,1.579,1.663v3.442
				c0,1.059-0.558,1.664-1.579,1.664c-1.021,0-1.579-0.605-1.579-1.664V281.181z M416.868,284.689c0,0.473,0.208,0.652,0.539,0.652
				c0.331,0,0.539-0.179,0.539-0.652v-3.574c0-0.473-0.208-0.652-0.539-0.652c-0.331,0-0.539,0.179-0.539,0.652V284.689z"/>
			<path style="fill:#263238;" d="M416.556,289.884c0.804,0,0.983-0.388,1.144-0.832h0.699v6.618h-1.04v-5.048h-0.804V289.884z"/>
			<path style="fill:#263238;" d="M415.828,300.1c0-1.059,0.558-1.664,1.579-1.664c1.021,0,1.579,0.605,1.579,1.664v3.442
				c0,1.059-0.558,1.664-1.579,1.664c-1.021,0-1.579-0.605-1.579-1.664V300.1z M416.868,303.608c0,0.473,0.208,0.652,0.539,0.652
				c0.331,0,0.539-0.179,0.539-0.652v-3.574c0-0.473-0.208-0.652-0.539-0.652c-0.331,0-0.539,0.179-0.539,0.652V303.608z"/>
			<path style="fill:#263238;" d="M415.828,309.559c0-1.058,0.558-1.664,1.579-1.664c1.021,0,1.579,0.605,1.579,1.664v3.442
				c0,1.059-0.558,1.663-1.579,1.663c-1.021,0-1.579-0.605-1.579-1.663V309.559z M416.868,313.067c0,0.473,0.208,0.652,0.539,0.652
				c0.331,0,0.539-0.179,0.539-0.652v-3.574c0-0.473-0.208-0.652-0.539-0.652c-0.331,0-0.539,0.179-0.539,0.652V313.067z"/>
			<path style="fill:#263238;" d="M415.828,319.018c0-1.059,0.558-1.663,1.579-1.663c1.021,0,1.579,0.605,1.579,1.663v3.442
				c0,1.058-0.558,1.664-1.579,1.664c-1.021,0-1.579-0.605-1.579-1.664V319.018z M416.868,322.526c0,0.473,0.208,0.652,0.539,0.652
				c0.331,0,0.539-0.179,0.539-0.652v-3.574c0-0.473-0.208-0.652-0.539-0.652c-0.331,0-0.539,0.179-0.539,0.652V322.526z"/>
			<path style="fill:#263238;" d="M416.556,337.181c0.804,0,0.983-0.388,1.144-0.832h0.699v6.618h-1.04v-5.048h-0.804V337.181z"/>
			<path style="fill:#263238;" d="M416.556,346.64c0.804,0,0.983-0.388,1.144-0.832h0.699v6.618h-1.04v-5.048h-0.804V346.64z"/>
			<path style="fill:#263238;" d="M416.556,356.099c0.804,0,0.983-0.388,1.144-0.832h0.699v6.618h-1.04v-5.048h-0.804V356.099z"/>
			<path style="fill:#263238;" d="M415.828,366.314c0-1.059,0.558-1.664,1.579-1.664c1.021,0,1.579,0.605,1.579,1.664v3.442
				c0,1.059-0.558,1.664-1.579,1.664c-1.021,0-1.579-0.605-1.579-1.664V366.314z M416.868,369.822c0,0.473,0.208,0.652,0.539,0.652
				c0.331,0,0.539-0.179,0.539-0.652v-3.574c0-0.473-0.208-0.652-0.539-0.652c-0.331,0-0.539,0.179-0.539,0.652V369.822z"/>
			<path style="fill:#263238;" d="M415.828,375.774c0-1.059,0.558-1.663,1.579-1.663c1.021,0,1.579,0.605,1.579,1.663v3.442
				c0,1.058-0.558,1.664-1.579,1.664c-1.021,0-1.579-0.605-1.579-1.664V375.774z M416.868,379.282c0,0.473,0.208,0.652,0.539,0.652
				c0.331,0,0.539-0.179,0.539-0.652v-3.574c0-0.473-0.208-0.652-0.539-0.652c-0.331,0-0.539,0.179-0.539,0.652V379.282z"/>
			<path style="fill:#263238;" d="M416.556,384.477c0.804,0,0.983-0.388,1.144-0.832h0.699v6.618h-1.04v-5.048h-0.804V384.477z"/>
		</g>
		<g>
			<path style="fill:#263238;" d="M422.18,233.129c0.804,0,0.983-0.388,1.144-0.832h0.699v6.618h-1.04v-5.048h-0.804V233.129z"/>
			<path style="fill:#263238;" d="M422.18,242.588c0.804,0,0.983-0.388,1.144-0.832h0.699v6.618h-1.04v-5.048h-0.804V242.588z"/>
			<path style="fill:#263238;" d="M421.452,262.263c0-1.059,0.558-1.664,1.579-1.664c1.021,0,1.579,0.605,1.579,1.664v3.442
				c0,1.058-0.558,1.664-1.579,1.664c-1.021,0-1.579-0.605-1.579-1.664V262.263z M422.492,265.771c0,0.473,0.208,0.652,0.539,0.652
				c0.331,0,0.539-0.179,0.539-0.652v-3.574c0-0.473-0.208-0.652-0.539-0.652c-0.331,0-0.539,0.179-0.539,0.652V265.771z"/>
			<path style="fill:#263238;" d="M422.18,289.884c0.804,0,0.983-0.388,1.144-0.832h0.699v6.618h-1.04v-5.048h-0.804V289.884z"/>
			<path style="fill:#263238;" d="M421.452,300.1c0-1.059,0.558-1.664,1.579-1.664c1.021,0,1.579,0.605,1.579,1.664v3.442
				c0,1.059-0.558,1.664-1.579,1.664c-1.021,0-1.579-0.605-1.579-1.664V300.1z M422.492,303.608c0,0.473,0.208,0.652,0.539,0.652
				c0.331,0,0.539-0.179,0.539-0.652v-3.574c0-0.473-0.208-0.652-0.539-0.652c-0.331,0-0.539,0.179-0.539,0.652V303.608z"/>
			<path style="fill:#263238;" d="M422.18,308.803c0.804,0,0.983-0.388,1.144-0.832h0.699v6.618h-1.04v-5.048h-0.804V308.803z"/>
			<path style="fill:#263238;" d="M422.18,318.262c0.804,0,0.983-0.388,1.144-0.832h0.699v6.618h-1.04V319h-0.804V318.262z"/>
			<path style="fill:#263238;" d="M422.18,327.721c0.804,0,0.983-0.388,1.144-0.832h0.699v6.618h-1.04v-5.048h-0.804V327.721z"/>
			<path style="fill:#263238;" d="M421.452,337.937c0-1.059,0.558-1.664,1.579-1.664c1.021,0,1.579,0.605,1.579,1.664v3.442
				c0,1.058-0.558,1.664-1.579,1.664c-1.021,0-1.579-0.605-1.579-1.664V337.937z M422.492,341.445c0,0.473,0.208,0.652,0.539,0.652
				c0.331,0,0.539-0.179,0.539-0.652v-3.574c0-0.473-0.208-0.652-0.539-0.652c-0.331,0-0.539,0.179-0.539,0.652V341.445z"/>
			<path style="fill:#263238;" d="M421.452,347.396c0-1.059,0.558-1.664,1.579-1.664c1.021,0,1.579,0.605,1.579,1.664v3.442
				c0,1.059-0.558,1.664-1.579,1.664c-1.021,0-1.579-0.605-1.579-1.664V347.396z M422.492,350.904c0,0.473,0.208,0.652,0.539,0.652
				c0.331,0,0.539-0.179,0.539-0.652v-3.574c0-0.473-0.208-0.652-0.539-0.652c-0.331,0-0.539,0.179-0.539,0.652V350.904z"/>
		</g>
		<g>
			<path style="fill:#263238;" d="M410.933,289.884c0.804,0,0.983-0.388,1.144-0.832h0.699v6.618h-1.04v-5.048h-0.804V289.884z"/>
			<path style="fill:#263238;" d="M410.204,300.1c0-1.059,0.558-1.664,1.579-1.664c1.021,0,1.579,0.605,1.579,1.664v3.442
				c0,1.059-0.558,1.664-1.579,1.664c-1.021,0-1.579-0.605-1.579-1.664V300.1z M411.244,303.608c0,0.473,0.208,0.652,0.539,0.652
				c0.331,0,0.539-0.179,0.539-0.652v-3.574c0-0.473-0.208-0.652-0.539-0.652c-0.331,0-0.539,0.179-0.539,0.652V303.608z"/>
			<path style="fill:#263238;" d="M410.204,309.559c0-1.058,0.558-1.664,1.579-1.664c1.021,0,1.579,0.605,1.579,1.664v3.442
				c0,1.059-0.558,1.663-1.579,1.663c-1.021,0-1.579-0.605-1.579-1.663V309.559z M411.244,313.067c0,0.473,0.208,0.652,0.539,0.652
				c0.331,0,0.539-0.179,0.539-0.652v-3.574c0-0.473-0.208-0.652-0.539-0.652c-0.331,0-0.539,0.179-0.539,0.652V313.067z"/>
			<path style="fill:#263238;" d="M410.933,318.262c0.804,0,0.983-0.388,1.144-0.832h0.699v6.618h-1.04V319h-0.804V318.262z"/>
			<path style="fill:#263238;" d="M410.933,337.181c0.804,0,0.983-0.388,1.144-0.832h0.699v6.618h-1.04v-5.048h-0.804V337.181z"/>
			<path style="fill:#263238;" d="M410.933,346.64c0.804,0,0.983-0.388,1.144-0.832h0.699v6.618h-1.04v-5.048h-0.804V346.64z"/>
			<path style="fill:#263238;" d="M410.933,356.099c0.804,0,0.983-0.388,1.144-0.832h0.699v6.618h-1.04v-5.048h-0.804V356.099z"/>
		</g>
		<g>
			<path style="fill:#263238;" d="M404.581,262.263c0-1.059,0.558-1.664,1.579-1.664c1.021,0,1.579,0.605,1.579,1.664v3.442
				c0,1.058-0.558,1.664-1.579,1.664c-1.021,0-1.579-0.605-1.579-1.664V262.263z M405.621,265.771c0,0.473,0.208,0.652,0.539,0.652
				c0.331,0,0.539-0.179,0.539-0.652v-3.574c0-0.473-0.208-0.652-0.539-0.652c-0.331,0-0.539,0.179-0.539,0.652V265.771z"/>
			<path style="fill:#263238;" d="M404.581,281.181c0-1.059,0.558-1.663,1.579-1.663c1.021,0,1.579,0.605,1.579,1.663v3.442
				c0,1.059-0.558,1.664-1.579,1.664c-1.021,0-1.579-0.605-1.579-1.664V281.181z M405.621,284.689c0,0.473,0.208,0.652,0.539,0.652
				c0.331,0,0.539-0.179,0.539-0.652v-3.574c0-0.473-0.208-0.652-0.539-0.652c-0.331,0-0.539,0.179-0.539,0.652V284.689z"/>
			<path style="fill:#263238;" d="M405.309,308.803c0.804,0,0.983-0.388,1.144-0.832h0.699v6.618h-1.04v-5.048h-0.804V308.803z"/>
			<path style="fill:#263238;" d="M405.309,318.262c0.804,0,0.983-0.388,1.144-0.832h0.699v6.618h-1.04V319h-0.804V318.262z"/>
			<path style="fill:#263238;" d="M405.309,346.64c0.804,0,0.983-0.388,1.144-0.832h0.699v6.618h-1.04v-5.048h-0.804V346.64z"/>
			<path style="fill:#263238;" d="M404.581,356.855c0-1.059,0.558-1.664,1.579-1.664c1.021,0,1.579,0.605,1.579,1.664v3.442
				c0,1.058-0.558,1.663-1.579,1.663c-1.021,0-1.579-0.605-1.579-1.663V356.855z M405.621,360.363c0,0.473,0.208,0.652,0.539,0.652
				c0.331,0,0.539-0.179,0.539-0.652v-3.574c0-0.473-0.208-0.652-0.539-0.652c-0.331,0-0.539,0.179-0.539,0.652V360.363z"/>
			<path style="fill:#263238;" d="M405.309,365.558c0.804,0,0.983-0.388,1.144-0.832h0.699v6.618h-1.04v-5.048h-0.804V365.558z"/>
		</g>
	</g>
	<g>
		<g>
			<path style="fill:#263238;" d="M171.72,272.358c0-1.058,0.558-1.663,1.579-1.663c1.021,0,1.579,0.605,1.579,1.663v3.442
				c0,1.059-0.558,1.664-1.579,1.664c-1.021,0-1.579-0.605-1.579-1.664V272.358z M172.76,275.866c0,0.473,0.208,0.652,0.539,0.652
				c0.331,0,0.539-0.179,0.539-0.652v-3.574c0-0.473-0.208-0.652-0.539-0.652c-0.331,0-0.539,0.179-0.539,0.652V275.866z"/>
			<path style="fill:#263238;" d="M171.72,281.818c0-1.059,0.558-1.664,1.579-1.664c1.021,0,1.579,0.605,1.579,1.664v3.442
				c0,1.059-0.558,1.664-1.579,1.664c-1.021,0-1.579-0.605-1.579-1.664V281.818z M172.76,285.326c0,0.473,0.208,0.652,0.539,0.652
				c0.331,0,0.539-0.179,0.539-0.652v-3.574c0-0.473-0.208-0.652-0.539-0.652c-0.331,0-0.539,0.179-0.539,0.652V285.326z"/>
			<path style="fill:#263238;" d="M172.448,290.521c0.804,0,0.983-0.388,1.144-0.832h0.699v6.618h-1.04v-5.048h-0.804V290.521z"/>
			<path style="fill:#263238;" d="M171.72,300.736c0-1.059,0.558-1.663,1.579-1.663c1.021,0,1.579,0.605,1.579,1.663v3.442
				c0,1.058-0.558,1.664-1.579,1.664c-1.021,0-1.579-0.605-1.579-1.664V300.736z M172.76,304.244c0,0.473,0.208,0.652,0.539,0.652
				c0.331,0,0.539-0.179,0.539-0.652v-3.574c0-0.473-0.208-0.652-0.539-0.652c-0.331,0-0.539,0.179-0.539,0.652V304.244z"/>
			<path style="fill:#263238;" d="M172.448,309.44c0.804,0,0.983-0.388,1.144-0.832h0.699v6.618h-1.04v-5.048h-0.804V309.44z"/>
			<path style="fill:#263238;" d="M171.72,319.655c0-1.058,0.558-1.663,1.579-1.663c1.021,0,1.579,0.605,1.579,1.663v3.442
				c0,1.058-0.558,1.664-1.579,1.664c-1.021,0-1.579-0.605-1.579-1.664V319.655z M172.76,323.163c0,0.473,0.208,0.652,0.539,0.652
				c0.331,0,0.539-0.179,0.539-0.652v-3.574c0-0.473-0.208-0.652-0.539-0.652c-0.331,0-0.539,0.179-0.539,0.652V323.163z"/>
			<path style="fill:#263238;" d="M172.448,328.358c0.804,0,0.983-0.388,1.144-0.832h0.699v6.618h-1.04v-5.048h-0.804V328.358z"/>
			<path style="fill:#263238;" d="M171.72,338.573c0-1.059,0.558-1.664,1.579-1.664c1.021,0,1.579,0.605,1.579,1.664v3.442
				c0,1.058-0.558,1.663-1.579,1.663c-1.021,0-1.579-0.605-1.579-1.663V338.573z M172.76,342.081c0,0.473,0.208,0.652,0.539,0.652
				c0.331,0,0.539-0.179,0.539-0.652v-3.574c0-0.473-0.208-0.652-0.539-0.652c-0.331,0-0.539,0.179-0.539,0.652V342.081z"/>
			<path style="fill:#263238;" d="M171.72,348.033c0-1.059,0.558-1.664,1.579-1.664c1.021,0,1.579,0.605,1.579,1.664v3.442
				c0,1.059-0.558,1.663-1.579,1.663c-1.021,0-1.579-0.605-1.579-1.663V348.033z M172.76,351.54c0,0.473,0.208,0.652,0.539,0.652
				c0.331,0,0.539-0.179,0.539-0.652v-3.574c0-0.473-0.208-0.652-0.539-0.652c-0.331,0-0.539,0.179-0.539,0.652V351.54z"/>
			<path style="fill:#263238;" d="M171.72,357.492c0-1.059,0.558-1.663,1.579-1.663c1.021,0,1.579,0.605,1.579,1.663v3.442
				c0,1.058-0.558,1.664-1.579,1.664c-1.021,0-1.579-0.605-1.579-1.664V357.492z M172.76,361c0,0.473,0.208,0.652,0.539,0.652
				c0.331,0,0.539-0.179,0.539-0.652v-3.574c0-0.473-0.208-0.652-0.539-0.652c-0.331,0-0.539,0.179-0.539,0.652V361z"/>
			<path style="fill:#263238;" d="M172.448,366.195c0.804,0,0.983-0.388,1.144-0.832h0.699v6.618h-1.04v-5.048h-0.804V366.195z"/>
			<path style="fill:#263238;" d="M172.448,375.654c0.804,0,0.983-0.388,1.144-0.832h0.699v6.618h-1.04v-5.048h-0.804V375.654z"/>
			<path style="fill:#263238;" d="M172.448,385.114c0.804,0,0.983-0.388,1.144-0.832h0.699v6.618h-1.04v-5.048h-0.804V385.114z"/>
			<path style="fill:#263238;" d="M172.448,394.573c0.804,0,0.983-0.388,1.144-0.832h0.699v6.618h-1.04v-5.048h-0.804V394.573z"/>
			<path style="fill:#263238;" d="M172.76,408.296c0,0.473,0.208,0.652,0.539,0.652c0.331,0,0.539-0.179,0.539-0.652v-3.574
				c0-0.473-0.208-0.652-0.539-0.652c-0.331,0-0.539,0.179-0.539,0.652V408.296z"/>
		</g>
		<g>
			<path style="fill:#263238;" d="M178.072,309.44c0.804,0,0.983-0.388,1.144-0.832h0.699v6.618h-1.04v-5.048h-0.804V309.44z"/>
			<path style="fill:#263238;" d="M178.072,318.899c0.804,0,0.983-0.388,1.144-0.832h0.699v6.618h-1.04v-5.048h-0.804V318.899z"/>
			<path style="fill:#263238;" d="M177.343,338.573c0-1.059,0.558-1.664,1.579-1.664c1.021,0,1.579,0.605,1.579,1.664v3.442
				c0,1.058-0.558,1.663-1.579,1.663c-1.021,0-1.579-0.605-1.579-1.663V338.573z M178.383,342.081c0,0.473,0.208,0.652,0.539,0.652
				c0.331,0,0.539-0.179,0.539-0.652v-3.574c0-0.473-0.208-0.652-0.539-0.652c-0.331,0-0.539,0.179-0.539,0.652V342.081z"/>
			<path style="fill:#263238;" d="M178.072,347.277c0.804,0,0.983-0.388,1.144-0.832h0.699v6.618h-1.04v-5.048h-0.804V347.277z"/>
			<path style="fill:#263238;" d="M177.343,357.492c0-1.059,0.558-1.663,1.579-1.663c1.021,0,1.579,0.605,1.579,1.663v3.442
				c0,1.058-0.558,1.664-1.579,1.664c-1.021,0-1.579-0.605-1.579-1.664V357.492z M178.383,361c0,0.473,0.208,0.652,0.539,0.652
				c0.331,0,0.539-0.179,0.539-0.652v-3.574c0-0.473-0.208-0.652-0.539-0.652c-0.331,0-0.539,0.179-0.539,0.652V361z"/>
			<path style="fill:#263238;" d="M178.383,379.918c0,0.473,0.208,0.652,0.539,0.652c0.331,0,0.539-0.179,0.539-0.652v-3.574
				c0-0.473-0.208-0.652-0.539-0.652c-0.331,0-0.539,0.179-0.539,0.652V379.918z"/>
			<path style="fill:#263238;" d="M178.072,385.114c0.804,0,0.983-0.388,1.144-0.832h0.699v6.618h-1.04v-5.048h-0.804V385.114z"/>
			<path style="fill:#263238;" d="M178.072,394.573c0.804,0,0.983-0.388,1.144-0.832h0.699v6.618h-1.04v-5.048h-0.804V394.573z"/>
			<path style="fill:#263238;" d="M177.343,423.707c0-1.059,0.558-1.664,1.579-1.664c1.021,0,1.579,0.605,1.579,1.664v3.442
				c0,1.058-0.558,1.663-1.579,1.663c-1.021,0-1.579-0.605-1.579-1.663V423.707z M178.383,427.215c0,0.473,0.208,0.652,0.539,0.652
				c0.331,0,0.539-0.179,0.539-0.652v-3.574c0-0.473-0.208-0.652-0.539-0.652c-0.331,0-0.539,0.179-0.539,0.652V427.215z"/>
		</g>
		<g>
			<path style="fill:#263238;" d="M166.096,300.736c0-1.059,0.558-1.663,1.579-1.663c1.021,0,1.579,0.605,1.579,1.663v3.442
				c0,1.058-0.558,1.664-1.579,1.664c-1.021,0-1.579-0.605-1.579-1.664V300.736z M167.136,304.244c0,0.473,0.208,0.652,0.539,0.652
				c0.331,0,0.539-0.179,0.539-0.652v-3.574c0-0.473-0.208-0.652-0.539-0.652c-0.331,0-0.539,0.179-0.539,0.652V304.244z"/>
			<path style="fill:#263238;" d="M166.824,309.44c0.804,0,0.983-0.388,1.144-0.832h0.699v6.618h-1.04v-5.048h-0.804V309.44z"/>
			<path style="fill:#263238;" d="M166.824,318.899c0.804,0,0.983-0.388,1.144-0.832h0.699v6.618h-1.04v-5.048h-0.804V318.899z"/>
			<path style="fill:#263238;" d="M166.096,329.114c0-1.059,0.558-1.664,1.579-1.664c1.021,0,1.579,0.605,1.579,1.664v3.442
				c0,1.059-0.558,1.664-1.579,1.664c-1.021,0-1.579-0.605-1.579-1.664V329.114z M167.136,332.622c0,0.473,0.208,0.652,0.539,0.652
				c0.331,0,0.539-0.179,0.539-0.652v-3.574c0-0.473-0.208-0.652-0.539-0.652c-0.331,0-0.539,0.179-0.539,0.652V332.622z"/>
			<path style="fill:#263238;" d="M166.096,348.033c0-1.059,0.558-1.664,1.579-1.664c1.021,0,1.579,0.605,1.579,1.664v3.442
				c0,1.059-0.558,1.663-1.579,1.663c-1.021,0-1.579-0.605-1.579-1.663V348.033z M167.136,351.54c0,0.473,0.208,0.652,0.539,0.652
				c0.331,0,0.539-0.179,0.539-0.652v-3.574c0-0.473-0.208-0.652-0.539-0.652c-0.331,0-0.539,0.179-0.539,0.652V351.54z"/>
			<path style="fill:#263238;" d="M166.096,357.492c0-1.059,0.558-1.663,1.579-1.663c1.021,0,1.579,0.605,1.579,1.663v3.442
				c0,1.058-0.558,1.664-1.579,1.664c-1.021,0-1.579-0.605-1.579-1.664V357.492z M167.136,361c0,0.473,0.208,0.652,0.539,0.652
				c0.331,0,0.539-0.179,0.539-0.652v-3.574c0-0.473-0.208-0.652-0.539-0.652c-0.331,0-0.539,0.179-0.539,0.652V361z"/>
			<path style="fill:#263238;" d="M166.824,366.195c0.804,0,0.983-0.388,1.144-0.832h0.699v6.618h-1.04v-5.048h-0.804V366.195z"/>
			<path style="fill:#263238;" d="M166.096,376.41c0-1.058,0.558-1.664,1.579-1.664c1.021,0,1.579,0.605,1.579,1.664v3.442
				c0,1.059-0.558,1.663-1.579,1.663c-1.021,0-1.579-0.605-1.579-1.663V376.41z M167.136,379.918c0,0.473,0.208,0.652,0.539,0.652
				c0.331,0,0.539-0.179,0.539-0.652v-3.574c0-0.473-0.208-0.652-0.539-0.652c-0.331,0-0.539,0.179-0.539,0.652V379.918z"/>
			<path style="fill:#263238;" d="M166.824,385.114c0.804,0,0.983-0.388,1.144-0.832h0.699v6.618h-1.04v-5.048h-0.804V385.114z"/>
		</g>
		<g>
			<path style="fill:#263238;" d="M160.472,281.819c0-1.059,0.558-1.664,1.579-1.664c1.021,0,1.579,0.605,1.579,1.664v3.442
				c0,1.058-0.558,1.663-1.579,1.663c-1.021,0-1.579-0.605-1.579-1.663V281.819z M161.512,285.327c0,0.473,0.208,0.652,0.539,0.652
				c0.331,0,0.539-0.179,0.539-0.652v-3.574c0-0.473-0.208-0.652-0.539-0.652c-0.331,0-0.539,0.179-0.539,0.652V285.327z"/>
			<path style="fill:#263238;" d="M161.2,299.981c0.804,0,0.983-0.388,1.144-0.832h0.699v6.618h-1.04v-5.048H161.2V299.981z"/>
			<path style="fill:#263238;" d="M161.2,318.9c0.804,0,0.983-0.388,1.144-0.832h0.699v6.618h-1.04v-5.048H161.2V318.9z"/>
			<path style="fill:#263238;" d="M160.472,329.115c0-1.058,0.558-1.664,1.579-1.664c1.021,0,1.579,0.605,1.579,1.664v3.442
				c0,1.059-0.558,1.663-1.579,1.663c-1.021,0-1.579-0.605-1.579-1.663V329.115z M161.512,332.623c0,0.473,0.208,0.652,0.539,0.652
				c0.331,0,0.539-0.179,0.539-0.652v-3.574c0-0.473-0.208-0.652-0.539-0.652c-0.331,0-0.539,0.179-0.539,0.652V332.623z"/>
			<path style="fill:#263238;" d="M161.2,356.737c0.804,0,0.983-0.388,1.144-0.832h0.699v6.618h-1.04v-5.048H161.2V356.737z"/>
			<path style="fill:#263238;" d="M161.2,366.196c0.804,0,0.983-0.388,1.144-0.832h0.699v6.618h-1.04v-5.048H161.2V366.196z"/>
			<path style="fill:#263238;" d="M161.2,375.655c0.804,0,0.983-0.388,1.144-0.832h0.699v6.618h-1.04v-5.048H161.2V375.655z"/>
		</g>
	</g>
	<g>
		<g>
			<path style="fill:#263238;" d="M337.343,54.313c0-1.059,0.558-1.664,1.579-1.664c1.021,0,1.579,0.605,1.579,1.664v3.442
				c0,1.058-0.558,1.664-1.579,1.664c-1.021,0-1.579-0.605-1.579-1.664V54.313z M338.383,57.821c0,0.473,0.208,0.652,0.539,0.652
				s0.539-0.179,0.539-0.652v-3.574c0-0.473-0.208-0.652-0.539-0.652s-0.539,0.179-0.539,0.652V57.821z"/>
			<path style="fill:#263238;" d="M337.343,63.772c0-1.059,0.558-1.664,1.579-1.664c1.021,0,1.579,0.605,1.579,1.664v3.442
				c0,1.059-0.558,1.664-1.579,1.664c-1.021,0-1.579-0.605-1.579-1.664V63.772z M338.383,67.28c0,0.473,0.208,0.652,0.539,0.652
				s0.539-0.179,0.539-0.652v-3.574c0-0.473-0.208-0.652-0.539-0.652s-0.539,0.179-0.539,0.652V67.28z"/>
			<path style="fill:#263238;" d="M338.072,91.394c0.804,0,0.983-0.388,1.144-0.832h0.699v6.618h-1.039v-5.048h-0.804V91.394z"/>
			<path style="fill:#263238;" d="M338.072,100.853c0.804,0,0.983-0.388,1.144-0.832h0.699v6.618h-1.039v-5.048h-0.804V100.853z"/>
			<path style="fill:#263238;" d="M337.343,129.987c0-1.058,0.558-1.663,1.579-1.663c1.021,0,1.579,0.605,1.579,1.663v3.442
				c0,1.059-0.558,1.663-1.579,1.663c-1.021,0-1.579-0.605-1.579-1.663V129.987z M338.383,133.495c0,0.473,0.208,0.652,0.539,0.652
				s0.539-0.179,0.539-0.652v-3.574c0-0.473-0.208-0.652-0.539-0.652s-0.539,0.179-0.539,0.652V133.495z"/>
			<path style="fill:#263238;" d="M337.343,148.906c0-1.059,0.558-1.664,1.579-1.664c1.021,0,1.579,0.605,1.579,1.664v3.442
				c0,1.059-0.558,1.663-1.579,1.663c-1.021,0-1.579-0.605-1.579-1.663V148.906z M338.383,152.413c0,0.473,0.208,0.652,0.539,0.652
				s0.539-0.179,0.539-0.652v-3.574c0-0.473-0.208-0.652-0.539-0.652s-0.539,0.179-0.539,0.652V152.413z"/>
		</g>
		<g>
			<path style="fill:#263238;" d="M320.472,73.231c0-1.058,0.558-1.663,1.579-1.663c1.021,0,1.579,0.605,1.579,1.663v3.442
				c0,1.058-0.558,1.663-1.579,1.663c-1.021,0-1.579-0.605-1.579-1.663V73.231z M321.512,76.739c0,0.473,0.208,0.652,0.539,0.652
				c0.331,0,0.539-0.179,0.539-0.652v-3.574c0-0.473-0.208-0.652-0.539-0.652c-0.331,0-0.539,0.179-0.539,0.652V76.739z"/>
			<path style="fill:#263238;" d="M320.472,82.691c0-1.058,0.558-1.664,1.579-1.664c1.021,0,1.579,0.605,1.579,1.664v3.442
				c0,1.059-0.558,1.664-1.579,1.664c-1.021,0-1.579-0.605-1.579-1.664V82.691z M321.512,86.199c0,0.473,0.208,0.652,0.539,0.652
				c0.331,0,0.539-0.179,0.539-0.652v-3.574c0-0.473-0.208-0.652-0.539-0.652c-0.331,0-0.539,0.179-0.539,0.652V86.199z"/>
			<path style="fill:#263238;" d="M320.472,92.15c0-1.058,0.558-1.664,1.579-1.664c1.021,0,1.579,0.605,1.579,1.664v3.442
				c0,1.059-0.558,1.664-1.579,1.664c-1.021,0-1.579-0.605-1.579-1.664V92.15z M321.512,95.658c0,0.473,0.208,0.652,0.539,0.652
				c0.331,0,0.539-0.179,0.539-0.652v-3.574c0-0.473-0.208-0.652-0.539-0.652c-0.331,0-0.539,0.179-0.539,0.652V95.658z"/>
			<path style="fill:#263238;" d="M321.201,100.853c0.804,0,0.983-0.388,1.144-0.832h0.699v6.618h-1.039v-5.048h-0.804V100.853z"/>
			<path style="fill:#263238;" d="M321.201,119.772c0.804,0,0.983-0.388,1.144-0.832h0.699v6.618h-1.039v-5.048h-0.804V119.772z"/>
			<path style="fill:#263238;" d="M321.201,129.231c0.804,0,0.983-0.388,1.144-0.832h0.699v6.618h-1.039v-5.048h-0.804V129.231z"/>
			<path style="fill:#263238;" d="M320.472,148.906c0-1.059,0.558-1.664,1.579-1.664c1.021,0,1.579,0.605,1.579,1.664v3.442
				c0,1.059-0.558,1.663-1.579,1.663c-1.021,0-1.579-0.605-1.579-1.663V148.906z M321.512,152.413c0,0.473,0.208,0.652,0.539,0.652
				c0.331,0,0.539-0.179,0.539-0.652v-3.574c0-0.473-0.208-0.652-0.539-0.652c-0.331,0-0.539,0.179-0.539,0.652V152.413z"/>
			<path style="fill:#263238;" d="M321.201,157.609c0.804,0,0.983-0.388,1.144-0.832h0.699v6.618h-1.039v-5.048h-0.804V157.609z"/>
		</g>
		<g>
			<path style="fill:#263238;" d="M331.72,54.313c0-1.059,0.558-1.664,1.579-1.664c1.021,0,1.579,0.605,1.579,1.664v3.442
				c0,1.058-0.558,1.664-1.579,1.664c-1.021,0-1.579-0.605-1.579-1.664V54.313z M332.76,57.821c0,0.473,0.208,0.652,0.539,0.652
				c0.331,0,0.539-0.179,0.539-0.652v-3.574c0-0.473-0.208-0.652-0.539-0.652c-0.331,0-0.539,0.179-0.539,0.652V57.821z"/>
			<path style="fill:#263238;" d="M332.448,63.016c0.804,0,0.983-0.388,1.144-0.832h0.699v6.618h-1.039v-5.048h-0.804V63.016z"/>
			<path style="fill:#263238;" d="M331.72,73.231c0-1.058,0.558-1.663,1.579-1.663c1.021,0,1.579,0.605,1.579,1.663v3.442
				c0,1.058-0.558,1.663-1.579,1.663c-1.021,0-1.579-0.605-1.579-1.663V73.231z M332.76,76.739c0,0.473,0.208,0.652,0.539,0.652
				c0.331,0,0.539-0.179,0.539-0.652v-3.574c0-0.473-0.208-0.652-0.539-0.652c-0.331,0-0.539,0.179-0.539,0.652V76.739z"/>
			<path style="fill:#263238;" d="M332.448,81.935c0.804,0,0.983-0.388,1.144-0.832h0.699v6.618h-1.039v-5.048h-0.804V81.935z"/>
			<path style="fill:#263238;" d="M332.448,91.394c0.804,0,0.983-0.388,1.144-0.832h0.699v6.618h-1.039v-5.048h-0.804V91.394z"/>
			<path style="fill:#263238;" d="M332.448,100.853c0.804,0,0.983-0.388,1.144-0.832h0.699v6.618h-1.039v-5.048h-0.804V100.853z"/>
			<path style="fill:#263238;" d="M331.72,111.068c0-1.058,0.558-1.663,1.579-1.663c1.021,0,1.579,0.605,1.579,1.663v3.442
				c0,1.059-0.558,1.663-1.579,1.663c-1.021,0-1.579-0.605-1.579-1.663V111.068z M332.76,114.576c0,0.473,0.208,0.652,0.539,0.652
				c0.331,0,0.539-0.179,0.539-0.652v-3.574c0-0.473-0.208-0.652-0.539-0.652c-0.331,0-0.539,0.179-0.539,0.652V114.576z"/>
			<path style="fill:#263238;" d="M331.72,120.528c0-1.059,0.558-1.664,1.579-1.664c1.021,0,1.579,0.605,1.579,1.664v3.442
				c0,1.059-0.558,1.664-1.579,1.664c-1.021,0-1.579-0.605-1.579-1.664V120.528z M332.76,124.036c0,0.473,0.208,0.652,0.539,0.652
				c0.331,0,0.539-0.179,0.539-0.652v-3.574c0-0.473-0.208-0.652-0.539-0.652c-0.331,0-0.539,0.179-0.539,0.652V124.036z"/>
		</g>
		<g>
			<path style="fill:#263238;" d="M326.824,63.016c0.804,0,0.983-0.388,1.144-0.832h0.699v6.618h-1.039v-5.048h-0.804V63.016z"/>
			<path style="fill:#263238;" d="M326.096,73.231c0-1.058,0.558-1.663,1.579-1.663c1.022,0,1.579,0.605,1.579,1.663v3.442
				c0,1.058-0.557,1.663-1.579,1.663c-1.021,0-1.579-0.605-1.579-1.663V73.231z M327.136,76.739c0,0.473,0.209,0.652,0.539,0.652
				c0.331,0,0.539-0.179,0.539-0.652v-3.574c0-0.473-0.208-0.652-0.539-0.652c-0.33,0-0.539,0.179-0.539,0.652V76.739z"/>
			<path style="fill:#263238;" d="M326.096,82.691c0-1.058,0.558-1.664,1.579-1.664c1.022,0,1.579,0.605,1.579,1.664v3.442
				c0,1.059-0.557,1.664-1.579,1.664c-1.021,0-1.579-0.605-1.579-1.664V82.691z M327.136,86.199c0,0.473,0.209,0.652,0.539,0.652
				c0.331,0,0.539-0.179,0.539-0.652v-3.574c0-0.473-0.208-0.652-0.539-0.652c-0.33,0-0.539,0.179-0.539,0.652V86.199z"/>
			<path style="fill:#263238;" d="M326.824,91.394c0.804,0,0.983-0.388,1.144-0.832h0.699v6.618h-1.039v-5.048h-0.804V91.394z"/>
			<path style="fill:#263238;" d="M326.824,110.313c0.804,0,0.983-0.388,1.144-0.832h0.699v6.618h-1.039v-5.048h-0.804V110.313z"/>
			<path style="fill:#263238;" d="M326.824,119.772c0.804,0,0.983-0.388,1.144-0.832h0.699v6.618h-1.039v-5.048h-0.804V119.772z"/>
			<path style="fill:#263238;" d="M326.824,129.231c0.804,0,0.983-0.388,1.144-0.832h0.699v6.618h-1.039v-5.048h-0.804V129.231z"/>
		</g>
	</g>
	<g>
		<g>
			<path style="fill:#263238;" d="M72.607,159.051c0-1.059,0.558-1.664,1.579-1.664c1.021,0,1.579,0.605,1.579,1.664v3.442
				c0,1.059-0.557,1.664-1.579,1.664c-1.021,0-1.579-0.605-1.579-1.664V159.051z M73.647,162.559c0,0.473,0.209,0.652,0.539,0.652
				c0.331,0,0.539-0.179,0.539-0.652v-3.574c0-0.473-0.208-0.652-0.539-0.652c-0.33,0-0.539,0.179-0.539,0.652V162.559z"/>
			<path style="fill:#263238;" d="M72.607,168.511c0-1.058,0.558-1.663,1.579-1.663c1.021,0,1.579,0.605,1.579,1.663v3.442
				c0,1.059-0.557,1.664-1.579,1.664c-1.021,0-1.579-0.605-1.579-1.664V168.511z M73.647,172.019c0,0.473,0.209,0.652,0.539,0.652
				c0.331,0,0.539-0.179,0.539-0.652v-3.574c0-0.473-0.208-0.652-0.539-0.652c-0.33,0-0.539,0.179-0.539,0.652V172.019z"/>
			<path style="fill:#263238;" d="M73.335,177.214c0.804,0,0.983-0.388,1.144-0.832h0.7V183h-1.04v-5.048h-0.804V177.214z"/>
			<path style="fill:#263238;" d="M72.607,187.429c0-1.058,0.558-1.663,1.579-1.663c1.021,0,1.579,0.605,1.579,1.663v3.442
				c0,1.059-0.557,1.663-1.579,1.663c-1.021,0-1.579-0.605-1.579-1.663V187.429z M73.647,190.937c0,0.473,0.209,0.652,0.539,0.652
				c0.331,0,0.539-0.179,0.539-0.652v-3.574c0-0.473-0.208-0.652-0.539-0.652c-0.33,0-0.539,0.179-0.539,0.652V190.937z"/>
			<path style="fill:#263238;" d="M73.335,196.132c0.804,0,0.983-0.388,1.144-0.832h0.7v6.618h-1.04v-5.048h-0.804V196.132z"/>
			<path style="fill:#263238;" d="M72.607,206.348c0-1.058,0.558-1.663,1.579-1.663c1.021,0,1.579,0.605,1.579,1.663v3.442
				c0,1.059-0.557,1.663-1.579,1.663c-1.021,0-1.579-0.605-1.579-1.663V206.348z M73.647,209.856c0,0.473,0.209,0.652,0.539,0.652
				c0.331,0,0.539-0.179,0.539-0.652v-3.574c0-0.473-0.208-0.652-0.539-0.652c-0.33,0-0.539,0.179-0.539,0.652V209.856z"/>
			<path style="fill:#263238;" d="M73.335,215.051c0.804,0,0.983-0.388,1.144-0.832h0.7v6.618h-1.04v-5.048h-0.804V215.051z"/>
			<path style="fill:#263238;" d="M72.607,225.266c0-1.058,0.558-1.663,1.579-1.663c1.021,0,1.579,0.605,1.579,1.663v3.442
				c0,1.059-0.557,1.663-1.579,1.663c-1.021,0-1.579-0.605-1.579-1.663V225.266z M73.647,228.774c0,0.473,0.209,0.652,0.539,0.652
				c0.331,0,0.539-0.179,0.539-0.652V225.2c0-0.473-0.208-0.652-0.539-0.652c-0.33,0-0.539,0.179-0.539,0.652V228.774z"/>
			<path style="fill:#263238;" d="M72.607,234.725c0-1.059,0.558-1.663,1.579-1.663c1.021,0,1.579,0.605,1.579,1.663v3.442
				c0,1.058-0.557,1.663-1.579,1.663c-1.021,0-1.579-0.605-1.579-1.663V234.725z M73.647,238.233c0,0.473,0.209,0.652,0.539,0.652
				c0.331,0,0.539-0.179,0.539-0.652v-3.574c0-0.473-0.208-0.652-0.539-0.652c-0.33,0-0.539,0.179-0.539,0.652V238.233z"/>
			<path style="fill:#263238;" d="M72.607,244.185c0-1.058,0.558-1.664,1.579-1.664c1.021,0,1.579,0.605,1.579,1.664v3.442
				c0,1.059-0.557,1.663-1.579,1.663c-1.021,0-1.579-0.605-1.579-1.663V244.185z M73.647,247.693c0,0.473,0.209,0.652,0.539,0.652
				c0.331,0,0.539-0.179,0.539-0.652v-3.574c0-0.473-0.208-0.652-0.539-0.652c-0.33,0-0.539,0.179-0.539,0.652V247.693z"/>
			<path style="fill:#263238;" d="M73.335,262.347c0.804,0,0.983-0.388,1.144-0.832h0.7v6.618h-1.04v-5.048h-0.804V262.347z"/>
		</g>
		<g>
			<path style="fill:#263238;" d="M78.959,196.132c0.804,0,0.983-0.388,1.144-0.832h0.7v6.618h-1.04v-5.048h-0.804V196.132z"/>
			<path style="fill:#263238;" d="M78.959,205.592c0.804,0,0.983-0.388,1.144-0.832h0.7v6.618h-1.04v-5.048h-0.804V205.592z"/>
			<path style="fill:#263238;" d="M78.23,215.807c0-1.059,0.558-1.663,1.579-1.663c1.022,0,1.579,0.605,1.579,1.663v3.442
				c0,1.058-0.557,1.663-1.579,1.663c-1.021,0-1.579-0.605-1.579-1.663V215.807z M79.27,219.315c0,0.473,0.209,0.652,0.539,0.652
				c0.331,0,0.539-0.179,0.539-0.652v-3.574c0-0.473-0.208-0.652-0.539-0.652c-0.33,0-0.539,0.179-0.539,0.652V219.315z"/>
			<path style="fill:#263238;" d="M78.23,225.266c0-1.058,0.558-1.663,1.579-1.663c1.022,0,1.579,0.605,1.579,1.663v3.442
				c0,1.059-0.557,1.663-1.579,1.663c-1.021,0-1.579-0.605-1.579-1.663V225.266z M79.27,228.774c0,0.473,0.209,0.652,0.539,0.652
				c0.331,0,0.539-0.179,0.539-0.652V225.2c0-0.473-0.208-0.652-0.539-0.652c-0.33,0-0.539,0.179-0.539,0.652V228.774z"/>
			<path style="fill:#263238;" d="M78.959,233.969c0.804,0,0.983-0.388,1.144-0.832h0.7v6.618h-1.04v-5.048h-0.804V233.969z"/>
			<path style="fill:#263238;" d="M78.959,252.888c0.804,0,0.983-0.388,1.144-0.832h0.7v6.618h-1.04v-5.048h-0.804V252.888z"/>
		</g>
		<g>
			<path style="fill:#263238;" d="M66.984,187.429c0-1.058,0.558-1.663,1.579-1.663c1.022,0,1.579,0.605,1.579,1.663v3.442
				c0,1.059-0.557,1.663-1.579,1.663c-1.021,0-1.579-0.605-1.579-1.663V187.429z M68.024,190.937c0,0.473,0.209,0.652,0.539,0.652
				c0.331,0,0.539-0.179,0.539-0.652v-3.574c0-0.473-0.208-0.652-0.539-0.652c-0.33,0-0.539,0.179-0.539,0.652V190.937z"/>
			<path style="fill:#263238;" d="M67.712,196.132c0.804,0,0.983-0.388,1.144-0.832h0.7v6.618h-1.04v-5.048h-0.804V196.132z"/>
			<path style="fill:#263238;" d="M67.712,205.592c0.804,0,0.983-0.388,1.144-0.832h0.7v6.618h-1.04v-5.048h-0.804V205.592z"/>
			<path style="fill:#263238;" d="M66.984,215.807c0-1.059,0.558-1.663,1.579-1.663c1.022,0,1.579,0.605,1.579,1.663v3.442
				c0,1.058-0.557,1.663-1.579,1.663c-1.021,0-1.579-0.605-1.579-1.663V215.807z M68.024,219.315c0,0.473,0.209,0.652,0.539,0.652
				c0.331,0,0.539-0.179,0.539-0.652v-3.574c0-0.473-0.208-0.652-0.539-0.652c-0.33,0-0.539,0.179-0.539,0.652V219.315z"/>
			<path style="fill:#263238;" d="M67.712,224.51c0.804,0,0.983-0.388,1.144-0.832h0.7v6.618h-1.04v-5.048h-0.804V224.51z"/>
			<path style="fill:#263238;" d="M66.984,234.725c0-1.059,0.558-1.663,1.579-1.663c1.022,0,1.579,0.605,1.579,1.663v3.442
				c0,1.058-0.557,1.663-1.579,1.663c-1.021,0-1.579-0.605-1.579-1.663V234.725z M68.024,238.233c0,0.473,0.209,0.652,0.539,0.652
				c0.331,0,0.539-0.179,0.539-0.652v-3.574c0-0.473-0.208-0.652-0.539-0.652c-0.33,0-0.539,0.179-0.539,0.652V238.233z"/>
		</g>
		<g>
			<path style="fill:#263238;" d="M61.36,168.511c0-1.059,0.558-1.663,1.579-1.663c1.021,0,1.579,0.605,1.579,1.663v3.442
				c0,1.058-0.557,1.663-1.579,1.663c-1.021,0-1.579-0.605-1.579-1.663V168.511z M62.4,172.019c0,0.473,0.209,0.652,0.539,0.652
				c0.331,0,0.539-0.179,0.539-0.652v-3.574c0-0.473-0.208-0.652-0.539-0.652c-0.33,0-0.539,0.179-0.539,0.652V172.019z"/>
			<path style="fill:#263238;" d="M62.088,186.674c0.804,0,0.983-0.388,1.144-0.832h0.7v6.618h-1.04v-5.048h-0.804V186.674z"/>
			<path style="fill:#263238;" d="M61.36,196.889c0-1.059,0.558-1.664,1.579-1.664c1.021,0,1.579,0.605,1.579,1.664v3.442
				c0,1.059-0.557,1.663-1.579,1.663c-1.021,0-1.579-0.605-1.579-1.663V196.889z M62.4,200.397c0,0.473,0.209,0.652,0.539,0.652
				c0.331,0,0.539-0.179,0.539-0.652v-3.574c0-0.473-0.208-0.652-0.539-0.652c-0.33,0-0.539,0.179-0.539,0.652V200.397z"/>
			<path style="fill:#263238;" d="M61.36,215.808c0-1.058,0.558-1.664,1.579-1.664c1.021,0,1.579,0.605,1.579,1.664v3.442
				c0,1.059-0.557,1.664-1.579,1.664c-1.021,0-1.579-0.605-1.579-1.664V215.808z M62.4,219.316c0,0.473,0.209,0.652,0.539,0.652
				c0.331,0,0.539-0.179,0.539-0.652v-3.574c0-0.473-0.208-0.652-0.539-0.652c-0.33,0-0.539,0.179-0.539,0.652V219.316z"/>
			<path style="fill:#263238;" d="M61.36,225.267c0-1.059,0.558-1.664,1.579-1.664c1.021,0,1.579,0.605,1.579,1.664v3.442
				c0,1.058-0.557,1.663-1.579,1.663c-1.021,0-1.579-0.605-1.579-1.663V225.267z M62.4,228.775c0,0.473,0.209,0.652,0.539,0.652
				c0.331,0,0.539-0.179,0.539-0.652v-3.574c0-0.473-0.208-0.652-0.539-0.652c-0.33,0-0.539,0.179-0.539,0.652V228.775z"/>
			<path style="fill:#263238;" d="M61.36,234.726c0-1.059,0.558-1.664,1.579-1.664c1.021,0,1.579,0.605,1.579,1.664v3.442
				c0,1.059-0.557,1.664-1.579,1.664c-1.021,0-1.579-0.605-1.579-1.664V234.726z M62.4,238.234c0,0.473,0.209,0.652,0.539,0.652
				c0.331,0,0.539-0.179,0.539-0.652v-3.574c0-0.473-0.208-0.652-0.539-0.652c-0.33,0-0.539,0.179-0.539,0.652V238.234z"/>
			<path style="fill:#263238;" d="M62.088,262.348c0.804,0,0.983-0.388,1.144-0.832h0.7v6.618h-1.04v-5.048h-0.804V262.348z"/>
		</g>
	</g>
</g>
<g id="Icon_3">
	<g>
		<path style="fill:none;stroke:#263238;strokeLinecap:round;strokeLinejoin:round;stroke-miterlimit:10;" d="M378.904,256.627
			c-29.509-11.948-31.655-53.047-31.655-53.047h6.322v-4.907c14.982,0,25.333-9.301,25.333-9.301l0,0c0,0,10.351,9.301,25.333,9.301
			v4.907h6.322C410.56,203.581,408.413,244.679,378.904,256.627L378.904,256.627z"/>
		<path style="fill:none;stroke:#263238;strokeLinecap:round;strokeLinejoin:round;stroke-miterlimit:10;" d="M378.909,251.199
			c-19.335-9.058-24.939-33.025-26.482-43.374h5.776v-5.167c9.473-1.069,16.808-5.181,20.706-7.858
			c3.898,2.677,11.234,6.789,20.707,7.858v5.167h5.765C403.819,218.179,398.178,242.165,378.909,251.199z"/>
		<g>
			<path style="fill:#263238;" d="M389.197,232.179h-20.585c-0.746,0-1.352-0.605-1.352-1.352v-12.262
				c0-0.747,0.605-1.352,1.352-1.352h20.585c0.746,0,1.352,0.605,1.352,1.352v12.262
				C390.548,231.574,389.943,232.179,389.197,232.179z"/>
			<path style="fill:#263238;" d="M379.326,204.578c-4.805-0.237-8.79,3.604-8.79,8.358v0.871c0,0.324,0.263,0.587,0.587,0.587
				h2.116c0.324,0,0.587-0.263,0.587-0.587v-0.692c0-2.702,2.034-5.065,4.73-5.246c2.957-0.199,5.427,2.151,5.427,5.067v0.871
				c0,0.324,0.263,0.587,0.587,0.587h2.116c0.324,0,0.587-0.263,0.587-0.587v-0.628C387.272,208.678,383.821,204.8,379.326,204.578z
				"/>
			<path style="fill:#FFFFFF;stroke:#263238;strokeLinecap:round;strokeLinejoin:round;stroke-miterlimit:10;" d="
				M381.091,223.015c0-1.208-0.979-2.187-2.187-2.187s-2.187,0.979-2.187,2.187c0,0.865,0.507,1.606,1.236,1.961l-0.796,3.516h3.494
				l-0.796-3.516C380.584,224.621,381.091,223.88,381.091,223.015z"/>
		</g>
	</g>
</g>
<g id="Icon_2">
	<g>
		<path style="fill:none;stroke:#263238;strokeLinecap:round;strokeLinejoin:round;stroke-miterlimit:10;" d="M285.333,114.475
			h-70.667c-1.834,0-3.32-1.487-3.32-3.32V71.644c0-1.834,1.487-3.32,3.32-3.32h70.667c1.834,0,3.32,1.487,3.32,3.32v39.511
			C288.654,112.989,287.167,114.475,285.333,114.475z"/>
		<g>
			<path style="fill:none;stroke:#263238;strokeLinecap:round;strokeLinejoin:round;stroke-miterlimit:10;" d="M218.651,108.022
				h22.152c0.635,0,1.15-0.515,1.15-1.15V75.926c0-0.635-0.515-1.15-1.15-1.15h-22.152c-0.635,0-1.15,0.515-1.15,1.15v30.946
				C217.501,107.507,218.016,108.022,218.651,108.022z"/>
			<path style="fill:#263238;" d="M229.727,108.022h-11.123c-0.609,0-1.103-0.494-1.103-1.103v-7.677c0,0,6.245-0.274,7.294-1.601
				c1.049-1.328-0.111-3.403-0.111-3.403c-0.379-0.474-0.474-3.804-0.474-3.804s0,0-0.373-0.095
				c-0.374-0.095-0.859-2.855-0.859-3.898s0.859-1.422,0.859-1.422s-0.944-6.743,5.891-6.743c6.835,0,5.891,6.743,5.891,6.743
				s0.859,0.379,0.859,1.422s-0.486,3.804-0.859,3.898c-0.373,0.095-0.373,0.095-0.373,0.095s-0.095,3.329-0.474,3.804
				c0,0-1.16,2.076-0.111,3.403c1.049,1.327,7.294,1.601,7.294,1.601v7.677c0,0.609-0.494,1.103-1.103,1.103H229.727z"/>
		</g>
		<g>
			<path style="fill:#263238;" d="M280.901,108.182h-15.187c-0.639,0-1.157-0.518-1.157-1.157l0,0c0-0.639,0.518-1.157,1.157-1.157
				h15.187c0.639,0,1.157,0.518,1.157,1.157l0,0C282.058,107.664,281.54,108.182,280.901,108.182z"/>
			<path style="fill:#263238;" d="M280.901,76.931h-31.487c-0.639,0-1.157-0.518-1.157-1.157l0,0c0-0.639,0.518-1.157,1.157-1.157
				h31.487c0.639,0,1.157,0.518,1.157,1.157l0,0C282.058,76.413,281.54,76.931,280.901,76.931z"/>
			<path style="fill:#263238;" d="M267.477,84.743h-18.063c-0.639,0-1.157-0.518-1.157-1.157l0,0c0-0.639,0.518-1.157,1.157-1.157
				h18.063c0.639,0,1.157,0.518,1.157,1.157l0,0C268.634,84.225,268.116,84.743,267.477,84.743z"/>
			<path style="fill:#263238;" d="M261.724,92.556h-12.311c-0.639,0-1.157-0.518-1.157-1.157l0,0c0-0.639,0.518-1.157,1.157-1.157
				h12.311c0.639,0,1.157,0.518,1.157,1.157l0,0C262.881,92.038,262.363,92.556,261.724,92.556z"/>
			<path style="fill:#263238;" d="M267.477,100.369h-18.063c-0.639,0-1.157-0.518-1.157-1.157l0,0c0-0.639,0.518-1.157,1.157-1.157
				h18.063c0.639,0,1.157,0.518,1.157,1.157l0,0C268.634,99.851,268.116,100.369,267.477,100.369z"/>
		</g>
	</g>
</g>
<g id="Icon_1">
	<g>
		<g>
			<polygon style="fill:none;stroke:#263238;strokeLinecap:round;strokeLinejoin:round;stroke-miterlimit:10;" points="
				138.688,191.211 138.688,235.645 126.731,247.602 94.978,247.602 94.978,191.211 			"/>
			<polygon style="fill:#263238;stroke:#263238;strokeLinecap:round;strokeLinejoin:round;stroke-miterlimit:10;" points="
				138.688,235.645 126.731,247.602 126.731,235.645 			"/>
		</g>
		<g>
			
				<line style="fill:none;stroke:#263238;strokeLinecap:round;strokeLinejoin:round;stroke-miterlimit:10;" x1="105.624" y1="198.401" x2="132.012" y2="198.401"/>
			
				<line style="fill:none;stroke:#263238;strokeLinecap:round;strokeLinejoin:round;stroke-miterlimit:10;" x1="101.655" y1="203.367" x2="132.012" y2="203.367"/>
			
				<line style="fill:none;stroke:#263238;strokeLinecap:round;strokeLinejoin:round;stroke-miterlimit:10;" x1="101.655" y1="208.333" x2="132.012" y2="208.333"/>
			
				<line style="fill:none;stroke:#263238;strokeLinecap:round;strokeLinejoin:round;stroke-miterlimit:10;" x1="101.655" y1="213.299" x2="132.012" y2="213.299"/>
			
				<line style="fill:none;stroke:#263238;strokeLinecap:round;strokeLinejoin:round;stroke-miterlimit:10;" x1="101.655" y1="218.266" x2="132.012" y2="218.266"/>
			
				<line style="fill:none;stroke:#263238;strokeLinecap:round;strokeLinejoin:round;stroke-miterlimit:10;" x1="101.655" y1="223.232" x2="132.012" y2="223.232"/>
			
				<line style="fill:none;stroke:#263238;strokeLinecap:round;strokeLinejoin:round;stroke-miterlimit:10;" x1="101.655" y1="228.198" x2="132.012" y2="228.198"/>
			
				<line style="fill:none;stroke:#263238;strokeLinecap:round;strokeLinejoin:round;stroke-miterlimit:10;" x1="101.655" y1="233.164" x2="128.043" y2="233.164"/>
		</g>
		<g>
			<polyline style="fill:none;stroke:#263238;strokeLinecap:round;strokeLinejoin:round;stroke-miterlimit:10;" points="
				140.77,198.398 145.876,198.398 145.876,242.832 133.919,254.789 102.166,254.789 102.166,249.535 			"/>
			<polygon style="fill:#263238;stroke:#263238;strokeLinecap:round;strokeLinejoin:round;stroke-miterlimit:10;" points="
				145.876,242.832 133.919,254.789 133.919,242.832 			"/>
		</g>
	</g>
</g>
<g id="Fingerprint">
	<g>
		<path style="fill:#92E3A9;stroke:#263238;strokeLinecap:round;strokeLinejoin:round;stroke-miterlimit:10;" d="M302.501,285.688
			H197.499c-2.341,0-4.239-1.898-4.239-4.239V164.55c0-2.341,1.898-4.239,4.239-4.239h105.001c2.341,0,4.239,1.898,4.239,4.239
			V281.45C306.739,283.79,304.841,285.688,302.501,285.688z"/>
		<g style="opacity:0.5;">
			<g>
				
					<line style="fill:none;stroke:#FFFFFF;strokeLinecap:round;strokeLinejoin:round;stroke-miterlimit:10;" x1="304.453" y1="202.107" x2="195.547" y2="202.107"/>
				
					<line style="fill:none;stroke:#FFFFFF;strokeLinecap:round;strokeLinejoin:round;stroke-miterlimit:10;" x1="304.453" y1="216.036" x2="195.547" y2="216.036"/>
				
					<line style="fill:none;stroke:#FFFFFF;strokeLinecap:round;strokeLinejoin:round;stroke-miterlimit:10;" x1="304.453" y1="229.964" x2="195.547" y2="229.964"/>
				
					<line style="fill:none;stroke:#FFFFFF;strokeLinecap:round;strokeLinejoin:round;stroke-miterlimit:10;" x1="304.453" y1="243.893" x2="195.547" y2="243.893"/>
				
					<line style="fill:none;stroke:#FFFFFF;strokeLinecap:round;strokeLinejoin:round;stroke-miterlimit:10;" x1="304.453" y1="257.822" x2="195.547" y2="257.822"/>
				
					<line style="fill:none;stroke:#FFFFFF;strokeLinecap:round;strokeLinejoin:round;stroke-miterlimit:10;" x1="304.453" y1="271.751" x2="195.547" y2="271.751"/>
				
					<line style="fill:none;stroke:#FFFFFF;strokeLinecap:round;strokeLinejoin:round;stroke-miterlimit:10;" x1="304.453" y1="188.178" x2="195.547" y2="188.178"/>
				
					<line style="fill:none;stroke:#FFFFFF;strokeLinecap:round;strokeLinejoin:round;stroke-miterlimit:10;" x1="304.453" y1="174.249" x2="195.547" y2="174.249"/>
			</g>
			<g>
				
					<line style="fill:none;stroke:#FFFFFF;strokeLinecap:round;strokeLinejoin:round;stroke-miterlimit:10;" x1="278.43" y1="283.453" x2="278.43" y2="162.547"/>
				
					<line style="fill:none;stroke:#FFFFFF;strokeLinecap:round;strokeLinejoin:round;stroke-miterlimit:10;" x1="264.215" y1="283.453" x2="264.215" y2="162.547"/>
				
					<line style="fill:none;stroke:#FFFFFF;strokeLinecap:round;strokeLinejoin:round;stroke-miterlimit:10;" x1="250" y1="283.453" x2="250" y2="162.547"/>
				
					<line style="fill:none;stroke:#FFFFFF;strokeLinecap:round;strokeLinejoin:round;stroke-miterlimit:10;" x1="235.785" y1="283.453" x2="235.785" y2="162.547"/>
				
					<line style="fill:none;stroke:#FFFFFF;strokeLinecap:round;strokeLinejoin:round;stroke-miterlimit:10;" x1="221.57" y1="283.453" x2="221.57" y2="162.547"/>
				
					<line style="fill:none;stroke:#FFFFFF;strokeLinecap:round;strokeLinejoin:round;stroke-miterlimit:10;" x1="207.355" y1="283.453" x2="207.355" y2="162.547"/>
				
					<line style="fill:none;stroke:#FFFFFF;strokeLinecap:round;strokeLinejoin:round;stroke-miterlimit:10;" x1="292.645" y1="283.453" x2="292.645" y2="162.547"/>
			</g>
		</g>
		<g>
			<g>
				<path style="fill:none;stroke:#263238;strokeLinecap:round;strokeLinejoin:round;stroke-miterlimit:10;" d="M246.061,261.195
					c1.384-6.932,2.979-12.822,4.972-18.525c0.432-1.218,0.908-2.447,1.428-3.754c1.24-3.167,3.776-9.622,2.824-11.549
					c-0.221-0.432-0.653-0.731-1.063-0.731c-0.089,0-0.144,0.011-0.255,0.1c-2.824,2.303-4.639,8.692-5.957,13.354l-0.443,1.572
					c-1.772,6.134-2.934,12.623-3.698,19.123"/>
				<path style="fill:none;stroke:#263238;strokeLinecap:round;strokeLinejoin:round;stroke-miterlimit:10;" d="M250.203,261.472
					c1.329-6.5,2.835-12.069,4.728-17.44c0.399-1.163,0.875-2.381,1.384-3.665c1.971-5.027,4.429-11.261,2.658-14.827
					c-0.919-1.838-2.779-3.023-4.75-3.023c-1.063,0-2.026,0.343-2.868,1.03c-3.82,3.123-5.758,9.943-7.308,15.413l-0.443,1.561
					c-1.772,6.112-2.956,12.546-3.732,18.968"/>
				<path style="fill:none;stroke:#263238;strokeLinecap:round;strokeLinejoin:round;stroke-miterlimit:10;" d="M254.488,261.085
					c1.129-5.315,2.502-10.497,4.329-15.69c2.148-6.134,6.987-15.369,3.842-21.692c-2.569-5.171-9.312-7.098-13.907-3.344
					c-5.26,4.285-7.341,12.878-9.113,19.023c-1.694,5.868-2.868,11.97-3.676,18.06"/>
				<path style="fill:none;stroke:#263238;strokeLinecap:round;strokeLinejoin:round;stroke-miterlimit:10;" d="M258.983,259.845
					c1.074-4.75,2.281-8.991,3.72-13.088c0.354-1.019,0.808-2.159,1.284-3.377c2.569-6.533,5.758-14.671,2.359-21.514
					c-2.292-4.606-7.053-7.585-12.125-7.585c-2.967,0-5.758,0.997-8.072,2.879c-5.835,4.761-8.161,12.966-10.032,19.554
					l-0.432,1.528c-1.539,5.315-2.657,10.818-3.466,16.332"/>
				<path style="fill:none;stroke:#263238;strokeLinecap:round;strokeLinejoin:round;stroke-miterlimit:10;" d="M263.789,257.464
					c0.841-3.3,1.761-6.367,2.801-9.345c0.343-0.963,0.764-2.06,1.218-3.211c2.724-6.932,6.444-16.399,2.226-24.87
					c-2.979-6.001-9.19-9.877-15.812-9.877c-3.931,0-7.618,1.318-10.674,3.809c-6.843,5.581-9.368,14.472-11.394,21.625
					l-0.432,1.517c-1.285,4.451-2.292,9.024-3.067,13.608"/>
				<path style="fill:none;stroke:#263238;strokeLinecap:round;strokeLinejoin:round;stroke-miterlimit:10;" d="M268.75,253.445
					c0.949-6.608,6.23-14.451,6.754-23.618c0.48-8.399-2.288-13.779-4.242-16.481c-0.968-1.339-1.138-3.066-0.579-4.621
					c0.884-2.455,1.635-6.579-0.129-11.851"/>
				<path style="fill:none;stroke:#263238;strokeLinecap:round;strokeLinejoin:round;stroke-miterlimit:10;" d="M256.226,184.528
					c6.959,4.353,11.495,11.209,11.824,20.025c0.118,3.174-2.464,4.271-5.695,3.285c-6.768-2.065-22.888-7.337-32.715,20.294
					c-1.989,5.592-3.145,11.649-4.152,17.583"/>
				<path style="fill:none;stroke:#263238;strokeLinecap:round;strokeLinejoin:round;stroke-miterlimit:10;" d="M242.385,184.982
					c1.672,0.022,7.048,0,12.494,2.925c6.597,3.544,10.756,11.888,8.626,14.017c-2.354,2.354-6.735-3.34-20.123,2.151
					c-6.448,2.645-11.012,8.012-14.122,14.116c-1.417,2.781-2.561,5.695-3.54,8.656c-1.251,3.787-2.248,7.707-3.067,11.649"/>
				<path style="fill:none;stroke:#263238;strokeLinecap:round;strokeLinejoin:round;stroke-miterlimit:10;" d="M234.8,190.075
					c2.757-0.753,5.249-0.93,7.253-0.974c11.815-0.263,16.251,6.034,14.949,7.637c-1.091,1.344-3.517,0.587-6.852,0.996
					c-9.62,1.178-17.221,6.651-22.346,14.742c-2.577,4.068-4.473,8.519-5.992,13.077c-0.277,0.83-0.532,1.661-0.786,2.491"/>
				<path style="fill:none;stroke:#263238;strokeLinecap:round;strokeLinejoin:round;stroke-miterlimit:10;" d="M229.224,196.874
					c5.316-4.148,10.288-4.697,13.966-4.628c1.501,0.028,5.196,0.488,5.696,1.904c0.657,1.862-5.353-0.666-14.072,5.147
					c-11.17,7.447-12.525,14.506-12.525,14.506"/>
				<path style="fill:none;stroke:#263238;strokeLinecap:round;strokeLinejoin:round;stroke-miterlimit:10;" d="M273.493,248.439
					c0,0,6.054-13.083,5.437-23.197c-0.397-6.512-3.61-10.597-4.119-13.498c-0.509-2.901,0.9-3.653,0.521-6.267"/>
			</g>
			<g>
				<polyline style="fill:none;stroke:#263238;strokeLinecap:round;strokeLinejoin:round;stroke-miterlimit:10;" points="
					200.898,186.841 200.898,168.362 219.378,168.362 				"/>
				<polyline style="fill:none;stroke:#263238;strokeLinecap:round;strokeLinejoin:round;stroke-miterlimit:10;" points="
					219.378,277.638 200.898,277.638 200.898,259.159 				"/>
				<polyline style="fill:none;stroke:#263238;strokeLinecap:round;strokeLinejoin:round;stroke-miterlimit:10;" points="
					299.102,186.841 299.102,168.362 280.622,168.362 				"/>
				<polyline style="fill:none;stroke:#263238;strokeLinecap:round;strokeLinejoin:round;stroke-miterlimit:10;" points="
					280.622,277.638 299.102,277.638 299.102,259.159 				"/>
			</g>
		</g>
	</g>
</g>
<g id="Hand">
	<g>
		<path style="fill:#FFFFFF;" d="M377.598,447.56c-4.825-7.207-9.882-14.848-14.038-21.157c-0.009-0.009-0.017-0.017-0.017-0.026
			c-5.306-8.053-9.134-13.925-9.134-13.925c-2.035-9.512-4.919-13.247-7.812-21.059c-2.885-7.812-0.507-14.775,0.687-24.45
			c1.185-9.684-0.687-18.681-1.7-24.793c-1.022-6.113,0.172-11.89,0-13.247c-0.172-1.356-5.949-8.49-8.156-13.753
			c-0.987-2.361-2.412-4.55-4.095-6.396c-2.06-2.275-4.499-4.043-6.937-4.979c-1.254-0.481-2.395-0.756-3.451-0.901
			c-2.696-0.386-4.893,0.051-7.082,0.051c-3.056,0-9.504-5.262-13.753-6.104c-0.79-0.155-1.58-0.266-2.387-0.335h-0.034
			c-3.511-0.326-7.194,0.043-11.332,0.326c-4.069,0.266-8.885-3.563-12.732-4.782c-0.017-0.009-0.043-0.017-0.069-0.026
			c-0.953-0.292-1.846-0.429-2.653-0.292c-4.078,0.678-11.718,1.356-11.718,1.356s-0.678-5.263-1.022-12.397
			c-0.06-1.236-0.146-2.43-0.258-3.597v-0.026c-0.395-4.404-1.03-8.344-1.133-11.942c-0.034-0.944-0.026-1.871,0.034-2.773
			c0.335-5.082,0.18-9.066,0.017-16.835c-0.009-0.266-0.009-0.541-0.017-0.824c-0.051-2.43-0.026-4.748-0.146-6.851
			c0-0.009-0.009-0.009-0.009-0.009c-0.283-5.082-1.408-8.834-6.464-9.615c-4.421-0.678-7.478,1.528-9.34,8.834
			c-1.872,7.306-3.228,6.791-3.734,17.488c-0.515,10.697-2.893,17.496-2.55,22.93c0.335,5.434-0.85,15.959-0.85,15.959
			c-2.035-1.022-3.906-0.172-4.258,0.678c-0.352,0.85-1.854,9.169-3.048,15.118c-1.056,5.28-5.863,10.165-7.641,13.805
			c-0.017,0.026-0.026,0.06-0.043,0.086c-0.197,0.421-0.361,0.833-0.464,1.219c-1.022,3.734-0.506,11.718-0.506,21.909
			c0,10.182-2.55,20.715,0,27.506c0.506,1.348,1.279,2.601,2.249,3.803c3.906,4.833,11.083,8.997,17.616,16.741
			c8.147,9.684,13.925,16.818,19.359,20.046c3.889,2.301,5.597,4.172,6.31,6.653c0.009,0.017,0.009,0.026,0.009,0.026
			c0.283,0.979,0.403,2.06,0.446,3.288c0.069,2.163,1.245,3.82,3.228,6.568c2.009,2.781,4.842,6.679,8.173,13.349
			c2.177,4.354,5.511,12.646,9.006,21.814L377.598,447.56z"/>
		<g>
			<path style="opacity:0.4;fill:#92E3A9;" d="M258.807,262.336c-0.06,0.901-0.069,1.829-0.034,2.773
				c-6.49-1.228-19.024,1.975-19.213,5.803c-0.223,4.67-0.79,15.71,1.588,18.277c2.378,2.567,7.469,4.224,7.469,4.224
				c-0.386,0.026-0.756,0.077-1.116,0.146c-0.009,0-0.017,0.009-0.017,0.009c-0.043,0.008-0.086,0.017-0.12,0.026
				c-1.7,0.361-3.108,1.202-4.25,2.387l-0.009,0.009c-4.962,5.091-5.177,16.38-3.545,21.814c6.799,22.57-4.215,40.444-8.104,38.28
				c-3.889-2.155-4.232-21.574-3.048-26.124c1.193-4.55,1.039-8.164,1.039-8.164c-1.734-0.575-5.374,0.266-8.722,1.305
				c0.017-0.026,0.026-0.06,0.043-0.086c1.777-3.64,6.585-8.525,7.641-13.805c1.193-5.949,2.696-14.268,3.048-15.118
				c0.352-0.85,2.223-1.7,4.258-0.678c0,0,1.185-10.525,0.85-15.959c-0.343-5.434,2.035-12.233,2.55-22.93
				c0.506-10.697,1.863-10.182,3.734-17.488c1.863-7.306,4.919-9.512,9.34-8.834c5.057,0.781,6.181,4.533,6.464,9.615
				c-0.567-0.524-1.185-1.039-1.846-1.494c-1.666-1.15-3.606-1.949-5.623-1.665c-2.344,0.326-4.395,2.67-5.692,5.168v0.009
				c-1.872,3.589-2.181,7.486,0.455,6.164c2.979-1.494,9.126-0.996,12.877-0.498C258.987,253.271,259.142,257.254,258.807,262.336z"
				/>
			<path style="opacity:0.4;fill:#92E3A9;" d="M265.744,424.291c-0.043-1.228-0.163-2.309-0.446-3.288c0,0,0-0.009-0.009-0.026
				c-0.713-2.481-2.421-4.353-6.31-6.653c-5.434-3.228-11.212-10.362-19.359-20.046c-6.533-7.744-13.71-11.907-17.616-16.741
				c4.919,2.67,11.598,1.296,13.71,5.512c3.056,6.087,17.436,15.307,17.436,15.307C267.186,412.281,265.744,424.291,265.744,424.291
				z"/>
			<path style="opacity:0.4;fill:#92E3A9;" d="M275.556,292.006c-1.648-0.335-6.13,10.705-6.559,14.629
				c-1.125,10.156,4.086,41.482-2.618,40.778c-2.773-0.292-6.018-14.921-6.216-21.737c-0.601-20.715,0.232-29.317,0.232-29.317
				s-1.485-11.47-0.489-19.282c0.112,1.168,0.198,2.361,0.258,3.597c0.343,7.134,1.022,12.397,1.022,12.397
				s7.641-0.678,11.718-1.356C273.71,291.577,274.603,291.714,275.556,292.006z"/>
			<path style="opacity:0.4;fill:#92E3A9;" d="M299.688,296.487c-3.614,0.326-7.246,3.863-10.199,4.499
				c-3.623,0.773-10.25-7.366-13.865-8.954c3.846,1.219,8.662,5.048,12.732,4.782C292.494,296.53,296.177,296.161,299.688,296.487z"
				/>
			<path style="opacity:0.4;fill:#92E3A9;" d="M322.945,302.875c-1.305,1.408-3.691,5.546-4.267,7.417
				c-2.91,9.401-0.163,44.977-4.85,39.156c-6.112-7.572,0.266-33.825-4.181-43.852c-1.417-3.211-6.439-8.336-7.538-8.774
				c4.25,0.841,10.697,6.104,13.753,6.104C318.052,302.926,320.249,302.488,322.945,302.875z"/>
			<path style="opacity:0.4;fill:#92E3A9;" d="M363.543,426.377c-4.756-5.366-9.744-10.474-13.006-12.397
				c-7.941-4.67-10.216-9.512-10.903-17.582c-0.678-8.078,1.365-7.89,3.743-15.865c2.378-7.984-2.043-17.84-1.7-15.71
				c0.335,2.129-3.4,16.895-6.155,17.625c-2.764,0.721-3.692-9.22-4.035-17.333c-0.343-8.113,4.078-45.886,2.842-53.269
				c-0.197-1.193-0.541-2.215-0.996-3.091c1.683,1.846,3.108,4.035,4.095,6.396c2.206,5.263,7.984,12.397,8.156,13.753
				c0.172,1.357-1.022,7.134,0,13.247c1.013,6.112,2.884,15.109,1.7,24.793c-1.193,9.675-3.571,16.638-0.687,24.45
				c2.893,7.812,5.778,11.547,7.812,21.059C354.409,412.453,358.238,418.325,363.543,426.377z"/>
			<path style="opacity:0.4;fill:#92E3A9;" d="M291.864,316.588c1.806,1.898,2.943,26.751,3.962,32.864
				c1.019,6.113-2.151,20.745-3.962,16.316C290.053,361.339,284.506,308.856,291.864,316.588z"/>
		</g>
		<g>
			<path style="fill:none;stroke:#263238;strokeLinecap:round;strokeLinejoin:round;stroke-miterlimit:10;" d="M284.813,462.538
				c-2.995-7.75-5.772-14.535-7.669-18.33c-3.331-6.671-6.164-10.568-8.173-13.35c-1.983-2.747-3.159-4.404-3.228-6.568
				c-0.043-1.228-0.163-2.309-0.446-3.288c0,0,0-0.009-0.009-0.026c-0.713-2.481-2.421-4.353-6.31-6.653
				c-5.434-3.228-11.212-10.362-19.359-20.046c-6.533-7.744-13.71-11.907-17.616-16.741c-0.97-1.202-1.743-2.455-2.249-3.803
				c-2.55-6.791,0-17.324,0-27.506c0-10.19-0.515-18.174,0.506-21.909c0.103-0.386,0.266-0.798,0.464-1.219
				c0.017-0.026,0.026-0.06,0.043-0.086c1.777-3.64,6.585-8.525,7.641-13.805c1.193-5.949,2.696-14.268,3.048-15.118
				c0.352-0.85,2.223-1.7,4.258-0.678c0,0,1.185-10.525,0.85-15.959c-0.343-5.434,2.035-12.233,2.55-22.93
				c0.506-10.697,1.863-10.182,3.734-17.488c1.863-7.306,4.919-9.512,9.34-8.834c5.057,0.781,6.181,4.533,6.464,9.615
				c0,0,0.009,0,0.009,0.009c0.12,2.103,0.094,4.421,0.146,6.851c0.009,0.283,0.009,0.558,0.017,0.824
				c0.163,7.769,0.318,11.753-0.017,16.835c-0.06,0.901-0.069,1.829-0.034,2.773c0.103,3.597,0.738,7.538,1.133,11.942v0.026
				c0.112,1.168,0.198,2.361,0.258,3.597c0.343,7.134,1.022,12.397,1.022,12.397s7.641-0.678,11.718-1.356
				c0.807-0.137,1.7,0,2.653,0.292c0.026,0.009,0.052,0.017,0.069,0.026c3.846,1.219,8.662,5.048,12.732,4.782
				c4.138-0.283,7.821-0.652,11.332-0.326h0.034c0.807,0.069,1.597,0.18,2.387,0.335c4.25,0.841,10.697,6.104,13.753,6.104
				c2.189,0,4.387-0.438,7.082-0.051c1.056,0.146,2.198,0.421,3.451,0.901c2.438,0.936,4.876,2.704,6.937,4.979
				c1.683,1.846,3.108,4.035,4.095,6.396c2.206,5.263,7.984,12.397,8.156,13.753c0.172,1.357-1.022,7.134,0,13.247
				c1.013,6.112,2.884,15.109,1.7,24.793c-1.193,9.675-3.571,16.638-0.687,24.45c2.893,7.812,5.778,11.547,7.812,21.059
				c0,0,3.829,5.872,9.134,13.925c0,0.009,0.009,0.017,0.017,0.026c3.685,5.594,8.079,12.237,12.392,18.695"/>
			<path style="fill:none;stroke:#263238;strokeLinecap:round;strokeLinejoin:round;stroke-miterlimit:10;" d="M235.713,293.414
				c0,7.472-0.679,16.755-1.811,20.604c-1.132,3.849-0.365,16.755-2.446,22.189"/>
			<path style="fill:none;stroke:#263238;strokeLinecap:round;strokeLinejoin:round;stroke-miterlimit:10;" d="M239.562,299.301
				c0,0,5.208-5.887,9.057-5.887c3.849,0,7.698,2.491,11.774,2.943c4.076,0.453,8.317-2.56,12.227-3.28"/>
			<path style="fill:none;stroke:#263238;strokeLinecap:round;strokeLinejoin:round;stroke-miterlimit:10;" d="M242.505,272.055
				c0,0,7.019-2.567,10.642,0"/>
			<path style="fill:none;stroke:#263238;strokeLinecap:round;strokeLinejoin:round;stroke-miterlimit:10;" d="M247.826,268.735
				c0,0,2.151-0.582,5.321,0.954"/>
			<path style="fill:none;stroke:#263238;strokeLinecap:round;strokeLinejoin:round;stroke-miterlimit:10;" d="M245.949,250.622
				c0,0,3.575-0.906,7.198,0"/>
			<path style="fill:none;stroke:#263238;strokeLinecap:round;strokeLinejoin:round;stroke-miterlimit:10;" d="M220.77,323.012
				c0,0,4.528-2.201,6.34-2.428"/>
			<path style="fill:none;stroke:#263238;strokeLinecap:round;strokeLinejoin:round;stroke-miterlimit:10;" d="M232.666,329.961
				c0,0-2.693,4.208-3.219,6.246"/>
			<path style="fill:none;stroke:#263238;strokeLinecap:round;strokeLinejoin:round;stroke-miterlimit:10;" d="M245.949,232.282
				c0,0-1.084,8.646,0,9.417c1.084,0.771,9.462,1.493,10.141,0c0.679-1.493,0.807-7.832,0.807-7.832
				S251.884,225.263,245.949,232.282z"/>
			<path style="fill:none;stroke:#263238;strokeLinecap:round;strokeLinejoin:round;stroke-miterlimit:10;" d="M228.411,309.207
				c0,0,6.943-3.501,7.112-8.513c0.169-5.012-1.878-4.962-4.466-4.989"/>
			<path style="fill:none;stroke:#263238;strokeLinecap:round;strokeLinejoin:round;stroke-miterlimit:10;" d="M336.694,320.584
				c0.226,7.925-2.038,31.019-2.264,34.415c-0.227,3.396,0,12.078,0,12.078"/>
			<path style="fill:none;stroke:#263238;strokeLinecap:round;strokeLinejoin:round;stroke-miterlimit:10;" d="M287.109,302.456
				c7.472,10.883,0,6.751,4.755,58.657"/>
			<path style="fill:none;stroke:#263238;strokeLinecap:round;strokeLinejoin:round;stroke-miterlimit:10;" d="M354.411,412.452
				c0,0-6.623-5.151-7.755-8.094"/>
			<path style="fill:none;stroke:#263238;strokeLinecap:round;strokeLinejoin:round;stroke-miterlimit:10;" d="M261.975,410.014
				c1.983,3.297,3.245,10.517,3.314,10.963c0.009,0.017,0.009,0.026,0.009,0.026"/>
		</g>
	</g>
</g>
</svg>
