<?xml version="1.0" encoding="utf-8"?>
<!-- Generator: Adobe Illustrator 27.5.0, SVG Export Plug-In . SVG Version: 6.00 Build 0)  -->
<svg version="1.1" xmlns="http://www.w3.org/2000/svg" xmlns:xlink="http://www.w3.org/1999/xlink" x="0px" y="0px"
	 viewBox="0 0 500 500" style="enable-background:new 0 0 500 500;" xml:space="preserve">
<g id="Floor_1_">
	<path id="Floor_10_" style="fill:#F5F5F5;" d="M104.736,441.973c80.573,42.464,211.207,42.466,291.779,0.001
		c80.573-42.466,80.573-111.314,0-153.779c-80.573-42.465-211.207-42.465-291.78-0.001
		C24.162,330.659,24.162,399.509,104.736,441.973z"/>
</g>
<g id="Shadow">
	<path id="Shadow_2_" style="fill:#E0E0E0;" d="M70.193,388.849l3.739,2.135c1.197,0.688,3.137,0.686,4.333-0.005l172.811-99.766
		c1.196-0.69,1.194-1.807-0.003-2.494l-3.713-2.118c-1.198-0.687-3.138-0.685-4.334,0.006L70.19,386.354
		C68.994,387.044,68.996,388.161,70.193,388.849z"/>
	<path id="Shadow_32_" style="fill:#E0E0E0;" d="M356.971,416.325c-20.595,11.293-53.986,11.293-74.582,0
		c-20.596-11.29-20.596-29.599,0-40.892c20.595-11.29,53.986-11.29,74.582,0C377.567,386.726,377.567,405.035,356.971,416.325z"/>
	<path id="Shadow_1_" style="fill:#E0E0E0;" d="M409.38,339.58c-15.889,8.712-41.65,8.712-57.539,0
		c-15.889-8.71-15.889-22.835,0-31.548c15.889-8.71,41.65-8.71,57.539,0C425.27,316.745,425.27,330.87,409.38,339.58z"/>
</g>
<g id="Plants">
	<g id="Plants_3_">
		<g id="XMLID_2661_">
			<g id="XMLID_2666_">
				<path id="XMLID_2670_" style="fill:#27DEBF;" d="M400.509,301.393c-0.061-5.109,3.506-15.734,8.728-22.432
					c5.221-6.697,13.498-11.647,19.443-9.693c5.537,1.82,5.027,9.061-1.606,13.936c-6.633,4.874-16.617,11.017-19.46,19.339
					l-6.051,10.242L400.509,301.393z"/>
				<path id="XMLID_2669_" style="opacity:0.1;" d="M400.509,301.393c-0.061-5.109,3.506-15.734,8.728-22.432
					c5.221-6.697,13.498-11.647,19.443-9.693c5.537,1.82,5.027,9.061-1.606,13.936c-6.633,4.874-16.617,11.017-19.46,19.339
					l-6.051,10.242L400.509,301.393z"/>
			</g>
			<g id="XMLID_2663_">
				<path id="XMLID_2664_" style="fill:#FFFFFF;" d="M400.216,308.388c0.163-0.015,0.302-0.137,0.333-0.304
					c3.211-17.48,17.148-31.824,25.554-35.057c0.192-0.074,0.288-0.29,0.214-0.482c-0.073-0.191-0.285-0.292-0.482-0.214
					c-8.566,3.295-22.761,17.874-26.02,35.619c-0.037,0.202,0.097,0.397,0.299,0.434
					C400.149,308.39,400.183,308.392,400.216,308.388z"/>
			</g>
		</g>
		<g id="XMLID_2644_">
			<g id="XMLID_2658_">
				<path id="XMLID_2660_" style="fill:#27DEBF;" d="M402.951,319.52c0.786-2.881,4.237-7.663,9.863-11.645
					c6.224-4.406,14.142-6.492,15.932-9.885c2.151-4.075-1.308-7.86-7.745-6.983c-6.437,0.877-17.665,9.809-19.318,23.073
					L402.951,319.52z"/>
			</g>
			<g id="XMLID_2645_">
				<path id="XMLID_2646_" style="fill:#FFFFFF;" d="M401.667,316.521c0.142-0.013,0.269-0.107,0.319-0.251
					c5.168-15.004,16.504-20.384,21.775-21.133c0.204-0.029,0.346-0.218,0.317-0.422c-0.029-0.205-0.21-0.347-0.422-0.317
					c-5.829,0.828-17.1,6.315-22.376,21.63c-0.067,0.195,0.037,0.408,0.232,0.475C401.563,316.52,401.616,316.526,401.667,316.521z"
					/>
			</g>
		</g>
	</g>
</g>
<g id="Tabs">
	<g id="Tab_7_">
		<g id="XMLID_688_">
			<path id="XMLID_708_" style="fill:#27DEBF;" d="M74.852,386.331l-0.759-0.438c-1.214-0.701-2.198-2.405-2.198-3.807l0-256.254
				c0-1.402,0.984-3.106,2.198-3.807L239.21,26.703c1.214-0.701,3.182-0.701,4.396,0l0.759,0.438
				c1.214,0.701,2.198,2.405,2.198,3.807l0,256.254c0,1.402-0.984,3.106-2.198,3.807L79.248,386.331
				C78.034,387.032,76.065,387.032,74.852,386.331z"/>
			<path id="XMLID_707_" style="opacity:0.4;fill:#FFFFFF;" d="M246.541,30.595c-0.15-1.14-1.071-1.554-2.176-0.921l-165.122,95.33
				c-0.61,0.345-1.151,0.955-1.554,1.635l-5.146-2.97c0.391-0.691,0.944-1.289,1.554-1.646l165.111-95.319
				c1.22-0.702,3.189-0.702,4.397,0l0.76,0.438C245.471,27.787,246.403,29.272,246.541,30.595z"/>
			<path id="XMLID_691_" style="opacity:0.1;" d="M78.875,386.504c-1.209,0.518-2.924,0.46-4.018-0.173l-0.771-0.438
				c-1.209-0.702-2.187-2.406-2.187-3.81v-256.25c0-0.702,0.242-1.485,0.645-2.164l5.146,2.97c-0.391,0.691-0.645,1.473-0.645,2.164
				v256.261C77.045,386.32,77.839,386.907,78.875,386.504z"/>
		</g>
	</g>
	<g id="Tabs_1_">
		<g id="Tab_4_">
			<g id="XMLID_2463_">
				<path id="XMLID_2467_" style="fill:#EBEBEB;" d="M96.52,293.653l-0.759-0.438c-1.214-0.701-2.198-2.406-2.198-3.807l0-46.059
					c0-1.402,0.984-3.106,2.198-3.807l149.907-86.629c1.214-0.701,3.182-0.701,4.396,0l0.759,0.438
					c1.214,0.701,2.198,2.405,2.198,3.807l0,46.059c0,1.402-0.984,3.106-2.198,3.807l-149.907,86.629
					C99.702,294.354,97.734,294.354,96.52,293.653z"/>
				<path id="XMLID_2465_" style="fill:#FAFAFA;" d="M253,156.805c-0.15-1.14-1.07-1.554-2.176-0.921l-149.912,86.638
					c-0.61,0.345-1.151,0.956-1.554,1.635l-5.146-2.97c0.392-0.691,0.944-1.289,1.554-1.646l149.901-86.627
					c1.22-0.702,3.189-0.702,4.397,0l0.76,0.437C251.929,153.996,252.862,155.481,253,156.805z"/>
				<path id="XMLID_2464_" style="fill:#E0E0E0;" d="M100.543,293.826c-1.209,0.518-2.924,0.46-4.018-0.173l-0.771-0.437
					c-1.209-0.702-2.187-2.406-2.187-3.81v-46.055c0-0.702,0.242-1.485,0.645-2.164l5.146,2.97
					c-0.391,0.691-0.645,1.473-0.645,2.164v46.066C98.713,293.642,99.507,294.229,100.543,293.826z"/>
			</g>
			<g id="XMLID_2459_">
				<path id="XMLID_2462_" style="fill:#27DEBF;" d="M122.113,239.43c8.55-4.937,15.481-1.096,15.48,8.579
					c-0.001,9.674-6.94,21.439-15.498,26.276c-8.559,4.838-15.497,0.993-15.493-8.582
					C106.606,256.127,113.563,244.366,122.113,239.43z"/>
			</g>
		</g>
		<g id="Tab_5_">
			<g id="XMLID_2468_">
				<path id="XMLID_2471_" style="fill:#EBEBEB;" d="M96.52,356.071l-0.759-0.438c-1.214-0.701-2.198-2.406-2.198-3.807l0-46.059
					c0-1.402,0.984-3.106,2.198-3.807l149.907-86.629c1.214-0.701,3.182-0.701,4.396,0l0.759,0.438
					c1.214,0.701,2.198,2.405,2.198,3.807l0,46.059c0,1.402-0.984,3.106-2.198,3.807l-149.907,86.629
					C99.702,356.772,97.734,356.772,96.52,356.071z"/>
				<path id="XMLID_2470_" style="fill:#FAFAFA;" d="M253,219.223c-0.15-1.14-1.07-1.554-2.176-0.921L100.912,304.94
					c-0.61,0.345-1.151,0.956-1.554,1.635l-5.146-2.97c0.392-0.691,0.944-1.289,1.554-1.646l149.901-86.627
					c1.22-0.702,3.189-0.702,4.397,0l0.76,0.437C251.929,216.414,252.862,217.899,253,219.223z"/>
				<path id="XMLID_2469_" style="fill:#E0E0E0;" d="M100.543,356.244c-1.209,0.518-2.924,0.46-4.018-0.173l-0.771-0.438
					c-1.209-0.702-2.187-2.406-2.187-3.81v-46.055c0-0.702,0.242-1.485,0.645-2.164l5.146,2.97
					c-0.391,0.691-0.645,1.473-0.645,2.164v46.066C98.713,356.06,99.507,356.647,100.543,356.244z"/>
			</g>
			<g id="XMLID_2460_">
				<path id="XMLID_2461_" style="fill:#27DEBF;" d="M122.113,301.848c8.55-4.936,15.481-1.096,15.48,8.579
					c-0.001,9.674-6.94,21.439-15.498,26.276c-8.559,4.838-15.497,0.993-15.493-8.582
					C106.606,318.545,113.563,306.784,122.113,301.848z"/>
			</g>
		</g>
		<g id="Tab_6_">
			<g id="XMLID_2474_">
				<path id="XMLID_2477_" style="fill:#EBEBEB;" d="M96.52,189.268l-0.759-0.438c-1.214-0.701-2.198-2.406-2.198-3.807l0-46.059
					c0-1.402,0.984-3.106,2.198-3.807l149.907-86.629c1.214-0.701,3.182-0.701,4.396,0l0.759,0.438
					c1.214,0.701,2.198,2.405,2.198,3.807l0,46.059c0,1.402-0.984,3.106-2.198,3.807l-149.907,86.629
					C99.702,189.969,97.734,189.969,96.52,189.268z"/>
				<path id="XMLID_2476_" style="fill:#FAFAFA;" d="M253,52.42c-0.15-1.14-1.07-1.554-2.176-0.921l-149.912,86.638
					c-0.61,0.345-1.151,0.955-1.554,1.635l-5.146-2.97c0.392-0.691,0.944-1.289,1.554-1.646l149.901-86.627
					c1.22-0.702,3.189-0.702,4.397,0l0.76,0.438C251.929,49.611,252.862,51.096,253,52.42z"/>
				<path id="XMLID_2475_" style="fill:#E0E0E0;" d="M100.543,189.441c-1.209,0.518-2.924,0.461-4.018-0.173l-0.771-0.437
					c-1.209-0.702-2.187-2.406-2.187-3.81v-46.055c0-0.702,0.242-1.485,0.645-2.164l5.146,2.97
					c-0.391,0.691-0.645,1.473-0.645,2.164v46.066C98.713,189.257,99.507,189.844,100.543,189.441z"/>
			</g>
			<g id="XMLID_2472_">
				<path id="XMLID_2473_" style="fill:#27DEBF;" d="M122.113,135.045c8.55-4.936,15.481-1.096,15.48,8.579
					c-0.001,9.674-6.94,21.439-15.498,26.276c-8.559,4.838-15.497,0.993-15.493-8.582
					C106.606,151.742,113.563,139.981,122.113,135.045z"/>
			</g>
		</g>
		<g id="Tab_3_">
			<g id="XMLID_2483_">
				<path id="XMLID_2486_" style="fill:#37474F;" d="M107.056,247.746l-0.759-0.438c-1.214-0.701-2.198-2.406-2.198-3.807l0-46.059
					c0-1.402,0.984-3.106,2.198-3.807l149.907-86.629c1.214-0.701,3.182-0.701,4.396,0l0.759,0.438
					c1.214,0.701,2.198,2.406,2.198,3.807l0,46.059c0,1.402-0.984,3.106-2.198,3.807l-149.907,86.629
					C110.238,248.447,108.27,248.447,107.056,247.746z"/>
				<path id="XMLID_2485_" style="fill:#455A64;" d="M263.536,110.898c-0.15-1.14-1.071-1.554-2.176-0.921l-149.912,86.638
					c-0.61,0.345-1.151,0.956-1.554,1.635l-5.146-2.97c0.391-0.691,0.944-1.289,1.554-1.646l149.901-86.627
					c1.22-0.702,3.189-0.702,4.397,0l0.76,0.438C262.465,108.089,263.398,109.574,263.536,110.898z"/>
				<path id="XMLID_2484_" style="fill:#263238;" d="M111.08,247.919c-1.209,0.518-2.924,0.46-4.017-0.173l-0.771-0.437
					c-1.209-0.702-2.187-2.406-2.187-3.81v-46.055c0-0.702,0.242-1.485,0.645-2.164l5.146,2.97
					c-0.391,0.691-0.645,1.473-0.645,2.164v46.066C109.249,247.735,110.044,248.322,111.08,247.919z"/>
			</g>
			<g id="XMLID_2478_">
				<path id="XMLID_2482_" style="fill:#F5F5F5;" d="M132.649,193.523c8.55-4.937,15.481-1.096,15.48,8.579
					c-0.001,9.674-6.94,21.439-15.498,26.276c-8.559,4.838-15.497,0.993-15.493-8.582
					C117.143,210.22,124.099,198.459,132.649,193.523z"/>
				<g id="XMLID_2480_">
					<path id="XMLID_2481_" style="fill:#27DEBF;" d="M132.955,221.351c-0.728,0.42-1.421,0.456-1.899,0.094l-6.8-5.144
						c-0.909-0.686-0.795-2.583,0.255-4.238c1.048-1.659,2.638-2.439,3.542-1.751l4.74,3.584l13.162-28.289
						c0.823-1.767,2.394-2.95,3.511-2.648c1.119,0.302,1.359,1.98,0.538,3.744l-15.025,32.295c-0.453,0.973-1.161,1.817-1.925,2.294
						C133.022,221.312,132.988,221.332,132.955,221.351z"/>
				</g>
			</g>
		</g>
	</g>
</g>
<g id="Cursor">
	<g id="XMLID_2457_">
		<g id="XMLID_2442_">
			<g id="XMLID_2448_">
				<path id="XMLID_2082_" style="fill:#27DEBF;" d="M263.521,179.301l-4.347-2.51l0,0.011c-1.891-1.086-4.201-0.012-5.424,0.739
					l-2.712-1.565v0c-3.292-1.988-7.867,2.17-8.891,3.168l-1.173-0.677l0.001,0.002c-3.49-2.105-9.832,3.526-9.832,3.526v-20.952
					l2.755-1.335l-4.384-2.535c-0.003-0.002-0.006-0.004-0.01-0.006l-0.03-0.018l-0.001,0.003c-1.007-0.561-2.385-0.471-3.908,0.408
					l0,0c-3.081,1.779-5.578,6.105-5.578,9.662v48.569c-4.009-2.974-8.273-4.799-12.013-4.134c-3.372,0.6-6.385,3.472-7.26,5.014
					c-1.845,3.252,1.199,5.293,5.12,9.778c3.886,4.445,7.315,9.798,10.855,13.1c3.541,3.303,6.107,4.162,6.107,4.162v6.331
					l4.308,2.487l28.471-21.412v-6.331c0,0,4.068-16.216,5.367-22.994c1.251-6.527,2.401-16.931,0.252-22.334l2.326-0.158
					L263.521,179.301z"/>
				<path id="XMLID_2080_" style="opacity:0.4;fill:#FFFFFF;" d="M263.521,179.301l-4.347-2.51l0,0.011
					c-1.891-1.086-4.201-0.012-5.424,0.739l-2.712-1.565v0c-3.292-1.988-7.867,2.17-8.891,3.168l-1.173-0.677l0.001,0.002
					c-3.49-2.105-9.832,3.526-9.832,3.526v-20.952l2.755-1.335l-4.384-2.535c-0.003-0.002-0.006-0.004-0.01-0.006l-0.03-0.018
					l-0.001,0.003c-1.007-0.561-2.385-0.471-3.908,0.408l0,0c-3.081,1.779-5.578,6.105-5.578,9.662v48.569
					c-4.009-2.974-8.273-4.799-12.013-4.134c-3.372,0.6-6.385,3.472-7.26,5.014c-1.845,3.252,1.199,5.293,5.12,9.778
					c3.886,4.445,7.315,9.798,10.855,13.1c3.541,3.303,6.107,4.162,6.107,4.162v6.331l4.308,2.487l28.471-21.412v-6.331
					c0,0,4.068-16.216,5.367-22.994c1.251-6.527,2.401-16.931,0.252-22.334l2.326-0.158L263.521,179.301z"/>
				<g id="XMLID_2134_">
					<path id="XMLID_2135_" style="fill:#27DEBF;" d="M231.407,235.123l-21.538-12.434l-9.433-5.446
						c-1.2,2.934,1.71,4.991,5.397,9.208c3.886,4.445,7.315,9.798,10.855,13.1c3.541,3.303,6.107,4.162,6.107,4.162v6.331
						l4.308,2.487l6.29-4.73C232.579,242.42,231.407,235.123,231.407,235.123z"/>
					<polygon id="XMLID_1863_" style="fill:#27DEBF;" points="224.295,169.711 219.987,167.224 219.987,218.169 224.295,218.28 
											"/>
					<path id="XMLID_2146_" style="fill:#27DEBF;" d="M258.079,182.572l3.337-2.462c-0.072-0.219-0.14-0.444-0.221-0.649
						l1.212-0.083l-2.676-0.122l-4.474-2.464c-0.581,0.228-1.106,0.504-1.506,0.75l1.397,0.813L258.079,182.572z"/>
					<path id="XMLID_2140_" style="fill:#27DEBF;" d="M246.245,181.842l3.136-2.386l-4.322-2.614
						c-1.371,0.858-2.471,1.872-2.912,2.302l3,1.735L246.245,181.842z"/>
					<polygon id="XMLID_2446_" style="fill:#27DEBF;" points="239.708,181.611 235.434,179.11 235.452,179.07 235.452,184.483 
						240.434,182.655 					"/>
				</g>
				<g id="XMLID_2132_" style="opacity:0.15;">
					<path id="XMLID_2438_" d="M231.407,235.123l-21.538-12.434l-9.433-5.446c-1.2,2.934,1.71,4.991,5.397,9.208
						c3.886,4.445,7.315,9.798,10.855,13.1c3.541,3.303,6.107,4.162,6.107,4.162v6.331l4.308,2.487l6.29-4.73
						C232.579,242.42,231.407,235.123,231.407,235.123z"/>
					<polygon id="XMLID_2345_" points="224.295,169.711 219.987,167.224 219.987,218.169 224.295,218.28 					"/>
					<path id="XMLID_2150_" d="M258.079,182.572l3.337-2.462c-0.072-0.219-0.14-0.444-0.221-0.649l1.212-0.083l-2.676-0.122
						l-4.474-2.464c-0.581,0.228-1.106,0.504-1.506,0.75l1.397,0.813L258.079,182.572z"/>
					<path id="XMLID_2136_" d="M246.245,181.842l3.136-2.386l-4.322-2.614c-1.371,0.858-2.471,1.872-2.912,2.302l3,1.735
						L246.245,181.842z"/>
					<polygon id="XMLID_2133_" points="239.708,181.611 235.434,179.11 235.452,179.07 235.452,184.483 240.434,182.655 					"/>
				</g>
			</g>
		</g>
		<g id="XMLID_1879_">
			<path id="XMLID_2441_" style="fill:#27DEBF;" d="M227.104,252.531v-6.331c0,0-2.566-0.86-6.107-4.162s-6.969-8.656-10.855-13.1
				c-3.921-4.485-6.966-6.525-5.12-9.778c0.875-1.542,3.887-4.415,7.26-5.014c3.741-0.665,8.004,1.16,12.013,4.134v-48.569
				c0-3.558,2.497-7.883,5.578-9.662l0,0c3.081-1.779,5.578-0.337,5.578,3.221v21.214c0,0,7.687-6.827,10.793-2.64
				c0,0,7.552-7.911,10.962-1.229c0,0,5.545-4.478,8.045,0.719c2.5,5.197,1.299,16.172,0,22.949
				c-1.299,6.777-5.367,22.994-5.367,22.994v6.331L227.104,252.531z"/>
			<g id="XMLID_2437_">
				<path id="XMLID_2139_" style="fill:#455A64;" d="M235.452,193.592c0,0,0.7-9.679,4.256-11.981c-0.001,0-0.051,0.015-0.127,0.037
					c-2.264,1.181-4.129,2.835-4.129,2.835v-0.183c-0.039,0.122,0,0.183,0,0.183V193.592z"/>
				<path id="XMLID_2137_" style="fill:#455A64;" d="M246.245,181.842v8.855c0,0,0.982-9.105,3.023-11.305
					C247.53,180.5,246.253,181.835,246.245,181.842z"/>
				<path id="XMLID_2138_" style="fill:#455A64;" d="M257.207,180.613L257.207,180.613v8.887c0,0,0.541-8.953,2.469-10.274
					C258.274,179.754,257.214,180.608,257.207,180.613z"/>
			</g>
		</g>
		<g id="XMLID_2439_">
			<path id="XMLID_2436_" style="fill:#EBEBEB;" d="M225.536,151.444L225.536,151.444c-0.692,0.399-1.253,0.162-1.253-0.53v-7.027
				c0-0.692,0.561-1.577,1.253-1.976l0,0c0.692-0.4,1.253-0.162,1.253,0.529v7.027C226.789,150.16,226.228,151.045,225.536,151.444z
				"/>
			<path id="XMLID_2435_" style="fill:#EBEBEB;" d="M215.038,162.526L215.038,162.526c-0.489,0.847-1.283,1.305-1.772,1.023
				l-4.066-2.348c-0.489-0.282-0.489-1.198,0-2.046l0,0c0.489-0.847,1.283-1.305,1.772-1.023l4.066,2.347
				C215.528,160.762,215.528,161.678,215.038,162.526z"/>
			<path id="XMLID_2434_" style="fill:#EBEBEB;" d="M210.69,177.057v0.201c0,0.743-0.603,1.694-1.346,2.123l-5.563,3.212
				c-0.743,0.429-1.346,0.174-1.346-0.569v-0.201c0-0.743,0.603-1.694,1.346-2.124l5.563-3.212
				C210.088,176.059,210.69,176.314,210.69,177.057z"/>
			<path id="XMLID_1883_" style="fill:#EBEBEB;" d="M240.381,160.116v-0.201c0-0.743,0.603-1.694,1.346-2.124l5.563-3.212
				c0.743-0.429,1.346-0.174,1.346,0.569v0.201c0,0.743-0.603,1.694-1.346,2.124l-5.563,3.212
				C240.984,161.114,240.381,160.859,240.381,160.116z"/>
			<path id="XMLID_1882_" style="fill:#EBEBEB;" d="M236.033,150.404L236.033,150.404c-0.489-0.283-0.489-1.199,0-2.046l4.066-7.042
				c0.489-0.847,1.282-1.305,1.772-1.023l0,0c0.489,0.282,0.489,1.198,0,2.046l-4.066,7.042
				C237.316,150.229,236.523,150.687,236.033,150.404z"/>
		</g>
	</g>
</g>
<g id="Character_2">
	<g id="XMLID_747_">
		<g id="XMLID_787_">
			<path id="XMLID_794_" style="fill:#263238;" d="M394.223,315.216v-1.138c-0.449,1.335-2.53,7.081-5.688,9.961
				c-2.51,2.289-5.934,4.934-6.805,7.486c-0.906,2.655,4.765,3.546,7.11,3.131c2.725-0.482,6.25-2.028,8.168-4.386
				c1.349-1.657,2.208-3.622,3.172-4.925c0.963-1.303,3.184-2.759,3.705-4.267c0.286-0.829-0.054-2.644-0.456-4.177
				c-0.369-1.407-0.769-2.954-1.249-2.822c-0.001,0.172,0,0.867,0,0.867c-0.578,0.64-2.176,1.276-3.978,1.345
				C397.038,316.335,394.214,316.104,394.223,315.216z"/>
			<path id="XMLID_793_" style="fill:#FFA8A7;" d="M386.264,326.053c0.778-0.695,1.562-1.374,2.272-2.022
				c2.206-2.012,3.887-5.424,4.853-7.753c0.551-1.329,0.835-2.748,0.835-4.187v-4.535h7.957v7.382v0v0.001v0.197l-0.04,0.02
				c-0.383,1.654-4.034,6.052-6.109,8.92c-1.39,1.923-4.033,4.369-7.191,4.79C385.848,329.266,384.319,328.322,386.264,326.053z"/>
			<path id="XMLID_791_" style="fill:#263238;" d="M363.185,307.372v-1.138c-0.449,1.335-2.531,7.081-5.688,9.961
				c-2.51,2.289-5.934,4.934-6.805,7.486c-0.906,2.655,4.765,3.546,7.11,3.131c2.725-0.482,6.25-2.029,8.169-4.386
				c1.349-1.657,2.208-3.622,3.171-4.926c0.963-1.303,3.184-2.759,3.705-4.267c0.286-0.829-0.054-2.644-0.456-4.177
				c-0.369-1.407-0.769-2.954-1.249-2.822c-0.001,0.171,0,0.867,0,0.867c-0.578,0.64-2.176,1.276-3.978,1.345
				C366,308.491,363.176,308.26,363.185,307.372z"/>
			<path id="XMLID_790_" style="fill:#FFA8A7;" d="M355.225,318.209c0.779-0.695,1.562-1.374,2.272-2.022
				c2.206-2.012,3.887-5.424,4.853-7.753c0.551-1.329,0.835-2.748,0.835-4.187v-4.535h7.957v7.382v0v0.001v0.197l-0.04,0.02
				c-0.383,1.654-4.034,6.052-6.109,8.92c-1.391,1.923-4.033,4.369-7.191,4.79C354.81,321.421,353.281,320.478,355.225,318.209z"/>
			<path id="XMLID_789_" style="fill:#37474F;" d="M400.597,191.551c6.169,13.474-0.223,60.937-0.223,60.937
				c0.185,2.186,2.685,6.489,3.617,16.112c1.101,11.371-1.727,39.921-1.727,39.921s-3.684,2.409-8.042,0.32
				c0,0-7.584-42.999-9.01-54.304c-1.245-9.866-3.633-31.56-3.633-31.56l-6.789,31.507c0,0,1.742,5.527,2.15,9.738
				c0.644,6.65-5.799,37.611-5.799,37.611s-2.746,1.007-7.957,0.24c0,0-2.279-41.087-2.88-49.097
				c-1.009-13.453,2.564-55.43,5.032-63.394L400.597,191.551z"/>
			<path id="XMLID_788_" style="fill:#263238;" d="M381.58,222.975l-2.003-12.514c0,0-8.473-1.755-12.316-5.368
				c0,0,4.032,5.015,10.02,6.658l2.249,9.635l-3.932,29.173L381.58,222.975z"/>
		</g>
		<g id="XMLID_754_">
			<path id="XMLID_785_" style="fill:#FFA8A7;" d="M376.547,144.375c0,0-5.975-0.877-10.124,4.536
				c-3.186,4.157-15.373,20.027-15.373,20.027s-17.964-8.99-18.847-10.055c-0.884-1.066-0.387-3.221-0.144-4.407
				c0.244-1.186,0.645-3.82,0.909-4.561c0.462-1.292-1.45-0.943-2.576,0.264c-1.153,1.237-1.626,3.568-2.189,3.974
				c-0.561,0.406-4.835-4.51-6.91-6.882c-2.074-2.372-3.047-4.032-4.437-3.053c-1.002,0.705-0.359,2.113,1.128,4.146
				c1.487,2.032,1.704,2.251,1.921,2.692c0.178,0.364-0.371,0.655-0.588,0.849c-0.402,0.36-1.118,0.95-1.168,1.513
				c-0.027,0.307,0.029,0.624-0.056,0.921c-0.194,0.676-1.031,0.994-1.267,1.656c-0.171,0.479,0.018,1.016-0.079,1.516
				c-0.062,0.322-0.24,0.613-0.297,0.936c-0.113,0.634,0.251,1.253,0.665,1.745c1.457,1.733,3.449,2.397,5.359,3.454
				c1.588,0.879,3.228,1.264,5.056,2.076c1.829,0.813,23.051,15.524,26.408,13.67c3.357-1.853,20.699-22.026,20.699-22.026
				C379.641,149.079,376.547,144.375,376.547,144.375z"/>
			<path id="XMLID_784_" style="fill:#F5F5F5;" d="M389.716,144.742L389.716,144.742c7.909,0.544,8.464,4.364,10.443,8.541
				c1.507,3.18,1.524,6.868,0.374,10.194l-5.511,15.944c0,0,2.581,6.237,5.576,12.131c-13.831,7.72-31.101,3.662-35.26-1.971
				c-0.176-1.195,0.893-10.536,1.551-16.638c-2.436-6.111-3.079-9.984-2.051-14.023c1.908-7.498,9.314-14.803,12.591-14.537
				L389.716,144.742z"/>
			<g id="XMLID_760_">
				<g id="XMLID_781_">
					<path id="XMLID_782_" style="fill:#263238;" d="M382.113,138.187h3.069c8.928,0,16.165-7.237,16.165-16.165v0
						c0-8.976-7.276-16.253-16.253-16.253H382.2c-8.976,0-16.253,7.277-16.253,16.253l0,0
						C365.947,130.95,373.185,138.187,382.113,138.187z"/>
				</g>
				<path id="XMLID_780_" style="fill:#263238;" d="M410.003,146.707L410.003,146.707c-5.275,0-9.551-4.276-9.551-9.551v-20.451l0,0
					c5.275,0,9.551,4.276,9.551,9.551V146.707z"/>
				<path id="XMLID_779_" style="fill:#263238;" d="M402.203,113.077l-2.394,3.848c1.061,0.71,2.458,0.424,3.119-0.639
					C403.589,115.224,403.264,113.787,402.203,113.077z"/>
				<g id="XMLID_777_">
					<path id="XMLID_778_" style="fill:#FFA8A7;" d="M371.762,112.927c-1.87,1.105-4.18,5.807-3.952,15.665
						c0.193,8.355,2.901,10.418,4.261,11.013c1.36,0.595,3.982,0.233,6.532-0.192v5.014c0,0-3.523,4.093-3.302,6.392
						c0.222,2.299,5.088,2.842,8.385,0.596c3.297-2.246,5.411-5.665,5.411-5.665v-12.12c0,0,1.721,2.298,4.536,0.429
						c2.815-1.869,2.922-6.497,1.285-8.158c-1.637-1.662-5.164-1.135-5.822,1.16c0,0-4.066,0.148-9.48-2.826
						C374.202,121.261,372.122,116.167,371.762,112.927z"/>
				</g>
				<g id="XMLID_775_">
					<path id="XMLID_776_" style="fill:#263238;" d="M378.073,126.493c-0.03,0.602,0.415,1.112,0.995,1.14
						c0.58,0.027,1.074-0.438,1.104-1.04c0.03-0.602-0.415-1.112-0.995-1.14C378.598,125.426,378.103,125.891,378.073,126.493z"/>
				</g>
				<g id="XMLID_772_">
					<path id="XMLID_774_" style="fill:#F28F8F;" d="M376.857,133.576l-2.44,0.778c0.203,0.698,0.913,1.09,1.587,0.875
						C376.677,135.014,377.06,134.274,376.857,133.576z"/>
				</g>
				<g id="XMLID_770_">
					<path id="XMLID_771_" style="fill:#263238;" d="M369.459,123.267l2.126-1.473c-0.388-0.607-1.178-0.769-1.765-0.362
						C369.232,121.839,369.071,122.66,369.459,123.267z"/>
				</g>
				<g id="XMLID_768_">
					<path id="XMLID_769_" style="fill:#263238;" d="M369.949,125.734c-0.03,0.602,0.415,1.112,0.995,1.14
						c0.579,0.028,1.074-0.438,1.104-1.04c0.03-0.602-0.415-1.112-0.994-1.14C370.474,124.666,369.979,125.132,369.949,125.734z"/>
				</g>
				<g id="XMLID_765_">
					<polygon id="XMLID_766_" style="fill:#F28F8F;" points="375.08,125.132 374.913,131.457 371.585,130.426 					"/>
				</g>
				<g id="XMLID_762_">
					<path id="XMLID_764_" style="fill:#F28F8F;" d="M378.602,139.414c2.687-0.352,8.215-1.94,9.076-4.126
						c0,0-0.287,1.373-1.938,2.789c-1.651,1.415-7.138,3.01-7.138,3.01V139.414z"/>
				</g>
			</g>
			<path id="XMLID_759_" style="opacity:0.1;" d="M386.178,193.047c4.543-1.076,7.425-5.671,6.225-10.183
				c-0.046-0.171-0.093-0.318-0.141-0.435c-0.889-2.138-2.801-1.857-2.801-1.857l0,0c1.793-1.189,3.037-3.043,3.457-5.153
				l1.682-9.992c0,0,0.374-2.209-0.427-4.847l5.559-6.43c0,0,0.399,0.278,1.027,0.714c0.866,2.785,0.737,5.824-0.227,8.613
				l-5.511,15.944c0,0,2.581,6.237,5.576,12.131c-10.193,5.689-22.248,4.979-29.552,1.958
				C376.815,194.404,382.16,193.998,386.178,193.047z"/>
			<g id="XMLID_872_">
				<path id="XMLID_873_" style="fill:#FFA8A7;" d="M414.753,184.43c-7.181-29.352-12.491-39.141-21.213-39.027
					c-2.546,3.044-1.843,12.238,2.182,17.818c0,0,8.973,18.931,10.405,25.66c1.258,5.912,2.682,13.35,2.592,18.433
					c-0.016,0.9-0.387,1.756-0.997,2.418c-1.638,1.776-1.645,3.206-2.706,5.17c-0.831,1.538-1.741,2.113-1.481,2.459
					c0.333,0.445,1.385,1.025,2.694,0.199c0.658-0.415,1.086-0.903,2.041-1.958c0,0-0.26,2.381-1.619,5.445
					c-1.841,4.153-1.393,6.272,4.213,4.793c3.513-0.927,5.718-3.853,6.244-12.296c0.152-2.432,0.381-6.269,0.093-9.345
					C416.45,196.192,415.909,189.155,414.753,184.43z"/>
			</g>
		</g>
	</g>
</g>
<g id="Character_1">
	<g id="XMLID_2547_">
		<g id="XMLID_2444_">
			<path id="XMLID_2445_" style="fill:#B16668;" d="M343.512,268.341c0.769-28.566-1.521-35.412-9.126-40.645l-2.946,16.553
				c0,0,3.464,19.506,3.092,26.002c-0.327,5.707-0.882,12.847-2.232,17.461c-0.239,0.817-0.791,1.505-1.513,1.957
				c-1.937,1.211-2.718,2.455-4.176,3.982c-1.142,1.196-2.115,1.493-1.964,1.874c0.193,0.489,1.008,1.28,2.408,0.853
				c0.704-0.215,1.613-0.766,2.748-1.491c0,0-0.811,2.38-2.814,4.836c-2.715,3.329-2.835,5.374,2.648,5.422
				c3.435,0.031,6.177-2.089,8.762-9.659c0.745-2.181,1.911-5.624,2.415-8.501C342.127,279.493,343.388,272.939,343.512,268.341z"/>
		</g>
		<path id="XMLID_2545_" style="fill:#27DEBF;" d="M327.987,225.526c3.63-0.526,8.565,0.235,11.752,5.935
			c3.187,5.701,3.969,15.507,4.332,25.258c0,0-6.332,5.295-13.926,2.691L327.987,225.526z"/>
		<path id="XMLID_837_" style="opacity:0.1;" d="M327.987,225.526c3.63-0.526,8.565,0.235,11.752,5.935
			c3.187,5.701,3.969,15.507,4.332,25.258c0,0-6.332,5.295-13.926,2.691L327.987,225.526z"/>
		<g id="XMLID_2569_">
			<g id="XMLID_2623_">
				<g id="XMLID_2641_">
					<path id="XMLID_2701_" style="fill:#263238;" d="M338.667,382.641c0.576,0.218,0.722,1.316,0.809,3.499
						c0.066,1.652,0.42,4.535-1.515,5.111c-1.935,0.576-4.769,0.282-6.009-1.276c-1.548-1.943-2.594-3.654-4.803-6.025
						c-1.916-2.057-3.989-3.977-4.762-6.862c-0.699-2.607-0.117-3.738,1.662-4.496c2.446-1.042,6.288,2.363,8.204,2.899
						C333.903,375.955,338.091,382.423,338.667,382.641z"/>
				</g>
				<g id="XMLID_2640_">
					<path id="XMLID_2699_" style="fill:#B16668;" d="M338.667,380.62v2.681c0,0-2.787,2.141-6.773,0.183
						c-0.117-0.258-0.704-3.834-0.704-3.834L338.667,380.62z"/>
				</g>
				<g id="XMLID_2627_">
					<path id="XMLID_2697_" style="fill:#263238;" d="M316.96,398.088c0,0,0.769,2.331,1.184,4.37
						c0.329,1.62,0.801,4.329,0.234,5.548c-0.568,1.219-2.781,2.006-6.213,1.979c-2.223-0.017-5.686,1.492-8.058,2.816
						c-2.449,1.367-7.544,1.911-10.135,1.607c-3.053-0.358-6.216-2.129-6.71-3.394c-0.494-1.264,0.162-2.577,7.358-5.643
						c0.066-0.028,10.003-3.259,13.485-7.102L316.96,398.088z"/>
				</g>
				<g id="XMLID_2626_">
					<path id="XMLID_2681_" style="fill:#B16668;" d="M316.96,395.191c0,0-0.01,1.989,0,3.126c0.01,1.137-1.333,2.831-4.808,2.707
						c-2.441-0.087-4.145-0.743-4.048-2.754v-2.898L316.96,395.191z"/>
				</g>
				<g id="XMLID_2625_">
					<path id="XMLID_2679_" style="fill:#37474F;" d="M340.41,345.049c-1.227-8.758-3.165-13.96-3.165-13.96
						s0.957-12.044,1.416-23.464c0.496-12.335-0.026-27.84,0.208-30.917c0,0-39.802-8.053-40.512,6.206
						c-0.71,14.259,1.571,50.555,2.042,56.819c0.47,6.264,1.553,11.804,2.847,21.956c1.277,10.02,4.857,33.682,4.857,33.682
						c4.547,2.458,8.856-0.181,8.856-0.181s2.801-28.511,2.507-35.738c-0.359-8.826-2.741-15.776-2.741-15.776
						s0.755-11.757,1.421-21.984c0.666-10.227,1.372-15.139,1.527-19.587l0.857-0.424c0,0,0.873,17.643,1.343,23.907
						c0.471,6.264,1.467,12.27,3.279,23.905c1.572,10.093,6.254,31.449,6.254,31.449c4.547,2.458,7.26-0.322,7.26-0.322
						S341.638,353.807,340.41,345.049z"/>
				</g>
				<g id="XMLID_2624_">
					<path id="XMLID_2677_" style="fill:#263238;" d="M319.674,302.105c0,0,9.655-4.758,14.488-9.049c0,0-4.487,6.323-10.377,9.126
						c0,0-2.095,21.917-2.084,21.482l-1.21-21.591L319.674,302.105z"/>
				</g>
			</g>
			<g id="XMLID_2620_">
				<g id="XMLID_2621_">
					<polygon id="XMLID_2674_" style="fill:#B16668;" points="311.08,221.01 313.435,233.973 325.145,233.118 322.686,218.423 					
						"/>
				</g>
			</g>
			<g id="XMLID_2618_">
				<g id="XMLID_2619_">
					<path id="XMLID_2671_" style="fill:#27DEBF;" d="M337.511,232.171c-1.159-3.525-5.63-7.361-10.105-6.529
						c-8.22,1.527-14.741,3.159-19.595,4.893c-4.096,1.463-7.828,5.004-8.168,18.479c0,0-1.372,31.414-1.397,37.489
						c10.287,4.071,20.986,3.945,26.899,2.653c12.311-2.69,13.795-7.796,13.795-7.796s0.159-22.59-0.21-32.346
						C338.417,240.724,338.307,234.591,337.511,232.171z"/>
				</g>
			</g>
			<g id="XMLID_2615_">
				<g id="XMLID_2617_">
					<path id="XMLID_2667_" style="fill:#B16668;" d="M302.046,205.243c0,0-2.969,4.734-2.609,5.184
						c0.361,0.45,2.632,0.813,2.632,0.813L302.046,205.243z"/>
				</g>
				<g id="XMLID_2616_">
					<path id="XMLID_2665_" style="fill:#B16668;" d="M310.292,192.145c-6.192,1.453-7.926,4.228-8.29,14.124
						c-0.38,10.34,0.747,13.563,2.135,14.923c0.937,0.917,6.03,0.973,8.582,0.207c3.193-0.958,10.397-3.695,13.681-8.966
						c3.862-6.202,4.727-14.508,0.367-17.809C320.632,189.978,312.812,191.554,310.292,192.145z"/>
				</g>
				<path style="fill:#9A4A4D;" d="M311.212,221.719c2.101-1.69,1.913-2.779,1.913-2.779c-1.507,1.407-7.084,2.613-8.987,2.252
					C304.914,221.952,308.539,222.119,311.212,221.719z"/>
			</g>
			<g id="XMLID_2588_">
				<g id="XMLID_2613_">
					<g id="XMLID_2614_">
						<path id="XMLID_2662_" style="fill:#263238;" d="M302.069,194.72c1.817,3.111,5.761,4.598,5.761,4.598
							c1.187,1.353,0.533,6.628,2.623,7.465c0,0,0.897-3.839,4.125-3.432c3.249,0.41,3.779,4.528,1.796,7.082
							c-1.985,2.554-3.909,1.635-3.909,1.635s0.223,5.454,2.709,8.488c0,0,2.772,0.829,7.807-0.364
							c3.095-0.733,7.405-4.719,9.161-8.877c3.715-8.796,3.812-16.637-1.8-18.86c-0.692-3.999-3.891-5.727-7.512-6.473
							c-7.792-1.606-12.816,3.257-18.814,2.835C300.582,188.575,299.941,191.075,302.069,194.72z"/>
					</g>
				</g>
				<g id="XMLID_2591_">
					<g id="XMLID_2612_">
						<path id="XMLID_2659_" style="fill:#263238;" d="M330.469,193.796l3.673-2.278c-0.629-1.014-1.962-1.327-2.976-0.697
							C330.152,191.449,329.84,192.781,330.469,193.796z"/>
					</g>
				</g>
			</g>
		</g>
		<path id="XMLID_1769_" style="fill:#B16668;" d="M308.13,230.48c0,0-5.819,1.075-8.861,5.678
			c-3.042,4.603-16.194,21.097-16.194,21.097s-18.924-9.47-19.854-10.593c-0.931-1.123-0.407-3.393-0.151-4.642
			c0.257-1.249,0.68-4.025,0.958-4.805c0.486-1.361-1.527-0.993-2.714,0.279c-1.215,1.303-1.713,3.759-2.306,4.187
			c-0.591,0.427-5.094-4.751-7.28-7.25c-2.185-2.499-3.21-4.248-4.674-3.216c-1.055,0.743-0.378,2.226,1.189,4.368
			c1.567,2.141,1.795,2.371,2.023,2.836c0.188,0.383-0.39,0.689-0.62,0.895c-0.424,0.38-1.177,1.001-1.23,1.594
			c-0.029,0.324,0.03,0.658-0.059,0.97c-0.204,0.712-1.086,1.047-1.335,1.744c-0.18,0.505,0.018,1.071-0.083,1.597
			c-0.065,0.339-0.252,0.646-0.313,0.986c-0.119,0.667,0.264,1.32,0.701,1.839c1.535,1.826,3.634,2.525,5.646,3.638
			c1.673,0.926,3.4,1.331,5.327,2.187c1.926,0.856,24.612,17.622,28.149,15.67c3.537-1.952,21.684-23.154,21.684-23.154
			C313.4,237.654,308.13,230.48,308.13,230.48z"/>
		<path id="XMLID_1766_" style="fill:#27DEBF;" d="M310.158,229.796c-2.503,0.288-6.009-0.176-10.912,5.089
			c-4.903,5.265-11.032,14.197-11.032,14.197s1.702,8.537,10.972,10.329c0,0,8.584-8.795,10.972-13.637
			C312.545,240.931,313.105,233.064,310.158,229.796z"/>
		<path id="XMLID_836_" style="opacity:0.1;" d="M310.158,229.796c-2.503,0.288-6.009-0.176-10.912,5.089
			c-4.903,5.265-11.032,14.197-11.032,14.197s1.702,8.537,10.972,10.329c0,0,8.584-8.795,10.972-13.637
			C312.545,240.931,313.105,233.064,310.158,229.796z"/>
	</g>
</g>
</svg>
