<svg xmlns="http://www.w3.org/2000/svg" xmlns:xlink="http://www.w3.org/1999/xlink" width="400" zoomAndPan="magnify" viewBox="0 0 300 149.999998" height="200" preserveAspectRatio="xMidYMid meet" version="1.0"><defs><g/></defs><g fill="#04d9b2" fill-opacity="1"><g transform="translate(64.358858, 71.509101)"><g><path d="M 15.484375 -2.671875 C 17.429688 -2.671875 19.140625 -3.164062 20.609375 -4.15625 C 22.078125 -5.144531 23.164062 -6.476562 23.875 -8.15625 L 27.125 -8.15625 C 26.226562 -5.570312 24.734375 -3.539062 22.640625 -2.0625 C 20.421875 -0.46875 17.800781 0.328125 14.78125 0.328125 C 10.800781 0.328125 7.578125 -1.03125 5.109375 -3.75 C 2.773438 -6.351562 1.609375 -9.644531 1.609375 -13.625 C 1.609375 -17.601562 2.773438 -20.898438 5.109375 -23.515625 C 7.578125 -26.222656 10.800781 -27.578125 14.78125 -27.578125 C 17.800781 -27.578125 20.421875 -26.785156 22.640625 -25.203125 C 24.734375 -23.710938 26.226562 -21.679688 27.125 -19.109375 L 23.875 -19.109375 C 23.164062 -20.773438 22.078125 -22.101562 20.609375 -23.09375 C 19.140625 -24.082031 17.429688 -24.578125 15.484375 -24.578125 C 13.535156 -24.578125 11.914062 -24.296875 10.625 -23.734375 C 9.332031 -23.171875 8.25 -22.394531 7.375 -21.40625 C 5.582031 -19.40625 4.6875 -16.8125 4.6875 -13.625 C 4.6875 -10.445312 5.582031 -7.851562 7.375 -5.84375 C 9.238281 -3.726562 11.941406 -2.671875 15.484375 -2.671875 Z M 15.484375 -2.671875 "/></g></g></g><g fill="#04d9b2" fill-opacity="1"><g transform="translate(92.765848, 71.509101)"><g><path d="M 5.765625 0 L 2.671875 0 L 2.671875 -28.8125 L 5.765625 -28.8125 Z M 5.765625 0 "/></g></g></g><g fill="#04d9b2" fill-opacity="1"><g transform="translate(101.205609, 71.509101)"><g><path d="M 18.734375 -3.296875 C 17.085938 -0.878906 14.628906 0.328125 11.359375 0.328125 C 8.398438 0.328125 5.984375 -0.703125 4.109375 -2.765625 C 2.304688 -4.796875 1.40625 -7.304688 1.40625 -10.296875 C 1.40625 -13.285156 2.304688 -15.796875 4.109375 -17.828125 C 5.984375 -19.890625 8.46875 -20.921875 11.5625 -20.921875 C 14.664062 -20.921875 17.054688 -19.695312 18.734375 -17.25 L 18.734375 -20.578125 L 21.828125 -20.578125 L 21.828125 0 L 18.734375 0 Z M 11.78125 -2.46875 C 14 -2.46875 15.753906 -3.238281 17.046875 -4.78125 C 18.273438 -6.226562 18.890625 -8.066406 18.890625 -10.296875 C 18.890625 -12.515625 18.273438 -14.351562 17.046875 -15.8125 C 15.753906 -17.34375 14 -18.109375 11.78125 -18.109375 C 9.582031 -18.109375 7.796875 -17.34375 6.421875 -15.8125 C 5.128906 -14.351562 4.484375 -12.515625 4.484375 -10.296875 C 4.484375 -8.066406 5.128906 -6.226562 6.421875 -4.78125 C 7.796875 -3.238281 9.582031 -2.46875 11.78125 -2.46875 Z M 11.78125 -2.46875 "/></g></g></g><g fill="#04d9b2" fill-opacity="1"><g transform="translate(125.701489, 71.509101)"><g><path d="M 13.546875 -20.921875 L 13.546875 -17.828125 L 13.171875 -17.828125 C 10.953125 -17.828125 9.140625 -16.9375 7.734375 -15.15625 C 6.421875 -13.445312 5.765625 -11.414062 5.765625 -9.0625 L 5.765625 0 L 2.671875 0 L 2.671875 -20.578125 L 5.765625 -20.578125 L 5.765625 -15.515625 C 6.421875 -17.660156 7.847656 -19.238281 10.046875 -20.25 C 10.953125 -20.695312 12.050781 -20.921875 13.34375 -20.921875 Z M 13.546875 -20.921875 "/></g></g></g><g fill="#000000" fill-opacity="1"><g transform="translate(139.905795, 71.509101)"><g><path d="M 24.171875 -20.046875 C 24.171875 -17.054688 22.945312 -15.015625 20.5 -13.921875 C 22.75 -13.171875 24.285156 -11.8125 25.109375 -9.84375 C 25.410156 -9.070312 25.5625 -8.175781 25.5625 -7.15625 C 25.5625 -3.863281 23.820312 -1.671875 20.34375 -0.578125 C 19.1875 -0.191406 17.828125 0 16.265625 0 L 3.328125 0 L 3.328125 -27.25 L 15.5625 -27.25 C 18.5 -27.25 20.738281 -26.457031 22.28125 -24.875 C 23.539062 -23.601562 24.171875 -21.992188 24.171875 -20.046875 Z M 6.421875 -15.0625 L 15.5625 -15.0625 C 18.082031 -15.0625 19.769531 -15.925781 20.625 -17.65625 C 20.925781 -18.257812 21.078125 -18.910156 21.078125 -19.609375 C 21.078125 -20.316406 20.976562 -20.9375 20.78125 -21.46875 C 20.59375 -22.007812 20.296875 -22.484375 19.890625 -22.890625 C 18.984375 -23.847656 17.648438 -24.328125 15.890625 -24.328125 L 6.421875 -24.328125 Z M 16.59375 -2.921875 C 18.488281 -2.921875 19.941406 -3.3125 20.953125 -4.09375 C 21.972656 -4.875 22.484375 -5.976562 22.484375 -7.40625 C 22.484375 -8.78125 21.988281 -9.90625 21 -10.78125 C 19.894531 -11.769531 18.316406 -12.265625 16.265625 -12.265625 L 6.421875 -12.265625 L 6.421875 -2.921875 Z M 16.59375 -2.921875 "/></g></g></g><g fill="#000000" fill-opacity="1"><g transform="translate(167.160035, 71.509101)"><g><path d="M 18.734375 -3.296875 C 17.085938 -0.878906 14.628906 0.328125 11.359375 0.328125 C 8.398438 0.328125 5.984375 -0.703125 4.109375 -2.765625 C 2.304688 -4.796875 1.40625 -7.304688 1.40625 -10.296875 C 1.40625 -13.285156 2.304688 -15.796875 4.109375 -17.828125 C 5.984375 -19.890625 8.46875 -20.921875 11.5625 -20.921875 C 14.664062 -20.921875 17.054688 -19.695312 18.734375 -17.25 L 18.734375 -20.578125 L 21.828125 -20.578125 L 21.828125 0 L 18.734375 0 Z M 11.78125 -2.46875 C 14 -2.46875 15.753906 -3.238281 17.046875 -4.78125 C 18.273438 -6.226562 18.890625 -8.066406 18.890625 -10.296875 C 18.890625 -12.515625 18.273438 -14.351562 17.046875 -15.8125 C 15.753906 -17.34375 14 -18.109375 11.78125 -18.109375 C 9.582031 -18.109375 7.796875 -17.34375 6.421875 -15.8125 C 5.128906 -14.351562 4.484375 -12.515625 4.484375 -10.296875 C 4.484375 -8.066406 5.128906 -6.226562 6.421875 -4.78125 C 7.796875 -3.238281 9.582031 -2.46875 11.78125 -2.46875 Z M 11.78125 -2.46875 "/></g></g></g><g fill="#000000" fill-opacity="1"><g transform="translate(191.655915, 71.509101)"><g><path d="M 5.765625 -20.578125 L 5.765625 -17.375 C 6.503906 -18.363281 7.410156 -19.203125 8.484375 -19.890625 C 9.554688 -20.578125 10.773438 -20.921875 12.140625 -20.921875 C 13.515625 -20.921875 14.695312 -20.726562 15.6875 -20.34375 C 16.675781 -19.957031 17.539062 -19.378906 18.28125 -18.609375 C 19.976562 -16.929688 20.828125 -14.722656 20.828125 -11.984375 L 20.828125 0 L 17.75 0 L 17.75 -11.90625 C 17.75 -13.789062 17.210938 -15.296875 16.140625 -16.421875 C 15.066406 -17.546875 13.679688 -18.109375 11.984375 -18.109375 C 10.253906 -18.109375 8.785156 -17.535156 7.578125 -16.390625 C 6.367188 -15.203125 5.765625 -13.691406 5.765625 -11.859375 L 5.765625 0 L 2.671875 0 L 2.671875 -20.578125 Z M 5.765625 -20.578125 "/></g></g></g><g fill="#000000" fill-opacity="1"><g transform="translate(214.957878, 71.509101)"><g><path d="M 11.734375 -12.46875 L 20.625 0 L 16.84375 0 L 9.640625 -10.328125 L 5.765625 -6.5 L 5.765625 0 L 2.671875 0 L 2.671875 -28.8125 L 5.765625 -28.8125 L 5.765625 -10.375 L 15.6875 -20.578125 L 20.015625 -20.578125 Z M 11.734375 -12.46875 "/></g></g></g><path stroke-linecap="butt" transform="matrix(0.75, 0, 0, 0.75, 52.545359, 86.161346)" fill="none" stroke-linejoin="miter" d="M 0.00202075 2.498414 L 259.877036 2.498414 " stroke="#d4cfcf" stroke-width="5" stroke-opacity="1" stroke-miterlimit="4"/><g fill="#000000" fill-opacity="1"><g transform="translate(97.920966, 111.826285)"><g><path d="M 6.171875 -4.015625 C 6.679688 -3.898438 7.078125 -3.675781 7.359375 -3.34375 C 7.640625 -3.019531 7.78125 -2.597656 7.78125 -2.078125 C 7.78125 -1.410156 7.53125 -0.894531 7.03125 -0.53125 C 6.539062 -0.175781 5.8125 0 4.84375 0 L 1.265625 0 L 1.265625 -7.78125 L 4.625 -7.78125 C 5.488281 -7.78125 6.160156 -7.601562 6.640625 -7.25 C 7.117188 -6.90625 7.359375 -6.414062 7.359375 -5.78125 C 7.359375 -5.351562 7.253906 -4.988281 7.046875 -4.6875 C 6.835938 -4.382812 6.546875 -4.160156 6.171875 -4.015625 Z M 2.09375 -7.109375 L 2.09375 -4.28125 L 4.578125 -4.28125 C 5.203125 -4.28125 5.6875 -4.398438 6.03125 -4.640625 C 6.375 -4.878906 6.546875 -5.234375 6.546875 -5.703125 C 6.546875 -6.160156 6.375 -6.507812 6.03125 -6.75 C 5.6875 -6.988281 5.203125 -7.109375 4.578125 -7.109375 Z M 4.84375 -0.671875 C 5.539062 -0.671875 6.066406 -0.789062 6.421875 -1.03125 C 6.773438 -1.269531 6.953125 -1.640625 6.953125 -2.140625 C 6.953125 -3.117188 6.25 -3.609375 4.84375 -3.609375 L 2.09375 -3.609375 L 2.09375 -0.671875 Z M 4.84375 -0.671875 "/></g></g></g><g fill="#000000" fill-opacity="1"><g transform="translate(106.308372, 111.826285)"><g><path d="M 6.15625 -2.078125 L 1.8125 -2.078125 L 0.875 0 L 0.015625 0 L 3.578125 -7.78125 L 4.390625 -7.78125 L 7.953125 0 L 7.09375 0 Z M 5.859375 -2.75 L 3.984375 -6.9375 L 2.109375 -2.75 Z M 5.859375 -2.75 "/></g></g></g><g fill="#000000" fill-opacity="1"><g transform="translate(114.284198, 111.826285)"><g><path d="M 7.78125 -7.78125 L 7.78125 0 L 7.09375 0 L 2.09375 -6.3125 L 2.09375 0 L 1.265625 0 L 1.265625 -7.78125 L 1.953125 -7.78125 L 6.96875 -1.46875 L 6.96875 -7.78125 Z M 7.78125 -7.78125 "/></g></g></g><g fill="#000000" fill-opacity="1"><g transform="translate(123.327918, 111.826285)"><g><path d="M 3.6875 -3.65625 L 2.09375 -2.046875 L 2.09375 0 L 1.265625 0 L 1.265625 -7.78125 L 2.09375 -7.78125 L 2.09375 -3.078125 L 6.65625 -7.78125 L 7.609375 -7.78125 L 4.234375 -4.265625 L 7.84375 0 L 6.859375 0 Z M 3.6875 -3.65625 "/></g></g></g><g fill="#000000" fill-opacity="1"><g transform="translate(131.236998, 111.826285)"><g/></g></g><g fill="#000000" fill-opacity="1"><g transform="translate(134.151459, 111.826285)"><g><path d="M 3.421875 0.0625 C 2.835938 0.0625 2.28125 -0.0234375 1.75 -0.203125 C 1.21875 -0.390625 0.804688 -0.640625 0.515625 -0.953125 L 0.84375 -1.578125 C 1.125 -1.296875 1.5 -1.066406 1.96875 -0.890625 C 2.4375 -0.722656 2.921875 -0.640625 3.421875 -0.640625 C 4.117188 -0.640625 4.640625 -0.765625 4.984375 -1.015625 C 5.328125 -1.273438 5.5 -1.609375 5.5 -2.015625 C 5.5 -2.328125 5.40625 -2.570312 5.21875 -2.75 C 5.03125 -2.9375 4.796875 -3.082031 4.515625 -3.1875 C 4.242188 -3.289062 3.863281 -3.398438 3.375 -3.515625 C 2.789062 -3.660156 2.320312 -3.800781 1.96875 -3.9375 C 1.625 -4.082031 1.328125 -4.296875 1.078125 -4.578125 C 0.835938 -4.859375 0.71875 -5.238281 0.71875 -5.71875 C 0.71875 -6.113281 0.816406 -6.472656 1.015625 -6.796875 C 1.222656 -7.117188 1.539062 -7.375 1.96875 -7.5625 C 2.40625 -7.757812 2.941406 -7.859375 3.578125 -7.859375 C 4.023438 -7.859375 4.460938 -7.796875 4.890625 -7.671875 C 5.316406 -7.546875 5.6875 -7.378906 6 -7.171875 L 5.71875 -6.515625 C 5.394531 -6.722656 5.046875 -6.878906 4.671875 -6.984375 C 4.296875 -7.097656 3.929688 -7.15625 3.578125 -7.15625 C 2.898438 -7.15625 2.390625 -7.019531 2.046875 -6.75 C 1.703125 -6.488281 1.53125 -6.148438 1.53125 -5.734375 C 1.53125 -5.421875 1.625 -5.171875 1.8125 -4.984375 C 2 -4.796875 2.234375 -4.648438 2.515625 -4.546875 C 2.804688 -4.453125 3.191406 -4.347656 3.671875 -4.234375 C 4.242188 -4.085938 4.703125 -3.945312 5.046875 -3.8125 C 5.398438 -3.675781 5.695312 -3.46875 5.9375 -3.1875 C 6.1875 -2.90625 6.3125 -2.53125 6.3125 -2.0625 C 6.3125 -1.664062 6.207031 -1.304688 6 -0.984375 C 5.789062 -0.660156 5.46875 -0.40625 5.03125 -0.21875 C 4.59375 -0.03125 4.054688 0.0625 3.421875 0.0625 Z M 3.421875 0.0625 "/></g></g></g><g fill="#000000" fill-opacity="1"><g transform="translate(140.992647, 111.826285)"><g><path d="M 1.265625 -7.78125 L 2.09375 -7.78125 L 2.09375 0 L 1.265625 0 Z M 1.265625 -7.78125 "/></g></g></g><g fill="#000000" fill-opacity="1"><g transform="translate(144.352066, 111.826285)"><g><path d="M 9.359375 -7.78125 L 9.359375 0 L 8.5625 0 L 8.5625 -6.234375 L 5.5 -0.984375 L 5.125 -0.984375 L 2.0625 -6.203125 L 2.0625 0 L 1.265625 0 L 1.265625 -7.78125 L 1.953125 -7.78125 L 5.328125 -2.015625 L 8.671875 -7.78125 Z M 9.359375 -7.78125 "/></g></g></g><g fill="#000000" fill-opacity="1"><g transform="translate(154.975384, 111.826285)"><g><path d="M 4.40625 0.0625 C 3.394531 0.0625 2.609375 -0.222656 2.046875 -0.796875 C 1.484375 -1.378906 1.203125 -2.222656 1.203125 -3.328125 L 1.203125 -7.78125 L 2.03125 -7.78125 L 2.03125 -3.359375 C 2.03125 -2.453125 2.234375 -1.773438 2.640625 -1.328125 C 3.046875 -0.890625 3.632812 -0.671875 4.40625 -0.671875 C 5.1875 -0.671875 5.78125 -0.890625 6.1875 -1.328125 C 6.59375 -1.773438 6.796875 -2.453125 6.796875 -3.359375 L 6.796875 -7.78125 L 7.59375 -7.78125 L 7.59375 -3.328125 C 7.59375 -2.222656 7.3125 -1.378906 6.75 -0.796875 C 6.195312 -0.222656 5.414062 0.0625 4.40625 0.0625 Z M 4.40625 0.0625 "/></g></g></g><g fill="#000000" fill-opacity="1"><g transform="translate(163.785499, 111.826285)"><g><path d="M 1.265625 -7.78125 L 2.09375 -7.78125 L 2.09375 -0.71875 L 6.453125 -0.71875 L 6.453125 0 L 1.265625 0 Z M 1.265625 -7.78125 "/></g></g></g><g fill="#000000" fill-opacity="1"><g transform="translate(170.337468, 111.826285)"><g><path d="M 6.15625 -2.078125 L 1.8125 -2.078125 L 0.875 0 L 0.015625 0 L 3.578125 -7.78125 L 4.390625 -7.78125 L 7.953125 0 L 7.09375 0 Z M 5.859375 -2.75 L 3.984375 -6.9375 L 2.109375 -2.75 Z M 5.859375 -2.75 "/></g></g></g><g fill="#000000" fill-opacity="1"><g transform="translate(178.313294, 111.826285)"><g><path d="M 2.78125 -7.078125 L 0.046875 -7.078125 L 0.046875 -7.78125 L 6.34375 -7.78125 L 6.34375 -7.078125 L 3.609375 -7.078125 L 3.609375 0 L 2.78125 0 Z M 2.78125 -7.078125 "/></g></g></g><g fill="#000000" fill-opacity="1"><g transform="translate(184.698405, 111.826285)"><g><path d="M 4.671875 0.0625 C 3.898438 0.0625 3.203125 -0.109375 2.578125 -0.453125 C 1.953125 -0.796875 1.460938 -1.265625 1.109375 -1.859375 C 0.753906 -2.460938 0.578125 -3.140625 0.578125 -3.890625 C 0.578125 -4.640625 0.753906 -5.3125 1.109375 -5.90625 C 1.460938 -6.507812 1.953125 -6.984375 2.578125 -7.328125 C 3.203125 -7.679688 3.898438 -7.859375 4.671875 -7.859375 C 5.441406 -7.859375 6.132812 -7.6875 6.75 -7.34375 C 7.375 -7 7.863281 -6.523438 8.21875 -5.921875 C 8.570312 -5.316406 8.75 -4.640625 8.75 -3.890625 C 8.75 -3.140625 8.570312 -2.460938 8.21875 -1.859375 C 7.863281 -1.253906 7.375 -0.78125 6.75 -0.4375 C 6.132812 -0.101562 5.441406 0.0625 4.671875 0.0625 Z M 4.671875 -0.671875 C 5.285156 -0.671875 5.84375 -0.804688 6.34375 -1.078125 C 6.84375 -1.359375 7.234375 -1.742188 7.515625 -2.234375 C 7.796875 -2.734375 7.9375 -3.285156 7.9375 -3.890625 C 7.9375 -4.503906 7.796875 -5.054688 7.515625 -5.546875 C 7.234375 -6.035156 6.84375 -6.421875 6.34375 -6.703125 C 5.84375 -6.984375 5.285156 -7.125 4.671875 -7.125 C 4.054688 -7.125 3.5 -6.984375 3 -6.703125 C 2.5 -6.421875 2.101562 -6.035156 1.8125 -5.546875 C 1.53125 -5.054688 1.390625 -4.503906 1.390625 -3.890625 C 1.390625 -3.285156 1.53125 -2.734375 1.8125 -2.234375 C 2.101562 -1.742188 2.5 -1.359375 3 -1.078125 C 3.5 -0.804688 4.054688 -0.671875 4.671875 -0.671875 Z M 4.671875 -0.671875 "/></g></g></g><g fill="#000000" fill-opacity="1"><g transform="translate(194.031344, 111.826285)"><g><path d="M 6.59375 0 L 4.8125 -2.5 C 4.601562 -2.476562 4.394531 -2.46875 4.1875 -2.46875 L 2.09375 -2.46875 L 2.09375 0 L 1.265625 0 L 1.265625 -7.78125 L 4.1875 -7.78125 C 5.175781 -7.78125 5.953125 -7.539062 6.515625 -7.0625 C 7.078125 -6.59375 7.359375 -5.945312 7.359375 -5.125 C 7.359375 -4.507812 7.203125 -3.992188 6.890625 -3.578125 C 6.585938 -3.160156 6.148438 -2.859375 5.578125 -2.671875 L 7.484375 0 Z M 4.15625 -3.171875 C 4.925781 -3.171875 5.515625 -3.335938 5.921875 -3.671875 C 6.335938 -4.015625 6.546875 -4.5 6.546875 -5.125 C 6.546875 -5.75 6.335938 -6.226562 5.921875 -6.5625 C 5.515625 -6.90625 4.925781 -7.078125 4.15625 -7.078125 L 2.09375 -7.078125 L 2.09375 -3.171875 Z M 4.15625 -3.171875 "/></g></g></g></svg>