<svg width="577" height="99" viewBox="0 0 577 99" fill="none" xmlns="http://www.w3.org/2000/svg">
<path d="M47.7501 88.7889C54.3575 88.7889 60.1688 87.1171 65.1575 83.7471C70.1463 80.3903 73.8347 75.866 76.2495 70.1608H87.2884C84.2367 78.9441 79.1684 85.8434 72.0568 90.8587C64.5207 96.272 55.6179 98.9786 45.3619 98.9786C31.8419 98.9786 20.8959 94.3614 12.5106 85.1269C4.57639 76.2905 0.622559 65.1057 0.622559 51.5857C0.622559 38.079 4.57639 26.8809 12.5106 17.9915C20.8959 8.79683 31.8419 4.19287 45.3619 4.19287C55.6179 4.19287 64.5207 6.88625 72.0568 12.2597C79.1684 17.3281 84.2367 24.2274 87.2884 32.9576H76.2495C73.8347 27.3055 70.1463 22.7944 65.1575 19.4244C60.1688 16.0676 54.3575 14.3826 47.7501 14.3826C41.1294 14.3826 35.6232 15.3379 31.2448 17.2485C26.8532 19.159 23.178 21.7994 20.206 25.1561C14.116 31.9493 11.0776 40.7592 11.0776 51.5857C11.0776 62.3858 14.116 71.1957 20.206 78.0154C26.5347 85.2066 35.7161 88.7889 47.7501 88.7889Z" fill="#04D9B2"/>
<path d="M111.227 97.8639H100.719V0H111.227V97.8639Z" fill="#04D9B2"/>
<path d="M183.943 86.6664C178.344 94.8792 169.998 98.979 158.893 98.979C148.836 98.979 140.636 95.4763 134.268 88.4709C128.138 81.5716 125.086 73.0536 125.086 62.8904C125.086 52.7405 128.138 44.2092 134.268 37.3099C140.636 30.3045 149.075 26.8018 159.583 26.8018C170.118 26.8018 178.238 30.9679 183.943 39.2736V27.9693H194.451V97.8645H183.943V86.6664ZM160.326 89.4792C167.862 89.4792 173.819 86.8655 178.211 81.6246C182.377 76.7155 184.473 70.4664 184.473 62.8904C184.473 55.3542 182.377 49.1183 178.211 44.1561C173.819 38.9551 167.862 36.3546 160.326 36.3546C152.856 36.3546 146.793 38.9551 142.122 44.1561C137.731 49.1183 135.542 55.3542 135.542 62.8904C135.542 70.4664 137.731 76.7155 142.122 81.6246C146.793 86.8655 152.856 89.4792 160.326 89.4792Z" fill="#04D9B2"/>
<path d="M249.525 26.8018V37.3099H248.251C240.715 37.3099 234.559 40.335 229.783 46.3852C225.325 52.1965 223.096 59.0958 223.096 67.083V97.8645H212.587V27.9693H223.096V45.1645C225.325 37.8804 230.167 32.5202 237.637 29.0838C240.715 27.5713 244.444 26.8018 248.835 26.8018H249.525Z" fill="#04D9B2"/>
<path d="M333.859 29.7736C333.859 39.9368 329.693 46.8626 321.388 50.5776C329.03 53.1251 334.244 57.7423 337.044 64.4293C338.065 67.0563 338.583 70.0947 338.583 73.5576C338.583 84.7424 332.665 92.1857 320.857 95.9007C316.93 97.2142 312.312 97.8644 307.005 97.8644H263.062V5.30762H304.617C314.594 5.30762 322.197 8.001 327.438 13.3745C331.71 17.6998 333.859 23.1662 333.859 29.7736ZM273.57 46.7034H304.617C313.175 46.7034 318.907 43.7712 321.812 37.8935C322.834 35.8503 323.351 33.6345 323.351 31.2596C323.351 28.8581 323.006 26.7485 322.343 24.9441C321.706 23.1131 320.698 21.4944 319.318 20.1146C316.24 16.8639 311.702 15.232 305.732 15.232H273.57V46.7034ZM308.12 87.94C314.555 87.94 319.49 86.6132 322.927 83.9596C326.39 81.306 328.128 77.5645 328.128 72.7085C328.128 68.0382 326.443 64.217 323.086 61.245C319.331 57.8882 313.971 56.2032 307.005 56.2032H273.57V87.94H308.12Z" fill="black"/>
<path d="M407.961 86.6664C402.362 94.8792 394.017 98.979 382.912 98.979C372.854 98.979 364.655 95.4763 358.286 88.4709C352.157 81.5716 349.105 73.0536 349.105 62.8904C349.105 52.7405 352.157 44.2092 358.286 37.3099C364.655 30.3045 373.093 26.8018 383.601 26.8018C394.136 26.8018 402.256 30.9679 407.961 39.2736V27.9693H418.469V97.8645H407.961V86.6664ZM384.344 89.4792C391.881 89.4792 397.838 86.8655 402.23 81.6246C406.396 76.7155 408.492 70.4664 408.492 62.8904C408.492 55.3542 406.396 49.1183 402.23 44.1561C397.838 38.9551 391.881 36.3546 384.344 36.3546C376.875 36.3546 370.811 38.9551 366.141 44.1561C361.749 49.1183 359.56 55.3542 359.56 62.8904C359.56 70.4664 361.749 76.7155 366.141 81.6246C370.811 86.8655 376.875 89.4792 384.344 89.4792Z" fill="black"/>
<path d="M447.115 27.9693V38.849C449.622 35.4922 452.7 32.6396 456.349 30.3045C459.984 27.9693 464.124 26.8018 468.768 26.8018C473.438 26.8018 477.445 27.4652 480.815 28.7654C484.172 30.0789 487.104 32.0426 489.625 34.6563C495.383 40.3615 498.276 47.8579 498.276 57.1587V97.8645H487.82V57.424C487.82 51.0289 485.989 45.9075 482.354 42.0864C478.705 38.2652 473.995 36.3546 468.237 36.3546C462.359 36.3546 457.371 38.305 453.271 42.1925C449.158 46.2259 447.115 51.3606 447.115 57.5832V97.8645H436.606V27.9693H447.115Z" fill="black"/>
<path d="M546.534 55.5128L576.732 97.8639H563.889L539.423 62.7836L526.261 75.7861V97.8639H515.753V0H526.261V62.6244L559.962 27.9687H574.662L546.534 55.5128Z" fill="black"/>
</svg>
